<svg id="Layer_1" data-name="Layer 1" xmlns="http://www.w3.org/2000/svg" viewBox="0 0 120 120"><defs><style>.cls-1{fill:#84b2df;}.cls-2{fill:#fff;}</style></defs><title>Social Icons</title><path class="cls-1" d="M27.18,4.29H92.82a22.89,22.89,0,0,1,22.89,22.89V92.82a22.88,22.88,0,0,1-22.88,22.88H27.17A22.88,22.88,0,0,1,4.29,92.82V27.18A22.89,22.89,0,0,1,27.18,4.29Z"/><path class="cls-2" d="M90,34.92h10.28V18.76H84.83S75.15,18.52,69,26.55c0,0-4.2,4-4.27,15.57h0V54.24H49.48V71.39H64.7v44.32H82.26V71.39H97.37l2.11-17.15H82.26V42.12h0C82.3,40.77,82.9,34.8,90,34.92Z"/></svg>