<?xml version="1.0" encoding="UTF-8" standalone="no"?>
<svg width="22px" height="18px" viewBox="0 0 22 18" version="1.1" xmlns="http://www.w3.org/2000/svg" xmlns:xlink="http://www.w3.org/1999/xlink">
    <!-- Generator: Sketch 48.1 (47250) - http://www.bohemiancoding.com/sketch -->
    <title>twitter copy 2</title>
    <desc>Created with Sketch.</desc>
    <defs></defs>
    <g id="Page-1" stroke="none" stroke-width="1" fill="none" fill-rule="evenodd">
        <path d="M18.9701588,4.29077703 L18.9701588,4.8608078 C18.9701588,5.82813757 18.8480936,6.80063488 18.6039594,7.77832889 C18.3598253,8.75602291 18.0091027,9.70606469 17.551781,10.6284827 C17.0944593,11.5509008 16.5082023,12.4128477 15.7929925,13.2143496 C15.0777826,14.0158514 14.276622,14.7154276 13.3894867,15.3130992 C12.5023514,15.9107708 11.4794104,16.382337 10.3206329,16.7278119 C9.16185539,17.0732868 7.9394838,17.2460217 6.65348147,17.2460217 C4.04709172,17.2460217 1.82928674,16.6552684 0,15.4737442 C0.31634282,15.5221107 0.660188553,15.5462936 1.03154751,15.5462936 C1.99433001,15.5462936 2.93646732,15.3597399 3.85798771,14.986627 C4.77950809,14.6135141 5.62880705,14.112583 6.40591007,13.4838186 C5.47751266,13.4769091 4.6402483,13.1884419 3.89409187,12.6184083 C3.14793544,12.0483747 2.64076298,11.3280703 2.37255928,10.4574735 C2.66139403,10.5127495 2.9295937,10.5403871 3.17716635,10.5403871 C3.57603338,10.5403871 3.9611406,10.4885666 4.33249956,10.3849241 C3.33533198,10.1845487 2.50666376,9.6853449 1.84647005,8.88729784 C1.18627634,8.08925078 0.856184437,7.16511923 0.856184437,6.11487548 L0.856184437,6.0630545 C1.47511604,6.40161992 2.12842293,6.58126418 2.81612472,6.60199268 C2.21782417,6.20124177 1.74503628,5.68303717 1.39774688,5.04736332 C1.05045748,4.41168947 0.876815388,3.72765939 0.876815388,2.99525257 C0.876815388,2.28357423 1.07280746,1.57881597 1.46479747,0.880956637 C2.55136629,2.20758032 3.86485699,3.25953567 5.40530898,4.03685424 C6.94576097,4.8141728 8.60653586,5.25119202 10.3876835,5.347925 C10.3257903,5.07845456 10.2948442,4.74334892 10.2948442,4.34259801 C10.2948442,3.14034529 10.7160552,2.11602753 11.5584899,1.26961398 C12.4009246,0.423200427 13.4204272,0 14.6170283,0 C15.8480145,0 16.9104978,0.456020052 17.8045101,1.36807384 C18.7879237,1.16769838 19.6991148,0.815319253 20.538111,0.310925872 C20.2080142,1.36116962 19.5718996,2.16611411 18.6297481,2.72578348 C19.4893753,2.6290505 20.321482,2.39758578 21.1260931,2.03138236 C20.5484236,2.90888866 19.829786,3.66201268 18.9701588,4.29077703 Z" id="twitter-copy-2" fill="#FFFFFF"></path>
    </g>
</svg>