<?xml version="1.0" encoding="UTF-8"?>
<svg width="16px" height="19px" viewBox="0 0 16 19" version="1.1" xmlns="http://www.w3.org/2000/svg" xmlns:xlink="http://www.w3.org/1999/xlink">
    <!-- Generator: Sketch 49.3 (51167) - http://www.bohemiancoding.com/sketch -->
    <title>Search, Small, On White</title>
    <desc>Created with Sketch.</desc>
    <defs></defs>
    <g id="Page-1" stroke="none" stroke-width="1" fill="none" fill-rule="evenodd">
        <g id="Search,-Small,-On-White">
            <g id="Search-Icon">
                <polygon id="Line-3" fill="#EB0029" fill-rule="nonzero" points="3.34874292 18.0924575 0.907542503 16.3487429 4.94255501 10.6997254 7.27486541 12.595886"></polygon>
                <path d="M9,11 C11.209139,11 13,9.209139 13,7 C13,4.790861 11.209139,3 9,3 C6.790861,3 5,4.790861 5,7 C5,9.209139 6.790861,11 9,11 Z M9,14 C5.13400675,14 2,10.8659932 2,7 C2,3.13400675 5.13400675,0 9,0 C12.8659932,0 16,3.13400675 16,7 C16,10.8659932 12.8659932,14 9,14 Z" id="Oval" fill="#050505" fill-rule="nonzero"></path>
            </g>
        </g>
    </g>
</svg>