<svg id="Layer_1" data-name="Layer 1" xmlns="http://www.w3.org/2000/svg" viewBox="0 0 120 120"><defs><style>.cls-1{fill:#84b2df}.cls-2{fill:#fff}</style></defs><title>Social Icons</title><path class="cls-1" d="M27.18 4.29h65.64a22.89 22.89 0 0 1 22.89 22.89v65.64a22.88 22.88 0 0 1-22.88 22.88H27.17A22.88 22.88 0 0 1 4.29 92.82V27.18A22.89 22.89 0 0 1 27.18 4.29z"/><path class="cls-2" d="M90 34.92h10.28V18.76H84.83s-9.68-.24-15.83 7.79c0 0-4.2 4-4.27 15.57v12.12H49.48v17.15H64.7v44.32h17.56V71.39h15.11l2.11-17.15H82.26V42.12c.04-1.35.64-7.32 7.74-7.2z"/></svg>