<svg id="Layer_1" data-name="Layer 1" xmlns="http://www.w3.org/2000/svg" viewBox="0 0 120 120"><defs><style>.cls-1{fill:#84b2df}</style></defs><title>Social Icons</title><path class="cls-1" d="M46.2 93.59c30.46 0 47.12-25.24 47.12-47.12v-2.14a33.59 33.59 0 0 0 8.26-8.58 33.18 33.18 0 0 1-9.58 2.6 16.66 16.66 0 0 0 7.28-9.16 33.33 33.33 0 0 1-10.52 4 16.56 16.56 0 0 0-28.62 11.35 16.93 16.93 0 0 0 .42 3.78A47.06 47.06 0 0 1 26.43 31a16.57 16.57 0 0 0 5.13 22.11 16.43 16.43 0 0 1-7.5-2.11v.21a16.57 16.57 0 0 0 13.27 16.28 16.6 16.6 0 0 1-4.36.58 16.37 16.37 0 0 1-3.11-.31 16.58 16.58 0 0 0 15.47 11.52 33.21 33.21 0 0 1-20.57 7.09 33.58 33.58 0 0 1-3.95-.23 46.83 46.83 0 0 0 25.39 7.45"/></svg>