<?xml version="1.0" encoding="UTF-8" standalone="no"?>
<svg width="25px" height="18px" viewBox="0 0 25 18" version="1.1" xmlns="http://www.w3.org/2000/svg" xmlns:xlink="http://www.w3.org/1999/xlink">
    <!-- Generator: Sketch 48.1 (47250) - http://www.bohemiancoding.com/sketch -->
    <title>Fill 1</title>
    <desc>Created with Sketch.</desc>
    <defs></defs>
    <g id="Footer---Mobile---Tall" stroke="none" stroke-width="1" fill="none" fill-rule="evenodd" transform="translate(-121.000000, -202.000000)">
        <g id="Group-68-Copy-3" fill="#FFFFFF">
            <g id="Group-9" transform="translate(30.000000, 198.000000)">
                <path d="M101.275662,16.5444934 L101.274573,9.79454072 L107.765823,13.181268 L101.275662,16.5444934 Z M115.527629,8.62516112 C115.527629,8.62516112 115.292973,6.96968184 114.57267,6.24066844 C113.65909,5.28380432 112.635168,5.27908579 112.165583,5.22309858 C108.80381,4.98000337 103.761059,4.98000337 103.761059,4.98000337 L103.750533,4.98000337 C103.750533,4.98000337 98.7078724,4.98000337 95.3460081,5.22309858 C94.8764233,5.27908579 93.8527738,5.28380432 92.9389209,6.24066844 C92.2186187,6.96968184 91.9842346,8.62516112 91.9842346,8.62516112 C91.9842346,8.62516112 91.7440431,10.5691969 91.7440431,12.5133233 L91.7440431,14.3358568 C91.7440431,16.2798926 91.9842346,18.2240191 91.9842346,18.2240191 C91.9842346,18.2240191 92.2186187,19.8794983 92.9389209,20.6085117 C93.8527738,21.5653759 95.0531868,21.5350684 95.587833,21.6354279 C97.5098186,21.819723 103.755796,21.8767083 103.755796,21.8767083 C103.755796,21.8767083 108.80381,21.8690861 112.165583,21.6260816 C112.635168,21.5700944 113.65909,21.5653759 114.57267,20.6085117 C115.292973,19.8794983 115.527629,18.2240191 115.527629,18.2240191 C115.527629,18.2240191 115.767548,16.2798926 115.767548,14.3358568 L115.767548,12.5133233 C115.767548,10.5691969 115.527629,8.62516112 115.527629,8.62516112 Z" id="Fill-1"></path>
            </g>
        </g>
    </g>
</svg>