<svg width="19" height="19" viewBox="0 0 19 19" xmlns="http://www.w3.org/2000/svg"><title>Fill 1</title><path d="M14.325 3.233a1.12 1.12 0 1 0 0 2.242 1.12 1.12 0 0 0 0-2.242m-4.985 9.22a3.113 3.113 0 1 1 0-6.227 3.113 3.113 0 0 1 0 6.227m0-7.91a4.796 4.796 0 1 0 0 9.593 4.796 4.796 0 0 0 0-9.592m7.602 8.57c-.042.91-.194 1.405-.322 1.734-.17.436-.372.747-.698 1.074-.327.326-.638.529-1.074.698-.33.128-.824.28-1.735.322-.984.045-1.28.054-3.773.054-2.494 0-2.79-.01-3.774-.054-.911-.042-1.406-.194-1.735-.322a2.894 2.894 0 0 1-1.074-.698 2.896 2.896 0 0 1-.698-1.074c-.128-.33-.28-.824-.322-1.735-.045-.984-.054-1.28-.054-3.774 0-2.493.01-2.789.054-3.773.042-.911.194-1.406.322-1.735.17-.436.372-.747.698-1.074.327-.326.638-.529 1.074-.698.33-.128.824-.28 1.735-.322.984-.045 1.28-.054 3.774-.054 2.493 0 2.789.01 3.773.054.911.042 1.406.194 1.735.322.436.17.747.372 1.074.698.326.327.529.638.698 1.074.128.33.28.824.322 1.735.045.984.054 1.28.054 3.773 0 2.494-.01 2.79-.054 3.774m1.68-7.624c-.045-.994-.202-1.673-.433-2.267a4.578 4.578 0 0 0-1.078-1.654A4.578 4.578 0 0 0 15.457.49C14.863.26 14.184.102 13.19.056 12.194.011 11.876 0 9.34 0 6.803 0 6.485.01 5.489.056 4.495.102 3.816.26 3.222.49a4.577 4.577 0 0 0-1.654 1.078c-.52.519-.839 1.04-1.078 1.654-.23.594-.388 1.273-.434 2.267C.011 6.485 0 6.803 0 9.339c0 2.537.01 2.855.056 3.851.046.994.203 1.673.434 2.267a4.577 4.577 0 0 0 1.078 1.654c.519.52 1.04.84 1.654 1.078.594.23 1.273.388 2.267.434.996.045 1.314.056 3.85.056 2.537 0 2.855-.01 3.851-.056.994-.046 1.673-.203 2.267-.434a4.578 4.578 0 0 0 1.654-1.078c.52-.519.839-1.04 1.078-1.654.23-.594.388-1.273.434-2.267.045-.996.056-1.314.056-3.85 0-2.537-.01-2.855-.056-3.851" fill="#FFF" fill-rule="evenodd"/></svg>