<svg width="25" height="18" viewBox="0 0 25 18" xmlns="http://www.w3.org/2000/svg"><title>Fill 1</title><path d="M10.276 12.544l-.001-6.75 6.49 3.387-6.49 3.363zm14.252-7.919s-.235-1.655-.955-2.384c-.914-.957-1.938-.962-2.407-1.018C17.804.98 12.76.98 12.76.98h-.01s-5.043 0-8.405.243c-.47.056-1.493.06-2.407 1.018-.72.729-.955 2.384-.955 2.384S.744 6.57.744 8.513v1.823c0 1.944.24 3.888.24 3.888s.235 1.655.955 2.385c.914.956 2.114.926 2.649 1.026 1.922.185 8.168.242 8.168.242s5.048-.008 8.41-.25c.47-.057 1.493-.062 2.407-1.018.72-.73.955-2.385.955-2.385s.24-1.944.24-3.888V8.513c0-1.944-.24-3.888-.24-3.888z" fill="#FFF" fill-rule="evenodd"/></svg>