<?xml version="1.0" standalone="no"?>
<!DOCTYPE svg PUBLIC "-//W3C//DTD SVG 1.1//EN" "http://www.w3.org/Graphics/SVG/1.1/DTD/svg11.dtd" >
<svg xmlns="http://www.w3.org/2000/svg" xmlns:xlink="http://www.w3.org/1999/xlink" version="1.1">
<metadata>
Created by FontForge 20161003 at Thu Feb 22 09:30:39 2018
 By www-data
(c) 2010 Klim Type Foundry. All rights reserved.
</metadata>
<defs>
<font id="FoundersGroteskBoldItalic" horiz-adv-x="500" >
  <font-face 
    font-family="FoundersGroteskBoldItalic"
    font-weight="700"
    font-style="italic"
    font-stretch="normal"
    units-per-em="1000"
    panose-1="2 11 8 3 3 2 2 13 2 3"
    ascent="630"
    descent="-370"
    x-height="446"
    cap-height="630"
    bbox="-171 -218 1206 958"
    underline-thickness="40"
    underline-position="-110"
    slope="-14"
    unicode-range="U+0020-FB04"
  />
<missing-glyph horiz-adv-x="608" 
 />
    <glyph glyph-name="ff" unicode="ff" horiz-adv-x="620" 
d="M280 446h133l13 47q20 72 68.5 110.5t122.5 38.5q124 0 150 -113l-105 -33q-11 31 -38 31q-31 0 -42 -44l-9 -37h103l-28 -112h-103l-83 -334h-160l83 334h-133l-83 -334h-160l83 334h-64l28 112h64l4 18q38 168 194 168q67 0 116 -36l-54 -96q-23 15 -47 15
q-37 0 -48 -46z" />
    <glyph glyph-name="fi" unicode="fi" horiz-adv-x="561" 
d="M280 446h295l-111 -446h-162l83 334h-133l-83 -334h-160l83 334h-64l28 112h64l2 7q54 189 234 189q76 0 121 -33t61 -81l-121 -38q-9 36 -58 36q-57 0 -77 -73z" />
    <glyph glyph-name="fl" unicode="fl" horiz-adv-x="561" 
d="M459 630h162l-157 -630h-162zM280 446h86l-28 -112h-86l-83 -334h-160l83 334h-64l28 112h64l5 22q37 174 194 174q60 0 104 -27l-43 -107q-18 12 -41 12q-41 0 -53 -49z" />
    <glyph glyph-name="ffi" unicode="ffi" horiz-adv-x="854" 
d="M413 446l2 7q54 189 234 189q76 0 121 -33t61 -81l-121 -38q-9 36 -58 36q-57 0 -77 -73l-2 -7h295l-111 -446h-162l83 334h-133l-83 -334h-160l83 334h-133l-83 -334h-160l83 334h-64l28 112h64l4 18q38 168 194 168q67 0 116 -36l-54 -96q-23 15 -47 15q-37 0 -48 -46
l-5 -23h133z" />
    <glyph glyph-name="ffl" unicode="ffl" horiz-adv-x="854" 
d="M752 630h162l-157 -630h-162zM385 334h-133l-83 -334h-160l83 334h-64l28 112h64l4 18q38 168 194 168q67 0 116 -36l-54 -96q-23 15 -47 15q-37 0 -48 -46l-5 -23h133l5 22q37 174 194 174q60 0 104 -27l-43 -107q-18 12 -41 12q-41 0 -53 -49l-6 -25h86l-28 -112h-86
l-83 -334h-160z" />
    <glyph glyph-name="f_b" unicode="fb" horiz-adv-x="885" 
d="M280 446h86l-28 -112h-86l-83 -334h-160l83 334h-64l28 112h64l5 22q37 174 194 174q60 0 104 -27l-43 -107q-18 12 -41 12q-41 0 -53 -49zM523 242l-5 -16q-15 -49 4.5 -82.5t61.5 -33.5q50 0 81.5 42t31.5 104q0 77 -72 77q-38 0 -64.5 -25t-37.5 -66zM478 75l-47 -75
h-129l157 630h162l-65 -257q53 85 149 85q79 0 120.5 -48t41.5 -129q0 -121 -68.5 -207t-178.5 -86q-53 0 -91 23t-51 64z" />
    <glyph glyph-name="f_f_b" unicode="ffb" horiz-adv-x="1178" 
d="M385 334h-133l-83 -334h-160l83 334h-64l28 112h64l4 18q38 168 194 168q67 0 116 -36l-54 -96q-23 15 -47 15q-37 0 -48 -46l-5 -23h133l5 22q37 174 194 174q60 0 104 -27l-43 -107q-18 12 -41 12q-41 0 -53 -49l-6 -25h86l-28 -112h-86l-83 -334h-160zM816 242l-5 -16
q-15 -49 4.5 -82.5t61.5 -33.5q50 0 81.5 42t31.5 104q0 77 -72 77q-38 0 -64.5 -25t-37.5 -66zM771 75l-47 -75h-129l157 630h162l-65 -257q53 85 149 85q79 0 120.5 -48t41.5 -129q0 -121 -68.5 -207t-178.5 -86q-53 0 -91 23t-51 64z" />
    <glyph glyph-name="f_h" unicode="fh" horiz-adv-x="863" 
d="M280 446h86l-28 -112h-86l-83 -334h-160l83 334h-64l28 112h64l5 22q37 174 194 174q60 0 104 -27l-43 -107q-18 12 -41 12q-41 0 -53 -49zM518 219l-54 -219h-162l157 630h162l-63 -252q59 80 150 80q82 0 114.5 -55t13.5 -132l-67 -271h-162l59 237q23 93 -48 93
q-72 0 -100 -111z" />
    <glyph glyph-name="f_f_h" unicode="ffh" horiz-adv-x="1156" 
d="M385 334h-133l-83 -334h-160l83 334h-64l28 112h64l4 18q38 168 194 168q67 0 116 -36l-54 -96q-23 15 -47 15q-37 0 -48 -46l-5 -23h133l5 22q37 174 194 174q60 0 104 -27l-43 -107q-18 12 -41 12q-41 0 -53 -49l-6 -25h86l-28 -112h-86l-83 -334h-160zM811 219
l-54 -219h-162l157 630h162l-63 -252q59 80 150 80q82 0 114.5 -55t13.5 -132l-67 -271h-162l59 237q23 93 -48 93q-72 0 -100 -111z" />
    <glyph glyph-name="f_idieresis" unicode="f&#xef;" horiz-adv-x="561" 
d="M385 334h-133l-83 -334h-160l83 334h-64l28 112h64l2 7q54 189 234 189q119 0 157 -116l-118 -36q-9 36 -45 36q-47 0 -68 -73l-2 -7h295l-111 -446h-162zM524 488l36 142h142l-36 -142h-142z" />
    <glyph glyph-name="f_f_idieresis" unicode="ff&#xef;" horiz-adv-x="854" 
d="M385 334h-133l-83 -334h-160l83 334h-64l28 112h64l4 18q38 168 194 168q67 0 116 -36l-54 -96q-23 15 -47 15q-37 0 -48 -46l-5 -23h133l2 7q54 189 234 189q119 0 157 -116l-118 -36q-9 36 -45 36q-47 0 -68 -73l-2 -7h295l-111 -446h-162l83 334h-133l-83 -334h-160z
M817 488l36 142h142l-36 -142h-142z" />
    <glyph glyph-name="f_j" unicode="fj" horiz-adv-x="561" 
d="M300 -7l85 341h-133l-83 -334h-160l83 334h-64l28 112h64l2 7q54 189 234 189q76 0 121 -33t61 -81l-121 -38q-9 36 -58 36q-57 0 -77 -73l-2 -7h295l-115 -461q-21 -83 -66.5 -120t-124.5 -37q-38 0 -74 11.5t-55 29.5l47 92q31 -22 57 -22q42 0 56 54z" />
    <glyph glyph-name="f_f_j" unicode="ffj" horiz-adv-x="854" 
d="M593 -7l85 341h-133l-83 -334h-160l83 334h-133l-83 -334h-160l83 334h-64l28 112h64l4 18q38 168 194 168q67 0 116 -36l-54 -96q-23 15 -47 15q-37 0 -48 -46l-5 -23h133l2 7q54 189 234 189q76 0 121 -33t61 -81l-121 -38q-9 36 -58 36q-57 0 -77 -73l-2 -7h295
l-115 -461q-21 -83 -66.5 -120t-124.5 -37q-38 0 -74 11.5t-55 29.5l47 92q31 -22 57 -22q42 0 56 54z" />
    <glyph glyph-name="f_k" unicode="fk" horiz-adv-x="854" 
d="M280 446h86l-28 -112h-86l-83 -334h-160l83 334h-64l28 112h64l5 22q37 174 194 174q60 0 104 -27l-43 -107q-18 12 -41 12q-41 0 -53 -49zM499 141l-35 -141h-162l157 630h162l-83 -330l174 146h201l-230 -181l126 -265h-172l-85 185z" />
    <glyph glyph-name="f_f_k" unicode="ffk" horiz-adv-x="1147" 
d="M385 334h-133l-83 -334h-160l83 334h-64l28 112h64l4 18q38 168 194 168q67 0 116 -36l-54 -96q-23 15 -47 15q-37 0 -48 -46l-5 -23h133l5 22q37 174 194 174q60 0 104 -27l-43 -107q-18 12 -41 12q-41 0 -53 -49l-6 -25h86l-28 -112h-86l-83 -334h-160zM792 141
l-35 -141h-162l157 630h162l-83 -330l174 146h201l-230 -181l126 -265h-172l-85 185z" />
    <glyph glyph-name=".notdef" horiz-adv-x="608" 
 />
    <glyph glyph-name=".null" horiz-adv-x="0" 
 />
    <glyph glyph-name="nonmarkingreturn" horiz-adv-x="333" 
 />
    <glyph glyph-name="space" unicode=" " horiz-adv-x="180" 
 />
    <glyph glyph-name="exclam" unicode="!" horiz-adv-x="232" 
d="M-20 0l42 172h172l-42 -172h-172zM137 630h172l-41 -162l-98 -258h-104l30 258z" />
    <glyph glyph-name="quotedbl" unicode="&#x22;" horiz-adv-x="367" 
d="M65 370l67 260h129l-67 -260h-129zM243 370l67 260h129l-67 -260h-129z" />
    <glyph glyph-name="numbersign" unicode="#" horiz-adv-x="628" 
d="M578 266l-35 -100h-98l-61 -166h-121l61 166h-86l-61 -166h-121l61 166h-87l33 100h91l37 98h-96l35 100h98l62 166h121l-62 -166h86l62 166h121l-62 -166h89l-35 -100h-91l-37 -98h96zM312 364l-37 -98h86l37 98h-86z" />
    <glyph glyph-name="dollar" unicode="$" horiz-adv-x="606" 
d="M25 245l150 -5q-13 -83 71 -116l32 127l-46 13q-142 36 -142 162q0 99 73.5 157.5t194.5 58.5h17l19 75h80l-22 -87q84 -23 130.5 -84.5t39.5 -153.5l-148 6q3 30 -11 58t-43 45l-30 -123l19 -5q84 -24 127 -65t43 -106q0 -106 -78.5 -160t-193.5 -54h-14l-22 -88h-80
l24 98q-100 22 -150 88t-40 159zM410 176q0 37 -57 55l-29 -118q86 3 86 63zM260 456q0 -36 55 -56l29 119q-84 -2 -84 -63z" />
    <glyph glyph-name="percent" unicode="%" horiz-adv-x="830" 
d="M182 433q0 -53 49 -53q28 0 49 30.5t21 89.5q0 53 -49 53q-28 0 -49 -30.5t-21 -89.5zM72 433q0 94 58 151.5t131 57.5q65 0 107.5 -39t42.5 -103q0 -94 -58 -151.5t-131 -57.5q-65 0 -107.5 39t-42.5 103zM753 630l-489 -630h-125l489 630h125zM710 197q0 53 -49 53
q-28 0 -49 -30.5t-21 -89.5q0 -53 49 -53q28 0 49 30.5t21 89.5zM820 197q0 -94 -58 -151.5t-131 -57.5q-65 0 -107.5 39t-42.5 103q0 94 58 151.5t131 57.5q65 0 107.5 -39t42.5 -103z" />
    <glyph glyph-name="ampersand" unicode="&#x26;" horiz-adv-x="678" 
d="M517 328l146 -6q-61 -107 -138 -183q23 -30 59 -30q20 0 54 7l-24 -98q-39 -26 -108 -26q-55 0 -106 51q-97 -55 -199 -55q-86 0 -139 42t-53 115q0 67 40.5 115t125.5 84q-28 45 -28 98q0 92 67 146t164 54q91 0 134.5 -39.5t43.5 -99.5q0 -69 -42 -114t-123 -79l62 -78
q29 37 64 96zM240 112q47 0 90 20l-91 123q-65 -31 -65 -79q0 -29 18.5 -46.5t47.5 -17.5zM301 462q0 -31 24 -67q46 18 66.5 38.5t20.5 52.5q0 17 -11 29.5t-35 12.5q-28 0 -46.5 -18t-18.5 -48z" />
    <glyph glyph-name="quotesingle" unicode="'" horiz-adv-x="199" 
d="M65 370l67 260h139l-67 -260h-139z" />
    <glyph glyph-name="parenleft" unicode="(" horiz-adv-x="345" 
d="M51 162q0 143 57.5 264t187.5 234h154q-130 -115 -189 -244t-59 -254q0 -145 63 -246h-138q-76 110 -76 246z" />
    <glyph glyph-name="parenright" unicode=")" horiz-adv-x="345" 
d="M327 414q0 -143 -57.5 -264t-187.5 -234h-154q130 115 189 244t59 254q0 145 -63 246h138q76 -110 76 -246z" />
    <glyph glyph-name="asterisk" unicode="*" horiz-adv-x="378" 
d="M72 514l53 84l88 -57l27 101l95 -24l-27 -101l104 6l7 -98l-104 -7l38 -96l-91 -37l-39 97l-80 -66l-63 75l80 67z" />
    <glyph glyph-name="plus" unicode="+" horiz-adv-x="612" 
d="M331 574h134l-49 -196h197l-34 -135h-197l-48 -196h-134l48 196h-196l34 135h196z" />
    <glyph glyph-name="comma" unicode="," horiz-adv-x="232" 
d="M-23 0l42 172h172l-40 -161q-35 -145 -208 -150l18 78q76 2 91 61h-75z" />
    <glyph glyph-name="hyphen" unicode="-" horiz-adv-x="360" 
d="M36 186l35 141h268l-35 -141h-268z" />
    <glyph glyph-name="period" unicode="." horiz-adv-x="232" 
d="M-23 0l42 172h172l-42 -172h-172z" />
    <glyph glyph-name="slash" unicode="/" horiz-adv-x="396" 
d="M-85 -83l444 742h157l-445 -742h-156z" />
    <glyph glyph-name="zero" unicode="0" horiz-adv-x="618" 
d="M304 125q96 0 136 181q11 48 11 91q0 108 -86 108q-96 0 -136 -181q-11 -48 -11 -91q0 -108 86 -108zM299 -12q-122 0 -189.5 68.5t-67.5 185.5q0 47 10 96q29 143 115 223.5t203 80.5q122 0 189.5 -68.5t67.5 -185.5q0 -47 -10 -96q-29 -143 -115 -223.5t-203 -80.5z
" />
    <glyph glyph-name="one" unicode="1" horiz-adv-x="355" 
d="M63 422l28 112q65 0 107 23t72 73h133l-157 -630h-170l105 422h-118z" />
    <glyph glyph-name="two" unicode="2" horiz-adv-x="525" 
d="M266 141h233l-35 -141h-488l30 122l210 142q88 60 125.5 97.5t37.5 76.5q0 60 -62 60q-42 0 -63.5 -37t-21.5 -93l-167 8q2 121 74 193.5t197 72.5q102 0 159.5 -52t57.5 -132q0 -46 -12.5 -82t-42.5 -67.5t-58 -52.5t-81 -55z" />
    <glyph glyph-name="three" unicode="3" horiz-adv-x="542" 
d="M347 201q0 52 -67 52q-29 0 -47 -2l30 121q21 -3 48 -3q39 0 63.5 19.5t24.5 58.5q0 25 -16.5 41.5t-47.5 16.5q-77 0 -100 -100l-164 7q21 104 95 167t187 63q103 0 158.5 -47.5t55.5 -119.5q0 -69 -40 -108.5t-102 -52.5q45 -13 69.5 -44.5t24.5 -74.5q0 -99 -76 -153
t-181 -54q-133 0 -194 64.5t-44 168.5l161 -5q-8 -44 13 -68t61 -24q38 0 63 19t25 58z" />
    <glyph glyph-name="four" unicode="4" horiz-adv-x="588" 
d="M602 630l-89 -354h81l-35 -143h-81l-33 -133h-167l33 133h-307l39 166l344 331h215zM398 482l-215 -206h163z" />
    <glyph glyph-name="five" unicode="5" horiz-adv-x="529" 
d="M569 630l-37 -148h-272q-22 -65 -29 -81q43 28 105 28q87 0 135 -52.5t48 -132.5q0 -113 -73.5 -184.5t-192.5 -71.5q-123 0 -185 66t-41 167l156 -11q-5 -40 18 -62.5t62 -22.5q41 0 68.5 27t27.5 72q0 34 -19 56t-55 22q-52 0 -80 -40l-159 12q80 191 126 356h397z" />
    <glyph glyph-name="six" unicode="6" horiz-adv-x="558" 
d="M361 507q-56 0 -96.5 -41.5t-58.5 -119.5q55 64 156 64q90 0 139 -49.5t49 -123.5q0 -113 -80 -181t-186 -68q-112 0 -177 65t-65 176q0 115 38 207.5t114.5 149t178.5 56.5q109 0 162.5 -54t53.5 -143l-155 -5q0 67 -73 67zM390 217q0 32 -21.5 50t-57.5 18
q-41 0 -70.5 -26t-29.5 -70q0 -32 21.5 -50t57.5 -18q41 0 70.5 26t29.5 70z" />
    <glyph glyph-name="seven" unicode="7" horiz-adv-x="511" 
d="M363 478h-287l38 152h481l-34 -134q-60 -47 -105 -96.5t-72.5 -90.5t-51 -98.5t-35.5 -98.5t-30 -112h-186q43 162 104 270t178 208z" />
    <glyph glyph-name="eight" unicode="8" horiz-adv-x="559" 
d="M275 115q42 0 70 22.5t28 62.5q0 29 -21.5 47.5t-61.5 18.5q-42 0 -70 -22.5t-28 -62.5q0 -29 21.5 -47.5t61.5 -18.5zM275 -12q-124 0 -187 52t-63 126q0 66 39 111t106 58q-71 37 -71 111q0 91 72.5 143.5t174.5 52.5q113 0 174.5 -43.5t61.5 -119.5q0 -119 -129 -163
q39 -16 62.5 -49.5t23.5 -81.5q0 -93 -75.5 -145t-188.5 -52zM332 382q37 0 62 21t25 57q0 27 -20 42.5t-50 15.5q-37 0 -62 -21t-25 -57q0 -27 20 -42.5t50 -15.5z" />
    <glyph glyph-name="nine" unicode="9" horiz-adv-x="558" 
d="M243 123q56 0 96.5 41.5t58.5 119.5q-55 -64 -156 -64q-90 0 -139 49.5t-49 123.5q0 113 80 181t186 68q112 0 177 -65t65 -176q0 -115 -38 -207.5t-114.5 -149t-178.5 -56.5q-109 0 -162.5 54t-53.5 143l155 5q0 -67 73 -67zM214 413q0 -32 21.5 -50t57.5 -18
q41 0 70.5 26t29.5 70q0 32 -21.5 50t-57.5 18q-41 0 -70.5 -26t-29.5 -70z" />
    <glyph glyph-name="colon" unicode=":" horiz-adv-x="232" 
d="M-23 0l42 172h172l-42 -172h-172zM44 266l42 172h172l-42 -172h-172z" />
    <glyph glyph-name="semicolon" unicode=";" horiz-adv-x="232" 
d="M-23 0l42 172h172l-40 -161q-35 -145 -208 -150l18 78q76 2 91 61h-75zM43 266l42 172h172l-42 -172h-172z" />
    <glyph glyph-name="less" unicode="&#x3c;" horiz-adv-x="473" 
d="M34 216l45 184l445 170l-40 -162l-306 -108l253 -108l-37 -146z" />
    <glyph glyph-name="equal" unicode="=" horiz-adv-x="634" 
d="M38 144l31 122h527l-31 -122h-527zM92 360l30 122h528l-31 -122h-527z" />
    <glyph glyph-name="greater" unicode="&#x3e;" horiz-adv-x="473" 
d="M491 400l-46 -184l-444 -170l39 162l306 108l-252 108l37 146z" />
    <glyph glyph-name="question" unicode="?" horiz-adv-x="518" 
d="M343 210h-157q23 78 98 128q5 4 20 13t20.5 13.5t17 13t16.5 15t11 16t8.5 20t2.5 22.5q0 21 -14.5 34t-42.5 13q-46 0 -71.5 -38t-25.5 -92l-165 5q6 129 85.5 199t204.5 70q103 0 153.5 -49t51.5 -118q0 -36 -12 -66.5t-36.5 -55t-44.5 -40t-52 -35.5q-58 -37 -68 -68z
M126 0l42 172h172l-42 -172h-172z" />
    <glyph glyph-name="at" unicode="@" horiz-adv-x="778" 
d="M564 111q45 0 72.5 51t27.5 132q0 86 -55 136.5t-159 50.5q-147 0 -239.5 -87t-92.5 -239q0 -101 67 -158.5t181 -57.5q109 0 209 47l19 -72q-101 -57 -235 -57q-151 0 -244.5 80.5t-93.5 217.5q0 181 122 296.5t307 115.5q146 0 227 -77.5t81 -195.5q0 -122 -67 -191
t-158 -69q-85 0 -110 64q-39 -64 -121 -64q-51 0 -84 39.5t-32 101.5q2 91 56 154t132 63q33 0 57.5 -15t34.5 -39l15 46h125l-65 -224q-14 -49 23 -49zM423 205l5 19q10 30 3.5 54.5t-32.5 24.5q-32 0 -55 -37.5t-23 -82.5q0 -55 37 -55q49 0 65 77z" />
    <glyph glyph-name="A" unicode="A" horiz-adv-x="692" 
d="M352 630h190l97 -630h-174l-17 122h-247l-76 -122h-178zM399 440l-119 -191h150l-27 191h-4z" />
    <glyph glyph-name="B" unicode="B" horiz-adv-x="633" 
d="M320 0h-325l157 630h296q97 0 147 -38.5t50 -110.5q0 -65 -42 -107t-102 -51q45 -10 72 -42.5t27 -81.5q0 -97 -80.5 -148t-199.5 -51zM361 253h-138l-30 -117h130q105 0 105 72q0 45 -67 45zM283 495l-29 -115h111q105 0 105 66q0 23 -16.5 36t-45.5 13h-125z" />
    <glyph glyph-name="C" unicode="C" horiz-adv-x="672" 
d="M45 265q0 161 104.5 269t265.5 108q136 0 204 -78.5t62 -201.5l-158 -6q-1 59 -31 97t-98 38q-80 0 -127 -64.5t-47 -149.5q0 -64 34 -101t94 -37q68 0 108.5 38t55.5 97l160 -7q-25 -124 -114.5 -201.5t-228.5 -77.5q-127 0 -205.5 76t-78.5 201z" />
    <glyph glyph-name="D" unicode="D" horiz-adv-x="658" 
d="M198 134h66q105 0 166.5 60t61.5 170q0 62 -38 97t-111 35h-55zM-5 0l157 630h225q126 0 206.5 -69.5t80.5 -196.5q0 -167 -114.5 -265.5t-297.5 -98.5h-257z" />
    <glyph glyph-name="E" unicode="E" horiz-adv-x="572" 
d="M525 140l-34 -140h-496l157 630h487l-35 -140h-320l-26 -103h247l-34 -138h-247l-28 -109h329z" />
    <glyph glyph-name="F" unicode="F" horiz-adv-x="549" 
d="M165 0h-170l157 630h476l-35 -140h-306l-30 -121h230l-35 -138h-230z" />
    <glyph glyph-name="G" unicode="G" horiz-adv-x="705" 
d="M686 383l-164 -7q-4 51 -35 83t-93 32q-80 0 -127 -64t-47 -153q0 -67 34 -103.5t94 -36.5q97 0 151 71h-139l31 122h299l-81 -327h-141l16 66q-61 -78 -176 -78q-119 0 -191 76t-72 197q0 164 104 272.5t266 108.5q131 0 199.5 -72.5t71.5 -186.5z" />
    <glyph glyph-name="H" unicode="H" horiz-adv-x="687" 
d="M165 0h-170l157 630h170l-61 -243h251l61 243h170l-157 -630h-170l62 249h-251z" />
    <glyph glyph-name="I" unicode="I" horiz-adv-x="266" 
d="M152 630h170l-157 -630h-170z" />
    <glyph glyph-name="J" unicode="J" horiz-adv-x="563" 
d="M458 630h170l-100 -401q-61 -241 -296 -241q-122 0 -181.5 75t-32.5 198l165 6q-12 -67 3.5 -101t62.5 -34q46 0 71.5 26.5t40.5 85.5z" />
    <glyph glyph-name="K" unicode="K" horiz-adv-x="641" 
d="M598 0h-189l-125 252l-72 -61l-47 -191h-170l157 630h170l-63 -247l279 247h205l-321 -283z" />
    <glyph glyph-name="L" unicode="L" horiz-adv-x="555" 
d="M152 630h170l-123 -490h312l-34 -140h-482z" />
    <glyph glyph-name="M" unicode="M" horiz-adv-x="801" 
d="M413 0h-145l-1 450h-4l-112 -450h-156l157 630h255l-6 -396h3l188 396h265l-157 -630h-170l112 450h-4z" />
    <glyph glyph-name="N" unicode="N" horiz-adv-x="660" 
d="M314 630l155 -365l91 365h156l-157 -630h-136l-176 389l-96 -389h-156l157 630h162z" />
    <glyph glyph-name="O" unicode="O" horiz-adv-x="694" 
d="M401 642q137 0 218 -75t81 -207q0 -160 -105 -266t-251 -106q-137 0 -218 74.5t-81 207.5q0 160 105 266t251 106zM348 138q76 0 126.5 62.5t50.5 159.5q0 62 -33.5 97t-94.5 35q-76 0 -126.5 -62.5t-50.5 -159.5q0 -62 33.5 -97t94.5 -35z" />
    <glyph glyph-name="P" unicode="P" horiz-adv-x="593" 
d="M247 333h90q128 0 128 91q0 38 -20.5 54t-67.5 16h-90zM213 197l-49 -197h-169l157 630h262q104 0 162 -53.5t58 -137.5q0 -119 -83 -180.5t-224 -61.5h-114z" />
    <glyph glyph-name="Q" unicode="Q" horiz-adv-x="694" 
d="M401 642q137 0 218 -75t81 -207q0 -166 -120 -278l43 -59l-103 -67l-43 59q-67 -27 -133 -27q-137 0 -218 74.5t-81 207.5q0 160 105 266t251 106zM348 138q23 0 40 4l-44 62l101 69l43 -61q37 59 37 143q0 65 -33.5 101t-94.5 36q-76 0 -126.5 -62.5t-50.5 -159.5
q0 -62 33.5 -97t94.5 -35z" />
    <glyph glyph-name="R" unicode="R" horiz-adv-x="637" 
d="M566 0h-172q-6 10 -6 35q0 11 6.5 55t6.5 62q0 33 -18 45t-56 12h-113l-52 -209h-167l157 630h291q106 0 164 -43t58 -129q0 -80 -54.5 -131t-125.5 -57q86 -18 86 -97q0 -19 -7.5 -68t-7.5 -66q0 -25 10 -39zM246 340h115q130 0 130 92q0 62 -91 62h-115z" />
    <glyph glyph-name="S" unicode="S" horiz-adv-x="609" 
d="M22 245l157 -5q-9 -58 29 -89t103 -31q90 0 90 57q0 38 -62 54l-110 28q-142 36 -142 163q0 100 73.5 160t194.5 60q124 0 200 -66t64 -184l-159 6q5 47 -25 79t-90 32q-80 0 -80 -56q0 -34 58 -52l83 -24q170 -49 170 -173q0 -72 -39.5 -122.5t-99.5 -72t-133 -21.5
q-142 0 -217.5 71.5t-64.5 185.5z" />
    <glyph glyph-name="T" unicode="T" horiz-adv-x="654" 
d="M355 0h-169l122 490h-216l35 140h604l-35 -140h-219z" />
    <glyph glyph-name="U" unicode="U" horiz-adv-x="660" 
d="M299 -12q-134 0 -202.5 81.5t-34.5 216.5l86 344h169l-88 -352q-17 -69 6.5 -108t79.5 -39q61 0 95 36t53 111l88 352h170l-95 -380q-34 -137 -113.5 -199.5t-213.5 -62.5z" />
    <glyph glyph-name="V" unicode="V" horiz-adv-x="663" 
d="M360 0h-179l-81 630h170l47 -419h4l265 419h177z" />
    <glyph glyph-name="W" unicode="W" horiz-adv-x="903" 
d="M627 630l1 -395h4l203 395h168l-326 -630h-181l-2 398h-4l-208 -398h-178l-4 630h166l-3 -395h4l207 395h153z" />
    <glyph glyph-name="X" unicode="X" horiz-adv-x="676" 
d="M569 630h191l-308 -310l169 -320h-181l-107 204l-197 -204h-191l324 326l-160 304h181l97 -188z" />
    <glyph glyph-name="Y" unicode="Y" horiz-adv-x="649" 
d="M360 395l200 235h189l-340 -391l-59 -239h-165l59 239l-144 391h174z" />
    <glyph glyph-name="Z" unicode="Z" horiz-adv-x="594" 
d="M235 140h310l-34 -140h-534l32 129l390 361h-297l35 140h523l-33 -132z" />
    <glyph glyph-name="bracketleft" unicode="[" horiz-adv-x="324" 
d="M297 549l-130 -522h90l-27 -111h-233l184 744h234l-28 -111h-90z" />
    <glyph glyph-name="backslash" unicode="\" horiz-adv-x="379" 
d="M235 659l113 -742h-137l-113 742h137z" />
    <glyph glyph-name="bracketright" unicode="]" horiz-adv-x="324" 
d="M68 27l130 522h-90l27 111h233l-184 -744h-234l28 111h90z" />
    <glyph glyph-name="asciicircum" unicode="^" horiz-adv-x="408" 
d="M218 630h172l55 -210h-140l-22 109l-76 -109h-150z" />
    <glyph glyph-name="underscore" unicode="_" horiz-adv-x="381" 
d="M-60 -151l30 123h341l-31 -123h-340z" />
    <glyph glyph-name="grave" unicode="`" 
d="M422 488h-111l-61 142h154z" />
    <glyph glyph-name="a" unicode="a" horiz-adv-x="527" 
d="M297 183l1 5l-79 -10q-59 -8 -59 -49q0 -35 41 -35q32 0 60 24t36 65zM474 267l-34 -136q-9 -33 19 -33q17 0 38 7l-22 -86q-49 -29 -97 -29q-43 0 -69 20.5t-29 56.5q-45 -77 -149 -77q-63 0 -97 31t-34 83q0 128 182 148l136 14l3 13q14 59 -43 59q-49 0 -72 -50
l-152 10q27 75 90.5 117.5t160.5 42.5q93 0 142 -50.5t27 -140.5z" />
    <glyph glyph-name="b" unicode="b" horiz-adv-x="574" 
d="M212 242l-5 -16q-15 -49 4.5 -82.5t61.5 -33.5q50 0 81.5 42t31.5 104q0 77 -72 77q-38 0 -64.5 -25t-37.5 -66zM167 75l-47 -75h-129l157 630h162l-65 -257q53 85 149 85q79 0 120.5 -48t41.5 -129q0 -121 -68.5 -207t-178.5 -86q-53 0 -91 23t-51 64z" />
    <glyph glyph-name="c" unicode="c" 
d="M17 187q0 115 79 193t194 78q99 0 150.5 -55t46.5 -139l-134 -9q-3 81 -66 81q-49 0 -78.5 -45t-29.5 -104q0 -38 19 -57.5t50 -19.5q70 0 97 82l131 -10q-20 -85 -84 -139.5t-160 -54.5q-97 0 -156 55t-59 144z" />
    <glyph glyph-name="d" unicode="d" horiz-adv-x="569" 
d="M362 204l5 16q15 49 -4.5 82.5t-61.5 33.5q-50 0 -81.5 -42t-31.5 -104q0 -77 72 -77q38 0 64.5 25t37.5 66zM404 376l63 254h162l-157 -630h-162l19 73q-53 -85 -149 -85q-79 0 -120.5 48t-41.5 129q0 121 68.5 207t178.5 86q52 0 89 -22t50 -60z" />
    <glyph glyph-name="e" unicode="e" horiz-adv-x="513" 
d="M350 159l129 -12q-27 -76 -91.5 -117.5t-150.5 -41.5q-101 0 -160 52.5t-59 143.5q0 117 79 195.5t195 78.5q100 0 151.5 -55t51.5 -141q0 -37 -9 -70h-314q0 -41 21 -62t59 -21q71 0 98 50zM184 268h159q2 74 -65 74q-71 0 -94 -74z" />
    <glyph glyph-name="f" unicode="f" horiz-adv-x="327" 
d="M92 334h-64l28 112h64l13 47q20 72 68.5 110.5t122.5 38.5q124 0 150 -113l-105 -33q-11 31 -38 31q-31 0 -42 -44l-9 -37h103l-28 -112h-103l-83 -334h-160z" />
    <glyph glyph-name="g" unicode="g" horiz-adv-x="563" 
d="M357 217l4 18q10 47 -9.5 75.5t-62.5 28.5q-47 0 -75.5 -36.5t-28.5 -92.5q0 -37 19 -56.5t51 -19.5q40 0 67 22.5t35 60.5zM319 56l10 41q-48 -72 -139 -72q-78 0 -125.5 45.5t-47.5 127.5q0 104 66 182t177 78q52 0 88.5 -22t49.5 -59l18 69h162l-99 -397
q-54 -221 -282 -221q-93 0 -155.5 45.5t-63.5 123.5l157 7q2 -28 21.5 -41t47.5 -13q90 0 115 106z" />
    <glyph glyph-name="h" unicode="h" horiz-adv-x="552" 
d="M207 219l-54 -219h-162l157 630h162l-63 -252q59 80 150 80q82 0 114.5 -55t13.5 -132l-67 -271h-162l59 237q23 93 -48 93q-72 0 -100 -111z" />
    <glyph glyph-name="i" unicode="i" horiz-adv-x="250" 
d="M102 446h162l-111 -446h-162zM111 488l36 142h164l-36 -142h-164z" />
    <glyph glyph-name="j" unicode="j" horiz-adv-x="250" 
d="M264 446l-115 -461q-21 -83 -66.5 -120t-124.5 -37q-38 0 -74 11.5t-55 29.5l47 92q31 -22 57 -22q42 0 56 54l113 453h162zM111 488l36 142h164l-36 -142h-164z" />
    <glyph glyph-name="k" unicode="k" horiz-adv-x="543" 
d="M188 141l-35 -141h-162l157 630h162l-83 -330l174 146h201l-230 -181l126 -265h-172l-85 185z" />
    <glyph glyph-name="l" unicode="l" horiz-adv-x="250" 
d="M148 630h162l-157 -630h-162z" />
    <glyph glyph-name="m" unicode="m" horiz-adv-x="836" 
d="M521 380q65 78 163 78q83 0 114 -51t13 -127l-68 -280h-162l59 237q13 46 3 69.5t-46 23.5q-67 0 -95 -111l-54 -219h-162l59 237q13 46 3 69.5t-46 23.5q-67 0 -95 -111l-54 -219h-162l111 446h162l-17 -67q58 79 153 79q51 0 81.5 -21.5t39.5 -56.5z" />
    <glyph glyph-name="n" unicode="n" horiz-adv-x="552" 
d="M207 219l-54 -219h-162l111 446h162l-17 -68q59 80 150 80q82 0 114.5 -55t13.5 -132l-67 -271h-162l59 237q23 93 -48 93q-72 0 -100 -111z" />
    <glyph glyph-name="o" unicode="o" horiz-adv-x="527" 
d="M245 110q49 0 75.5 46.5t26.5 100.5q0 79 -65 79q-49 0 -75.5 -46.5t-26.5 -100.5q0 -79 65 -79zM238 -12q-100 0 -160 56t-60 147q0 116 76.5 191.5t194.5 75.5q100 0 160 -56t60 -147q0 -116 -76.5 -191.5t-194.5 -75.5z" />
    <glyph glyph-name="p" unicode="p" horiz-adv-x="574" 
d="M212 242l-5 -16q-15 -49 4.5 -82.5t61.5 -33.5q50 0 81.5 42t31.5 104q0 77 -72 77q-38 0 -64.5 -25t-37.5 -66zM170 70l-57 -230h-162l151 606h162l-19 -73q53 85 149 85q79 0 120.5 -48t41.5 -129q0 -121 -68.5 -207t-178.5 -86q-52 0 -89 22t-50 60z" />
    <glyph glyph-name="q" unicode="q" horiz-adv-x="569" 
d="M362 204l5 16q15 49 -4.5 82.5t-61.5 33.5q-50 0 -81.5 -42t-31.5 -104q0 -77 72 -77q38 0 64.5 25t37.5 66zM404 376l18 70h162l-151 -606h-162l58 233q-53 -85 -149 -85q-79 0 -120.5 48t-41.5 129q0 121 68.5 207t178.5 86q52 0 89 -22t50 -60z" />
    <glyph glyph-name="r" unicode="r" horiz-adv-x="396" 
d="M446 441l-48 -153q-26 19 -72 19q-97 0 -123 -103l-50 -204h-162l111 446h162l-21 -83q52 95 141 95q39 0 62 -17z" />
    <glyph glyph-name="s" unicode="s" horiz-adv-x="461" 
d="M-12 153l133 7q2 -33 28 -52.5t66 -19.5q26 0 43 9t17 26q0 24 -37 32l-65 13q-65 14 -96.5 45t-31.5 85q0 76 58.5 118t142.5 42q95 0 148.5 -40t63.5 -114l-135 -7q-2 26 -23.5 42.5t-58.5 16.5q-20 0 -34 -9t-14 -25q0 -20 27 -26l90 -20q57 -12 86 -46t29 -83
q0 -78 -61.5 -118.5t-154.5 -40.5q-100 0 -158 42t-63 123z" />
    <glyph glyph-name="t" unicode="t" horiz-adv-x="358" 
d="M43 148l47 186h-60l25 100l34 5q33 5 52 21.5t36 50.5l29 58h102l-30 -123h116l-28 -112h-116l-42 -166q-13 -53 38 -53q39 0 72 12l-26 -102q-67 -37 -136 -37q-65 0 -98.5 42t-14.5 118z" />
    <glyph glyph-name="u" unicode="u" horiz-adv-x="540" 
d="M337 223l55 223h162l-111 -446h-162l17 68q-53 -80 -150 -80q-79 0 -110 54.5t-12 132.5l67 271h162l-60 -241q-12 -46 -3 -69.5t45 -23.5q72 0 100 111z" />
    <glyph glyph-name="v" unicode="v" horiz-adv-x="518" 
d="M292 0h-184l-53 446h155l25 -280h4l169 280h170z" />
    <glyph glyph-name="w" unicode="w" horiz-adv-x="729" 
d="M486 446v-253h4l145 253h154l-256 -446h-159l-2 252h-4l-128 -252h-159l-26 446h153l11 -253h4l134 253h129z" />
    <glyph glyph-name="x" unicode="x" horiz-adv-x="520" 
d="M566 446l-220 -221l123 -225h-163l-66 123l-119 -123h-176l233 234l-114 212h163l58 -110l105 110h176z" />
    <glyph glyph-name="y" unicode="y" horiz-adv-x="529" 
d="M181 -160h-161l107 163l-73 443h156l38 -268h4l164 268h173z" />
    <glyph glyph-name="z" unicode="z" horiz-adv-x="452" 
d="M248 329h-187l29 117h391l-28 -110l-248 -219h199l-29 -117h-400l27 111z" />
    <glyph glyph-name="braceleft" unicode="{" horiz-adv-x="343" 
d="M38 233l27 110h25q30 0 42 15t23 58l27 106q18 68 61.5 103t105.5 35h83l-28 -111h-40q-14 0 -22.5 -6t-11.5 -12.5t-6 -18.5l-26 -106q-14 -55 -40.5 -83t-75.5 -35q64 -10 64 -69q0 -25 -18.5 -94t-18.5 -80q0 -18 25 -18h40l-27 -111h-83q-50 0 -77.5 23t-27.5 68
q0 24 20 103.5t20 95.5q0 27 -36 27h-25z" />
    <glyph glyph-name="bar" unicode="|" horiz-adv-x="241" 
d="M-26 -83l185 742h145l-185 -742h-145z" />
    <glyph glyph-name="braceright" unicode="}" horiz-adv-x="343" 
d="M341 343l-27 -110h-25q-30 0 -42 -15t-23 -58l-27 -106q-18 -68 -61.5 -103t-105.5 -35h-83l28 111h40q14 0 22.5 6t11.5 12.5t6 18.5l26 106q14 55 40.5 83t75.5 35q-64 10 -64 69q0 25 18.5 94t18.5 80q0 18 -25 18h-40l27 111h83q50 0 77.5 -23t27.5 -68
q0 -24 -20 -103.5t-20 -95.5q0 -27 36 -27h25z" />
    <glyph glyph-name="asciitilde" unicode="~" horiz-adv-x="404" 
d="M119 204h-88q19 72 55.5 115.5t83.5 43.5q27 0 56 -20.5t46 -20.5q32 0 45 38h87q-18 -72 -54.5 -116t-84.5 -44q-27 0 -55 20.5t-45 20.5q-33 0 -46 -37z" />
    <glyph glyph-name="exclamdown" unicode="&#xa1;" horiz-adv-x="232" 
d="M278 518l-42 -172h-172l42 172h172zM121 -112h-172l41 162l98 258h104l-30 -258z" />
    <glyph glyph-name="cent" unicode="&#xa2;" horiz-adv-x="519" 
d="M30 187q0 114 77.5 191t200.5 80l20 80h84l-23 -89q68 -19 102.5 -69t33.5 -116l-129 -9q-3 51 -36 75l-56 -223q60 18 83 85l126 -10q-20 -81 -82 -134.5t-157 -58.5l-20 -82h-84l22 88q-75 15 -118.5 66t-43.5 126zM192 187q0 -50 30 -71l56 223q-40 -13 -63 -53.5
t-23 -98.5z" />
    <glyph glyph-name="sterling" unicode="&#xa3;" horiz-adv-x="616" 
d="M413 509q-45 0 -67 -31.5t-22 -78.5q0 -20 5 -43h125l-22 -91h-93q-3 -55 -28 -111q36 -17 69 -17q46 0 68 17.5t35 65.5l114 -6q-7 -120 -65.5 -173t-148.5 -53q-86 0 -152 55q-62 -55 -132 -55q-51 0 -82 28.5t-31 77.5q0 62 43 98.5t101 36.5q33 0 67 -12q0 3 0.5 9.5
t0.5 8.5q0 15 -3 30h-122l22 91h66q-6 20 -6 42q0 106 76 175t192 69q120 0 173 -63.5t26 -170.5l-145 -7q11 51 -5 79.5t-59 28.5zM110 83q28 0 49 31q-25 23 -43 23q-14 0 -23 -8.5t-9 -23.5q0 -22 26 -22z" />
    <glyph glyph-name="yen" unicode="&#xa5;" horiz-adv-x="639" 
d="M71 249l24 99h113l-105 282h178l81 -230l185 230h194l-245 -282h112l-24 -99h-174l-13 -49h174l-24 -99h-174l-25 -101h-165l25 101h-174l24 99h174l13 49h-174z" />
    <glyph glyph-name="section" unicode="&#xa7;" horiz-adv-x="520" 
d="M502 265q0 -45 -26 -85.5t-69 -64.5q9 -19 9 -43q0 -72 -58 -118.5t-139 -46.5q-89 0 -144.5 40t-70.5 120l120 9q3 -26 29 -45t57 -19q52 0 53 40q0 19 -30 38l-89 54q-98 61 -98 140q0 45 25.5 85t69.5 64q-10 22 -9 44q0 72 58 118.5t139 46.5q183 0 205 -157l-120 -9
q-3 26 -24 43.5t-52 17.5q-52 0 -53 -40q0 -19 30 -38l89 -54q98 -61 98 -140zM221 353l-4 3q-22 -18 -22 -43q0 -23 28 -43l104 -74l4 -3q21 17 22 43q0 23 -28 43z" />
    <glyph glyph-name="dieresis" unicode="&#xa8;" 
d="M156 488l36 142h142l-36 -142h-142zM344 488l36 142h142l-36 -142h-142z" />
    <glyph glyph-name="copyright" unicode="&#xa9;" horiz-adv-x="724" 
d="M59 315q0 141 95 234t232 93t232 -93t95 -234t-95 -234t-232 -93t-232 93t-95 234zM188 315q0 90 57 146.5t143 56.5t135 -48.5t55 -125.5l-102 -3q-12 78 -85 78q-41 0 -64 -28t-23 -76q0 -47 23 -74.5t64 -27.5q73 0 85 78l102 -5q-6 -77 -55 -125t-135 -48t-143 56.5
t-57 145.5zM109 315q0 -119 81 -199t196 -80t196 80t81 199t-81 199t-196 80t-196 -80t-81 -199z" />
    <glyph glyph-name="ordfeminine" unicode="&#xaa;" horiz-adv-x="432" 
d="M297 419v3l-61 -8q-45 -6 -45 -37q0 -27 32 -27q25 0 46.5 18.5t27.5 50.5zM443 487l-27 -107q-6 -27 15 -27q13 0 31 6l-18 -71q-42 -24 -80 -24q-35 0 -56.5 16t-24.5 45q-36 -61 -119 -61q-51 0 -78.5 25t-27.5 67q0 103 147 119l109 11l2 10q11 45 -33 45
q-37 0 -55 -38l-126 8q47 130 204 130q75 0 115 -41t22 -113z" />
    <glyph glyph-name="guillemotleft" unicode="&#xab;" horiz-adv-x="484" 
d="M14 154l36 144l224 125l-37 -147l-111 -61l81 -61l-31 -125zM245 154l36 144l224 125l-37 -147l-111 -61l81 -61l-31 -125z" />
    <glyph glyph-name="registered" unicode="&#xae;" horiz-adv-x="412" 
d="M360 354h-60q-7 8 -9 34q-1 16 -8 21.5t-22 5.5h-23v-61h-59v199h101q77 0 77 -63q0 -21 -12 -35t-31 -17q32 -6 35 -38q4 -38 11 -46zM238 461h25q32 0 32 22q0 23 -32 23h-25v-45zM447 454q0 -81 -54 -134.5t-132 -53.5t-132 53.5t-54 134.5t54 134.5t132 53.5
t132 -53.5t54 -134.5zM413 454q0 68 -44 112t-108 44t-108 -44t-44 -112t44 -112t108 -44t108 44t44 112z" />
    <glyph glyph-name="macron" unicode="&#xaf;" 
d="M184 492l31 108h275l-31 -108h-275z" />
    <glyph glyph-name="degree" unicode="&#xb0;" horiz-adv-x="370" 
d="M238 432q26 0 44.5 19t18.5 46t-14.5 42t-39.5 15q-26 0 -44.5 -19t-18.5 -46t14.5 -42t39.5 -15zM233 344q-63 0 -102.5 39t-39.5 100q0 68 46 113.5t115 45.5q63 0 102.5 -39t39.5 -100q0 -68 -46 -113.5t-115 -45.5z" />
    <glyph glyph-name="plusminus" unicode="&#xb1;" horiz-adv-x="629" 
d="M346 616h134l-35 -139h186l-34 -134h-185l-34 -139h-134l34 139h-184l34 134h183zM12 16l34 133h503l-34 -133h-503z" />
    <glyph glyph-name="twosuperior" unicode="&#xb2;" horiz-adv-x="364" 
d="M235 329h133l-26 -103h-317l22 92l128 84q54 36 75.5 58.5t21.5 41.5q0 30 -30 30q-21 0 -31 -20.5t-10 -50.5l-123 5q2 78 49 125t130 47q66 0 104 -34t38 -86q0 -56 -27 -88t-92 -73z" />
    <glyph glyph-name="threesuperior" unicode="&#xb3;" horiz-adv-x="360" 
d="M248 356q0 26 -35 26q-22 0 -28 -1l22 87q18 -2 28 -2q45 0 45 41q0 13 -8.5 21.5t-23.5 8.5q-39 0 -51 -54l-120 5q13 67 61.5 108.5t123.5 41.5q68 0 104.5 -31.5t36.5 -77.5q0 -83 -88 -102q59 -19 59 -75q0 -64 -50.5 -99t-117.5 -35q-88 0 -127.5 41t-29.5 108
l119 -3q-4 -23 6 -34.5t29 -11.5q45 0 45 38z" />
    <glyph glyph-name="acute" unicode="&#xb4;" 
d="M330 488h-118l90 142h161z" />
    <glyph glyph-name="paragraph" unicode="&#xb6;" horiz-adv-x="581" 
d="M209 0l59 239q-91 0 -143.5 47.5t-52.5 121.5q0 105 81.5 163.5t212.5 58.5h267l-157 -630h-104l131 527h-59l-131 -527h-104z" />
    <glyph glyph-name="periodcentered" unicode="&#xb7;" horiz-adv-x="271" 
d="M36 170l42 172h172l-42 -172h-172z" />
    <glyph glyph-name="cedilla" unicode="&#xb8;" horiz-adv-x="833" 
d="M459 -90q0 -45 -40 -65t-94 -20q-73 0 -108 33l25 39q34 -22 79 -22t45 22q0 18 -22.5 20.5t-43.5 -7.5l-29 11l80 90h52l-45 -47q45 8 73 -6.5t28 -47.5z" />
    <glyph glyph-name="onesuperior" unicode="&#xb9;" horiz-adv-x="248" 
d="M75 485l21 83q78 0 116 61h99l-100 -403h-125l65 259h-76z" />
    <glyph glyph-name="ordmasculine" unicode="&#xba;" horiz-adv-x="431" 
d="M257 364q38 0 58.5 36.5t20.5 78.5q0 61 -50 61q-38 0 -58 -37t-20 -79q0 -60 49 -60zM251 262q-81 0 -129.5 45.5t-48.5 118.5q0 94 62 154.5t157 60.5q81 0 129.5 -45t48.5 -119q0 -93 -62 -154t-157 -61z" />
    <glyph glyph-name="guillemotright" unicode="&#xbb;" horiz-adv-x="484" 
d="M251 298l-36 -144l-224 -125l37 147l111 61l-81 61l31 125zM482 298l-36 -144l-224 -125l37 147l111 61l-81 61l31 125z" />
    <glyph glyph-name="onequarter" unicode="&#xbc;" horiz-adv-x="810" 
d="M719 630l-542 -630h-114l542 630h114zM75 485l21 83q78 0 116 61h99l-100 -403h-125l65 259h-76zM790 404l-58 -230h46l-22 -95h-47l-20 -79h-122l20 79h-193l26 111l212 214h158zM641 297l-122 -123h90z" />
    <glyph glyph-name="onehalf" unicode="&#xbd;" horiz-adv-x="838" 
d="M719 630l-542 -630h-114l542 630h114zM75 485l21 83q78 0 116 61h99l-100 -403h-125l65 259h-76zM654 103h133l-26 -103h-317l22 92l128 84q54 36 75.5 58.5t21.5 41.5q0 30 -30 30q-21 0 -31 -20.5t-10 -50.5l-123 5q2 78 49 125t130 47q66 0 104 -34t38 -86
q0 -56 -27 -88t-92 -73z" />
    <glyph glyph-name="threequarters" unicode="&#xbe;" horiz-adv-x="922" 
d="M831 630l-542 -630h-114l542 630h114zM902 404l-58 -230h46l-22 -95h-47l-20 -79h-122l20 79h-193l26 111l212 214h158zM753 297l-122 -123h90zM262 356q0 26 -35 26q-22 0 -28 -1l22 87q18 -2 28 -2q45 0 45 41q0 13 -8.5 21.5t-23.5 8.5q-39 0 -51 -54l-120 5
q13 67 61.5 108.5t123.5 41.5q68 0 104.5 -31.5t36.5 -77.5q0 -83 -88 -102q59 -19 59 -75q0 -64 -50.5 -99t-117.5 -35q-88 0 -127.5 41t-29.5 108l119 -3q-4 -23 6 -34.5t29 -11.5q45 0 45 38z" />
    <glyph glyph-name="questiondown" unicode="&#xbf;" horiz-adv-x="518" 
d="M196 308h157q-23 -78 -98 -128q-5 -4 -20 -13t-20.5 -13.5t-17 -13t-16.5 -15t-11 -16t-8.5 -20t-2.5 -22.5q0 -21 14.5 -34t42.5 -13q46 0 71.5 38t25.5 92l165 -5q-6 -129 -85.5 -199t-204.5 -70q-103 0 -153.5 49t-51.5 118q0 36 12 66.5t36.5 55t44.5 40t52 35.5
q58 37 68 68zM413 518l-42 -172h-172l42 172h172z" />
    <glyph glyph-name="Agrave" unicode="&#xc0;" horiz-adv-x="692" 
d="M352 630h190l97 -630h-174l-17 122h-247l-76 -122h-178zM525 668h-111l-62 142h154zM399 440l-119 -191h150l-27 191h-4z" />
    <glyph glyph-name="Aacute" unicode="&#xc1;" horiz-adv-x="692" 
d="M352 630h190l97 -630h-174l-17 122h-247l-76 -122h-178zM514 668h-118l89 142h161zM399 440l-119 -191h150l-27 191h-4z" />
    <glyph glyph-name="Acircumflex" unicode="&#xc2;" horiz-adv-x="692" 
d="M352 630h190l97 -630h-174l-17 122h-247l-76 -122h-178zM412 810h152l51 -142h-98l-46 55l-74 -55h-106zM399 440l-119 -191h150l-27 191h-4z" />
    <glyph glyph-name="Atilde" unicode="&#xc3;" horiz-adv-x="692" 
d="M352 630h190l97 -630h-174l-17 122h-247l-76 -122h-178zM390 668h-85q16 66 49.5 105.5t76.5 39.5q25 0 49 -18.5t39 -18.5q29 0 41 34h85q-17 -66 -50.5 -105.5t-76.5 -39.5q-24 0 -48 18.5t-39 18.5q-29 0 -41 -34zM399 440l-119 -191h150l-27 191h-4z" />
    <glyph glyph-name="Adieresis" unicode="&#xc4;" horiz-adv-x="692" 
d="M352 630h190l97 -630h-174l-17 122h-247l-76 -122h-178zM293 668l35 142h142l-35 -142h-142zM481 668l35 142h142l-35 -142h-142zM399 440l-119 -191h150l-27 191h-4z" />
    <glyph glyph-name="Aring" unicode="&#xc5;" horiz-adv-x="692" 
d="M352 630h190l97 -630h-174l-17 122h-247l-76 -122h-178zM575 766q0 -44 -29 -73.5t-72 -29.5q-41 0 -65.5 23.5t-24.5 61.5q0 44 29 73.5t72 29.5q41 0 65.5 -23.5t24.5 -61.5zM399 440l-119 -191h150l-27 191h-4zM512 761q0 13 -8 21.5t-22 8.5t-24.5 -11t-10.5 -27
q0 -13 8.5 -21.5t21.5 -8.5q14 0 24.5 11t10.5 27z" />
    <glyph glyph-name="AE" unicode="&#xc6;" horiz-adv-x="1021" 
d="M479 630h609l-35 -140h-320l-26 -103h247l-34 -138h-247l-28 -109h329l-34 -140h-496l38 152h-214l-128 -152h-193zM566 505l-191 -226h138l57 226h-4z" />
    <glyph glyph-name="Ccedilla" unicode="&#xc7;" horiz-adv-x="672" 
d="M396 -90q0 -45 -40 -65t-94 -20q-73 0 -108 33l25 39q34 -22 79 -22t45 22q0 18 -22.5 20.5t-43.5 -7.5l-29 11l63 72q-103 17 -164.5 90t-61.5 182q0 161 104.5 269t265.5 108q136 0 204 -78.5t62 -201.5l-158 -6q-1 59 -31 97t-98 38q-80 0 -127 -64.5t-47 -149.5
q0 -64 34 -101t94 -37q68 0 108.5 38t55.5 97l160 -7q-25 -124 -114.5 -201.5t-228.5 -77.5h-11l-23 -24q45 8 73 -6.5t28 -47.5z" />
    <glyph glyph-name="Egrave" unicode="&#xc8;" horiz-adv-x="572" 
d="M525 140l-34 -140h-496l157 630h487l-35 -140h-320l-26 -103h247l-34 -138h-247l-28 -109h329zM473 668h-111l-62 142h154z" />
    <glyph glyph-name="Eacute" unicode="&#xc9;" horiz-adv-x="572" 
d="M525 140l-34 -140h-496l157 630h487l-35 -140h-320l-26 -103h247l-34 -138h-247l-28 -109h329zM462 668h-118l89 142h161z" />
    <glyph glyph-name="Ecircumflex" unicode="&#xca;" horiz-adv-x="572" 
d="M525 140l-34 -140h-496l157 630h487l-35 -140h-320l-26 -103h247l-34 -138h-247l-28 -109h329zM360 810h152l51 -142h-98l-46 55l-74 -55h-106z" />
    <glyph glyph-name="Edieresis" unicode="&#xcb;" horiz-adv-x="572" 
d="M525 140l-34 -140h-496l157 630h487l-35 -140h-320l-26 -103h247l-34 -138h-247l-28 -109h329zM241 668l35 142h142l-35 -142h-142zM429 668l35 142h142l-35 -142h-142z" />
    <glyph glyph-name="Igrave" unicode="&#xcc;" horiz-adv-x="266" 
d="M152 630h170l-157 -630h-170zM314 668h-111l-62 142h154z" />
    <glyph glyph-name="Iacute" unicode="&#xcd;" horiz-adv-x="266" 
d="M152 630h170l-157 -630h-170zM303 668h-118l89 142h161z" />
    <glyph glyph-name="Icircumflex" unicode="&#xce;" horiz-adv-x="266" 
d="M152 630h170l-157 -630h-170zM201 810h152l51 -142h-98l-46 55l-74 -55h-106z" />
    <glyph glyph-name="Idieresis" unicode="&#xcf;" horiz-adv-x="266" 
d="M152 630h170l-157 -630h-170zM82 668l35 142h142l-35 -142h-142zM270 668l35 142h142l-35 -142h-142z" />
    <glyph glyph-name="Eth" unicode="&#xd0;" horiz-adv-x="683" 
d="M22 249l34 138h60l61 243h225q126 0 206.5 -69.5t80.5 -196.5q0 -167 -114.5 -265.5t-297.5 -98.5h-257l62 249h-60zM223 134h66q105 0 166.5 60t61.5 170q0 62 -38 97t-111 35h-55l-27 -109h130l-34 -138h-131z" />
    <glyph glyph-name="Ntilde" unicode="&#xd1;" horiz-adv-x="660" 
d="M314 630l155 -365l91 365h156l-157 -630h-136l-176 389l-96 -389h-156l157 630h162zM381 668h-85q16 66 49.5 105.5t76.5 39.5q24 0 48 -18.5t40 -18.5q29 0 41 34h85q-17 -66 -50.5 -105.5t-76.5 -39.5q-25 0 -48 18.5t-39 18.5q-29 0 -41 -34z" />
    <glyph glyph-name="Ograve" unicode="&#xd2;" horiz-adv-x="694" 
d="M401 642q137 0 218 -75t81 -207q0 -160 -105 -266t-251 -106q-137 0 -218 74.5t-81 207.5q0 160 105 266t251 106zM348 138q76 0 126.5 62.5t50.5 159.5q0 62 -33.5 97t-94.5 35q-76 0 -126.5 -62.5t-50.5 -159.5q0 -62 33.5 -97t94.5 -35zM504 668h-111l-62 142h154z
" />
    <glyph glyph-name="Oacute" unicode="&#xd3;" horiz-adv-x="694" 
d="M401 642q137 0 218 -75t81 -207q0 -160 -105 -266t-251 -106q-137 0 -218 74.5t-81 207.5q0 160 105 266t251 106zM348 138q76 0 126.5 62.5t50.5 159.5q0 62 -33.5 97t-94.5 35q-76 0 -126.5 -62.5t-50.5 -159.5q0 -62 33.5 -97t94.5 -35zM493 668h-118l89 142h161z" />
    <glyph glyph-name="Ocircumflex" unicode="&#xd4;" horiz-adv-x="694" 
d="M401 642q137 0 218 -75t81 -207q0 -160 -105 -266t-251 -106q-137 0 -218 74.5t-81 207.5q0 160 105 266t251 106zM348 138q76 0 126.5 62.5t50.5 159.5q0 62 -33.5 97t-94.5 35q-76 0 -126.5 -62.5t-50.5 -159.5q0 -62 33.5 -97t94.5 -35zM391 810h152l51 -142h-98
l-46 55l-74 -55h-106z" />
    <glyph glyph-name="Otilde" unicode="&#xd5;" horiz-adv-x="694" 
d="M401 642q137 0 218 -75t81 -207q0 -160 -105 -266t-251 -106q-137 0 -218 74.5t-81 207.5q0 160 105 266t251 106zM348 138q76 0 126.5 62.5t50.5 159.5q0 62 -33.5 97t-94.5 35q-76 0 -126.5 -62.5t-50.5 -159.5q0 -62 33.5 -97t94.5 -35zM369 668h-85q16 66 49.5 105.5
t76.5 39.5q24 0 48 -18.5t40 -18.5q29 0 41 34h85q-17 -66 -50.5 -105.5t-76.5 -39.5q-25 0 -48 18.5t-39 18.5q-29 0 -41 -34z" />
    <glyph glyph-name="Odieresis" unicode="&#xd6;" horiz-adv-x="694" 
d="M401 642q137 0 218 -75t81 -207q0 -160 -105 -266t-251 -106q-137 0 -218 74.5t-81 207.5q0 160 105 266t251 106zM348 138q76 0 126.5 62.5t50.5 159.5q0 62 -33.5 97t-94.5 35q-76 0 -126.5 -62.5t-50.5 -159.5q0 -62 33.5 -97t94.5 -35zM272 668l35 142h142l-35 -142
h-142zM460 668l35 142h142l-35 -142h-142z" />
    <glyph glyph-name="multiply" unicode="&#xd7;" horiz-adv-x="531" 
d="M101 81l-72 95l172 137l-104 140l108 86l104 -139l172 137l72 -96l-172 -137l104 -139l-109 -87l-103 139z" />
    <glyph glyph-name="Oslash" unicode="&#xd8;" horiz-adv-x="694" 
d="M401 642q102 0 174 -43l62 69l62 -52l-62 -69q63 -74 63 -187q0 -160 -105 -266t-251 -106q-101 0 -172 41l-64 -72l-62 52l63 71q-64 73 -64 190q0 160 105 266t251 106zM220 270q0 -33 9 -57l236 263q-30 16 -68 16q-76 0 -126.5 -62.5t-50.5 -159.5zM348 138
q76 0 126.5 62.5t50.5 159.5q0 27 -8 53l-235 -262q26 -13 66 -13z" />
    <glyph glyph-name="Ugrave" unicode="&#xd9;" horiz-adv-x="660" 
d="M299 -12q-134 0 -202.5 81.5t-34.5 216.5l86 344h169l-88 -352q-17 -69 6.5 -108t79.5 -39q61 0 95 36t53 111l88 352h170l-95 -380q-34 -137 -113.5 -199.5t-213.5 -62.5zM493 668h-111l-62 142h154z" />
    <glyph glyph-name="Uacute" unicode="&#xda;" horiz-adv-x="660" 
d="M299 -12q-134 0 -202.5 81.5t-34.5 216.5l86 344h169l-88 -352q-17 -69 6.5 -108t79.5 -39q61 0 95 36t53 111l88 352h170l-95 -380q-34 -137 -113.5 -199.5t-213.5 -62.5zM502 668h-118l89 142h161z" />
    <glyph glyph-name="Ucircumflex" unicode="&#xdb;" horiz-adv-x="660" 
d="M299 -12q-134 0 -202.5 81.5t-34.5 216.5l86 344h169l-88 -352q-17 -69 6.5 -108t79.5 -39q61 0 95 36t53 111l88 352h170l-95 -380q-34 -137 -113.5 -199.5t-213.5 -62.5zM400 810h152l51 -142h-98l-46 55l-74 -55h-106z" />
    <glyph glyph-name="Udieresis" unicode="&#xdc;" horiz-adv-x="660" 
d="M299 -12q-134 0 -202.5 81.5t-34.5 216.5l86 344h169l-88 -352q-17 -69 6.5 -108t79.5 -39q61 0 95 36t53 111l88 352h170l-95 -380q-34 -137 -113.5 -199.5t-213.5 -62.5zM280 668l35 142h142l-35 -142h-142zM468 668l35 142h142l-35 -142h-142z" />
    <glyph glyph-name="Yacute" unicode="&#xdd;" horiz-adv-x="649" 
d="M360 395l200 235h189l-340 -391l-59 -239h-165l59 239l-144 391h174zM487 668h-118l89 142h161z" />
    <glyph glyph-name="Thorn" unicode="&#xde;" horiz-adv-x="593" 
d="M226 245h90q128 0 128 91q0 38 -20.5 54t-67.5 16h-90zM192 109l-28 -109h-169l157 630h170l-22 -88h93q104 0 162 -53.5t58 -137.5q0 -119 -83 -180.5t-224 -61.5h-114z" />
    <glyph glyph-name="germandbls" unicode="&#xdf;" horiz-adv-x="545" 
d="M563 492q0 -55 -31.5 -93t-82.5 -48q32 -13 52.5 -46t20.5 -77q0 -113 -69 -172.5t-168 -59.5q-46 0 -84 12l31 121q23 -7 49 -7q36 0 62.5 26t26.5 69q0 65 -61 65q-8 0 -36 -2l31 123q10 -1 29 -1q32 0 53.5 19.5t21.5 56.5q0 48 -50 48q-74 0 -104 -119l-101 -407
h-162l102 411q27 109 99.5 170t182.5 61q88 0 138 -38t50 -112z" />
    <glyph glyph-name="agrave" unicode="&#xe0;" horiz-adv-x="527" 
d="M297 183l1 5l-79 -10q-59 -8 -59 -49q0 -35 41 -35q32 0 60 24t36 65zM474 267l-34 -136q-9 -33 19 -33q17 0 38 7l-22 -86q-49 -29 -97 -29q-43 0 -69 20.5t-29 56.5q-45 -77 -149 -77q-63 0 -97 31t-34 83q0 128 182 148l136 14l3 13q14 59 -43 59q-49 0 -72 -50
l-152 10q27 75 90.5 117.5t160.5 42.5q93 0 142 -50.5t27 -140.5zM388 488h-111l-61 142h154z" />
    <glyph glyph-name="aacute" unicode="&#xe1;" horiz-adv-x="527" 
d="M297 183l1 5l-79 -10q-59 -8 -59 -49q0 -35 41 -35q32 0 60 24t36 65zM474 267l-34 -136q-9 -33 19 -33q17 0 38 7l-22 -86q-49 -29 -97 -29q-43 0 -69 20.5t-29 56.5q-45 -77 -149 -77q-63 0 -97 31t-34 83q0 128 182 148l136 14l3 13q14 59 -43 59q-49 0 -72 -50
l-152 10q27 75 90.5 117.5t160.5 42.5q93 0 142 -50.5t27 -140.5zM382 488h-118l90 142h161z" />
    <glyph glyph-name="acircumflex" unicode="&#xe2;" horiz-adv-x="527" 
d="M297 183l1 5l-79 -10q-59 -8 -59 -49q0 -35 41 -35q32 0 60 24t36 65zM474 267l-34 -136q-9 -33 19 -33q17 0 38 7l-22 -86q-49 -29 -97 -29q-43 0 -69 20.5t-29 56.5q-45 -77 -149 -77q-63 0 -97 31t-34 83q0 128 182 148l136 14l3 13q14 59 -43 59q-49 0 -72 -50
l-152 10q27 75 90.5 117.5t160.5 42.5q93 0 142 -50.5t27 -140.5zM278 630h152l50 -142h-98l-46 55l-74 -55h-106z" />
    <glyph glyph-name="atilde" unicode="&#xe3;" horiz-adv-x="527" 
d="M297 183l1 5l-79 -10q-59 -8 -59 -49q0 -35 41 -35q32 0 60 24t36 65zM474 267l-34 -136q-9 -33 19 -33q17 0 38 7l-22 -86q-49 -29 -97 -29q-43 0 -69 20.5t-29 56.5q-45 -77 -149 -77q-63 0 -97 31t-34 83q0 128 182 148l136 14l3 13q14 59 -43 59q-49 0 -72 -50
l-152 10q27 75 90.5 117.5t160.5 42.5q93 0 142 -50.5t27 -140.5zM255 488h-85q16 66 49.5 105.5t76.5 39.5q25 0 49 -18.5t39 -18.5q29 0 41 34h85q-17 -66 -50.5 -105.5t-76.5 -39.5q-25 0 -48 18.5t-39 18.5q-29 0 -41 -34z" />
    <glyph glyph-name="adieresis" unicode="&#xe4;" horiz-adv-x="527" 
d="M297 183l1 5l-79 -10q-59 -8 -59 -49q0 -35 41 -35q32 0 60 24t36 65zM474 267l-34 -136q-9 -33 19 -33q17 0 38 7l-22 -86q-49 -29 -97 -29q-43 0 -69 20.5t-29 56.5q-45 -77 -149 -77q-63 0 -97 31t-34 83q0 128 182 148l136 14l3 13q14 59 -43 59q-49 0 -72 -50
l-152 10q27 75 90.5 117.5t160.5 42.5q93 0 142 -50.5t27 -140.5zM157 488l36 142h142l-36 -142h-142zM345 488l36 142h142l-36 -142h-142z" />
    <glyph glyph-name="aring" unicode="&#xe5;" horiz-adv-x="527" 
d="M297 183l1 5l-79 -10q-59 -8 -59 -49q0 -35 41 -35q32 0 60 24t36 65zM474 267l-34 -136q-9 -33 19 -33q17 0 38 7l-22 -86q-49 -29 -97 -29q-43 0 -69 20.5t-29 56.5q-45 -77 -149 -77q-63 0 -97 31t-34 83q0 128 182 148l136 14l3 13q14 59 -43 59q-49 0 -72 -50
l-152 10q27 75 90.5 117.5t160.5 42.5q93 0 142 -50.5t27 -140.5zM445 586q0 -44 -29 -73.5t-72 -29.5q-40 0 -65 23.5t-25 61.5q0 44 29 73.5t72 29.5q41 0 65.5 -23.5t24.5 -61.5zM382 581q0 13 -8 21.5t-22 8.5t-24.5 -11t-10.5 -27q0 -13 8.5 -21.5t21.5 -8.5
q14 0 24.5 11t10.5 27z" />
    <glyph glyph-name="ae" unicode="&#xe6;" horiz-adv-x="791" 
d="M297 183l2 9h-54q-44 0 -64.5 -18.5t-20.5 -44.5q0 -35 41 -35q32 0 59.5 24t36.5 65zM335 75q-58 -85 -185 -85q-66 0 -108 30.5t-42 83.5q0 72 61.5 118t176.5 46h80l3 11q14 59 -43 59q-52 0 -72 -45l-152 10q27 73 87 114t145 41q95 0 133 -51q68 51 156 51
q96 0 147 -55t51 -141q0 -37 -9 -70h-314q0 -41 21 -62t59 -21q71 0 98 50l129 -12q-27 -76 -91.5 -117.5t-150.5 -41.5q-129 0 -180 87zM462 268h159q2 74 -65 74q-71 0 -94 -74z" />
    <glyph glyph-name="ccedilla" unicode="&#xe7;" 
d="M287 -90q0 -45 -40 -65t-94 -20q-73 0 -108 33l25 39q34 -22 79 -22t45 22q0 18 -22.5 20.5t-43.5 -7.5l-29 11l66 75q-69 17 -108.5 67.5t-39.5 123.5q0 115 79 193t194 78q99 0 150.5 -55t46.5 -139l-134 -9q-3 81 -66 81q-49 0 -78.5 -45t-29.5 -104q0 -38 19 -57.5
t50 -19.5q70 0 97 82l131 -10q-20 -85 -84 -139.5t-160 -54.5q-4 0 -11.5 0.5t-10.5 0.5l-24 -25q45 8 73 -6.5t28 -47.5z" />
    <glyph glyph-name="egrave" unicode="&#xe8;" horiz-adv-x="513" 
d="M350 159l129 -12q-27 -76 -91.5 -117.5t-150.5 -41.5q-101 0 -160 52.5t-59 143.5q0 117 79 195.5t195 78.5q100 0 151.5 -55t51.5 -141q0 -37 -9 -70h-314q0 -41 21 -62t59 -21q71 0 98 50zM184 268h159q2 74 -65 74q-71 0 -94 -74zM379 488h-111l-61 142h154z" />
    <glyph glyph-name="eacute" unicode="&#xe9;" horiz-adv-x="513" 
d="M350 159l129 -12q-27 -76 -91.5 -117.5t-150.5 -41.5q-101 0 -160 52.5t-59 143.5q0 117 79 195.5t195 78.5q100 0 151.5 -55t51.5 -141q0 -37 -9 -70h-314q0 -41 21 -62t59 -21q71 0 98 50zM184 268h159q2 74 -65 74q-71 0 -94 -74zM373 488h-118l90 142h161z" />
    <glyph glyph-name="ecircumflex" unicode="&#xea;" horiz-adv-x="513" 
d="M350 159l129 -12q-27 -76 -91.5 -117.5t-150.5 -41.5q-101 0 -160 52.5t-59 143.5q0 117 79 195.5t195 78.5q100 0 151.5 -55t51.5 -141q0 -37 -9 -70h-314q0 -41 21 -62t59 -21q71 0 98 50zM184 268h159q2 74 -65 74q-71 0 -94 -74zM274 630h152l50 -142h-98l-46 55
l-74 -55h-106z" />
    <glyph glyph-name="edieresis" unicode="&#xeb;" horiz-adv-x="513" 
d="M350 159l129 -12q-27 -76 -91.5 -117.5t-150.5 -41.5q-101 0 -160 52.5t-59 143.5q0 117 79 195.5t195 78.5q100 0 151.5 -55t51.5 -141q0 -37 -9 -70h-314q0 -41 21 -62t59 -21q71 0 98 50zM184 268h159q2 74 -65 74q-71 0 -94 -74zM150 488l36 142h142l-36 -142h-142z
M338 488l36 142h142l-36 -142h-142z" />
    <glyph glyph-name="igrave" unicode="&#xec;" horiz-adv-x="250" 
d="M102 446h162l-111 -446h-162zM254 488h-111l-61 142h154z" />
    <glyph glyph-name="iacute" unicode="&#xed;" horiz-adv-x="250" 
d="M102 446h162l-111 -446h-162zM248 488h-118l90 142h161z" />
    <glyph glyph-name="icircumflex" unicode="&#xee;" horiz-adv-x="250" 
d="M102 446h162l-111 -446h-162zM149 630h152l50 -142h-98l-46 55l-74 -55h-106z" />
    <glyph glyph-name="idieresis" unicode="&#xef;" horiz-adv-x="250" 
d="M102 446h162l-111 -446h-162zM28 488l36 142h142l-36 -142h-142zM216 488l36 142h142l-36 -142h-142z" />
    <glyph glyph-name="eth" unicode="&#xf0;" horiz-adv-x="522" 
d="M136 435l-24 68l102 31q-38 30 -84 58l133 50q57 -31 94 -64l99 31l24 -68l-67 -21q91 -112 91 -246q0 -132 -74.5 -209t-193.5 -77q-99 0 -158.5 56.5t-59.5 146.5q0 101 63 166t158 65q61 0 105 -37q-20 44 -67 93zM245 113q48 0 72 40.5t24 89.5q0 70 -63 70
q-48 0 -72 -40.5t-24 -89.5q0 -70 63 -70z" />
    <glyph glyph-name="ntilde" unicode="&#xf1;" horiz-adv-x="552" 
d="M207 219l-54 -219h-162l111 446h162l-17 -68q59 80 150 80q82 0 114.5 -55t13.5 -132l-67 -271h-162l59 237q23 93 -48 93q-72 0 -100 -111zM284 488h-85q16 66 49.5 105.5t76.5 39.5q25 0 49 -18.5t39 -18.5q29 0 41 34h85q-17 -66 -50.5 -105.5t-76.5 -39.5
q-24 0 -48 18.5t-39 18.5q-29 0 -41 -34z" />
    <glyph glyph-name="ograve" unicode="&#xf2;" horiz-adv-x="527" 
d="M245 110q49 0 75.5 46.5t26.5 100.5q0 79 -65 79q-49 0 -75.5 -46.5t-26.5 -100.5q0 -79 65 -79zM238 -12q-100 0 -160 56t-60 147q0 116 76.5 191.5t194.5 75.5q100 0 160 -56t60 -147q0 -116 -76.5 -191.5t-194.5 -75.5zM385 488h-111l-61 142h154z" />
    <glyph glyph-name="oacute" unicode="&#xf3;" horiz-adv-x="527" 
d="M245 110q49 0 75.5 46.5t26.5 100.5q0 79 -65 79q-49 0 -75.5 -46.5t-26.5 -100.5q0 -79 65 -79zM238 -12q-100 0 -160 56t-60 147q0 116 76.5 191.5t194.5 75.5q100 0 160 -56t60 -147q0 -116 -76.5 -191.5t-194.5 -75.5zM379 488h-118l90 142h161z" />
    <glyph glyph-name="ocircumflex" unicode="&#xf4;" horiz-adv-x="527" 
d="M245 110q49 0 75.5 46.5t26.5 100.5q0 79 -65 79q-49 0 -75.5 -46.5t-26.5 -100.5q0 -79 65 -79zM238 -12q-100 0 -160 56t-60 147q0 116 76.5 191.5t194.5 75.5q100 0 160 -56t60 -147q0 -116 -76.5 -191.5t-194.5 -75.5zM279 630h152l50 -142h-98l-46 55l-74 -55h-106z
" />
    <glyph glyph-name="otilde" unicode="&#xf5;" horiz-adv-x="527" 
d="M245 110q49 0 75.5 46.5t26.5 100.5q0 79 -65 79q-49 0 -75.5 -46.5t-26.5 -100.5q0 -79 65 -79zM238 -12q-100 0 -160 56t-60 147q0 116 76.5 191.5t194.5 75.5q100 0 160 -56t60 -147q0 -116 -76.5 -191.5t-194.5 -75.5zM256 488h-85q16 66 49.5 105.5t76.5 39.5
q25 0 49 -18.5t39 -18.5q29 0 41 34h85q-17 -66 -50.5 -105.5t-76.5 -39.5q-24 0 -48 18.5t-39 18.5q-29 0 -41 -34z" />
    <glyph glyph-name="odieresis" unicode="&#xf6;" horiz-adv-x="527" 
d="M245 110q49 0 75.5 46.5t26.5 100.5q0 79 -65 79q-49 0 -75.5 -46.5t-26.5 -100.5q0 -79 65 -79zM238 -12q-100 0 -160 56t-60 147q0 116 76.5 191.5t194.5 75.5q100 0 160 -56t60 -147q0 -116 -76.5 -191.5t-194.5 -75.5zM158 488l36 142h142l-36 -142h-142zM346 488
l36 142h142l-36 -142h-142z" />
    <glyph glyph-name="divide" unicode="&#xf7;" horiz-adv-x="612" 
d="M52 243l34 135h527l-34 -135h-527zM279 442l41 163h173l-41 -163h-173zM172 16l41 162h173l-41 -162h-173z" />
    <glyph glyph-name="oslash" unicode="&#xf8;" horiz-adv-x="527" 
d="M22 7l46 50q-50 55 -50 134q0 116 76.5 191.5t194.5 75.5q63 0 118 -29l50 54l52 -44l-48 -53q48 -54 48 -131q0 -116 -76.5 -191.5t-194.5 -75.5q-63 0 -115 27l-49 -53zM161 189q0 -15 4 -26l153 168q-19 7 -36 7q-52 0 -86.5 -45.5t-34.5 -103.5zM245 108
q52 0 86.5 46.5t34.5 102.5q0 11 -3 22l-151 -166q17 -5 33 -5z" />
    <glyph glyph-name="ugrave" unicode="&#xf9;" horiz-adv-x="540" 
d="M337 223l55 223h162l-111 -446h-162l17 68q-53 -80 -150 -80q-79 0 -110 54.5t-12 132.5l67 271h162l-60 -241q-12 -46 -3 -69.5t45 -23.5q72 0 100 111zM394 488h-111l-61 142h154z" />
    <glyph glyph-name="uacute" unicode="&#xfa;" horiz-adv-x="540" 
d="M337 223l55 223h162l-111 -446h-162l17 68q-53 -80 -150 -80q-79 0 -110 54.5t-12 132.5l67 271h162l-60 -241q-12 -46 -3 -69.5t45 -23.5q72 0 100 111zM388 488h-118l90 142h161z" />
    <glyph glyph-name="ucircumflex" unicode="&#xfb;" horiz-adv-x="540" 
d="M337 223l55 223h162l-111 -446h-162l17 68q-53 -80 -150 -80q-79 0 -110 54.5t-12 132.5l67 271h162l-60 -241q-12 -46 -3 -69.5t45 -23.5q72 0 100 111zM289 630h152l50 -142h-98l-46 55l-74 -55h-106z" />
    <glyph glyph-name="udieresis" unicode="&#xfc;" horiz-adv-x="540" 
d="M337 223l55 223h162l-111 -446h-162l17 68q-53 -80 -150 -80q-79 0 -110 54.5t-12 132.5l67 271h162l-60 -241q-12 -46 -3 -69.5t45 -23.5q72 0 100 111zM168 488l36 142h142l-36 -142h-142zM356 488l36 142h142l-36 -142h-142z" />
    <glyph glyph-name="yacute" unicode="&#xfd;" horiz-adv-x="529" 
d="M181 -160h-161l107 163l-73 443h156l38 -268h4l164 268h173zM383 488h-118l90 142h161z" />
    <glyph glyph-name="thorn" unicode="&#xfe;" horiz-adv-x="574" 
d="M212 242l-5 -16q-15 -49 4.5 -82.5t61.5 -33.5q50 0 81.5 42t31.5 104q0 77 -72 77q-38 0 -64.5 -25t-37.5 -66zM170 70l-57 -230h-162l197 790h162l-65 -257q53 85 149 85q79 0 120.5 -48t41.5 -129q0 -121 -68.5 -207t-178.5 -86q-52 0 -89 22t-50 60z" />
    <glyph glyph-name="ydieresis" unicode="&#xff;" horiz-adv-x="529" 
d="M181 -160h-161l107 163l-73 443h156l38 -268h4l164 268h173zM162 488l36 142h142l-36 -142h-142zM350 488l36 142h142l-36 -142h-142z" />
    <glyph glyph-name="Amacron" unicode="&#x100;" horiz-adv-x="692" 
d="M352 630h190l97 -630h-174l-17 122h-247l-76 -122h-178zM315 672l27 108h285l-27 -108h-285zM399 440l-119 -191h150l-27 191h-4z" />
    <glyph glyph-name="amacron" unicode="&#x101;" horiz-adv-x="527" 
d="M297 183l1 5l-79 -10q-59 -8 -59 -49q0 -35 41 -35q32 0 60 24t36 65zM474 267l-34 -136q-9 -33 19 -33q17 0 38 7l-22 -86q-49 -29 -97 -29q-43 0 -69 20.5t-29 56.5q-45 -77 -149 -77q-63 0 -97 31t-34 83q0 128 182 148l136 14l3 13q14 59 -43 59q-49 0 -72 -50
l-152 10q27 75 90.5 117.5t160.5 42.5q93 0 142 -50.5t27 -140.5zM185 492l31 108h275l-31 -108h-275z" />
    <glyph glyph-name="Abreve" unicode="&#x102;" horiz-adv-x="692" 
d="M352 630h190l97 -630h-174l-17 122h-247l-76 -122h-178zM454 668q-50 0 -81 27t-31 74q0 19 6 41h89q-2 -10 -2 -14q0 -32 41 -32q52 0 63 46h93q-17 -67 -64 -104.5t-114 -37.5zM399 440l-119 -191h150l-27 191h-4z" />
    <glyph glyph-name="abreve" unicode="&#x103;" horiz-adv-x="527" 
d="M297 183l1 5l-79 -10q-59 -8 -59 -49q0 -35 41 -35q32 0 60 24t36 65zM474 267l-34 -136q-9 -33 19 -33q17 0 38 7l-22 -86q-49 -29 -97 -29q-43 0 -69 20.5t-29 56.5q-45 -77 -149 -77q-63 0 -97 31t-34 83q0 128 182 148l136 14l3 13q14 59 -43 59q-49 0 -72 -50
l-152 10q27 75 90.5 117.5t160.5 42.5q93 0 142 -50.5t27 -140.5zM325 488q-50 0 -81 27t-31 74q0 19 6 41h89q-2 -10 -2 -14q0 -32 41 -32q51 0 63 46h93q-17 -67 -64 -104.5t-114 -37.5z" />
    <glyph glyph-name="Aogonek" unicode="&#x104;" horiz-adv-x="692" 
d="M352 630h190l97 -630q-55 -24 -74 -38t-19 -34q0 -19 21 -19q18 0 47 12l-18 -72q-44 -24 -87 -24q-37 0 -57 18.5t-20 47.5q0 56 84 109h-51l-17 122h-247l-76 -122h-178zM399 440l-119 -191h150l-27 191h-4z" />
    <glyph glyph-name="aogonek" unicode="&#x105;" horiz-adv-x="527" 
d="M474 267l-34 -136q-9 -33 19 -33q17 0 38 7l-22 -86q-54 -31 -74 -49t-21 -38q-2 -23 21 -23q18 0 47 12l-18 -72q-44 -24 -87 -24q-37 0 -57 18.5t-20 47.5q0 53 76 104q-57 14 -62 72q-45 -77 -149 -77q-63 0 -97 31t-34 83q0 128 182 148l136 14l3 13q14 59 -43 59
q-49 0 -72 -50l-152 10q27 75 90.5 117.5t160.5 42.5q93 0 142 -50.5t27 -140.5zM297 183l1 5l-79 -10q-59 -8 -59 -49q0 -35 41 -35q32 0 60 24t36 65z" />
    <glyph glyph-name="Cacute" unicode="&#x106;" horiz-adv-x="672" 
d="M45 265q0 161 104.5 269t265.5 108q136 0 204 -78.5t62 -201.5l-158 -6q-1 59 -31 97t-98 38q-80 0 -127 -64.5t-47 -149.5q0 -64 34 -101t94 -37q68 0 108.5 38t55.5 97l160 -7q-25 -124 -114.5 -201.5t-228.5 -77.5q-127 0 -205.5 76t-78.5 201zM489 668h-118l89 142
h161z" />
    <glyph glyph-name="cacute" unicode="&#x107;" 
d="M17 187q0 115 79 193t194 78q99 0 150.5 -55t46.5 -139l-134 -9q-3 81 -66 81q-49 0 -78.5 -45t-29.5 -104q0 -38 19 -57.5t50 -19.5q70 0 97 82l131 -10q-20 -85 -84 -139.5t-160 -54.5q-97 0 -156 55t-59 144zM363 488h-118l90 142h161z" />
    <glyph glyph-name="Ccircumflex" unicode="&#x108;" horiz-adv-x="672" 
d="M45 265q0 161 104.5 269t265.5 108q136 0 204 -78.5t62 -201.5l-158 -6q-1 59 -31 97t-98 38q-80 0 -127 -64.5t-47 -149.5q0 -64 34 -101t94 -37q68 0 108.5 38t55.5 97l160 -7q-25 -124 -114.5 -201.5t-228.5 -77.5q-127 0 -205.5 76t-78.5 201zM387 810h152l51 -142
h-98l-46 55l-74 -55h-106z" />
    <glyph glyph-name="ccircumflex" unicode="&#x109;" 
d="M17 187q0 115 79 193t194 78q99 0 150.5 -55t46.5 -139l-134 -9q-3 81 -66 81q-49 0 -78.5 -45t-29.5 -104q0 -38 19 -57.5t50 -19.5q70 0 97 82l131 -10q-20 -85 -84 -139.5t-160 -54.5q-97 0 -156 55t-59 144zM264 630h152l50 -142h-98l-46 55l-74 -55h-106z" />
    <glyph glyph-name="Cdotaccent" unicode="&#x10a;" horiz-adv-x="672" 
d="M45 265q0 161 104.5 269t265.5 108q136 0 204 -78.5t62 -201.5l-158 -6q-1 59 -31 97t-98 38q-80 0 -127 -64.5t-47 -149.5q0 -64 34 -101t94 -37q68 0 108.5 38t55.5 97l160 -7q-25 -124 -114.5 -201.5t-228.5 -77.5q-127 0 -205.5 76t-78.5 201zM360 668l35 142h164
l-35 -142h-164z" />
    <glyph glyph-name="cdotaccent" unicode="&#x10b;" 
d="M17 187q0 115 79 193t194 78q99 0 150.5 -55t46.5 -139l-134 -9q-3 81 -66 81q-49 0 -78.5 -45t-29.5 -104q0 -38 19 -57.5t50 -19.5q70 0 97 82l131 -10q-20 -85 -84 -139.5t-160 -54.5q-97 0 -156 55t-59 144zM226 488l36 142h164l-36 -142h-164z" />
    <glyph glyph-name="Ccaron" unicode="&#x10c;" horiz-adv-x="672" 
d="M45 265q0 161 104.5 269t265.5 108q136 0 204 -78.5t62 -201.5l-158 -6q-1 59 -31 97t-98 38q-80 0 -127 -64.5t-47 -149.5q0 -64 34 -101t94 -37q68 0 108.5 38t55.5 97l160 -7q-25 -124 -114.5 -201.5t-228.5 -77.5q-127 0 -205.5 76t-78.5 201zM510 668h-152l-51 142
h98l47 -55l73 55h106z" />
    <glyph glyph-name="ccaron" unicode="&#x10d;" 
d="M17 187q0 115 79 193t194 78q99 0 150.5 -55t46.5 -139l-134 -9q-3 81 -66 81q-49 0 -78.5 -45t-29.5 -104q0 -38 19 -57.5t50 -19.5q70 0 97 82l131 -10q-20 -85 -84 -139.5t-160 -54.5q-97 0 -156 55t-59 144zM386 488h-152l-50 142h98l46 -55l74 55h106z" />
    <glyph glyph-name="Dcaron" unicode="&#x10e;" horiz-adv-x="658" 
d="M198 134h66q105 0 166.5 60t61.5 170q0 62 -38 97t-111 35h-55zM-5 0l157 630h225q126 0 206.5 -69.5t80.5 -196.5q0 -167 -114.5 -265.5t-297.5 -98.5h-257zM478 668h-152l-51 142h98l47 -55l73 55h106z" />
    <glyph glyph-name="dcaron" unicode="&#x10f;" horiz-adv-x="569" 
d="M362 204l5 16q15 49 -4.5 82.5t-61.5 33.5q-50 0 -81.5 -42t-31.5 -104q0 -77 72 -77q38 0 64.5 25t37.5 66zM404 376l63 254h162l-157 -630h-162l19 73q-53 -85 -149 -85q-79 0 -120.5 48t-41.5 129q0 121 68.5 207t178.5 86q52 0 89 -22t50 -60zM724 481h-102l51 149
h155z" />
    <glyph glyph-name="Dcroat" unicode="&#x110;" horiz-adv-x="683" 
d="M22 249l34 138h60l61 243h225q126 0 206.5 -69.5t80.5 -196.5q0 -167 -114.5 -265.5t-297.5 -98.5h-257l62 249h-60zM223 134h66q105 0 166.5 60t61.5 170q0 62 -38 97t-111 35h-55l-27 -109h130l-34 -138h-131z" />
    <glyph glyph-name="dcroat" unicode="&#x111;" horiz-adv-x="569" 
d="M304 468l24 99h123l16 63h162l-16 -63h55l-24 -99h-56l-116 -468h-162l19 70q-53 -82 -149 -82q-79 0 -120.5 46t-41.5 124q0 116 68.5 199t178.5 83q52 0 87 -21t48 -58l26 107h-122zM362 197l5 15q16 45 -4 78t-62 33q-50 0 -81.5 -40t-31.5 -100q0 -73 72 -73
q38 0 64.5 24t37.5 63z" />
    <glyph glyph-name="Emacron" unicode="&#x112;" horiz-adv-x="572" 
d="M525 140l-34 -140h-496l157 630h487l-35 -140h-320l-26 -103h247l-34 -138h-247l-28 -109h329zM263 672l27 108h285l-27 -108h-285z" />
    <glyph glyph-name="emacron" unicode="&#x113;" horiz-adv-x="513" 
d="M350 159l129 -12q-27 -76 -91.5 -117.5t-150.5 -41.5q-101 0 -160 52.5t-59 143.5q0 117 79 195.5t195 78.5q100 0 151.5 -55t51.5 -141q0 -37 -9 -70h-314q0 -41 21 -62t59 -21q71 0 98 50zM184 268h159q2 74 -65 74q-71 0 -94 -74zM180 492l31 108h275l-31 -108h-275z
" />
    <glyph glyph-name="Ebreve" unicode="&#x114;" horiz-adv-x="572" 
d="M525 140l-34 -140h-496l157 630h487l-35 -140h-320l-26 -103h247l-34 -138h-247l-28 -109h329zM402 668q-50 0 -81 27t-31 74q0 19 6 41h89q-2 -10 -2 -14q0 -32 41 -32q52 0 63 46h93q-17 -67 -64 -104.5t-114 -37.5z" />
    <glyph glyph-name="ebreve" unicode="&#x115;" horiz-adv-x="513" 
d="M350 159l129 -12q-27 -76 -91.5 -117.5t-150.5 -41.5q-101 0 -160 52.5t-59 143.5q0 117 79 195.5t195 78.5q100 0 151.5 -55t51.5 -141q0 -37 -9 -70h-314q0 -41 21 -62t59 -21q71 0 98 50zM184 268h159q2 74 -65 74q-71 0 -94 -74zM317 488q-50 0 -81 27t-31 74
q0 19 6 41h89q-2 -10 -2 -14q0 -32 41 -32q51 0 63 46h93q-17 -67 -64 -104.5t-114 -37.5z" />
    <glyph glyph-name="Edotaccent" unicode="&#x116;" horiz-adv-x="572" 
d="M525 140l-34 -140h-496l157 630h487l-35 -140h-320l-26 -103h247l-34 -138h-247l-28 -109h329zM324 668l35 142h164l-35 -142h-164z" />
    <glyph glyph-name="edotaccent" unicode="&#x117;" horiz-adv-x="513" 
d="M350 159l129 -12q-27 -76 -91.5 -117.5t-150.5 -41.5q-101 0 -160 52.5t-59 143.5q0 117 79 195.5t195 78.5q100 0 151.5 -55t51.5 -141q0 -37 -9 -70h-314q0 -41 21 -62t59 -21q71 0 98 50zM184 268h159q2 74 -65 74q-71 0 -94 -74zM236 488l36 142h164l-36 -142h-164z
" />
    <glyph glyph-name="Eogonek" unicode="&#x118;" horiz-adv-x="572" 
d="M525 140l-34 -140h-48q-4 -3 -12 -8.5t-11 -8t-9.5 -7t-9 -7t-7 -6.5t-6.5 -6.5t-4.5 -6.5t-3.5 -7.5t-2 -7.5t-1 -8q0 -18 21 -18q18 0 47 12l-18 -72q-44 -24 -87 -24q-37 0 -57 18.5t-20 47.5q0 56 84 109h-352l157 630h487l-35 -140h-320l-26 -103h247l-34 -138h-247
l-28 -109h329z" />
    <glyph glyph-name="eogonek" unicode="&#x119;" horiz-adv-x="513" 
d="M350 159l129 -12q-27 -75 -104 -125q-79 -52 -79 -90q0 -23 21 -23q18 0 47 12l-18 -72q-44 -24 -87 -24q-37 0 -57 18.5t-20 47.5q0 52 63 97h-8q-101 0 -160 52.5t-59 143.5q0 117 79 195.5t195 78.5q100 0 151.5 -55t51.5 -141q0 -37 -9 -70h-314q0 -41 21 -62t59 -21
q71 0 98 50zM184 268h159q2 74 -65 74q-71 0 -94 -74z" />
    <glyph glyph-name="Ecaron" unicode="&#x11a;" horiz-adv-x="572" 
d="M525 140l-34 -140h-496l157 630h487l-35 -140h-320l-26 -103h247l-34 -138h-247l-28 -109h329zM483 668h-152l-51 142h98l47 -55l73 55h106z" />
    <glyph glyph-name="ecaron" unicode="&#x11b;" horiz-adv-x="513" 
d="M350 159l129 -12q-27 -76 -91.5 -117.5t-150.5 -41.5q-101 0 -160 52.5t-59 143.5q0 117 79 195.5t195 78.5q100 0 151.5 -55t51.5 -141q0 -37 -9 -70h-314q0 -41 21 -62t59 -21q71 0 98 50zM184 268h159q2 74 -65 74q-71 0 -94 -74zM396 488h-152l-50 142h98l46 -55
l74 55h106z" />
    <glyph glyph-name="Gcircumflex" unicode="&#x11c;" horiz-adv-x="705" 
d="M686 383l-164 -7q-4 51 -35 83t-93 32q-80 0 -127 -64t-47 -153q0 -67 34 -103.5t94 -36.5q97 0 151 71h-139l31 122h299l-81 -327h-141l16 66q-61 -78 -176 -78q-119 0 -191 76t-72 197q0 164 104 272.5t266 108.5q131 0 199.5 -72.5t71.5 -186.5zM388 810h152l51 -142
h-98l-46 55l-74 -55h-106z" />
    <glyph glyph-name="gcircumflex" unicode="&#x11d;" horiz-adv-x="563" 
d="M357 217l4 18q10 47 -9.5 75.5t-62.5 28.5q-47 0 -75.5 -36.5t-28.5 -92.5q0 -37 19 -56.5t51 -19.5q40 0 67 22.5t35 60.5zM319 56l10 41q-48 -72 -139 -72q-78 0 -125.5 45.5t-47.5 127.5q0 104 66 182t177 78q52 0 88.5 -22t49.5 -59l18 69h162l-99 -397
q-54 -221 -282 -221q-93 0 -155.5 45.5t-63.5 123.5l157 7q2 -28 21.5 -41t47.5 -13q90 0 115 106zM308 630h152l50 -142h-98l-46 55l-74 -55h-106z" />
    <glyph glyph-name="Gbreve" unicode="&#x11e;" horiz-adv-x="705" 
d="M686 383l-164 -7q-4 51 -35 83t-93 32q-80 0 -127 -64t-47 -153q0 -67 34 -103.5t94 -36.5q97 0 151 71h-139l31 122h299l-81 -327h-141l16 66q-61 -78 -176 -78q-119 0 -191 76t-72 197q0 164 104 272.5t266 108.5q131 0 199.5 -72.5t71.5 -186.5zM430 668q-50 0 -81 27
t-31 74q0 19 6 41h89q-2 -10 -2 -14q0 -32 41 -32q52 0 63 46h93q-17 -67 -64 -104.5t-114 -37.5z" />
    <glyph glyph-name="gbreve" unicode="&#x11f;" horiz-adv-x="563" 
d="M357 217l4 18q10 47 -9.5 75.5t-62.5 28.5q-47 0 -75.5 -36.5t-28.5 -92.5q0 -37 19 -56.5t51 -19.5q40 0 67 22.5t35 60.5zM319 56l10 41q-48 -72 -139 -72q-78 0 -125.5 45.5t-47.5 127.5q0 104 66 182t177 78q52 0 88.5 -22t49.5 -59l18 69h162l-99 -397
q-54 -221 -282 -221q-93 0 -155.5 45.5t-63.5 123.5l157 7q2 -28 21.5 -41t47.5 -13q90 0 115 106zM351 488q-50 0 -81 27t-31 74q0 19 6 41h89q-2 -10 -2 -14q0 -32 41 -32q51 0 63 46h93q-17 -67 -64 -104.5t-114 -37.5z" />
    <glyph glyph-name="Gdotaccent" unicode="&#x120;" horiz-adv-x="705" 
d="M686 383l-164 -7q-4 51 -35 83t-93 32q-80 0 -127 -64t-47 -153q0 -67 34 -103.5t94 -36.5q97 0 151 71h-139l31 122h299l-81 -327h-141l16 66q-61 -78 -176 -78q-119 0 -191 76t-72 197q0 164 104 272.5t266 108.5q131 0 199.5 -72.5t71.5 -186.5zM362 668l35 142h164
l-35 -142h-164z" />
    <glyph glyph-name="gdotaccent" unicode="&#x121;" horiz-adv-x="563" 
d="M357 217l4 18q10 47 -9.5 75.5t-62.5 28.5q-47 0 -75.5 -36.5t-28.5 -92.5q0 -37 19 -56.5t51 -19.5q40 0 67 22.5t35 60.5zM319 56l10 41q-48 -72 -139 -72q-78 0 -125.5 45.5t-47.5 127.5q0 104 66 182t177 78q52 0 88.5 -22t49.5 -59l18 69h162l-99 -397
q-54 -221 -282 -221q-93 0 -155.5 45.5t-63.5 123.5l157 7q2 -28 21.5 -41t47.5 -13q90 0 115 106zM270 488l36 142h164l-36 -142h-164z" />
    <glyph glyph-name="Gcommaaccent" unicode="&#x122;" horiz-adv-x="705" 
d="M686 383l-164 -7q-4 51 -35 83t-93 32q-80 0 -127 -64t-47 -153q0 -67 34 -103.5t94 -36.5q97 0 151 71h-139l31 122h299l-81 -327h-141l16 66q-61 -78 -176 -78q-119 0 -191 76t-72 197q0 164 104 272.5t266 108.5q131 0 199.5 -72.5t71.5 -186.5zM222 -133l25 99h142
l-18 -73q-28 -111 -170 -111l13 53q29 0 43.5 6.5t19.5 25.5h-55z" />
    <glyph glyph-name="gcommaaccent" unicode="&#x123;" horiz-adv-x="563" 
d="M357 217l4 18q10 47 -9.5 75.5t-62.5 28.5q-47 0 -75.5 -36.5t-28.5 -92.5q0 -37 19 -56.5t51 -19.5q40 0 67 22.5t35 60.5zM319 56l10 41q-48 -72 -139 -72q-78 0 -125.5 45.5t-47.5 127.5q0 104 66 182t177 78q52 0 88.5 -22t49.5 -59l18 69h162l-99 -397
q-54 -221 -282 -221q-93 0 -155.5 45.5t-63.5 123.5l157 7q2 -28 21.5 -41t47.5 -13q90 0 115 106zM448 587l-25 -99h-142l18 73q28 111 170 111l-13 -53q-29 0 -43.5 -6.5t-19.5 -25.5h55z" />
    <glyph glyph-name="Hcircumflex" unicode="&#x124;" horiz-adv-x="687" 
d="M165 0h-170l157 630h170l-61 -243h251l61 243h170l-157 -630h-170l62 249h-251zM412 810h152l51 -142h-98l-46 55l-74 -55h-106z" />
    <glyph glyph-name="hcircumflex" unicode="&#x125;" horiz-adv-x="552" 
d="M207 219l-54 -219h-162l157 630h162l-63 -252q59 80 150 80q82 0 114.5 -55t13.5 -132l-67 -271h-162l59 237q23 93 -48 93q-72 0 -100 -111zM337 810h152l51 -142h-98l-46 55l-74 -55h-106z" />
    <glyph glyph-name="Hbar" unicode="&#x126;" horiz-adv-x="738" 
d="M59 403l34 138h62l22 89h170l-22 -89h251l22 89h170l-22 -89h62l-34 -138h-63l-100 -403h-170l50 199h-251l-50 -199h-170l100 403h-61zM274 337h251l16 66h-251z" />
    <glyph glyph-name="hbar" unicode="&#x127;" horiz-adv-x="552" 
d="M52 468l24 99h56l16 63h162l-16 -63h122l-24 -99h-123l-26 -107q59 80 150 80q82 0 114.5 -55t13.5 -132l-63 -254h-162l55 220q23 93 -48 93q-72 0 -100 -111l-50 -202h-162l116 468h-55z" />
    <glyph glyph-name="Itilde" unicode="&#x128;" horiz-adv-x="266" 
d="M179 668h-85q16 66 49.5 105.5t76.5 39.5q24 0 48 -18.5t40 -18.5q29 0 41 34h85q-17 -66 -50.5 -105.5t-76.5 -39.5q-25 0 -48 18.5t-39 18.5q-29 0 -41 -34zM152 630h170l-157 -630h-170z" />
    <glyph glyph-name="itilde" unicode="&#x129;" horiz-adv-x="250" 
d="M126 488h-85q16 66 49.5 105.5t76.5 39.5q25 0 45 -18.5t35 -18.5q29 0 41 34h85q-17 -66 -50.5 -105.5t-76.5 -39.5q-24 0 -44 18.5t-35 18.5q-29 0 -41 -34zM102 446h162l-111 -446h-162z" />
    <glyph glyph-name="Imacron" unicode="&#x12a;" horiz-adv-x="266" 
d="M104 672l27 108h285l-27 -108h-285zM152 630h170l-157 -630h-170z" />
    <glyph glyph-name="imacron" unicode="&#x12b;" horiz-adv-x="250" 
d="M65 492l31 108h255l-31 -108h-255zM102 446h162l-111 -446h-162z" />
    <glyph glyph-name="Ibreve" unicode="&#x12c;" horiz-adv-x="266" 
d="M152 630h170l-157 -630h-170zM243 668q-50 0 -81 27t-31 74q0 19 6 41h89q-2 -10 -2 -14q0 -32 41 -32q51 0 63 46h93q-17 -67 -64 -104.5t-114 -37.5z" />
    <glyph glyph-name="ibreve" unicode="&#x12d;" horiz-adv-x="250" 
d="M102 446h162l-111 -446h-162zM192 488q-50 0 -81 27t-31 74q0 19 6 41h89q-2 -10 -2 -14q0 -32 41 -32q52 0 63 46h93q-17 -67 -64 -104.5t-114 -37.5z" />
    <glyph glyph-name="Iogonek" unicode="&#x12e;" horiz-adv-x="266" 
d="M152 630h170l-157 -630q-53 -25 -70.5 -38.5t-17.5 -33.5q0 -19 21 -19q18 0 47 12l-18 -72q-44 -24 -87 -24q-37 0 -57 18.5t-20 47.5q0 56 84 109h-52z" />
    <glyph glyph-name="iogonek" unicode="&#x12f;" horiz-adv-x="250" 
d="M102 446h162l-111 -446q-49 -25 -66 -39t-17 -34q0 -18 21 -18q18 0 47 12l-18 -72q-44 -24 -87 -24q-37 0 -57 18.5t-20 47.5q0 56 84 109h-49zM111 488l36 142h164l-36 -142h-164z" />
    <glyph glyph-name="Idotaccent" unicode="&#x130;" horiz-adv-x="266" 
d="M152 630h170l-157 -630h-170zM165 668l35 142h164l-35 -142h-164z" />
    <glyph glyph-name="dotlessi" unicode="&#x131;" horiz-adv-x="250" 
d="M102 446h162l-111 -446h-162z" />
    <glyph glyph-name="IJ" unicode="&#x132;" horiz-adv-x="819" 
d="M152 630h170l-157 -630h-170zM714 630h170l-100 -401q-61 -241 -296 -241q-122 0 -181.5 75t-32.5 198l165 6q-12 -67 3.5 -101t62.5 -34q46 0 71.5 26.5t40.5 85.5z" />
    <glyph glyph-name="ij" unicode="&#x133;" 
d="M102 446h162l-111 -446h-162zM111 488l36 142h164l-36 -142h-164zM514 446l-115 -461q-21 -83 -66.5 -120t-124.5 -37q-38 0 -74 11.5t-55 29.5l47 92q31 -22 57 -22q42 0 56 54l113 453h162zM361 488l36 142h164l-36 -142h-164z" />
    <glyph glyph-name="Jcircumflex" unicode="&#x134;" horiz-adv-x="563" 
d="M458 630h170l-100 -401q-61 -241 -296 -241q-122 0 -181.5 75t-32.5 198l165 6q-12 -67 3.5 -101t62.5 -34q46 0 71.5 26.5t40.5 85.5zM502 810h152l51 -142h-98l-46 55l-74 -55h-106z" />
    <glyph glyph-name="jcircumflex" unicode="&#x135;" horiz-adv-x="250" 
d="M264 446l-115 -461q-21 -83 -66.5 -120t-124.5 -37q-38 0 -74 11.5t-55 29.5l47 92q31 -22 57 -22q42 0 56 54l113 453h162zM142 630h152l50 -142h-98l-46 55l-74 -55h-106z" />
    <glyph glyph-name="Kcommaaccent" unicode="&#x136;" horiz-adv-x="641" 
d="M598 0h-189l-125 252l-72 -61l-47 -191h-170l157 630h170l-63 -247l279 247h205l-321 -283zM172 -133l25 99h142l-18 -73q-28 -111 -170 -111l13 53q29 0 43.5 6.5t19.5 25.5h-55z" />
    <glyph glyph-name="kcommaaccent" unicode="&#x137;" horiz-adv-x="543" 
d="M188 141l-35 -141h-162l157 630h162l-83 -330l174 146h201l-230 -181l126 -265h-172l-85 185zM127 -133l25 99h142l-18 -73q-28 -111 -170 -111l13 53q29 0 43.5 6.5t19.5 25.5h-55z" />
    <glyph glyph-name="kgreenlandic" unicode="&#x138;" horiz-adv-x="543" 
d="M188 141l-35 -141h-162l111 446h162l-37 -146l174 146h201l-230 -181l126 -265h-172l-85 185z" />
    <glyph glyph-name="Lacute" unicode="&#x139;" horiz-adv-x="555" 
d="M152 630h170l-123 -490h312l-34 -140h-482zM300 668h-118l89 142h161z" />
    <glyph glyph-name="lacute" unicode="&#x13a;" horiz-adv-x="250" 
d="M148 630h162l-157 -630h-162zM295 668h-118l89 142h161z" />
    <glyph glyph-name="Lcommaaccent" unicode="&#x13b;" horiz-adv-x="555" 
d="M152 630h170l-123 -490h312l-34 -140h-482zM138 -133l25 99h142l-18 -73q-28 -111 -170 -111l13 53q29 0 43.5 6.5t19.5 25.5h-55z" />
    <glyph glyph-name="lcommaaccent" unicode="&#x13c;" horiz-adv-x="250" 
d="M148 630h162l-157 -630h-162zM-33 -133l25 99h142l-18 -73q-28 -111 -170 -111l13 53q29 0 43.5 6.5t19.5 25.5h-55z" />
    <glyph glyph-name="Lcaron" unicode="&#x13d;" horiz-adv-x="555" 
d="M152 630h170l-123 -490h312l-34 -140h-482zM452 481h-102l51 149h155z" />
    <glyph glyph-name="lcaron" unicode="&#x13e;" horiz-adv-x="250" 
d="M148 630h162l-157 -630h-162zM406 481h-102l51 149h155z" />
    <glyph glyph-name="Ldot" unicode="&#x13f;" horiz-adv-x="555" 
d="M152 630h170l-123 -490h312l-34 -140h-482zM347 288l36 142h164l-36 -142h-164z" />
    <glyph glyph-name="ldot" unicode="&#x140;" horiz-adv-x="429" 
d="M148 630h162l-157 -630h-162zM264 244l36 142h164l-36 -142h-164z" />
    <glyph glyph-name="Lslash" unicode="&#x141;" horiz-adv-x="580" 
d="M177 630h170l-58 -230l156 43l-33 -134l-157 -44l-31 -125h312l-34 -140h-482l54 219l-64 -18l33 134l65 18z" />
    <glyph glyph-name="lslash" unicode="&#x142;" horiz-adv-x="309" 
d="M174 630h162l-54 -217l86 36l-29 -117l-86 -35l-74 -297h-162l59 238l-84 -35l29 117l84 34z" />
    <glyph glyph-name="Nacute" unicode="&#x143;" horiz-adv-x="660" 
d="M314 630l155 -365l91 365h156l-157 -630h-136l-176 389l-96 -389h-156l157 630h162zM506 668h-118l89 142h161z" />
    <glyph glyph-name="nacute" unicode="&#x144;" horiz-adv-x="552" 
d="M207 219l-54 -219h-162l111 446h162l-17 -68q59 80 150 80q82 0 114.5 -55t13.5 -132l-67 -271h-162l59 237q23 93 -48 93q-72 0 -100 -111zM406 488h-118l90 142h161z" />
    <glyph glyph-name="Ncommaaccent" unicode="&#x145;" horiz-adv-x="660" 
d="M314 630l155 -365l91 365h156l-157 -630h-136l-176 389l-96 -389h-156l157 630h162zM178 -133l25 99h142l-18 -73q-28 -111 -170 -111l13 53q29 0 43.5 6.5t19.5 25.5h-55z" />
    <glyph glyph-name="ncommaaccent" unicode="&#x146;" horiz-adv-x="552" 
d="M207 219l-54 -219h-162l111 446h162l-17 -68q59 80 150 80q82 0 114.5 -55t13.5 -132l-67 -271h-162l59 237q23 93 -48 93q-72 0 -100 -111zM125 -133l25 99h142l-18 -73q-28 -111 -170 -111l13 53q29 0 43.5 6.5t19.5 25.5h-55z" />
    <glyph glyph-name="Ncaron" unicode="&#x147;" horiz-adv-x="660" 
d="M314 630l155 -365l91 365h156l-157 -630h-136l-176 389l-96 -389h-156l157 630h162zM527 668h-152l-51 142h98l47 -55l73 55h106z" />
    <glyph glyph-name="ncaron" unicode="&#x148;" horiz-adv-x="552" 
d="M207 219l-54 -219h-162l111 446h162l-17 -68q59 80 150 80q82 0 114.5 -55t13.5 -132l-67 -271h-162l59 237q23 93 -48 93q-72 0 -100 -111zM429 488h-152l-50 142h98l46 -55l74 55h106z" />
    <glyph glyph-name="Eng" unicode="&#x14a;" horiz-adv-x="660" 
d="M410 28l-163 361l-96 -389h-156l157 630h162l155 -365l91 365h156l-156 -626q-44 -176 -208 -176q-48 0 -92.5 20.5t-63.5 47.5l86 98q25 -30 61 -30q31 0 46 15t21 49z" />
    <glyph glyph-name="eng" unicode="&#x14b;" horiz-adv-x="552" 
d="M294 -7l61 244q23 93 -48 93q-72 0 -100 -111l-54 -219h-162l111 446h162l-17 -68q59 80 150 80q82 0 114.5 -55t13.5 -132l-71 -286q-20 -82 -65.5 -119.5t-125.5 -37.5q-38 0 -74 11.5t-55 29.5l47 92q31 -22 57 -22q42 0 56 54z" />
    <glyph glyph-name="Omacron" unicode="&#x14c;" horiz-adv-x="694" 
d="M401 642q137 0 218 -75t81 -207q0 -160 -105 -266t-251 -106q-137 0 -218 74.5t-81 207.5q0 160 105 266t251 106zM348 138q76 0 126.5 62.5t50.5 159.5q0 62 -33.5 97t-94.5 35q-76 0 -126.5 -62.5t-50.5 -159.5q0 -62 33.5 -97t94.5 -35zM294 672l27 108h285l-27 -108
h-285z" />
    <glyph glyph-name="omacron" unicode="&#x14d;" horiz-adv-x="527" 
d="M245 110q49 0 75.5 46.5t26.5 100.5q0 79 -65 79q-49 0 -75.5 -46.5t-26.5 -100.5q0 -79 65 -79zM238 -12q-100 0 -160 56t-60 147q0 116 76.5 191.5t194.5 75.5q100 0 160 -56t60 -147q0 -116 -76.5 -191.5t-194.5 -75.5zM185 492l31 108h275l-31 -108h-275z" />
    <glyph glyph-name="Obreve" unicode="&#x14e;" horiz-adv-x="694" 
d="M401 642q137 0 218 -75t81 -207q0 -160 -105 -266t-251 -106q-137 0 -218 74.5t-81 207.5q0 160 105 266t251 106zM348 138q76 0 126.5 62.5t50.5 159.5q0 62 -33.5 97t-94.5 35q-76 0 -126.5 -62.5t-50.5 -159.5q0 -62 33.5 -97t94.5 -35zM441 668q-50 0 -81 27t-31 74
q0 19 6 41h89q-2 -10 -2 -14q0 -32 41 -32q51 0 63 46h93q-17 -67 -64 -104.5t-114 -37.5z" />
    <glyph glyph-name="obreve" unicode="&#x14f;" horiz-adv-x="527" 
d="M245 110q49 0 75.5 46.5t26.5 100.5q0 79 -65 79q-49 0 -75.5 -46.5t-26.5 -100.5q0 -79 65 -79zM238 -12q-100 0 -160 56t-60 147q0 116 76.5 191.5t194.5 75.5q100 0 160 -56t60 -147q0 -116 -76.5 -191.5t-194.5 -75.5zM322 488q-50 0 -81 27t-31 74q0 19 6 41h89
q-2 -10 -2 -14q0 -32 41 -32q52 0 63 46h93q-17 -67 -64 -104.5t-114 -37.5z" />
    <glyph glyph-name="Ohungarumlaut" unicode="&#x150;" horiz-adv-x="694" 
d="M401 642q137 0 218 -75t81 -207q0 -160 -105 -266t-251 -106q-137 0 -218 74.5t-81 207.5q0 160 105 266t251 106zM348 138q76 0 126.5 62.5t50.5 159.5q0 62 -33.5 97t-94.5 35q-76 0 -126.5 -62.5t-50.5 -159.5q0 -62 33.5 -97t94.5 -35zM392 668h-105l75 142h148z
M564 668h-105l75 142h148z" />
    <glyph glyph-name="ohungarumlaut" unicode="&#x151;" horiz-adv-x="527" 
d="M245 110q49 0 75.5 46.5t26.5 100.5q0 79 -65 79q-49 0 -75.5 -46.5t-26.5 -100.5q0 -79 65 -79zM238 -12q-100 0 -160 56t-60 147q0 116 76.5 191.5t194.5 75.5q100 0 160 -56t60 -147q0 -116 -76.5 -191.5t-194.5 -75.5zM264 488h-105l76 142h148zM436 488h-105l76 142
h148z" />
    <glyph glyph-name="OE" unicode="&#x152;" horiz-adv-x="966" 
d="M919 140l-34 -140h-553q-126 0 -206.5 69.5t-80.5 196.5q0 167 114.5 265.5t297.5 98.5h576l-35 -140h-320l-26 -103h247l-34 -138h-247l-28 -109h329zM511 496h-66q-105 0 -166.5 -60t-61.5 -170q0 -62 38 -97t111 -35h55z" />
    <glyph glyph-name="oe" unicode="&#x153;" horiz-adv-x="823" 
d="M289 458q93 0 152 -54q72 54 161 54q100 0 151.5 -55t51.5 -141q0 -37 -9 -70h-314q0 -41 21 -62t59 -21q71 0 98 50l129 -12q-27 -76 -91.5 -117.5t-150.5 -41.5q-89 0 -151 54q-69 -54 -158 -54q-100 0 -160 56t-60 147q0 116 76.5 191.5t194.5 75.5zM245 110
q49 0 75.5 46.5t26.5 100.5q0 79 -65 79q-49 0 -75.5 -46.5t-26.5 -100.5q0 -79 65 -79zM494 268h159q2 74 -65 74q-71 0 -94 -74z" />
    <glyph glyph-name="Racute" unicode="&#x154;" horiz-adv-x="637" 
d="M566 0h-172q-6 10 -6 35q0 11 6.5 55t6.5 62q0 33 -18 45t-56 12h-113l-52 -209h-167l157 630h291q106 0 164 -43t58 -129q0 -80 -54.5 -131t-125.5 -57q86 -18 86 -97q0 -19 -7.5 -68t-7.5 -66q0 -25 10 -39zM246 340h115q130 0 130 92q0 62 -91 62h-115zM465 668h-118
l89 142h161z" />
    <glyph glyph-name="racute" unicode="&#x155;" horiz-adv-x="396" 
d="M446 441l-48 -153q-26 19 -72 19q-97 0 -123 -103l-50 -204h-162l111 446h162l-21 -83q52 95 141 95q39 0 62 -17zM334 488h-118l90 142h161z" />
    <glyph glyph-name="Rcommaaccent" unicode="&#x156;" horiz-adv-x="637" 
d="M566 0h-172q-6 10 -6 35q0 11 6.5 55t6.5 62q0 33 -18 45t-56 12h-113l-52 -209h-167l157 630h291q106 0 164 -43t58 -129q0 -80 -54.5 -131t-125.5 -57q86 -18 86 -97q0 -19 -7.5 -68t-7.5 -66q0 -25 10 -39zM246 340h115q130 0 130 92q0 62 -91 62h-115zM175 -133
l25 99h142l-18 -73q-28 -111 -170 -111l13 53q29 0 43.5 6.5t19.5 25.5h-55z" />
    <glyph glyph-name="rcommaaccent" unicode="&#x157;" horiz-adv-x="396" 
d="M446 441l-48 -153q-26 19 -72 19q-97 0 -123 -103l-50 -204h-162l111 446h162l-21 -83q52 95 141 95q39 0 62 -17zM-36 -133l25 99h142l-18 -73q-28 -111 -170 -111l13 53q29 0 43.5 6.5t19.5 25.5h-55z" />
    <glyph glyph-name="Rcaron" unicode="&#x158;" horiz-adv-x="637" 
d="M566 0h-172q-6 10 -6 35q0 11 6.5 55t6.5 62q0 33 -18 45t-56 12h-113l-52 -209h-167l157 630h291q106 0 164 -43t58 -129q0 -80 -54.5 -131t-125.5 -57q86 -18 86 -97q0 -19 -7.5 -68t-7.5 -66q0 -25 10 -39zM246 340h115q130 0 130 92q0 62 -91 62h-115zM486 668h-152
l-51 142h98l47 -55l73 55h106z" />
    <glyph glyph-name="rcaron" unicode="&#x159;" horiz-adv-x="396" 
d="M446 441l-48 -153q-26 19 -72 19q-97 0 -123 -103l-50 -204h-162l111 446h162l-21 -83q52 95 141 95q39 0 62 -17zM357 488h-152l-50 142h98l46 -55l74 55h106z" />
    <glyph glyph-name="Sacute" unicode="&#x15a;" horiz-adv-x="609" 
d="M22 245l157 -5q-9 -58 29 -89t103 -31q90 0 90 57q0 38 -62 54l-110 28q-142 36 -142 163q0 100 73.5 160t194.5 60q124 0 200 -66t64 -184l-159 6q5 47 -25 79t-90 32q-80 0 -80 -56q0 -34 58 -52l83 -24q170 -49 170 -173q0 -72 -39.5 -122.5t-99.5 -72t-133 -21.5
q-142 0 -217.5 71.5t-64.5 185.5zM455 668h-118l89 142h161z" />
    <glyph glyph-name="sacute" unicode="&#x15b;" horiz-adv-x="461" 
d="M-12 153l133 7q2 -33 28 -52.5t66 -19.5q26 0 43 9t17 26q0 24 -37 32l-65 13q-65 14 -96.5 45t-31.5 85q0 76 58.5 118t142.5 42q95 0 148.5 -40t63.5 -114l-135 -7q-2 26 -23.5 42.5t-58.5 16.5q-20 0 -34 -9t-14 -25q0 -20 27 -26l90 -20q57 -12 86 -46t29 -83
q0 -78 -61.5 -118.5t-154.5 -40.5q-100 0 -158 42t-63 123zM343 488h-118l90 142h161z" />
    <glyph glyph-name="Scircumflex" unicode="&#x15c;" horiz-adv-x="609" 
d="M22 245l157 -5q-9 -58 29 -89t103 -31q90 0 90 57q0 38 -62 54l-110 28q-142 36 -142 163q0 100 73.5 160t194.5 60q124 0 200 -66t64 -184l-159 6q5 47 -25 79t-90 32q-80 0 -80 -56q0 -34 58 -52l83 -24q170 -49 170 -173q0 -72 -39.5 -122.5t-99.5 -72t-133 -21.5
q-142 0 -217.5 71.5t-64.5 185.5zM353 810h152l51 -142h-98l-46 55l-74 -55h-106z" />
    <glyph glyph-name="scircumflex" unicode="&#x15d;" horiz-adv-x="461" 
d="M-12 153l133 7q2 -33 28 -52.5t66 -19.5q26 0 43 9t17 26q0 24 -37 32l-65 13q-65 14 -96.5 45t-31.5 85q0 76 58.5 118t142.5 42q95 0 148.5 -40t63.5 -114l-135 -7q-2 26 -23.5 42.5t-58.5 16.5q-20 0 -34 -9t-14 -25q0 -20 27 -26l90 -20q57 -12 86 -46t29 -83
q0 -78 -61.5 -118.5t-154.5 -40.5q-100 0 -158 42t-63 123zM243 630h152l50 -142h-98l-46 55l-74 -55h-106z" />
    <glyph glyph-name="Scedilla" unicode="&#x15e;" horiz-adv-x="609" 
d="M352 -90q0 -45 -40 -65t-94 -20q-73 0 -108 33l25 39q34 -22 79 -22t45 22q0 18 -22.5 20.5t-43.5 -7.5l-29 11l65 73q-108 18 -162.5 85.5t-44.5 165.5l157 -5q-9 -58 29 -89t103 -31q90 0 90 57q0 38 -62 54l-110 28q-142 36 -142 163q0 100 73.5 160t194.5 60
q124 0 200 -66t64 -184l-159 6q5 47 -25 79t-90 32q-80 0 -80 -56q0 -34 58 -52l83 -24q170 -49 170 -173q0 -72 -39.5 -122.5t-99.5 -72t-133 -21.5q-5 0 -15 0.5t-14 0.5l-24 -25q45 8 73 -6.5t28 -47.5z" />
    <glyph glyph-name="scedilla" unicode="&#x15f;" horiz-adv-x="461" 
d="M266 -90q0 -45 -40 -65t-94 -20q-73 0 -108 33l25 39q34 -22 79 -22t45 22q0 18 -22.5 20.5t-43.5 -7.5l-29 11l64 73q-70 12 -110 52.5t-44 106.5l133 7q2 -33 28 -52.5t66 -19.5q26 0 43 9t17 26q0 24 -37 32l-65 13q-65 14 -96.5 45t-31.5 85q0 76 58.5 118t142.5 42
q95 0 148.5 -40t63.5 -114l-135 -7q-2 26 -23.5 42.5t-58.5 16.5q-20 0 -34 -9t-14 -25q0 -20 27 -26l90 -20q57 -12 86 -46t29 -83q0 -78 -61.5 -118.5t-154.5 -40.5q-14 0 -21 1l-23 -25q45 8 73 -6.5t28 -47.5z" />
    <glyph glyph-name="Scaron" unicode="&#x160;" horiz-adv-x="609" 
d="M22 245l157 -5q-9 -58 29 -89t103 -31q90 0 90 57q0 38 -62 54l-110 28q-142 36 -142 163q0 100 73.5 160t194.5 60q124 0 200 -66t64 -184l-159 6q5 47 -25 79t-90 32q-80 0 -80 -56q0 -34 58 -52l83 -24q170 -49 170 -173q0 -72 -39.5 -122.5t-99.5 -72t-133 -21.5
q-142 0 -217.5 71.5t-64.5 185.5zM476 668h-152l-51 142h98l47 -55l73 55h106z" />
    <glyph glyph-name="scaron" unicode="&#x161;" horiz-adv-x="461" 
d="M-12 153l133 7q2 -33 28 -52.5t66 -19.5q26 0 43 9t17 26q0 24 -37 32l-65 13q-65 14 -96.5 45t-31.5 85q0 76 58.5 118t142.5 42q95 0 148.5 -40t63.5 -114l-135 -7q-2 26 -23.5 42.5t-58.5 16.5q-20 0 -34 -9t-14 -25q0 -20 27 -26l90 -20q57 -12 86 -46t29 -83
q0 -78 -61.5 -118.5t-154.5 -40.5q-100 0 -158 42t-63 123zM366 488h-152l-50 142h98l46 -55l74 55h106z" />
    <glyph glyph-name="Tcedilla" unicode="&#x162;" horiz-adv-x="654" 
d="M355 0h-169l122 490h-216l35 140h604l-35 -140h-219zM167 -133l25 99h142l-18 -73q-28 -111 -170 -111l13 53q29 0 43.5 6.5t19.5 25.5h-55z" />
    <glyph glyph-name="tcedilla" unicode="&#x163;" horiz-adv-x="358" 
d="M43 148l47 186h-60l25 100l34 5q33 5 52 21.5t36 50.5l29 58h102l-30 -123h116l-28 -112h-116l-42 -166q-13 -53 38 -53q39 0 72 12l-26 -102q-67 -37 -136 -37q-65 0 -98.5 42t-14.5 118zM48 -133l25 99h142l-18 -73q-28 -111 -170 -111l13 53q29 0 43.5 6.5t19.5 25.5
h-55z" />
    <glyph glyph-name="Tcaron" unicode="&#x164;" horiz-adv-x="654" 
d="M355 0h-169l122 490h-216l35 140h604l-35 -140h-219zM506 668h-152l-51 142h98l47 -55l73 55h106z" />
    <glyph glyph-name="tcaron" unicode="&#x165;" horiz-adv-x="358" 
d="M43 148l47 186h-60l25 100l34 5q33 5 52 21.5t36 50.5l29 58h102l-30 -123h116l-28 -112h-116l-42 -166q-13 -53 38 -53q39 0 72 12l-26 -102q-67 -37 -136 -37q-65 0 -98.5 42t-14.5 118zM423 481h-102l51 149h155z" />
    <glyph glyph-name="Tbar" unicode="&#x166;" horiz-adv-x="654" 
d="M135 229l34 138h108l31 123h-216l35 140h604l-35 -140h-219l-31 -123h109l-34 -138h-109l-57 -229h-169l57 229h-108z" />
    <glyph glyph-name="tbar" unicode="&#x167;" horiz-adv-x="374" 
d="M2 184l24 99h57l13 51h-60l25 100l34 5q33 5 52 21.5t36 50.5l29 58h102l-30 -123h116l-28 -112h-116l-13 -51h117l-24 -99h-118l-4 -16q-13 -53 38 -53q39 0 72 12l-26 -102q-67 -37 -136 -37q-65 0 -98.5 42t-14.5 118l9 36h-56z" />
    <glyph glyph-name="Utilde" unicode="&#x168;" horiz-adv-x="660" 
d="M299 -12q-134 0 -202.5 81.5t-34.5 216.5l86 344h169l-88 -352q-17 -69 6.5 -108t79.5 -39q61 0 95 36t53 111l88 352h170l-95 -380q-34 -137 -113.5 -199.5t-213.5 -62.5zM377 668h-85q16 66 49.5 105.5t76.5 39.5q24 0 48 -18.5t40 -18.5q29 0 41 34h85
q-17 -66 -50.5 -105.5t-76.5 -39.5q-25 0 -48 18.5t-39 18.5q-29 0 -41 -34z" />
    <glyph glyph-name="utilde" unicode="&#x169;" horiz-adv-x="540" 
d="M337 223l55 223h162l-111 -446h-162l17 68q-53 -80 -150 -80q-79 0 -110 54.5t-12 132.5l67 271h162l-60 -241q-12 -46 -3 -69.5t45 -23.5q72 0 100 111zM266 488h-85q16 66 49.5 105.5t76.5 39.5q25 0 49 -18.5t39 -18.5q29 0 41 34h85q-17 -66 -50.5 -105.5
t-76.5 -39.5q-24 0 -48 18.5t-39 18.5q-29 0 -41 -34z" />
    <glyph glyph-name="Umacron" unicode="&#x16a;" horiz-adv-x="660" 
d="M299 -12q-134 0 -202.5 81.5t-34.5 216.5l86 344h169l-88 -352q-17 -69 6.5 -108t79.5 -39q61 0 95 36t53 111l88 352h170l-95 -380q-34 -137 -113.5 -199.5t-213.5 -62.5zM303 672l27 108h285l-27 -108h-285z" />
    <glyph glyph-name="umacron" unicode="&#x16b;" horiz-adv-x="540" 
d="M337 223l55 223h162l-111 -446h-162l17 68q-53 -80 -150 -80q-79 0 -110 54.5t-12 132.5l67 271h162l-60 -241q-12 -46 -3 -69.5t45 -23.5q72 0 100 111zM195 492l31 108h275l-31 -108h-275z" />
    <glyph glyph-name="Ubreve" unicode="&#x16c;" horiz-adv-x="660" 
d="M299 -12q-134 0 -202.5 81.5t-34.5 216.5l86 344h169l-88 -352q-17 -69 6.5 -108t79.5 -39q61 0 95 36t53 111l88 352h170l-95 -380q-34 -137 -113.5 -199.5t-213.5 -62.5zM437 668q-50 0 -81 27t-31 74q0 19 6 41h89q-2 -10 -2 -14q0 -32 41 -32q51 0 63 46h93
q-17 -67 -64 -104.5t-114 -37.5z" />
    <glyph glyph-name="ubreve" unicode="&#x16d;" horiz-adv-x="540" 
d="M337 223l55 223h162l-111 -446h-162l17 68q-53 -80 -150 -80q-79 0 -110 54.5t-12 132.5l67 271h162l-60 -241q-12 -46 -3 -69.5t45 -23.5q72 0 100 111zM332 488q-50 0 -81 27t-31 74q0 19 6 41h89q-2 -10 -2 -14q0 -32 41 -32q52 0 63 46h93q-17 -67 -64 -104.5
t-114 -37.5z" />
    <glyph glyph-name="Uring" unicode="&#x16e;" horiz-adv-x="660" 
d="M299 -12q-134 0 -202.5 81.5t-34.5 216.5l86 344h169l-88 -352q-17 -69 6.5 -108t79.5 -39q61 0 95 36t53 111l88 352h170l-95 -380q-34 -137 -113.5 -199.5t-213.5 -62.5zM553 766q0 -44 -29 -73.5t-72 -29.5q-40 0 -65 23.5t-25 61.5q0 44 29 73.5t72 29.5
q41 0 65.5 -23.5t24.5 -61.5zM490 761q0 13 -8 21.5t-22 8.5t-24.5 -11t-10.5 -27q0 -13 8.5 -21.5t21.5 -8.5q14 0 24.5 11t10.5 27z" />
    <glyph glyph-name="uring" unicode="&#x16f;" horiz-adv-x="540" 
d="M337 223l55 223h162l-111 -446h-162l17 68q-53 -80 -150 -80q-79 0 -110 54.5t-12 132.5l67 271h162l-60 -241q-12 -46 -3 -69.5t45 -23.5q72 0 100 111zM451 586q0 -44 -29 -73.5t-72 -29.5q-40 0 -65 23.5t-25 61.5q0 44 29 73.5t72 29.5q41 0 65.5 -23.5t24.5 -61.5z
M388 581q0 13 -8 21.5t-22 8.5t-24.5 -11t-10.5 -27q0 -13 8.5 -21.5t21.5 -8.5q14 0 24.5 11t10.5 27z" />
    <glyph glyph-name="Uhungarumlaut" unicode="&#x170;" horiz-adv-x="660" 
d="M299 -12q-134 0 -202.5 81.5t-34.5 216.5l86 344h169l-88 -352q-17 -69 6.5 -108t79.5 -39q61 0 95 36t53 111l88 352h170l-95 -380q-34 -137 -113.5 -199.5t-213.5 -62.5zM370 668h-105l75 142h148zM542 668h-105l75 142h148z" />
    <glyph glyph-name="uhungarumlaut" unicode="&#x171;" horiz-adv-x="540" 
d="M337 223l55 223h162l-111 -446h-162l17 68q-53 -80 -150 -80q-79 0 -110 54.5t-12 132.5l67 271h162l-60 -241q-12 -46 -3 -69.5t45 -23.5q72 0 100 111zM273 488h-105l76 142h148zM445 488h-105l76 142h148z" />
    <glyph glyph-name="Uogonek" unicode="&#x172;" horiz-adv-x="660" 
d="M299 -12q-134 0 -202.5 81.5t-34.5 216.5l86 344h169l-88 -352q-17 -69 6.5 -108t79.5 -39q61 0 95 36t53 111l88 352h170l-95 -380q-49 -194 -194 -243q-7 -5 -19.5 -13.5t-17.5 -12t-13.5 -10.5t-11.5 -11t-7 -9.5t-5.5 -11t-1.5 -12.5q0 -18 21 -18q18 0 47 12
l-18 -72q-44 -24 -87 -24q-37 0 -57 18.5t-20 47.5q0 50 66 97h-9z" />
    <glyph glyph-name="uogonek" unicode="&#x173;" horiz-adv-x="540" 
d="M337 223l55 223h162l-111 -446q-51 -24 -68.5 -38t-17.5 -35q0 -18 21 -18q18 0 47 12l-18 -72q-44 -24 -87 -24q-37 0 -57 18.5t-20 47.5q0 56 84 109h-46l17 68q-53 -80 -150 -80q-79 0 -110 54.5t-12 132.5l67 271h162l-60 -241q-12 -46 -3 -69.5t45 -23.5
q72 0 100 111z" />
    <glyph glyph-name="Wcircumflex" unicode="&#x174;" horiz-adv-x="903" 
d="M627 630l1 -395h4l203 395h168l-326 -630h-181l-2 398h-4l-208 -398h-178l-4 630h166l-3 -395h4l207 395h153zM515 810h152l51 -142h-98l-46 55l-74 -55h-106z" />
    <glyph glyph-name="wcircumflex" unicode="&#x175;" horiz-adv-x="729" 
d="M486 446v-253h4l145 253h154l-256 -446h-159l-2 252h-4l-128 -252h-159l-26 446h153l11 -253h4l134 253h129zM386 630h152l50 -142h-98l-46 55l-74 -55h-106z" />
    <glyph glyph-name="Ycircumflex" unicode="&#x176;" horiz-adv-x="649" 
d="M360 395l200 235h189l-340 -391l-59 -239h-165l59 239l-144 391h174zM385 810h152l51 -142h-98l-46 55l-74 -55h-106z" />
    <glyph glyph-name="ycircumflex" unicode="&#x177;" horiz-adv-x="529" 
d="M181 -160h-161l107 163l-73 443h156l38 -268h4l164 268h173zM283 630h152l50 -142h-98l-46 55l-74 -55h-106z" />
    <glyph glyph-name="Ydieresis" unicode="&#x178;" horiz-adv-x="649" 
d="M360 395l200 235h189l-340 -391l-59 -239h-165l59 239l-144 391h174zM266 668l35 142h142l-35 -142h-142zM454 668l35 142h142l-35 -142h-142z" />
    <glyph glyph-name="Zacute" unicode="&#x179;" horiz-adv-x="594" 
d="M235 140h310l-34 -140h-534l32 129l390 361h-297l35 140h523l-33 -132zM455 668h-118l89 142h161z" />
    <glyph glyph-name="zacute" unicode="&#x17a;" horiz-adv-x="452" 
d="M248 329h-187l29 117h391l-28 -110l-248 -219h199l-29 -117h-400l27 111zM349 488h-118l90 142h161z" />
    <glyph glyph-name="Zdotaccent" unicode="&#x17b;" horiz-adv-x="594" 
d="M235 140h310l-34 -140h-534l32 129l390 361h-297l35 140h523l-33 -132zM317 668l35 142h164l-35 -142h-164z" />
    <glyph glyph-name="zdotaccent" unicode="&#x17c;" horiz-adv-x="452" 
d="M248 329h-187l29 117h391l-28 -110l-248 -219h199l-29 -117h-400l27 111zM212 488l36 142h164l-36 -142h-164z" />
    <glyph glyph-name="Zcaron" unicode="&#x17d;" horiz-adv-x="594" 
d="M235 140h310l-34 -140h-534l32 129l390 361h-297l35 140h523l-33 -132zM476 668h-152l-51 142h98l47 -55l73 55h106z" />
    <glyph glyph-name="zcaron" unicode="&#x17e;" horiz-adv-x="452" 
d="M248 329h-187l29 117h391l-28 -110l-248 -219h199l-29 -117h-400l27 111zM372 488h-152l-50 142h98l46 -55l74 55h106z" />
    <glyph glyph-name="florin" unicode="&#x192;" horiz-adv-x="428" 
d="M363 432l-21 -56h98l-29 -117h-113l-88 -237q-57 -155 -225 -155q-31 0 -59 4l36 117q5 -1 14 -1q33 0 50.5 20.5t34.5 65.5l69 186h-68l29 117h83l40 107q29 78 86.5 118t134.5 40q35 0 69 -7l-30 -117q-16 2 -22 2q-33 0 -52.5 -20t-36.5 -67z" />
    <glyph glyph-name="Aringacute" unicode="&#x1fa;" horiz-adv-x="692" 
d="M352 630h190l97 -630h-174l-17 122h-247l-76 -122h-178zM564 744q0 -41 -29 -68t-72 -27q-41 0 -65.5 21.5t-24.5 57.5q0 41 29 68t72 27q41 0 65.5 -21.5t24.5 -57.5zM550 843h-118l68 115h161zM399 440l-119 -191h150l-27 191h-4zM501 740q0 12 -8.5 19.5t-21.5 7.5
q-15 0 -25 -10t-10 -25q0 -12 8.5 -19.5t21.5 -7.5q15 0 25 10t10 25z" />
    <glyph glyph-name="aringacute" unicode="&#x1fb;" horiz-adv-x="527" 
d="M445 569q0 -41 -29 -68t-72 -27q-41 0 -65.5 21.5t-24.5 57.5q0 41 29 68t72 27q41 0 65.5 -21.5t24.5 -57.5zM382 565q0 12 -8.5 19.5t-21.5 7.5q-15 0 -25 -10t-10 -25q0 -12 8.5 -19.5t21.5 -7.5q15 0 25 10t10 25zM428 668h-118l68 115h161zM297 183l1 5l-79 -10
q-59 -8 -59 -49q0 -35 41 -35q32 0 60 24t36 65zM474 267l-34 -136q-9 -33 19 -33q17 0 38 7l-22 -86q-49 -29 -97 -29q-43 0 -69 20.5t-29 56.5q-45 -77 -149 -77q-63 0 -97 31t-34 83q0 128 182 148l136 14l3 13q14 59 -43 59q-49 0 -72 -50l-152 10q27 75 90.5 117.5
t160.5 42.5q93 0 142 -50.5t27 -140.5z" />
    <glyph glyph-name="AEacute" unicode="&#x1fc;" horiz-adv-x="1021" 
d="M479 630h609l-35 -140h-320l-26 -103h247l-34 -138h-247l-28 -109h329l-34 -140h-496l38 152h-214l-128 -152h-193zM800 668h-118l89 142h161zM566 505l-191 -226h138l57 226h-4z" />
    <glyph glyph-name="aeacute" unicode="&#x1fd;" horiz-adv-x="791" 
d="M297 183l2 9h-54q-44 0 -64.5 -18.5t-20.5 -44.5q0 -35 41 -35q32 0 59.5 24t36.5 65zM335 75q-58 -85 -185 -85q-66 0 -108 30.5t-42 83.5q0 72 61.5 118t176.5 46h80l3 11q14 59 -43 59q-52 0 -72 -45l-152 10q27 73 87 114t145 41q95 0 133 -51q68 51 156 51
q96 0 147 -55t51 -141q0 -37 -9 -70h-314q0 -41 21 -62t59 -21q71 0 98 50l129 -12q-27 -76 -91.5 -117.5t-150.5 -41.5q-129 0 -180 87zM462 268h159q2 74 -65 74q-71 0 -94 -74zM507 488h-118l90 142h161z" />
    <glyph glyph-name="Oslashacute" unicode="&#x1fe;" horiz-adv-x="694" 
d="M401 642q102 0 174 -43l62 69l62 -52l-62 -69q63 -74 63 -187q0 -160 -105 -266t-251 -106q-101 0 -172 41l-64 -72l-62 52l63 71q-64 73 -64 190q0 160 105 266t251 106zM220 270q0 -33 9 -57l236 263q-30 16 -68 16q-76 0 -126.5 -62.5t-50.5 -159.5zM348 138
q76 0 126.5 62.5t50.5 159.5q0 27 -8 53l-235 -262q26 -13 66 -13zM494 668h-118l89 142h161z" />
    <glyph glyph-name="oslashacute" unicode="&#x1ff;" horiz-adv-x="527" 
d="M22 7l46 50q-50 55 -50 134q0 116 76.5 191.5t194.5 75.5q63 0 118 -29l50 54l52 -44l-48 -53q48 -54 48 -131q0 -116 -76.5 -191.5t-194.5 -75.5q-63 0 -115 27l-49 -53zM379 488h-118l90 142h161zM161 189q0 -15 4 -26l153 168q-19 7 -36 7q-52 0 -86.5 -45.5
t-34.5 -103.5zM245 108q52 0 86.5 46.5t34.5 102.5q0 11 -3 22l-151 -166q17 -5 33 -5z" />
    <glyph glyph-name="Scommaaccent" unicode="&#x218;" horiz-adv-x="609" 
d="M22 245l157 -5q-9 -58 29 -89t103 -31q90 0 90 57q0 38 -62 54l-110 28q-142 36 -142 163q0 100 73.5 160t194.5 60q124 0 200 -66t64 -184l-159 6q5 47 -25 79t-90 32q-80 0 -80 -56q0 -34 58 -52l83 -24q170 -49 170 -173q0 -72 -39.5 -122.5t-99.5 -72t-133 -21.5
q-142 0 -217.5 71.5t-64.5 185.5zM167 -133l25 99h142l-18 -73q-28 -111 -170 -111l13 53q29 0 43.5 6.5t19.5 25.5h-55z" />
    <glyph glyph-name="scommaaccent" unicode="&#x219;" horiz-adv-x="461" 
d="M-12 153l133 7q2 -33 28 -52.5t66 -19.5q26 0 43 9t17 26q0 24 -37 32l-65 13q-65 14 -96.5 45t-31.5 85q0 76 58.5 118t142.5 42q95 0 148.5 -40t63.5 -114l-135 -7q-2 26 -23.5 42.5t-58.5 16.5q-20 0 -34 -9t-14 -25q0 -20 27 -26l90 -20q57 -12 86 -46t29 -83
q0 -78 -61.5 -118.5t-154.5 -40.5q-100 0 -158 42t-63 123zM81 -133l25 99h142l-18 -73q-28 -111 -170 -111l13 53q29 0 43.5 6.5t19.5 25.5h-55z" />
    <glyph glyph-name="uni0237" unicode="&#x237;" horiz-adv-x="250" 
d="M264 446l-115 -461q-21 -83 -66.5 -120t-124.5 -37q-38 0 -74 11.5t-55 29.5l47 92q31 -22 57 -22q42 0 56 54l113 453h162z" />
    <glyph glyph-name="circumflex" unicode="&#x2c6;" 
d="M281 630h152l50 -142h-98l-46 55l-74 -55h-106z" />
    <glyph glyph-name="caron" unicode="&#x2c7;" 
d="M397 488h-152l-50 142h98l46 -55l74 55h106z" />
    <glyph glyph-name="breve" unicode="&#x2d8;" 
d="M321 488q-50 0 -81 27t-31 74q0 19 6 41h89q-2 -10 -2 -14q0 -32 41 -32q51 0 63 46h93q-17 -67 -64 -104.5t-114 -37.5z" />
    <glyph glyph-name="dotaccent" unicode="&#x2d9;" 
d="M239 488l36 142h164l-36 -142h-164z" />
    <glyph glyph-name="ring" unicode="&#x2da;" 
d="M438 586q0 -44 -29 -73.5t-72 -29.5q-41 0 -65.5 23.5t-24.5 61.5q0 44 29 73.5t72 29.5q40 0 65 -23.5t25 -61.5zM375 581q0 13 -8.5 21.5t-21.5 8.5q-14 0 -24.5 -11t-10.5 -27q0 -13 8 -21.5t22 -8.5t24.5 11t10.5 27z" />
    <glyph glyph-name="ogonek" unicode="&#x2db;" 
d="M186 12h92q-10 -7 -28 -20t-24 -18t-15 -14t-12 -16.5t-3 -16.5q0 -18 21 -18q18 0 47 12l-18 -72q-44 -24 -87 -24q-37 0 -57 18.5t-20 47.5q0 60 104 121z" />
    <glyph glyph-name="tilde" unicode="&#x2dc;" 
d="M254 488h-85q16 66 49.5 105.5t76.5 39.5q25 0 49 -18.5t39 -18.5q29 0 41 34h85q-17 -66 -50.5 -105.5t-76.5 -39.5q-25 0 -48.5 18.5t-38.5 18.5q-29 0 -41 -34z" />
    <glyph glyph-name="hungarumlaut" unicode="&#x2dd;" 
d="M246 488h-105l76 142h148zM418 488h-105l76 142h148z" />
    <glyph glyph-name="Wgrave" unicode="&#x1e80;" horiz-adv-x="903" 
d="M627 630l1 -395h4l203 395h168l-326 -630h-181l-2 398h-4l-208 -398h-178l-4 630h166l-3 -395h4l207 395h153zM627 668h-111l-62 142h154z" />
    <glyph glyph-name="wgrave" unicode="&#x1e81;" horiz-adv-x="729" 
d="M486 446v-253h4l145 253h154l-256 -446h-159l-2 252h-4l-128 -252h-159l-26 446h153l11 -253h4l134 253h129zM492 488h-111l-61 142h154z" />
    <glyph glyph-name="Wacute" unicode="&#x1e82;" horiz-adv-x="903" 
d="M627 630l1 -395h4l203 395h168l-326 -630h-181l-2 398h-4l-208 -398h-178l-4 630h166l-3 -395h4l207 395h153zM617 668h-118l89 142h161z" />
    <glyph glyph-name="wacute" unicode="&#x1e83;" horiz-adv-x="729" 
d="M486 446v-253h4l145 253h154l-256 -446h-159l-2 252h-4l-128 -252h-159l-26 446h153l11 -253h4l134 253h129zM486 488h-118l90 142h161z" />
    <glyph glyph-name="Wdieresis" unicode="&#x1e84;" horiz-adv-x="903" 
d="M627 630l1 -395h4l203 395h168l-326 -630h-181l-2 398h-4l-208 -398h-178l-4 630h166l-3 -395h4l207 395h153zM395 668l35 142h142l-35 -142h-142zM583 668l35 142h142l-35 -142h-142z" />
    <glyph glyph-name="wdieresis" unicode="&#x1e85;" horiz-adv-x="729" 
d="M486 446v-253h4l145 253h154l-256 -446h-159l-2 252h-4l-128 -252h-159l-26 446h153l11 -253h4l134 253h129zM265 488l36 142h142l-36 -142h-142zM453 488l36 142h142l-36 -142h-142z" />
    <glyph glyph-name="Ygrave" unicode="&#x1ef2;" horiz-adv-x="649" 
d="M360 395l200 235h189l-340 -391l-59 -239h-165l59 239l-144 391h174zM479 668h-111l-62 142h154z" />
    <glyph glyph-name="ygrave" unicode="&#x1ef3;" horiz-adv-x="529" 
d="M181 -160h-161l107 163l-73 443h156l38 -268h4l164 268h173zM389 488h-111l-61 142h154z" />
    <glyph glyph-name="endash" unicode="&#x2013;" 
d="M40 201l26 107h406l-26 -107h-406z" />
    <glyph glyph-name="emdash" unicode="&#x2014;" horiz-adv-x="1000" 
d="M40 201l26 107h908l-26 -107h-908z" />
    <glyph glyph-name="quoteleft" unicode="&#x2018;" horiz-adv-x="229" 
d="M270 498l-38 -150h-169l35 140q18 72 68.5 106t136.5 36l-20 -77q-75 -3 -89 -55h76z" />
    <glyph glyph-name="quoteright" unicode="&#x2019;" horiz-adv-x="229" 
d="M96 480l38 150h169l-35 -140q-18 -72 -68.5 -106t-136.5 -36l20 77q75 3 89 55h-76z" />
    <glyph glyph-name="quotesinglbase" unicode="&#x201a;" horiz-adv-x="229" 
d="M-22 0l38 150h169l-35 -140q-18 -72 -68.5 -106t-136.5 -36l20 77q75 3 89 55h-76z" />
    <glyph glyph-name="quotedblleft" unicode="&#x201c;" horiz-adv-x="442" 
d="M270 498l-38 -150h-169l35 140q18 72 68.5 106t136.5 36l-20 -77q-75 -3 -89 -55h76zM483 498l-38 -150h-169l35 140q18 72 68.5 106t136.5 36l-20 -77q-75 -3 -89 -55h76z" />
    <glyph glyph-name="quotedblright" unicode="&#x201d;" horiz-adv-x="442" 
d="M309 480l38 150h169l-35 -140q-18 -72 -68.5 -106t-136.5 -36l20 77q75 3 89 55h-76zM96 480l38 150h169l-35 -140q-18 -72 -68.5 -106t-136.5 -36l20 77q75 3 89 55h-76z" />
    <glyph glyph-name="quotedblbase" unicode="&#x201e;" horiz-adv-x="442" 
d="M191 0l38 150h169l-35 -140q-18 -72 -68.5 -106t-136.5 -36l20 77q75 3 89 55h-76zM-22 0l38 150h169l-35 -140q-18 -72 -68.5 -106t-136.5 -36l20 77q75 3 89 55h-76z" />
    <glyph glyph-name="dagger" unicode="&#x2020;" horiz-adv-x="344" 
d="M90 448l24 97h92l22 85h100l-22 -85h92l-24 -97h-92l-45 -181h-100l45 181h-92z" />
    <glyph glyph-name="daggerdbl" unicode="&#x2021;" horiz-adv-x="354" 
d="M69 332l22 87h95l15 59h-95l21 87h95l17 65h94l-17 -65h95l-21 -87h-95l-15 -59h95l-22 -87h-95l-16 -65h-94l16 65h-95z" />
    <glyph glyph-name="bullet" unicode="&#x2022;" horiz-adv-x="400" 
d="M376 259q0 -75 -49 -122.5t-121 -47.5t-121 47.5t-49 122.5t49 122.5t121 47.5t121 -47.5t49 -122.5z" />
    <glyph glyph-name="ellipsis" unicode="&#x2026;" horiz-adv-x="696" 
d="M-23 0l42 172h172l-42 -172h-172zM209 0l42 172h172l-42 -172h-172zM441 0l42 172h172l-42 -172h-172z" />
    <glyph glyph-name="perthousand" unicode="&#x2030;" horiz-adv-x="1197" 
d="M182 433q0 -53 49 -53q28 0 49 30.5t21 89.5q0 53 -49 53q-28 0 -49 -30.5t-21 -89.5zM72 433q0 94 58 151.5t131 57.5q65 0 107.5 -39t42.5 -103q0 -94 -58 -151.5t-131 -57.5q-65 0 -107.5 39t-42.5 103zM753 630l-489 -630h-125l489 630h125zM710 197q0 53 -49 53
q-28 0 -49 -30.5t-21 -89.5q0 -53 49 -53q28 0 49 30.5t21 89.5zM820 197q0 -94 -58 -151.5t-131 -57.5q-65 0 -107.5 39t-42.5 103q0 94 58 151.5t131 57.5q65 0 107.5 -39t42.5 -103zM1077 197q0 53 -49 53q-28 0 -49 -30.5t-21 -89.5q0 -53 49 -53q28 0 49 30.5t21 89.5z
M1187 197q0 -94 -58 -151.5t-131 -57.5q-65 0 -107.5 39t-42.5 103q0 94 58 151.5t131 57.5q65 0 107.5 -39t42.5 -103z" />
    <glyph glyph-name="guilsinglleft" unicode="&#x2039;" horiz-adv-x="253" 
d="M14 154l36 144l224 125l-37 -147l-111 -61l81 -61l-31 -125z" />
    <glyph glyph-name="guilsinglright" unicode="&#x203a;" horiz-adv-x="253" 
d="M251 298l-36 -144l-224 -125l37 147l111 61l-81 61l31 125z" />
    <glyph glyph-name="fraction" unicode="&#x2044;" horiz-adv-x="501" 
d="M501 642l-392 -654h-109l392 654h109z" />
    <glyph glyph-name="Euro" unicode="&#x20ac;" horiz-adv-x="656" 
d="M52 341l19 80h56q39 101 118.5 161t184.5 60q121 0 183.5 -76.5t50.5 -193.5l-156 -6q7 55 -16 92.5t-73 37.5q-78 0 -120 -75h137l-29 -80h-135q-3 -16 -7 -48h124l-30 -80h-93q13 -79 98 -79q51 0 84.5 34.5t44.5 95.5l154 -7q-20 -118 -102.5 -193.5t-198.5 -75.5
q-119 0 -180 62t-69 163h-77l20 80h58q1 16 7 48h-53z" />
    <glyph glyph-name="uni2117" unicode="&#x2117;" horiz-adv-x="724" 
d="M59 315q0 141 95 234t232 93t232 -93t95 -234t-95 -234t-232 -93t-232 93t-95 234zM109 315q0 -119 81 -199t196 -80t196 80t81 199t-81 199t-196 80t-196 -80t-81 -199zM354 327h50q64 0 64 44q0 46 -64 46h-50v-90zM354 241v-119h-105v381h167q75 0 116.5 -34t41.5 -96
q0 -63 -41.5 -97.5t-116.5 -34.5h-62z" />
    <glyph glyph-name="trademark" unicode="&#x2122;" horiz-adv-x="681" 
d="M233 370h-86l46 185h-84l19 75h256l-19 -75h-86zM520 370h-59l2 157h-2l-39 -157h-80l65 260h119l-5 -154h2l71 154h115l-65 -260h-85l39 157h-2z" />
    <glyph glyph-name="uni2153" unicode="&#x2153;" horiz-adv-x="844" 
d="M719 630l-542 -630h-114l542 630h114zM75 485l21 83q78 0 116 61h99l-100 -403h-125l65 259h-76zM669 130q0 26 -35 26q-22 0 -28 -1l22 87q18 -2 28 -2q45 0 45 41q0 13 -8.5 21.5t-23.5 8.5q-39 0 -51 -54l-120 5q13 67 61.5 108.5t123.5 41.5q68 0 104.5 -31.5
t36.5 -77.5q0 -83 -88 -102q59 -19 59 -75q0 -64 -50.5 -99t-117.5 -35q-88 0 -127.5 41t-29.5 108l119 -3q-4 -23 6 -34.5t29 -11.5q45 0 45 38z" />
    <glyph glyph-name="uni2154" unicode="&#x2154;" horiz-adv-x="982" 
d="M857 630l-542 -630h-114l542 630h114zM807 130q0 26 -35 26q-22 0 -28 -1l22 87q18 -2 28 -2q45 0 45 41q0 13 -8.5 21.5t-23.5 8.5q-39 0 -51 -54l-120 5q13 67 61.5 108.5t123.5 41.5q68 0 104.5 -31.5t36.5 -77.5q0 -83 -88 -102q59 -19 59 -75q0 -64 -50.5 -99
t-117.5 -35q-88 0 -127.5 41t-29.5 108l119 -3q-4 -23 6 -34.5t29 -11.5q45 0 45 38zM260 329h133l-26 -103h-317l22 92l128 84q54 36 75.5 58.5t21.5 41.5q0 30 -30 30q-21 0 -31 -20.5t-10 -50.5l-123 5q2 78 49 125t130 47q66 0 104 -34t38 -86q0 -56 -27 -88t-92 -73z
" />
    <glyph glyph-name="uni215B" unicode="&#x215b;" horiz-adv-x="855" 
d="M719 630l-542 -630h-114l542 630h114zM75 485l21 83q78 0 116 61h99l-100 -403h-125l65 259h-76zM633 85q22 0 37 12t15 35q0 14 -10.5 24t-30.5 10q-22 0 -37.5 -12t-15.5 -35q0 -14 10.5 -24t31.5 -10zM634 -8q-85 0 -124.5 34.5t-39.5 81.5q0 42 23 70.5t65 37.5
q-43 22 -43 68q0 60 48 94t114 34q76 0 117 -28.5t41 -76.5q0 -74 -80 -104q51 -22 51 -83t-49.5 -94.5t-122.5 -33.5zM669 251q19 0 32.5 10.5t13.5 30.5q0 13 -10 21t-25 8q-19 0 -32.5 -11t-13.5 -31q0 -12 10 -20t25 -8z" />
    <glyph glyph-name="uni215C" unicode="&#x215c;" horiz-adv-x="967" 
d="M262 356q0 26 -35 26q-22 0 -28 -1l22 87q18 -2 28 -2q45 0 45 41q0 13 -8.5 21.5t-23.5 8.5q-39 0 -51 -54l-120 5q13 67 61.5 108.5t123.5 41.5q68 0 104.5 -31.5t36.5 -77.5q0 -83 -88 -102q59 -19 59 -75q0 -64 -50.5 -99t-117.5 -35q-88 0 -127.5 41t-29.5 108
l119 -3q-4 -23 6 -34.5t29 -11.5q45 0 45 38zM831 630l-542 -630h-114l542 630h114zM745 85q22 0 37 12t15 35q0 14 -10.5 24t-30.5 10q-22 0 -37.5 -12t-15.5 -35q0 -14 10.5 -24t31.5 -10zM746 -8q-85 0 -124.5 34.5t-39.5 81.5q0 42 23 70.5t65 37.5q-43 22 -43 68
q0 60 48 94t114 34q76 0 117 -28.5t41 -76.5q0 -74 -80 -104q51 -22 51 -83t-49.5 -94.5t-122.5 -33.5zM781 251q19 0 32.5 10.5t13.5 30.5q0 13 -10 21t-25 8q-19 0 -32.5 -11t-13.5 -31q0 -12 10 -20t25 -8z" />
    <glyph glyph-name="uni215D" unicode="&#x215d;" horiz-adv-x="957" 
d="M821 630l-542 -630h-114l542 630h114zM735 85q22 0 37 12t15 35q0 14 -10.5 24t-30.5 10q-22 0 -37.5 -12t-15.5 -35q0 -14 10.5 -24t31.5 -10zM736 -8q-85 0 -124.5 34.5t-39.5 81.5q0 42 23 70.5t65 37.5q-43 22 -43 68q0 60 48 94t114 34q76 0 117 -28.5t41 -76.5
q0 -74 -80 -104q51 -22 51 -83t-49.5 -94.5t-122.5 -33.5zM771 251q19 0 32.5 10.5t13.5 30.5q0 13 -10 21t-25 8q-19 0 -32.5 -11t-13.5 -31q0 -12 10 -20t25 -8zM417 630l-24 -98h-170q-3 -7 -7 -20t-7 -21q26 12 60 12q56 0 86.5 -34t30.5 -85q0 -73 -48 -119.5
t-126 -46.5q-82 0 -122 42.5t-26 106.5l114 -8q-4 -40 42 -40q19 0 34 13.5t15 36.5q0 18 -9.5 30t-29.5 12q-25 0 -39 -19l-116 9q50 119 81 229h261z" />
    <glyph glyph-name="uni215E" unicode="&#x215e;" horiz-adv-x="873" 
d="M737 630l-542 -630h-114l542 630h114zM651 85q22 0 37 12t15 35q0 14 -10.5 24t-30.5 10q-22 0 -37.5 -12t-15.5 -35q0 -14 10.5 -24t31.5 -10zM652 -8q-85 0 -124.5 34.5t-39.5 81.5q0 42 23 70.5t65 37.5q-43 22 -43 68q0 60 48 94t114 34q76 0 117 -28.5t41 -76.5
q0 -74 -80 -104q51 -22 51 -83t-49.5 -94.5t-122.5 -33.5zM687 251q19 0 32.5 10.5t13.5 30.5q0 13 -10 21t-25 8q-19 0 -32.5 -11t-13.5 -31q0 -12 10 -20t25 -8zM247 519h-172l28 111h313l-26 -101q-60 -47 -96 -97.5t-47.5 -83.5t-29.5 -107q-3 -10 -4 -15h-137
q27 103 62 165.5t109 127.5z" />
    <glyph glyph-name="minus" unicode="&#x2212;" horiz-adv-x="612" 
d="M52 243l34 135h527l-34 -135h-527z" />
    <glyph glyph-name="approxequal" unicode="&#x2248;" horiz-adv-x="634" 
d="M84 328l31 123q84 47 153 47q45 0 114.5 -23t114.5 -23q72 0 158 48l-31 -124q-86 -47 -157 -47q-45 0 -114.5 23t-114.5 23q-69 0 -154 -47zM34 127l31 123q83 48 153 48q46 0 115 -23.5t115 -23.5q72 0 156 48l-31 -124q-84 -47 -156 -47q-45 0 -114.5 23t-115.5 23
q-68 0 -153 -47z" />
    <glyph glyph-name="notequal" unicode="&#x2260;" horiz-adv-x="634" 
d="M93 362l28 118h310l101 115h117l-101 -115h101l-29 -118h-175l-86 -98h237l-30 -118h-310l-100 -115h-117l100 115h-100l30 118h173l86 98h-235z" />
    <glyph glyph-name="lessequal" unicode="&#x2264;" horiz-adv-x="484" 
d="M-7 16l34 134h402l-34 -134h-402zM65 303l45 179l435 133l-38 -156l-286 -74l250 -75l-36 -139z" />
    <glyph glyph-name="greaterequal" unicode="&#x2265;" horiz-adv-x="484" 
d="M429 150l-34 -134h-402l34 134h402zM512 482l-45 -179l-435 -132l39 156l285 73l-249 76l36 139z" />
    <glyph glyph-name="i.dot" horiz-adv-x="250" 
d="M102 446h162l-111 -446h-162zM111 488l36 142h164l-36 -142h-164z" />
    <glyph glyph-name="space_uni0326" 
d="M95 -133l25 99h142l-18 -73q-28 -111 -170 -111l13 53q29 0 43.5 6.5t19.5 25.5h-55z" />
    <glyph glyph-name="space_uni0326.alt" 
d="M417 587l-25 -99h-142l18 73q28 111 170 111l-13 -53q-29 0 -43.5 -6.5t-19.5 -25.5h55z" />
    <glyph glyph-name="space_dotbelowcomb" 
d="M73 -177l36 142h164l-36 -142h-164z" />
    <glyph glyph-name="a.alt" horiz-adv-x="584" 
d="M355 204l4 16q13 52 -5.5 84t-59.5 32q-48 0 -78.5 -42t-30.5 -104q0 -77 71 -77q36 0 62.5 25.5t36.5 65.5zM331 73q-53 -84 -152 -84q-76 0 -118.5 48t-42.5 128q0 120 71 206.5t180 86.5q99 0 126 -82l19 70h162l-84 -315q-9 -33 21 -33q17 0 38 7l-22 -86
q-49 -29 -92 -29q-46 0 -74.5 23t-31.5 60z" />
    <glyph glyph-name="aacute.alt" horiz-adv-x="584" 
d="M355 204l4 16q13 52 -5.5 84t-59.5 32q-48 0 -78.5 -42t-30.5 -104q0 -77 71 -77q36 0 62.5 25.5t36.5 65.5zM331 73q-53 -84 -152 -84q-76 0 -118.5 48t-42.5 128q0 120 71 206.5t180 86.5q99 0 126 -82l19 70h162l-84 -315q-9 -33 21 -33q17 0 38 7l-22 -86
q-49 -29 -92 -29q-46 0 -74.5 23t-31.5 60zM417 488h-118l90 142h161z" />
    <glyph glyph-name="abreve.alt" horiz-adv-x="584" 
d="M355 204l4 16q13 52 -5.5 84t-59.5 32q-48 0 -78.5 -42t-30.5 -104q0 -77 71 -77q36 0 62.5 25.5t36.5 65.5zM331 73q-53 -84 -152 -84q-76 0 -118.5 48t-42.5 128q0 120 71 206.5t180 86.5q99 0 126 -82l19 70h162l-84 -315q-9 -33 21 -33q17 0 38 7l-22 -86
q-49 -29 -92 -29q-46 0 -74.5 23t-31.5 60zM361 488q-50 0 -81 27t-31 74q0 19 6 41h89q-2 -10 -2 -14q0 -32 41 -32q51 0 63 46h93q-17 -67 -64 -104.5t-114 -37.5z" />
    <glyph glyph-name="acircumflex.alt" horiz-adv-x="584" 
d="M355 204l4 16q13 52 -5.5 84t-59.5 32q-48 0 -78.5 -42t-30.5 -104q0 -77 71 -77q36 0 62.5 25.5t36.5 65.5zM331 73q-53 -84 -152 -84q-76 0 -118.5 48t-42.5 128q0 120 71 206.5t180 86.5q99 0 126 -82l19 70h162l-84 -315q-9 -33 21 -33q17 0 38 7l-22 -86
q-49 -29 -92 -29q-46 0 -74.5 23t-31.5 60zM318 630h152l50 -142h-98l-46 55l-74 -55h-106z" />
    <glyph glyph-name="adieresis.alt" horiz-adv-x="584" 
d="M355 204l4 16q13 52 -5.5 84t-59.5 32q-48 0 -78.5 -42t-30.5 -104q0 -77 71 -77q36 0 62.5 25.5t36.5 65.5zM331 73q-53 -84 -152 -84q-76 0 -118.5 48t-42.5 128q0 120 71 206.5t180 86.5q99 0 126 -82l19 70h162l-84 -315q-9 -33 21 -33q17 0 38 7l-22 -86
q-49 -29 -92 -29q-46 0 -74.5 23t-31.5 60zM197 488l36 142h142l-36 -142h-142zM385 488l36 142h142l-36 -142h-142z" />
    <glyph glyph-name="agrave.alt" horiz-adv-x="584" 
d="M355 204l4 16q13 52 -5.5 84t-59.5 32q-48 0 -78.5 -42t-30.5 -104q0 -77 71 -77q36 0 62.5 25.5t36.5 65.5zM331 73q-53 -84 -152 -84q-76 0 -118.5 48t-42.5 128q0 120 71 206.5t180 86.5q99 0 126 -82l19 70h162l-84 -315q-9 -33 21 -33q17 0 38 7l-22 -86
q-49 -29 -92 -29q-46 0 -74.5 23t-31.5 60zM423 488h-111l-61 142h154z" />
    <glyph glyph-name="amacron.alt" horiz-adv-x="584" 
d="M355 204l4 16q13 52 -5.5 84t-59.5 32q-48 0 -78.5 -42t-30.5 -104q0 -77 71 -77q36 0 62.5 25.5t36.5 65.5zM331 73q-53 -84 -152 -84q-76 0 -118.5 48t-42.5 128q0 120 71 206.5t180 86.5q99 0 126 -82l19 70h162l-84 -315q-9 -33 21 -33q17 0 38 7l-22 -86
q-49 -29 -92 -29q-46 0 -74.5 23t-31.5 60zM224 492l31 108h275l-31 -108h-275z" />
    <glyph glyph-name="aogonek.alt" horiz-adv-x="584" 
d="M331 73q-53 -84 -152 -84q-76 0 -118.5 48t-42.5 128q0 120 71 206.5t180 86.5q99 0 126 -82l19 70h162l-84 -315q-9 -33 21 -33q17 0 38 7l-22 -86q-70 -39 -89 -64q-10 -14 -10 -28q0 -18 21 -18q18 0 47 12l-18 -72q-44 -24 -87 -24q-37 0 -57 18.5t-20 47.5
q0 55 78 105q-58 19 -63 77zM355 204l4 16q13 52 -5.5 84t-59.5 32q-48 0 -78.5 -42t-30.5 -104q0 -77 71 -77q36 0 62.5 25.5t36.5 65.5z" />
    <glyph glyph-name="aring.alt" horiz-adv-x="584" 
d="M355 204l4 16q13 52 -5.5 84t-59.5 32q-48 0 -78.5 -42t-30.5 -104q0 -77 71 -77q36 0 62.5 25.5t36.5 65.5zM331 73q-53 -84 -152 -84q-76 0 -118.5 48t-42.5 128q0 120 71 206.5t180 86.5q99 0 126 -82l19 70h162l-84 -315q-9 -33 21 -33q17 0 38 7l-22 -86
q-49 -29 -92 -29q-46 0 -74.5 23t-31.5 60zM480 586q0 -44 -29 -73.5t-72 -29.5q-41 0 -65.5 23.5t-24.5 61.5q0 44 29 73.5t72 29.5q40 0 65 -23.5t25 -61.5zM417 581q0 13 -8.5 21.5t-21.5 8.5q-14 0 -24.5 -11t-10.5 -27q0 -13 8 -21.5t22 -8.5t24.5 11t10.5 27z" />
    <glyph glyph-name="aringacute.alt" horiz-adv-x="584" 
d="M469 569q0 -41 -29 -68t-72 -27q-41 0 -65.5 21.5t-24.5 57.5q0 41 29 68t72 27q41 0 65.5 -21.5t24.5 -57.5zM406 565q0 12 -8.5 19.5t-21.5 7.5q-15 0 -25 -10t-10 -25q0 -12 8.5 -19.5t21.5 -7.5q15 0 25 10t10 25zM452 668h-118l68 115h161zM355 204l4 16
q13 52 -5.5 84t-59.5 32q-48 0 -78.5 -42t-30.5 -104q0 -77 71 -77q36 0 62.5 25.5t36.5 65.5zM331 73q-53 -84 -152 -84q-76 0 -118.5 48t-42.5 128q0 120 71 206.5t180 86.5q99 0 126 -82l19 70h162l-84 -315q-9 -33 21 -33q17 0 38 7l-22 -86q-49 -29 -92 -29
q-46 0 -74.5 23t-31.5 60z" />
    <glyph glyph-name="atilde.alt" horiz-adv-x="584" 
d="M355 204l4 16q13 52 -5.5 84t-59.5 32q-48 0 -78.5 -42t-30.5 -104q0 -77 71 -77q36 0 62.5 25.5t36.5 65.5zM331 73q-53 -84 -152 -84q-76 0 -118.5 48t-42.5 128q0 120 71 206.5t180 86.5q99 0 126 -82l19 70h162l-84 -315q-9 -33 21 -33q17 0 38 7l-22 -86
q-49 -29 -92 -29q-46 0 -74.5 23t-31.5 60zM295 488h-85q16 66 49.5 105.5t76.5 39.5q24 0 48 -18.5t40 -18.5q29 0 41 34h85q-17 -66 -50.5 -105.5t-76.5 -39.5q-25 0 -48 18.5t-39 18.5q-29 0 -41 -34z" />
    <glyph glyph-name="caron.Slovak" 
d="M337 481h-102l51 149h155z" />
    <glyph glyph-name="cedilla.alt" horiz-adv-x="833" 
d="M459 -90q0 -45 -40 -65t-94 -20q-73 0 -108 33l25 39q34 -22 79 -22t45 22q0 18 -22.5 20.5t-43.5 -7.5l-29 11l80 90h52l-45 -47q45 8 73 -6.5t28 -47.5z" />
    <glyph glyph-name="grave.cap" 
d="M472 668h-111l-62 142h154z" />
    <glyph glyph-name="acute.cap" 
d="M375 668h-118l89 142h161z" />
    <glyph glyph-name="circumflex.cap" 
d="M325 810h152l51 -142h-98l-46 55l-74 -55h-106z" />
    <glyph glyph-name="caron.cap" 
d="M442 668h-152l-51 142h98l47 -55l73 55h106z" />
    <glyph glyph-name="tilde.cap" 
d="M298 668h-85q16 66 49.5 105.5t76.5 39.5q25 0 49 -18.5t39 -18.5q29 0 41 34h85q-17 -66 -50.5 -105.5t-76.5 -39.5q-24 0 -48 18.5t-39 18.5q-29 0 -41 -34z" />
    <glyph glyph-name="macron.cap" 
d="M224 672l27 108h285l-27 -108h-285z" />
    <glyph glyph-name="breve.cap" 
d="M365 668q-50 0 -81 27t-31 74q0 19 6 41h89q-2 -10 -2 -14q0 -32 41 -32q51 0 63 46h93q-17 -67 -64 -104.5t-114 -37.5z" />
    <glyph glyph-name="dotaccent.cap" 
d="M284 668l35 142h164l-35 -142h-164z" />
    <glyph glyph-name="dieresis.cap" 
d="M201 668l35 142h142l-35 -142h-142zM389 668l35 142h142l-35 -142h-142z" />
    <glyph glyph-name="ring.cap" 
d="M488 766q0 -44 -29 -73.5t-72 -29.5q-41 0 -65.5 23.5t-24.5 61.5q0 44 29 73.5t72 29.5q40 0 65 -23.5t25 -61.5zM425 761q0 13 -8.5 21.5t-21.5 8.5q-14 0 -24.5 -11t-10.5 -27q0 -13 8 -21.5t22 -8.5t24.5 11t10.5 27z" />
    <glyph glyph-name="hungarumlaut.cap" 
d="M291 668h-105l75 142h148zM463 668h-105l75 142h148z" />
    <glyph glyph-name="exclamdown.cap" horiz-adv-x="232" 
d="M306 630l-42 -172h-172l42 172h172zM149 0h-172l41 162l98 258h104l-30 -258z" />
    <glyph glyph-name="questiondown.cap" horiz-adv-x="518" 
d="M221 420h157q-23 -78 -98 -128q-5 -4 -20 -13t-20.5 -13.5t-17 -13t-16.5 -15t-11 -16t-8.5 -20t-2.5 -22.5q0 -21 14.5 -34t42.5 -13q46 0 71.5 38t25.5 92l165 -5q-6 -129 -85.5 -199t-204.5 -70q-103 0 -153.5 49t-51.5 118q0 36 12 66.5t36.5 55t44.5 40t52 35.5
q58 37 68 68zM438 630l-42 -172h-172l42 172h172z" />
    <glyph glyph-name="guilsinglleft.cap" horiz-adv-x="253" 
d="M33 234l36 144l224 125l-37 -147l-111 -61l81 -61l-31 -125z" />
    <glyph glyph-name="guilsinglright.cap" horiz-adv-x="253" 
d="M267 378l-36 -144l-224 -125l37 147l111 61l-81 61l31 125z" />
    <glyph glyph-name="guillemotleft.cap" horiz-adv-x="484" 
d="M33 234l36 144l224 125l-37 -147l-111 -61l81 -61l-31 -125zM264 234l36 144l224 125l-37 -147l-111 -61l81 -61l-31 -125z" />
    <glyph glyph-name="guillemotright.cap" horiz-adv-x="484" 
d="M267 378l-36 -144l-224 -125l37 147l111 61l-81 61l31 125zM498 378l-36 -144l-224 -125l37 147l111 61l-81 61l31 125z" />
    <glyph glyph-name="slash.cap" horiz-adv-x="417" 
d="M-47 0l415 630h162l-416 -630h-161z" />
    <glyph glyph-name="backslash.cap" horiz-adv-x="387" 
d="M233 630l109 -630h-141l-109 630h141z" />
    <glyph glyph-name="bar.cap" horiz-adv-x="241" 
d="M-5 0l157 630h145l-157 -630h-145z" />
    <glyph glyph-name="periodcentered.cap" horiz-adv-x="271" 
d="M51 230l42 172h172l-42 -172h-172z" />
    <glyph glyph-name="bullet.cap" horiz-adv-x="400" 
d="M391 319q0 -75 -49 -122.5t-121 -47.5t-121 47.5t-49 122.5t49 122.5t121 47.5t121 -47.5t49 -122.5z" />
    <glyph glyph-name="hyphen.cap" horiz-adv-x="360" 
d="M51 246l35 141h268l-35 -141h-268z" />
    <glyph glyph-name="endash.cap" 
d="M55 261l26 107h406l-26 -107h-406z" />
    <glyph glyph-name="emdash.cap" horiz-adv-x="1000" 
d="M55 261l26 107h908l-26 -107h-908z" />
    <glyph glyph-name="parenleft.cap" horiz-adv-x="345" 
d="M57 182q0 143 57.5 264t187.5 234h154q-130 -115 -189 -244t-59 -254q0 -145 63 -246h-138q-76 110 -76 246z" />
    <glyph glyph-name="parenright.cap" horiz-adv-x="345" 
d="M333 434q0 -143 -57.5 -264t-187.5 -234h-154q130 115 189 244t59 254q0 145 -63 246h138q76 -110 76 -246z" />
    <glyph glyph-name="bracketleft.cap" horiz-adv-x="324" 
d="M301 569l-130 -522h90l-27 -111h-233l184 744h234l-28 -111h-90z" />
    <glyph glyph-name="bracketright.cap" horiz-adv-x="324" 
d="M72 47l130 522h-90l27 111h233l-184 -744h-234l28 111h90z" />
    <glyph glyph-name="braceleft.cap" horiz-adv-x="343" 
d="M46 253l27 110h25q30 0 42 15t23 58l27 106q18 68 61.5 103t105.5 35h83l-28 -111h-40q-14 0 -22.5 -6t-11.5 -12.5t-6 -18.5l-26 -106q-14 -55 -40.5 -83t-75.5 -35q64 -10 64 -69q0 -25 -18.5 -94t-18.5 -80q0 -18 25 -18h40l-27 -111h-83q-50 0 -77.5 23t-27.5 68
q0 24 20 103.5t20 95.5q0 27 -36 27h-25z" />
    <glyph glyph-name="braceright.cap" horiz-adv-x="343" 
d="M349 363l-27 -110h-25q-30 0 -42 -15t-23 -58l-27 -106q-18 -68 -61.5 -103t-105.5 -35h-83l28 111h40q14 0 22.5 6t11.5 12.5t6 18.5l26 106q14 55 40.5 83t75.5 35q-64 10 -64 69q0 25 18.5 94t18.5 80q0 18 -25 18h-40l27 111h83q50 0 77.5 -23t27.5 -68
q0 -24 -20 -103.5t-20 -95.5q0 -27 36 -27h25z" />
    <glyph glyph-name="at.cap" horiz-adv-x="778" 
d="M597 211q45 0 72.5 51t27.5 132q0 86 -55 136.5t-159 50.5q-147 0 -239.5 -87t-92.5 -239q0 -101 67 -158.5t181 -57.5q109 0 209 47l19 -72q-101 -57 -235 -57q-151 0 -244.5 80.5t-93.5 217.5q0 181 122 296.5t307 115.5q146 0 227 -77.5t81 -195.5q0 -122 -67 -191
t-158 -69q-85 0 -110 64q-39 -64 -121 -64q-51 0 -84 39.5t-32 101.5q2 91 56 154t132 63q33 0 57.5 -15t34.5 -39l15 46h125l-65 -224q-14 -49 23 -49zM456 305l5 19q10 30 3.5 54.5t-32.5 24.5q-32 0 -55 -37.5t-23 -82.5q0 -55 37 -55q49 0 65 77z" />
    <glyph glyph-name="Euro.lt" horiz-adv-x="600" 
d="M54 341l19 80h42q37 101 111 161t172 60q113 0 171.5 -76.5t46.5 -193.5l-151 -6q7 56 -12 93t-66 37q-68 0 -106 -75h137l-29 -80h-133q-4 -24 -6 -48h121l-30 -80h-91q12 -80 83 -80q92 0 115 130l149 -7q-18 -117 -95 -192.5t-186 -75.5q-111 0 -166.5 61.5
t-62.5 163.5h-65l20 80h46q2 24 6 48h-40z" />
    <glyph glyph-name="dollar.lt" horiz-adv-x="600" 
d="M27 245l150 -5q-13 -83 71 -116l32 127l-46 13q-142 36 -142 162q0 99 73.5 157.5t194.5 58.5h17l19 75h80l-22 -87q84 -23 130.5 -84.5t39.5 -153.5l-148 6q3 30 -11 58t-43 45l-30 -123l19 -5q84 -24 127 -65t43 -106q0 -106 -78.5 -160t-193.5 -54h-14l-22 -88h-80
l24 98q-100 22 -150 88t-40 159zM412 176q0 37 -57 55l-29 -118q86 3 86 63zM262 456q0 -36 55 -56l29 119q-84 -2 -84 -63z" />
    <glyph glyph-name="cent.lt" horiz-adv-x="600" 
d="M51 187q0 114 77.5 191t200.5 80l20 80h84l-23 -89q68 -19 102.5 -69t33.5 -116l-129 -9q-3 51 -36 75l-56 -223q60 18 83 85l126 -10q-20 -81 -82 -134.5t-157 -58.5l-20 -82h-84l22 88q-75 15 -118.5 66t-43.5 126zM213 187q0 -50 30 -71l56 223q-40 -13 -63 -53.5
t-23 -98.5z" />
    <glyph glyph-name="sterling.lt" horiz-adv-x="600" 
d="M412 509q-43 0 -64 -31.5t-21 -78.5q0 -15 4 -43h120l-21 -91h-89q-3 -56 -27 -110q33 -18 67 -18q44 0 65 17.5t33 65.5l110 -6q-7 -120 -63.5 -173t-142.5 -53q-81 0 -145 55q-58 -55 -127 -55q-49 0 -78.5 28.5t-29.5 77.5q0 62 41 98.5t97 36.5q31 0 64 -12
q0 3 0.5 9.5t0.5 8.5q0 15 -3 30h-117l21 91h64q-6 20 -6 42q0 106 72.5 175t184.5 69q115 0 165.5 -63.5t24.5 -170.5l-138 -7q11 51 -4.5 79.5t-57.5 28.5zM122 83q27 0 47 31q-23 23 -41 23q-14 0 -22.5 -8.5t-8.5 -23.5q0 -22 25 -22z" />
    <glyph glyph-name="yen.lt" horiz-adv-x="600" 
d="M70 249l24 99h91l-83 282h174l55 -230l159 230h190l-223 -282h90l-24 -99h-144l-13 -49h144l-24 -99h-144l-25 -101h-165l25 101h-144l24 99h144l13 49h-144z" />
    <glyph glyph-name="florin.lt" horiz-adv-x="600" 
d="M443 432l-21 -56h98l-29 -117h-113l-88 -237q-57 -155 -225 -155q-31 0 -59 4l36 117q5 -1 14 -1q33 0 50.5 20.5t34.5 65.5l69 186h-68l29 117h83l40 107q29 78 86.5 118t134.5 40q35 0 69 -7l-30 -117q-16 2 -22 2q-33 0 -52.5 -20t-36.5 -67z" />
    <glyph glyph-name="zero.lt" horiz-adv-x="600" 
d="M294 125q50 0 79 44t50 137q11 48 11 91q0 54 -18.5 81t-60.5 27q-50 0 -79 -44t-50 -137q-11 -48 -11 -91q0 -54 18.5 -81t60.5 -27zM289 -12q-122 0 -186 68t-64 186q0 47 10 96q29 144 112 224t199 80q122 0 186 -68t64 -186q0 -47 -10 -96q-29 -144 -112 -224
t-199 -80z" />
    <glyph glyph-name="one.lt" horiz-adv-x="600" 
d="M47 0l34 140h148l70 282h-137l28 112h29q69 0 103 21t66 75h133l-122 -490h132l-34 -140h-450z" />
    <glyph glyph-name="two.lt" horiz-adv-x="600" 
d="M302 141h233l-35 -141h-488l30 122l210 142q88 60 125.5 97.5t37.5 76.5q0 60 -62 60q-42 0 -63.5 -37t-21.5 -93l-167 8q2 121 74 193.5t197 72.5q102 0 159.5 -52t57.5 -132q0 -46 -12.5 -82t-42.5 -67.5t-58 -52.5t-81 -55z" />
    <glyph glyph-name="three.lt" horiz-adv-x="600" 
d="M378 201q0 52 -67 52q-29 0 -47 -2l30 121q21 -3 48 -3q39 0 63.5 19.5t24.5 58.5q0 25 -16.5 41.5t-47.5 16.5q-77 0 -100 -100l-164 7q21 104 95 167t187 63q103 0 158.5 -47.5t55.5 -119.5q0 -69 -40 -108.5t-102 -52.5q45 -13 69.5 -44.5t24.5 -74.5q0 -99 -76 -153
t-181 -54q-133 0 -194 64.5t-44 168.5l161 -5q-8 -44 13 -68t61 -24q38 0 63 19t25 58z" />
    <glyph glyph-name="four.lt" horiz-adv-x="600" 
d="M610 630l-89 -354h81l-35 -143h-81l-33 -133h-167l33 133h-300l39 166l337 331h215zM406 482l-208 -206h156z" />
    <glyph glyph-name="five.lt" horiz-adv-x="600" 
d="M608 630l-37 -148h-272q-22 -65 -29 -81q43 28 105 28q87 0 135 -52.5t48 -132.5q0 -113 -73.5 -184.5t-192.5 -71.5q-123 0 -185 66t-41 167l156 -11q-5 -40 18 -62.5t62 -22.5q41 0 68.5 27t27.5 72q0 34 -19 56t-55 22q-52 0 -80 -40l-159 12q80 191 126 356h397z" />
    <glyph glyph-name="six.lt" horiz-adv-x="600" 
d="M381 507q-56 0 -96.5 -41.5t-58.5 -119.5q55 64 156 64q90 0 139 -49.5t49 -123.5q0 -113 -80 -181t-186 -68q-112 0 -177 65t-65 176q0 115 38 207.5t114.5 149t178.5 56.5q109 0 162.5 -54t53.5 -143l-155 -5q0 67 -73 67zM410 217q0 32 -21.5 50t-57.5 18
q-41 0 -70.5 -26t-29.5 -70q0 -32 21.5 -50t57.5 -18q41 0 70.5 26t29.5 70z" />
    <glyph glyph-name="seven.lt" horiz-adv-x="600" 
d="M399 478h-307l38 152h501l-34 -134q-141 -112 -201.5 -219.5t-102.5 -276.5h-186q41 157 107 266.5t185 211.5z" />
    <glyph glyph-name="eight.lt" horiz-adv-x="600" 
d="M296 115q42 0 70 22.5t28 62.5q0 29 -21.5 47.5t-61.5 18.5q-42 0 -70 -22.5t-28 -62.5q0 -29 21.5 -47.5t61.5 -18.5zM296 -12q-124 0 -187 52t-63 126q0 66 39 111t106 58q-71 37 -71 111q0 91 72.5 143.5t174.5 52.5q113 0 174.5 -43.5t61.5 -119.5q0 -119 -129 -163
q39 -16 62.5 -49.5t23.5 -81.5q0 -93 -75.5 -145t-188.5 -52zM353 382q37 0 62 21t25 57q0 27 -20 42.5t-50 15.5q-37 0 -62 -21t-25 -57q0 -27 20 -42.5t50 -15.5z" />
    <glyph glyph-name="nine.lt" horiz-adv-x="600" 
d="M270 123q56 0 96.5 41.5t58.5 119.5q-55 -64 -156 -64q-90 0 -139 49.5t-49 123.5q0 113 80 181t186 68q112 0 177 -65t65 -176q0 -115 -38 -207.5t-114.5 -149t-178.5 -56.5q-108 0 -162 54t-54 143l155 5q0 -67 73 -67zM241 413q0 -32 21.5 -50t57.5 -18q41 0 70.5 26
t29.5 70q0 32 -21.5 50t-57.5 18q-41 0 -70.5 -26t-29.5 -70z" />
    <glyph glyph-name="period.tab" horiz-adv-x="300" 
d="M14 0l42 172h172l-42 -172h-172z" />
    <glyph glyph-name="comma.tab" horiz-adv-x="300" 
d="M14 0l42 172h172l-40 -161q-35 -145 -208 -150l18 78q76 2 91 61h-75z" />
    <glyph glyph-name="colon.tab" horiz-adv-x="300" 
d="M14 0l42 172h172l-42 -172h-172zM81 266l42 172h172l-42 -172h-172z" />
    <glyph glyph-name="semicolon.tab" horiz-adv-x="300" 
d="M14 0l42 172h172l-40 -161q-35 -145 -208 -150l18 78q76 2 91 61h-75zM81 266l42 172h172l-42 -172h-172z" />
    <glyph glyph-name="space.tab" horiz-adv-x="300" 
 />
    <glyph glyph-name="percent.lt" horiz-adv-x="800" 
d="M157 433q0 -53 49 -53q28 0 49 30.5t21 89.5q0 53 -49 53q-28 0 -49 -30.5t-21 -89.5zM47 433q0 94 58 151.5t131 57.5q65 0 107.5 -39t42.5 -103q0 -94 -58 -151.5t-131 -57.5q-65 0 -107.5 39t-42.5 103zM728 630l-489 -630h-125l489 630h125zM685 197q0 53 -49 53
q-28 0 -49 -30.5t-21 -89.5q0 -53 49 -53q28 0 49 30.5t21 89.5zM795 197q0 -94 -58 -151.5t-131 -57.5q-65 0 -107.5 39t-42.5 103q0 94 58 151.5t131 57.5q65 0 107.5 -39t42.5 -103z" />
    <glyph glyph-name="perthousand.lt" horiz-adv-x="1200" 
d="M165 433q0 -53 49 -53q28 0 49 30.5t21 89.5q0 53 -49 53q-28 0 -49 -30.5t-21 -89.5zM55 433q0 94 58 151.5t131 57.5q65 0 107.5 -39t42.5 -103q0 -94 -58 -151.5t-131 -57.5q-65 0 -107.5 39t-42.5 103zM736 630l-489 -630h-125l489 630h125zM693 197q0 53 -49 53
q-28 0 -49 -30.5t-21 -89.5q0 -53 49 -53q28 0 49 30.5t21 89.5zM803 197q0 -94 -58 -151.5t-131 -57.5q-65 0 -107.5 39t-42.5 103q0 94 58 151.5t131 57.5q65 0 107.5 -39t42.5 -103zM1060 197q0 53 -49 53q-28 0 -49 -30.5t-21 -89.5q0 -53 49 -53q28 0 49 30.5t21 89.5z
M1170 197q0 -94 -58 -151.5t-131 -57.5q-65 0 -107.5 39t-42.5 103q0 94 58 151.5t131 57.5q65 0 107.5 -39t42.5 -103z" />
    <glyph glyph-name="plus.lt" horiz-adv-x="600" 
d="M317 574h134l-49 -196h197l-34 -135h-197l-48 -196h-134l48 196h-196l34 135h196z" />
    <glyph glyph-name="minus.lt" horiz-adv-x="600" 
d="M40 243l34 135h527l-34 -135h-527z" />
    <glyph glyph-name="multiply.lt" horiz-adv-x="600" 
d="M127 81l-72 95l172 137l-104 140l108 86l104 -139l172 137l72 -96l-172 -137l104 -139l-109 -87l-103 139z" />
    <glyph glyph-name="divide.lt" horiz-adv-x="600" 
d="M40 243l34 135h527l-34 -135h-527zM267 442l41 163h173l-41 -163h-173zM160 16l41 162h173l-41 -162h-173z" />
    <glyph glyph-name="equal.lt" horiz-adv-x="600" 
d="M19 144l31 122h527l-31 -122h-527zM73 360l30 122h528l-31 -122h-527z" />
    <glyph glyph-name="less.lt" horiz-adv-x="600" 
d="M80 216l45 184l445 170l-40 -162l-306 -108l253 -108l-37 -146z" />
    <glyph glyph-name="greater.lt" horiz-adv-x="600" 
d="M570 400l-46 -184l-444 -170l39 162l306 108l-252 108l37 146z" />
    <glyph glyph-name="plusminus.lt" horiz-adv-x="600" 
d="M333 616h134l-35 -139h186l-34 -134h-185l-34 -139h-134l34 139h-184l34 134h183zM-1 16l34 133h503l-34 -133h-503z" />
    <glyph glyph-name="lessequal.lt" horiz-adv-x="600" 
d="M49 16l34 134h402l-34 -134h-402zM121 303l45 179l435 133l-38 -156l-286 -74l250 -75l-36 -139z" />
    <glyph glyph-name="greaterequal.lt" horiz-adv-x="600" 
d="M501 150l-34 -134h-402l34 134h402zM584 482l-45 -179l-435 -132l39 156l285 73l-249 76l36 139z" />
    <glyph glyph-name="notequal.lt" horiz-adv-x="600" 
d="M74 362l28 118h310l101 115h117l-101 -115h101l-29 -118h-175l-86 -98h237l-30 -118h-310l-100 -115h-117l100 115h-100l30 118h173l86 98h-235z" />
    <glyph glyph-name="approxequal.lt" horiz-adv-x="600" 
d="M65 328l31 123q84 47 153 47q45 0 114.5 -23t114.5 -23q72 0 158 48l-31 -124q-86 -47 -157 -47q-45 0 -114.5 23t-114.5 23q-69 0 -154 -47zM15 127l31 123q83 48 153 48q45 0 114.5 -23.5t115.5 -23.5q72 0 156 48l-31 -124q-84 -47 -156 -47q-45 0 -114.5 23
t-115.5 23q-68 0 -153 -47z" />
    </font>
</defs>
</svg>
