<?xml version="1.0" encoding="UTF-8" standalone="no"?>
<svg width="19px" height="19px" viewBox="0 0 19 19" version="1.1" xmlns="http://www.w3.org/2000/svg" xmlns:xlink="http://www.w3.org/1999/xlink">
    <!-- Generator: Sketch 48.1 (47250) - http://www.bohemiancoding.com/sketch -->
    <title>Fill 1</title>
    <desc>Created with Sketch.</desc>
    <defs></defs>
    <g id="Page-1" stroke="none" stroke-width="1" fill="none" fill-rule="evenodd">
        <path d="M14.3249665,3.23330174 C13.7060292,3.23330174 13.2042146,3.73503439 13.2042146,4.35405359 C13.2042146,4.97299092 13.7060292,5.47480544 14.3249665,5.47480544 C14.9439857,5.47480544 15.4457183,4.97299092 15.4457183,4.35405359 C15.4457183,3.73503439 14.9439857,3.23330174 14.3249665,3.23330174 M9.33953051,12.4526801 C7.62014644,12.4526801 6.22634003,11.0588736 6.22634003,9.33948957 C6.22634003,7.62010551 7.62014644,6.22629909 9.33953051,6.22629909 C11.0588736,6.22629909 12.4526801,7.62010551 12.4526801,9.33948957 C12.4526801,11.0588736 11.0588736,12.4526801 9.33953051,12.4526801 M9.33953051,4.54355428 C6.69081935,4.54355428 4.54355428,6.69077842 4.54355428,9.33948957 C4.54355428,11.9882826 6.69081935,14.1354249 9.33953051,14.1354249 C11.9882007,14.1354249 14.1354658,11.9882826 14.1354658,9.33948957 C14.1354658,6.69077842 11.9882007,4.54355428 9.33953051,4.54355428 M16.9417872,13.1134557 C16.9002354,14.0240743 16.7480699,14.5186019 16.6201805,14.8477411 C16.4508211,15.283605 16.2484251,15.5947316 15.9215784,15.9216193 C15.5947726,16.2483841 15.2836459,16.4507802 14.8477002,16.6202214 C14.518561,16.7481108 14.0240333,16.9002763 13.1134557,16.9417872 C12.1287399,16.9867368 11.8334971,16.9961934 9.33953051,16.9961934 C6.84552298,16.9961934 6.55028018,16.9867368 5.56556436,16.9417872 C4.65498674,16.9002763 4.16045913,16.7481108 3.8313199,16.6202214 C3.39537416,16.4507802 3.08424752,16.2483841 2.75744173,15.9216193 C2.43067688,15.5947316 2.22828082,15.283605 2.05883961,14.8477411 C1.93095019,14.5186019 1.77878469,14.0240743 1.73723291,13.1134557 C1.69232424,12.128658 1.68278575,11.8332924 1.68278575,9.33948957 C1.68278575,6.84572767 1.69232424,6.55036205 1.73723291,5.56552342 C1.77878469,4.6549458 1.93095019,4.16041819 2.05883961,3.83127896 C2.22828082,3.39533322 2.43067688,3.08428846 2.75744173,2.75740079 C3.08424752,2.43063595 3.39537416,2.22823988 3.8313199,2.05879867 C4.16045913,1.93090925 4.65498674,1.77874376 5.56556436,1.73719198 C6.55040299,1.6922833 6.84576861,1.68274481 9.33953051,1.68274481 C11.8332515,1.68274481 12.1286171,1.6922833 13.1134557,1.73719198 C14.0240333,1.77874376 14.518561,1.93090925 14.8477002,2.05879867 C15.2836459,2.22823988 15.5947726,2.43063595 15.9215784,2.75740079 C16.2484251,3.08428846 16.4508211,3.39533322 16.6201805,3.83127896 C16.7480699,4.16041819 16.9002354,4.6549458 16.9417872,5.56552342 C16.9866958,6.55036205 16.9962343,6.84572767 16.9962343,9.33948957 C16.9962343,11.8332924 16.9866958,12.128658 16.9417872,13.1134557 M18.6228126,5.48888801 C18.5774536,4.49475652 18.4195978,3.81588638 18.1886681,3.22175731 C17.9500422,2.60765063 17.6306871,2.08675913 17.111474,1.56754608 C16.59222,1.04833303 16.0714104,0.72893697 15.4572218,0.490311024 C14.8631746,0.259463244 14.1843045,0.101607411 13.190173,0.0561665463 C12.1940356,0.0106847439 11.8759905,0 9.33953051,0 C6.80302963,0 6.48498452,0.0106847439 5.48884708,0.0561665463 C4.49471558,0.101607411 3.81584544,0.259463244 3.22179824,0.490311024 C2.60760969,0.72893697 2.08680007,1.04833303 1.56758702,1.56754608 C1.04833303,2.08675913 0.728977908,2.60765063 0.490351961,3.22175731 C0.259422306,3.81588638 0.101566473,4.49475652 0.056207484,5.48888801 C0.0107256816,6.48502546 0,6.8029887 0,9.33948957 C0,11.8760314 0.0107256816,12.1939946 0.056207484,13.1901321 C0.101566473,14.1842636 0.259422306,14.8631337 0.490351961,15.4572628 C0.728977908,16.0713695 1.04833303,16.592261 1.56758702,17.111474 C2.08680007,17.6306871 2.60760969,17.9500831 3.22179824,18.1887091 C3.81584544,18.4195568 4.49471558,18.5774536 5.48884708,18.6228535 C6.48498452,18.6682535 6.80302963,18.6790201 9.33953051,18.6790201 C11.8759905,18.6790201 12.1940356,18.6682535 13.190173,18.6228535 C14.1843045,18.5774536 14.8631746,18.4195568 15.4572218,18.1887091 C16.0714104,17.9500831 16.59222,17.6306871 17.111474,17.111474 C17.6306871,16.592261 17.9500422,16.0713695 18.1886681,15.4572628 C18.4195978,14.8631337 18.5774536,14.1842636 18.6228126,13.1901321 C18.6682944,12.1939946 18.6789791,11.8760314 18.6789791,9.33948957 C18.6789791,6.8029887 18.6682944,6.48502546 18.6228126,5.48888801" id="Fill-1" fill="#FFFFFF"></path>
    </g>
</svg>