<?xml version="1.0" standalone="no"?>
<!DOCTYPE svg PUBLIC "-//W3C//DTD SVG 1.1//EN" "http://www.w3.org/Graphics/SVG/1.1/DTD/svg11.dtd" >
<svg xmlns="http://www.w3.org/2000/svg" xmlns:xlink="http://www.w3.org/1999/xlink" version="1.1">
<metadata>
Created by FontForge 20161003 at Thu Feb 22 09:28:47 2018
 By www-data
(c) 2010 Klim Type Foundry. All rights reserved.
</metadata>
<defs>
<font id="FoundersGroteskMediumItalic" horiz-adv-x="500" >
  <font-face 
    font-family="FoundersGroteskMediumItalic"
    font-weight="500"
    font-style="italic"
    font-stretch="normal"
    units-per-em="1000"
    panose-1="2 11 6 3 3 2 2 13 2 3"
    ascent="630"
    descent="-370"
    x-height="441"
    cap-height="630"
    bbox="-162 -205 1132 944"
    underline-thickness="40"
    underline-position="-110"
    slope="-14"
    unicode-range="U+0020-FB04"
  />
<missing-glyph horiz-adv-x="608" 
 />
    <glyph glyph-name="ff" unicode="ff" horiz-adv-x="582" 
d="M244 441h158l15 56q18 68 62 106.5t113 38.5q116 0 137 -107l-80 -25q-11 46 -53 46q-47 0 -62 -63l-13 -52h112l-21 -84h-112l-89 -357h-119l89 357h-158l-89 -357h-119l89 357h-66l22 84h65l8 34q37 157 180 157q61 0 105 -36l-43 -72q-23 20 -54 20q-53 0 -69 -66z
" />
    <glyph glyph-name="fi" unicode="fi" horiz-adv-x="516" 
d="M244 441h278l-110 -441h-120l89 357h-158l-89 -357h-119l89 357h-66l22 84h65l5 20q49 181 212 181q66 0 107.5 -30.5t54.5 -80.5l-91 -29q-4 23 -22 37.5t-47 14.5q-70 0 -94 -89z" />
    <glyph glyph-name="fl" unicode="fl" horiz-adv-x="516" 
d="M449 630h120l-157 -630h-120zM244 441h102l-21 -84h-102l-89 -357h-119l89 357h-66l22 84h65l10 40q17 79 63 120t116 41q58 0 96 -29l-36 -77q-21 15 -49 15q-54 0 -71 -68z" />
    <glyph glyph-name="ffi" unicode="ffi" horiz-adv-x="793" 
d="M402 441l5 20q49 181 212 181q66 0 107.5 -30.5t54.5 -80.5l-91 -29q-4 23 -22 37.5t-47 14.5q-70 0 -94 -89l-6 -24h278l-110 -441h-119l88 357h-158l-89 -357h-119l89 357h-158l-89 -357h-119l89 357h-66l22 84h65l8 34q37 157 180 157q61 0 105 -36l-43 -72
q-23 20 -54 20q-53 0 -69 -66l-8 -37h158z" />
    <glyph glyph-name="ffl" unicode="ffl" horiz-adv-x="793" 
d="M727 630h119l-157 -630h-119zM381 357h-158l-89 -357h-119l89 357h-66l22 84h65l8 34q37 157 180 157q61 0 105 -36l-43 -72q-23 20 -54 20q-53 0 -69 -66l-8 -37h158l10 40q17 79 63 120t116 41q58 0 96 -29l-36 -77q-20 15 -49 15q-54 0 -71 -68l-10 -42h102l-21 -84
h-102l-89 -357h-119z" />
    <glyph glyph-name="f_b" unicode="fb" horiz-adv-x="847" 
d="M244 441h102l-21 -84h-102l-89 -357h-119l89 357h-66l22 84h65l10 40q17 79 63 120t116 41q58 0 96 -29l-36 -77q-21 15 -49 15q-54 0 -71 -68zM472 245l-8 -28q-16 -60 9.5 -99t79.5 -39q65 0 105.5 54.5t40.5 130.5q0 46 -24 71t-69 25q-47 0 -84 -31.5t-50 -83.5z
M430 83l-42 -83h-95l157 630h120l-68 -266q25 41 67 65t93 24q78 0 120.5 -48t42.5 -127q0 -115 -69 -202.5t-181 -87.5q-55 0 -94 26t-51 69z" />
    <glyph glyph-name="f_f_b" unicode="ffb" horiz-adv-x="1124" 
d="M381 357h-158l-89 -357h-119l89 357h-66l22 84h65l8 34q37 157 180 157q61 0 105 -36l-43 -72q-23 20 -54 20q-53 0 -69 -66l-8 -37h158l10 40q17 79 63 120t116 41q58 0 96 -29l-36 -77q-20 15 -49 15q-54 0 -71 -68l-10 -42h102l-21 -84h-102l-89 -357h-119zM749 245
l-8 -28q-16 -60 9.5 -99t79.5 -39q65 0 105.5 54.5t40.5 130.5q0 46 -24 71t-69 25q-47 0 -84 -31.5t-50 -83.5zM707 83l-42 -83h-95l157 630h120l-68 -266q25 41 67 65t93 24q78 0 120.5 -48t42.5 -127q0 -115 -69 -202.5t-181 -87.5q-55 0 -94 26t-51 69z" />
    <glyph glyph-name="f_h" unicode="fh" horiz-adv-x="817" 
d="M244 441h102l-21 -84h-102l-89 -357h-119l89 357h-66l22 84h65l10 40q17 79 63 120t116 41q58 0 96 -29l-36 -77q-21 15 -49 15q-54 0 -71 -68zM470 232l-57 -232h-120l157 630h120l-66 -263q61 86 155 86q80 0 112.5 -52t13.5 -131l-67 -270h-120l62 251q27 107 -62 107
q-46 0 -80 -33.5t-48 -92.5z" />
    <glyph glyph-name="f_f_h" unicode="ffh" horiz-adv-x="1094" 
d="M381 357h-158l-89 -357h-119l89 357h-66l22 84h65l8 34q37 157 180 157q61 0 105 -36l-43 -72q-23 20 -54 20q-53 0 -69 -66l-8 -37h158l10 40q17 79 63 120t116 41q58 0 96 -29l-36 -77q-20 15 -49 15q-54 0 -71 -68l-10 -42h102l-21 -84h-102l-89 -357h-119zM747 232
l-57 -232h-120l157 630h120l-66 -263q61 86 155 86q80 0 112.5 -52t13.5 -131l-67 -270h-120l62 251q27 107 -62 107q-46 0 -80 -33.5t-48 -92.5z" />
    <glyph glyph-name="f_idieresis" unicode="f&#xef;" horiz-adv-x="516" 
d="M382 357h-159l-89 -357h-119l89 357h-66l22 84h65l8 33q47 168 201 168q114 0 141 -109l-88 -28q-10 50 -57 50q-56 0 -78 -79l-8 -35h278l-109 -441h-120zM503 509l29 117h110l-29 -117h-110z" />
    <glyph glyph-name="f_f_idieresis" unicode="ff&#xef;" horiz-adv-x="793" 
d="M381 357h-158l-89 -357h-119l89 357h-66l22 84h65l8 34q37 157 180 157q61 0 105 -36l-43 -72q-23 20 -54 20q-53 0 -69 -66l-8 -37h158l8 33q47 168 201 168q114 0 141 -109l-88 -28q-10 50 -56 50q-57 0 -78 -79l-9 -35h279l-110 -441h-120l89 357h-159l-89 -357h-119z
M780 509l30 117h109l-29 -117h-110z" />
    <glyph glyph-name="f_j" unicode="fj" horiz-adv-x="516" 
d="M283 -39l98 396h-158l-89 -357h-119l89 357h-66l22 84h65l5 20q49 181 212 181q66 0 107.5 -30.5t54.5 -80.5l-91 -29q-4 23 -22 37.5t-47 14.5q-70 0 -94 -89l-6 -24h278l-121 -489q-17 -67 -53.5 -97.5t-100.5 -30.5q-73 0 -114 39l39 69q31 -23 59 -23q21 0 32.5 12
t19.5 40z" />
    <glyph glyph-name="f_f_j" unicode="ffj" horiz-adv-x="793" 
d="M560 -39l98 396h-158l-89 -357h-119l89 357h-158l-89 -357h-119l89 357h-66l22 84h65l8 34q37 157 180 157q61 0 105 -36l-43 -72q-23 20 -54 20q-53 0 -69 -66l-8 -37h158l5 20q49 181 212 181q66 0 107.5 -30.5t54.5 -80.5l-91 -29q-4 23 -22 37.5t-47 14.5
q-70 0 -94 -89l-6 -24h278l-122 -489q-16 -67 -53 -97.5t-100 -30.5q-73 0 -114 39l39 69q31 -23 58 -23q39 0 53 52z" />
    <glyph glyph-name="f_k" unicode="fk" horiz-adv-x="803" 
d="M244 441h102l-21 -84h-102l-89 -357h-119l89 357h-66l22 84h65l10 40q17 79 63 120t116 41q58 0 96 -29l-36 -77q-21 15 -49 15q-54 0 -71 -68zM450 150l-37 -150h-120l157 630h120l-91 -361l221 172h152l-241 -182l140 -259h-129l-107 200z" />
    <glyph glyph-name="f_f_k" unicode="ffk" horiz-adv-x="1080" 
d="M381 357h-158l-89 -357h-119l89 357h-66l22 84h65l8 34q37 157 180 157q61 0 105 -36l-43 -72q-23 20 -54 20q-53 0 -69 -66l-8 -37h158l10 40q17 79 63 120t116 41q58 0 96 -29l-36 -77q-20 15 -49 15q-54 0 -71 -68l-10 -42h102l-21 -84h-102l-89 -357h-119zM727 150
l-37 -150h-120l157 630h120l-91 -361l221 172h152l-241 -182l140 -259h-129l-107 200z" />
    <glyph glyph-name=".notdef" horiz-adv-x="608" 
 />
    <glyph glyph-name=".null" horiz-adv-x="0" 
 />
    <glyph glyph-name="nonmarkingreturn" horiz-adv-x="333" 
 />
    <glyph glyph-name="space" unicode=" " horiz-adv-x="180" 
 />
    <glyph glyph-name="exclam" unicode="!" horiz-adv-x="210" 
d="M-10 0l32 134h134l-32 -134h-134zM150 630h128l-43 -170l-98 -274h-69l39 274z" />
    <glyph glyph-name="quotedbl" unicode="&#x22;" horiz-adv-x="325" 
d="M77 390l63 240h98l-63 -240h-98zM228 390l62 240h98l-62 -240h-98z" />
    <glyph glyph-name="numbersign" unicode="#" horiz-adv-x="619" 
d="M563 244l-27 -78h-111l-64 -166h-95l64 166h-117l-64 -166h-95l64 166h-95l25 78h101l55 142h-108l27 78h111l65 166h95l-65 -166h117l65 166h95l-65 -166h97l-27 -78h-100l-55 -142h107zM299 386l-55 -142h117l55 142h-117z" />
    <glyph glyph-name="dollar" unicode="$" horiz-adv-x="582" 
d="M29 248l111 -3q-9 -59 17.5 -98.5t77.5 -55.5l44 178l-44 13q-136 36 -136 157q0 91 67 147t180 56q4 0 13 -0.5t13 -0.5l20 82h67l-23 -93q80 -23 123.5 -84.5t34.5 -151.5l-110 4q5 44 -14 80.5t-58 55.5l-43 -174l20 -5q80 -22 120.5 -61.5t40.5 -101.5
q0 -98 -72.5 -151t-181.5 -53q-14 0 -20 1l-22 -90h-67l24 98q-96 20 -145 85.5t-37 165.5zM223 459q0 -31 21 -49.5t61 -30.5l1 -1l43 171h-9q-55 0 -86 -23.5t-31 -66.5zM425 174q0 55 -83 78l-43 -170h1q60 0 92.5 24t32.5 68z" />
    <glyph glyph-name="percent" unicode="%" horiz-adv-x="782" 
d="M165 434q0 -62 56 -62q37 0 62 37.5t25 100.5q0 61 -56 61q-37 0 -62 -37t-25 -100zM77 437q0 90 55 147.5t126 57.5q62 0 100 -37t38 -98q0 -90 -55 -147.5t-126 -57.5q-62 0 -100 37t-38 98zM714 635l-492 -640h-97l492 640h97zM674 196q0 62 -56 62q-37 0 -62 -37.5
t-25 -100.5q0 -61 56 -61q37 0 62 37t25 100zM762 193q0 -90 -55 -147.5t-126 -57.5q-62 0 -100 37t-38 98q0 90 55 147.5t126 57.5q62 0 100 -37t38 -98z" />
    <glyph glyph-name="ampersand" unicode="&#x26;" horiz-adv-x="649" 
d="M520 325l108 -7q-52 -114 -140 -199q32 -38 73 -38q20 0 54 7l-20 -75q-37 -21 -86 -21q-58 0 -110 56q-96 -60 -196 -60q-85 0 -137.5 44t-52.5 116q0 70 43 117t132 82q-29 53 -29 104q0 86 60 138.5t148 52.5q81 0 121 -37t40 -96q0 -68 -47 -112.5t-136 -78.5
l91 -128q53 60 84 135zM226 82q62 0 121 34l-114 163q-53 -22 -76 -48t-23 -63q0 -39 26 -62.5t66 -23.5zM273 464q0 -38 26 -80q65 23 93.5 48.5t29.5 66.5q0 25 -16 41t-46 16q-37 0 -62 -24.5t-25 -67.5z" />
    <glyph glyph-name="quotesingle" unicode="'" horiz-adv-x="181" 
d="M77 390l63 240h104l-63 -240h-104z" />
    <glyph glyph-name="parenleft" unicode="(" horiz-adv-x="315" 
d="M46 162q0 280 246 498h118q-126 -113 -187 -245.5t-61 -252.5q0 -145 63 -246h-105q-74 108 -74 246z" />
    <glyph glyph-name="parenright" unicode=")" horiz-adv-x="315" 
d="M301 414q0 -280 -246 -498h-117q125 113 186.5 245.5t61.5 252.5q0 145 -63 246h104q74 -108 74 -246z" />
    <glyph glyph-name="asterisk" unicode="*" horiz-adv-x="368" 
d="M75 526l41 65l98 -60l27 112l75 -18l-28 -112l115 9l6 -77l-114 -9l44 -106l-72 -29l-44 106l-87 -75l-49 59l86 74z" />
    <glyph glyph-name="plus" unicode="+" horiz-adv-x="615" 
d="M345 571h100l-52 -210h209l-25 -100h-209l-52 -209h-100l52 209h-209l25 100h209z" />
    <glyph glyph-name="comma" unicode="," horiz-adv-x="202" 
d="M-18 0l33 134h133l-31 -128q-30 -127 -165 -130l14 63q33 2 51 16t25 45h-60z" />
    <glyph glyph-name="hyphen" unicode="-" horiz-adv-x="352" 
d="M46 203l26 105h248l-26 -105h-248z" />
    <glyph glyph-name="period" unicode="." horiz-adv-x="202" 
d="M-18 0l33 134h133l-32 -134h-134z" />
    <glyph glyph-name="slash" unicode="/" horiz-adv-x="359" 
d="M-85 -83l445 742h117l-446 -742h-116z" />
    <glyph glyph-name="zero" unicode="0" horiz-adv-x="602" 
d="M289 89q66 0 108 51t67 158q14 55 14 104q0 67 -30 103t-86 36q-66 0 -108 -51t-67 -158q-14 -55 -14 -104q0 -67 30 -103t86 -36zM286 -12q-116 0 -178.5 66.5t-62.5 180.5q0 57 12 106q31 145 112.5 223t195.5 78q116 0 179 -66.5t63 -180.5q0 -53 -13 -106
q-30 -144 -112 -222.5t-196 -78.5z" />
    <glyph glyph-name="one" unicode="1" horiz-adv-x="320" 
d="M66 454l21 82q65 0 104.5 22.5t70.5 73.5h92l-157 -632h-126l113 454h-118z" />
    <glyph glyph-name="two" unicode="2" horiz-adv-x="515" 
d="M192 106h281l-26 -106h-474l20 84l230 160q102 71 130 98q56 54 56 110q0 39 -23 62t-68 23q-58 0 -90.5 -45.5t-33.5 -120.5l-122 7q2 118 70.5 191t186.5 73q99 0 153 -50.5t54 -127.5q0 -38 -11.5 -71t-27 -56.5t-47 -51t-55.5 -44t-68 -45.5z" />
    <glyph glyph-name="three" unicode="3" horiz-adv-x="528" 
d="M372 197q0 73 -90 73q-30 0 -54 -3l23 94q21 -3 54 -3q50 0 86.5 26t36.5 78q0 35 -23.5 57t-67.5 22q-109 0 -138 -129l-121 5q21 103 92.5 164t177.5 61q99 0 151 -45t52 -118q0 -70 -43.5 -111.5t-105.5 -53.5q46 -13 71.5 -45t25.5 -76q0 -96 -72.5 -150.5
t-175.5 -54.5q-126 0 -186 66t-41 168l118 -5q-12 -60 19 -94t88 -34q55 0 89 27t34 81z" />
    <glyph glyph-name="four" unicode="4" horiz-adv-x="566" 
d="M567 630l-93 -374h95l-26 -104h-95l-38 -152h-123l38 152h-320l29 122l376 356h157zM416 517l-276 -261h211z" />
    <glyph glyph-name="five" unicode="5" horiz-adv-x="527" 
d="M561 630l-28 -111h-285q-33 -102 -51 -141q51 46 126 46q86 0 135.5 -52t49.5 -134q0 -110 -71.5 -180t-185.5 -70q-116 0 -177 66.5t-39 167.5l115 -9q-10 -55 21 -89.5t86 -34.5q59 0 95 37.5t36 99.5q0 46 -26 73.5t-73 27.5q-76 0 -115 -60l-119 9q82 193 127 354
h379z" />
    <glyph glyph-name="six" unicode="6" horiz-adv-x="552" 
d="M362 542q-75 0 -125.5 -58t-70.5 -163q26 44 73.5 69t104.5 25q94 0 143.5 -51.5t49.5 -130.5q0 -109 -76.5 -177t-181.5 -68q-110 0 -172 64t-62 174q0 81 21.5 155.5t61.5 133t102.5 93t138.5 34.5q106 0 159 -53t51 -141l-115 -5q2 47 -25.5 73t-76.5 26zM419 221
q0 45 -29 72t-80 27q-58 0 -98 -36t-40 -97q0 -45 29.5 -72t80.5 -27q58 0 97.5 36t39.5 97z" />
    <glyph glyph-name="seven" unicode="7" horiz-adv-x="496" 
d="M402 517h-321l29 113h467l-23 -91q-140 -114 -211 -240.5t-114 -298.5h-137q43 165 117.5 291.5t192.5 225.5z" />
    <glyph glyph-name="eight" unicode="8" horiz-adv-x="542" 
d="M264 82q58 0 93.5 29.5t35.5 78.5q0 41 -32 64.5t-86 23.5q-57 0 -92 -29t-35 -78q0 -40 31.5 -64.5t84.5 -24.5zM262 -12q-110 0 -174.5 49t-64.5 126q0 68 43.5 113t115.5 56q-80 39 -80 118q0 88 69.5 140t166.5 52q102 0 161 -43t59 -119q0 -127 -139 -165
q44 -15 71.5 -49.5t27.5 -83.5q0 -90 -73.5 -142t-182.5 -52zM322 366q50 0 82.5 28.5t32.5 74.5q0 38 -27.5 59.5t-70.5 21.5q-50 0 -82.5 -28.5t-32.5 -73.5q0 -39 27.5 -60.5t70.5 -21.5z" />
    <glyph glyph-name="nine" unicode="9" horiz-adv-x="552" 
d="M236 88q75 0 125.5 58t70.5 163q-26 -44 -73.5 -69t-104.5 -25q-94 0 -143.5 51.5t-49.5 130.5q0 109 76.5 177t181.5 68q110 0 172 -64t62 -174q0 -81 -21.5 -155.5t-61.5 -133t-102.5 -93t-138.5 -34.5q-106 0 -159 53t-51 141l115 5q-2 -47 25.5 -73t76.5 -26z
M179 409q0 -45 29 -72t80 -27q58 0 98 36t40 97q0 45 -29.5 72t-80.5 27q-58 0 -97.5 -36t-39.5 -97z" />
    <glyph glyph-name="colon" unicode=":" horiz-adv-x="202" 
d="M-18 0l33 134h133l-32 -134h-134zM55 293l33 134h133l-32 -134h-134z" />
    <glyph glyph-name="semicolon" unicode=";" horiz-adv-x="202" 
d="M-18 0l33 134h133l-31 -128q-30 -127 -165 -130l14 63q33 2 51 16t25 45h-60zM55 293l33 134h133l-32 -134h-134z" />
    <glyph glyph-name="less" unicode="&#x3c;" horiz-adv-x="468" 
d="M44 242l32 134l443 190l-30 -123l-340 -140l270 -144l-28 -108z" />
    <glyph glyph-name="equal" unicode="=" horiz-adv-x="633" 
d="M47 172l23 93h518l-23 -93h-518zM93 358l23 94h519l-23 -94h-519z" />
    <glyph glyph-name="greater" unicode="&#x3e;" horiz-adv-x="468" 
d="M473 376l-34 -134l-442 -191l30 123l340 142l-270 142l28 108z" />
    <glyph glyph-name="question" unicode="?" horiz-adv-x="501" 
d="M298 187h-115q20 85 113 143q5 3 18.5 11.5t18.5 11.5t16.5 11t16 12.5t13 12.5t12 15l8 16t6 19.5t1.5 21.5q0 34 -22.5 55t-63.5 21q-60 0 -94 -46t-35 -115l-123 4q6 124 79 193t189 69q99 0 148.5 -48t50.5 -119q0 -37 -12.5 -68t-37.5 -55.5t-47.5 -40.5t-56.5 -36
q-68 -40 -83 -88zM129 0l33 134h133l-32 -134h-134z" />
    <glyph glyph-name="at" unicode="@" horiz-adv-x="768" 
d="M554 99q51 0 83.5 53t32.5 143q0 93 -60.5 147.5t-167.5 54.5q-145 0 -241 -92.5t-96 -247.5q0 -106 70.5 -168.5t187.5 -62.5q111 0 209 46l19 -57q-101 -57 -232 -57q-149 0 -241 81t-92 217q0 180 118.5 295.5t297.5 115.5q142 0 223.5 -76.5t81.5 -195.5
q0 -121 -63 -191t-148 -70q-81 0 -102 69q-42 -69 -125 -69q-52 0 -85.5 38t-32.5 99q1 89 55.5 155t134.5 66q37 0 64 -17.5t36 -44.5l18 54h97l-68 -231q-15 -54 26 -54zM441 203l7 22q12 40 -1 68t-48 28q-43 0 -73 -44.5t-30 -101.5q0 -66 52 -66q32 0 56.5 23.5
t36.5 70.5z" />
    <glyph glyph-name="A" unicode="A" horiz-adv-x="663" 
d="M363 630h139l102 -630h-128l-24 156h-268l-99 -156h-132zM397 491l-152 -239h192l-36 239h-4z" />
    <glyph glyph-name="B" unicode="B" horiz-adv-x="610" 
d="M300 0h-298l157 630h276q187 0 187 -144q0 -67 -44 -110t-109 -53q47 -9 75.5 -41t28.5 -81q0 -97 -77.5 -149t-195.5 -52zM353 273h-161l-44 -172h157q68 0 105.5 27.5t37.5 76.5q0 68 -95 68zM255 529l-40 -161h145q66 0 100.5 25t34.5 70q0 66 -88 66h-152z" />
    <glyph glyph-name="C" unicode="C" horiz-adv-x="669" 
d="M49 265q0 156 102 266.5t259 110.5q134 0 201 -76.5t60 -199.5l-117 -5q2 76 -36.5 123.5t-119.5 47.5q-100 0 -160 -77.5t-60 -182.5q0 -81 43.5 -127.5t116.5 -46.5q83 0 135.5 48t68.5 123l119 -5q-26 -125 -112.5 -200.5t-221.5 -75.5q-124 0 -201 76t-77 201z" />
    <glyph glyph-name="D" unicode="D" horiz-adv-x="650" 
d="M152 100h106q123 0 194 74t71 199q0 76 -46 116.5t-134 40.5h-84zM2 0l157 630h209q128 0 205.5 -67t77.5 -189q0 -168 -111 -271t-292 -103h-246z" />
    <glyph glyph-name="E" unicode="E" horiz-adv-x="559" 
d="M498 104l-25 -104h-471l157 630h462l-26 -104h-339l-38 -153h266l-26 -103h-266l-42 -166h348z" />
    <glyph glyph-name="F" unicode="F" horiz-adv-x="531" 
d="M127 0h-125l157 630h451l-26 -104h-326l-42 -168h252l-26 -102h-252z" />
    <glyph glyph-name="G" unicode="G" horiz-adv-x="697" 
d="M674 381l-121 -6q-1 70 -40 113.5t-115 43.5q-100 0 -160 -77.5t-60 -184.5q0 -82 43.5 -128.5t117.5 -46.5q132 0 194 130h-167l23 93h284l-79 -318h-107l22 88q-62 -100 -197 -100q-118 0 -190.5 76t-72.5 199q0 158 102 268.5t259 110.5q130 0 197 -72.5t67 -188.5z
" />
    <glyph glyph-name="H" unicode="H" horiz-adv-x="672" 
d="M127 0h-125l157 630h125l-64 -257h311l64 257h125l-157 -630h-125l67 270h-311z" />
    <glyph glyph-name="I" unicode="I" horiz-adv-x="236" 
d="M159 630h125l-157 -630h-125z" />
    <glyph glyph-name="J" unicode="J" horiz-adv-x="533" 
d="M468 630h125l-104 -415q-58 -227 -270 -227q-115 0 -170 69.5t-33 185.5l121 6q-26 -155 92 -155q57 0 89.5 34.5t50.5 107.5z" />
    <glyph glyph-name="K" unicode="K" horiz-adv-x="611" 
d="M563 0h-139l-160 279l-85 -70l-52 -209h-125l157 630h125l-70 -279l332 279h153l-334 -282z" />
    <glyph glyph-name="L" unicode="L" horiz-adv-x="538" 
d="M159 630h125l-131 -526h333l-26 -104h-458z" />
    <glyph glyph-name="M" unicode="M" horiz-adv-x="772" 
d="M384 0h-108l-29 500h-4l-125 -500h-116l157 630h190l23 -460h3l246 460h200l-157 -630h-126l124 500h-4z" />
    <glyph glyph-name="N" unicode="N" horiz-adv-x="648" 
d="M283 630l190 -433l108 433h116l-157 -630h-99l-209 459l-114 -459h-116l157 630h124z" />
    <glyph glyph-name="O" unicode="O" horiz-adv-x="691" 
d="M401 642q132 0 211.5 -74t79.5 -204q0 -156 -101.5 -266t-250.5 -110q-132 0 -211.5 74t-79.5 204q0 156 101.5 266t250.5 110zM343 98q96 0 158 76.5t62 189.5q0 77 -43.5 122.5t-121.5 45.5q-96 0 -158 -76.5t-62 -189.5q0 -77 43.5 -122.5t121.5 -45.5z" />
    <glyph glyph-name="P" unicode="P" horiz-adv-x="571" 
d="M206 319h113q166 0 166 123q0 45 -27.5 66t-85.5 21h-114zM180 217l-54 -217h-124l157 630h238q102 0 157 -48t55 -131q0 -115 -81 -174.5t-221 -59.5h-127z" />
    <glyph glyph-name="Q" unicode="Q" horiz-adv-x="691" 
d="M401 642q132 0 211.5 -74t79.5 -204q0 -83 -31.5 -156t-87.5 -126l45 -64l-77 -51l-43 61q-74 -40 -158 -40q-132 0 -211.5 74t-79.5 204q0 156 101.5 266t250.5 110zM343 98q49 0 91 20l-50 72l78 52l44 -64q57 74 57 183q0 79 -43.5 125t-121.5 46q-96 0 -158 -76.5
t-62 -189.5q0 -77 43.5 -122.5t121.5 -45.5z" />
    <glyph glyph-name="R" unicode="R" horiz-adv-x="612" 
d="M535 0h-128q-6 10 -6 36q0 14 7.5 62t7.5 67q0 68 -86 68h-147l-58 -233h-123l157 630h268q101 0 155.5 -40.5t54.5 -121.5q0 -80 -53.5 -131t-130.5 -59q89 -18 89 -100q0 -18 -8 -69t-8 -71q0 -23 9 -38zM207 331h144q72 0 115 29.5t43 89.5q0 79 -112 79h-140z" />
    <glyph glyph-name="S" unicode="S" horiz-adv-x="586" 
d="M27 248l116 -3q-12 -76 31.5 -117.5t123.5 -41.5q57 0 89.5 23t32.5 66q0 30 -20 47t-63 29l-104 28q-136 36 -136 158q0 92 67.5 148.5t179.5 56.5q120 0 190.5 -66t58.5 -182l-117 4q8 62 -29 104t-109 42q-52 0 -81.5 -22.5t-29.5 -64.5q0 -30 18.5 -46.5t57.5 -27.5
l84 -24q161 -46 161 -166q0 -98 -73 -151.5t-181 -53.5q-134 0 -207.5 70t-59.5 190z" />
    <glyph glyph-name="T" unicode="T" horiz-adv-x="620" 
d="M317 0h-125l131 526h-223l26 104h574l-27 -104h-226z" />
    <glyph glyph-name="U" unicode="U" horiz-adv-x="637" 
d="M288 -12q-129 0 -193 77t-32 207l90 358h124l-91 -367q-19 -80 11 -125t100 -45q75 0 116 40.5t62 124.5l93 372h125l-97 -389q-33 -133 -108 -193t-200 -60z" />
    <glyph glyph-name="V" unicode="V" horiz-adv-x="643" 
d="M329 0h-134l-87 630h125l62 -477h4l307 477h132z" />
    <glyph glyph-name="W" unicode="W" horiz-adv-x="857" 
d="M586 630l3 -465h4l236 465h123l-324 -630h-139l-2 454h-4l-236 -454h-138l-1 630h122l-4 -463h4l242 463h114z" />
    <glyph glyph-name="X" unicode="X" horiz-adv-x="641" 
d="M573 630h142l-302 -307l165 -323h-132l-121 235l-230 -235h-142l325 327l-155 303h132l109 -216z" />
    <glyph glyph-name="Y" unicode="Y" horiz-adv-x="622" 
d="M340 357l237 273h140l-341 -387l-60 -243h-121l60 243l-147 387h128z" />
    <glyph glyph-name="Z" unicode="Z" horiz-adv-x="576" 
d="M168 104h350l-25 -104h-516l23 93l448 433h-336l26 104h503l-24 -96z" />
    <glyph glyph-name="bracketleft" unicode="[" horiz-adv-x="299" 
d="M267 574l-143 -572h90l-21 -86h-199l185 744h199l-21 -86h-90z" />
    <glyph glyph-name="backslash" unicode="\" horiz-adv-x="351" 
d="M197 659l123 -742h-102l-123 742h102z" />
    <glyph glyph-name="bracketright" unicode="]" horiz-adv-x="299" 
d="M72 2l143 572h-90l20 86h199l-185 -744h-199l22 86h90z" />
    <glyph glyph-name="asciicircum" unicode="^" horiz-adv-x="391" 
d="M234 630h122l73 -206h-107l-43 126l-105 -126h-117z" />
    <glyph glyph-name="underscore" unicode="_" horiz-adv-x="381" 
d="M-57 -134l22 92h341l-23 -92h-340z" />
    <glyph glyph-name="grave" unicode="`" 
d="M411 496h-81l-62 134h123z" />
    <glyph glyph-name="a" unicode="a" horiz-adv-x="503" 
d="M310 189l2 9l-99 -13q-45 -6 -67 -19.5t-22 -43.5q0 -25 15.5 -37.5t40.5 -12.5q46 0 82 31.5t48 85.5zM446 268l-40 -157q-10 -38 22 -38q15 0 39 8l-16 -65q-40 -26 -81 -26q-34 0 -57 19t-22 56q-46 -76 -154 -76q-62 0 -96.5 30.5t-34.5 81.5q0 67 49.5 105t135.5 48
l141 17l2 10q18 82 -61 82q-71 0 -100 -67l-110 11q26 68 85.5 107t144.5 39q89 0 131.5 -49.5t21.5 -135.5z" />
    <glyph glyph-name="b" unicode="b" horiz-adv-x="552" 
d="M177 245l-8 -28q-16 -60 9.5 -99t79.5 -39q65 0 105.5 54.5t40.5 130.5q0 46 -24 71t-69 25q-47 0 -84 -31.5t-50 -83.5zM135 83l-42 -83h-95l157 630h120l-68 -266q25 41 67 65t93 24q78 0 120.5 -48t42.5 -127q0 -115 -69 -202.5t-181 -87.5q-55 0 -94 26t-51 69z" />
    <glyph glyph-name="c" unicode="c" horiz-adv-x="492" 
d="M22 179q0 115 76 194.5t191 79.5q96 0 143.5 -54t41.5 -138l-101 -7q5 107 -89 107q-62 0 -102 -53.5t-40 -128.5q0 -47 25 -73t68 -26q98 0 129 109l99 -9q-20 -84 -83 -138t-157 -54q-92 0 -146.5 52.5t-54.5 138.5z" />
    <glyph glyph-name="d" unicode="d" horiz-adv-x="548" 
d="M375 196l7 28q17 59 -8.5 98.5t-79.5 39.5q-65 0 -105.5 -54.5t-40.5 -130.5q0 -96 93 -96q47 0 84 31.5t50 83.5zM415 361l67 269h119l-157 -630h-119l19 77q-53 -89 -159 -89q-79 0 -121 47.5t-42 127.5q0 115 69 202.5t181 87.5q55 0 93 -25t50 -67z" />
    <glyph glyph-name="e" unicode="e" horiz-adv-x="499" 
d="M363 151l98 -10q-27 -73 -88 -113t-144 -40q-96 0 -151.5 51t-55.5 140q0 114 77 194t189 80q97 0 143.5 -55t46.5 -139q0 -34 -8 -69h-333q-2 -52 26 -81.5t78 -29.5q88 0 122 72zM151 265h215q2 42 -20.5 71t-68.5 29q-47 0 -79 -27.5t-47 -72.5z" />
    <glyph glyph-name="f" unicode="f" horiz-adv-x="304" 
d="M104 357h-66l22 84h65l15 56q18 68 62 106.5t113 38.5q116 0 137 -107l-80 -25q-12 46 -53 46q-47 0 -63 -63l-12 -52h112l-21 -84h-112l-89 -357h-119z" />
    <glyph glyph-name="g" unicode="g" horiz-adv-x="540" 
d="M370 209l6 28q14 57 -11.5 92t-79.5 35q-64 0 -101.5 -48t-37.5 -118q0 -47 24.5 -71.5t67.5 -24.5q47 0 83.5 29t48.5 78zM331 48l12 51q-50 -80 -152 -80q-76 0 -122.5 46t-46.5 126q0 105 66.5 183.5t178.5 78.5q54 0 91.5 -24.5t49.5 -64.5l21 77h119l-99 -399
q-53 -216 -265 -216q-83 0 -141.5 43.5t-59.5 121.5l114 6q2 -40 28.5 -60t64.5 -20q110 0 141 131z" />
    <glyph glyph-name="h" unicode="h" horiz-adv-x="522" 
d="M175 232l-57 -232h-120l157 630h120l-66 -263q61 86 155 86q80 0 112.5 -52t13.5 -131l-67 -270h-120l62 251q27 107 -62 107q-46 0 -80 -33.5t-48 -92.5z" />
    <glyph glyph-name="i" unicode="i" horiz-adv-x="221" 
d="M107 441h120l-109 -441h-120zM124 513l29 117h123l-29 -117h-123z" />
    <glyph glyph-name="j" unicode="j" horiz-adv-x="221" 
d="M227 441l-121 -489q-17 -67 -54 -97.5t-100 -30.5q-73 0 -114 39l39 69q31 -23 59 -23q21 0 32.5 12t19.5 40l119 480h120zM124 513l29 117h123l-29 -117h-123z" />
    <glyph glyph-name="k" unicode="k" horiz-adv-x="508" 
d="M155 150l-37 -150h-120l157 630h120l-91 -361l221 172h152l-241 -182l140 -259h-129l-107 200z" />
    <glyph glyph-name="l" unicode="l" horiz-adv-x="221" 
d="M155 630h120l-157 -630h-120z" />
    <glyph glyph-name="m" unicode="m" horiz-adv-x="803" 
d="M483 364q65 89 166 89q78 0 110 -48.5t13 -127.5l-68 -277h-120l63 251q25 107 -57 107q-40 0 -73.5 -34.5t-48.5 -93.5l-57 -230h-120l62 251q27 107 -56 107q-40 0 -74 -34.5t-49 -93.5l-56 -230h-120l109 441h120l-18 -74q27 39 68 62.5t88 23.5q51 0 81.5 -24
t36.5 -65z" />
    <glyph glyph-name="n" unicode="n" horiz-adv-x="522" 
d="M175 232l-57 -232h-120l109 441h120l-18 -74q61 86 155 86q80 0 112.5 -52t13.5 -131l-67 -270h-120l62 251q27 107 -62 107q-46 0 -80 -33.5t-48 -92.5z" />
    <glyph glyph-name="o" unicode="o" horiz-adv-x="514" 
d="M235 79q63 0 100 54.5t37 123.5q0 50 -24.5 77.5t-68.5 27.5q-63 0 -99.5 -54.5t-36.5 -123.5q0 -50 24 -77.5t68 -27.5zM231 -12q-94 0 -151.5 53.5t-57.5 143.5q0 114 74 191t188 77q93 0 150.5 -53.5t57.5 -143.5q0 -114 -73.5 -191t-187.5 -77z" />
    <glyph glyph-name="p" unicode="p" horiz-adv-x="552" 
d="M177 245l-8 -28q-16 -60 9.5 -99t79.5 -39q65 0 105.5 54.5t40.5 130.5q0 46 -24 71t-69 25q-47 0 -84 -31.5t-50 -83.5zM137 80l-61 -244h-120l151 605h120l-20 -77q25 41 67 65t93 24q78 0 120.5 -48t42.5 -127q0 -115 -69 -202.5t-181 -87.5q-55 0 -93 25t-50 67z" />
    <glyph glyph-name="q" unicode="q" horiz-adv-x="546" 
d="M375 196l7 28q17 59 -8.5 98.5t-79.5 39.5q-65 0 -105.5 -54.5t-40.5 -130.5q0 -96 93 -96q47 0 84 31.5t50 83.5zM415 361l20 80h120l-151 -605h-120l60 241q-53 -89 -159 -89q-79 0 -121 47.5t-42 127.5q0 115 69 202.5t181 87.5q55 0 93 -25t50 -67z" />
    <glyph glyph-name="r" unicode="r" horiz-adv-x="361" 
d="M411 435l-37 -112q-28 19 -68 19q-47 0 -83.5 -32.5t-51.5 -91.5l-53 -218h-120l109 441h120l-22 -86q56 98 146 98q36 0 60 -18z" />
    <glyph glyph-name="s" unicode="s" horiz-adv-x="448" 
d="M-1 157l100 6q1 -45 32.5 -69t75.5 -24q82 0 82 50q0 19 -12.5 30t-40.5 18l-60 14q-117 28 -117 123q0 68 52 108t130 40q92 0 142 -41.5t54 -119.5l-101 -5q-5 83 -98 83q-31 0 -50 -12.5t-19 -35.5q0 -33 46 -44l75 -19q54 -13 82.5 -45t28.5 -77q0 -72 -56 -110.5
t-141 -38.5q-92 0 -148.5 43.5t-56.5 125.5z" />
    <glyph glyph-name="t" unicode="t" horiz-adv-x="330" 
d="M45 129l57 228h-63l18 71l31 5q32 5 48.5 20.5t33.5 49.5l29 60h72l-30 -122h120l-21 -84h-120l-54 -216q-14 -59 39 -59q36 0 80 20l-20 -77q-57 -37 -121 -37q-60 0 -88 37.5t-11 103.5z" />
    <glyph glyph-name="u" unicode="u" horiz-adv-x="514" 
d="M340 207l58 234h120l-110 -441h-120l19 74q-58 -86 -156 -86q-78 0 -108.5 52t-11.5 131l67 270h120l-63 -254q-26 -107 57 -107q46 0 79.5 33.5t48.5 93.5z" />
    <glyph glyph-name="v" unicode="v" horiz-adv-x="484" 
d="M247 0h-128l-59 441h115l36 -310h4l198 310h125z" />
    <glyph glyph-name="w" unicode="w" horiz-adv-x="683" 
d="M447 441l5 -293h4l166 293h115l-253 -441h-117l-6 292h-4l-154 -292h-117l-26 441h114l13 -293h4l158 293h98z" />
    <glyph glyph-name="x" unicode="x" horiz-adv-x="492" 
d="M531 441l-218 -216l123 -225h-123l-80 150l-150 -150h-132l235 233l-112 208h123l70 -133l131 133h133z" />
    <glyph glyph-name="y" unicode="y" horiz-adv-x="492" 
d="M141 -164h-121l112 169l-73 436h116l47 -306h4l193 306h127z" />
    <glyph glyph-name="z" unicode="z" horiz-adv-x="439" 
d="M288 352h-218l22 89h372l-21 -82l-296 -270h235l-22 -89h-384l20 82z" />
    <glyph glyph-name="braceleft" unicode="{" horiz-adv-x="316" 
d="M39 246l21 84h25q30 0 42 15t23 58l35 139q29 118 139 118h71l-21 -86h-40q-19 0 -27.5 -9t-13.5 -28l-34 -139q-12 -50 -37 -76.5t-69 -33.5q58 -10 58 -64q0 -21 -22.5 -107t-22.5 -96q0 -19 25 -19h40l-21 -86h-71q-87 0 -87 75q0 23 24 116t24 111q0 28 -36 28h-25z
" />
    <glyph glyph-name="bar" unicode="|" horiz-adv-x="218" 
d="M-19 -83l185 742h108l-185 -742h-108z" />
    <glyph glyph-name="braceright" unicode="}" horiz-adv-x="316" 
d="M314 330l-21 -84h-25q-30 0 -42 -15t-23 -58l-35 -139q-30 -118 -140 -118h-70l21 86h40q19 0 27.5 9t13.5 28l34 139q12 50 37 76.5t69 33.5q-58 10 -58 64q0 21 22.5 107t22.5 96q0 19 -25 19h-40l21 86h70q88 0 88 -75q0 -23 -24.5 -116t-24.5 -111q0 -28 37 -28h25z
" />
    <glyph glyph-name="asciitilde" unicode="~" horiz-adv-x="398" 
d="M102 206h-70q16 64 49 101.5t78 37.5q28 0 57.5 -25t46.5 -25q33 0 49 47h69q-15 -64 -48 -102t-78 -38q-28 0 -57 25.5t-46 25.5q-34 0 -50 -47z" />
    <glyph glyph-name="exclamdown" unicode="&#xa1;" horiz-adv-x="210" 
d="M249 518l-32 -134h-134l32 134h134zM89 -112h-128l43 170l98 274h69l-39 -274z" />
    <glyph glyph-name="cent" unicode="&#xa2;" horiz-adv-x="506" 
d="M32 179q0 113 74.5 192t193.5 82l22 87h69l-24 -94q68 -16 101.5 -66.5t30.5 -118.5l-98 -7q3 80 -56 104l-70 -280q42 7 72.5 36.5t43.5 74.5l97 -9q-20 -81 -81.5 -134.5t-153.5 -57.5l-21 -84h-69l22 89q-72 14 -112.5 63.5t-40.5 122.5zM152 179q0 -73 56 -96l70 280
q-57 -10 -91.5 -60.5t-34.5 -123.5z" />
    <glyph glyph-name="sterling" unicode="&#xa3;" horiz-adv-x="589" 
d="M408 543q-59 0 -89.5 -40t-30.5 -98q0 -31 3 -55h144l-18 -73h-117v-16q0 -64 -29 -128q54 -36 100 -36t69.5 23t35.5 77l91 -5q-12 -105 -64 -154.5t-133 -49.5q-80 0 -153 63q-60 -63 -135 -63q-47 0 -74 26t-27 70q0 55 38 87.5t91 32.5q41 0 79 -18q5 25 5 46
q0 17 -6 45h-107l18 73h70q-5 27 -5 54q0 100 70.5 169t180.5 69t157.5 -59t23.5 -162l-108 -5q13 61 -7 94t-73 33zM93 63q36 0 64 43q-31 26 -54 26q-19 0 -31.5 -10.5t-12.5 -29.5q0 -29 34 -29z" />
    <glyph glyph-name="yen" unicode="&#xa5;" horiz-adv-x="604" 
d="M71 259l19 77h124l-115 294h130l100 -262l221 262h144l-261 -294h123l-19 -77h-172l-16 -61h172l-19 -78h-172l-30 -120h-121l30 120h-172l18 78h173l16 61h-173z" />
    <glyph glyph-name="section" unicode="&#xa7;" horiz-adv-x="480" 
d="M464 260q0 -45 -26 -83.5t-69 -59.5q15 -24 15 -55q0 -68 -53.5 -112t-131.5 -44q-85 0 -139.5 43t-58.5 122l90 5q0 -39 30 -64t76 -25q32 0 52.5 15t21.5 46q0 27 -34 48l-102 62q-92 56 -92 129q0 45 26 83.5t69 59.5q-16 26 -15 56q0 68 53.5 112t131.5 44
q85 0 136 -42t53 -122l-90 -5q0 40 -26 64t-71 24q-32 0 -52.5 -15t-21.5 -46q0 -27 34 -48l102 -62q92 -56 92 -130zM203 371q-1 0 -3 2q-46 -19 -46 -65q0 -29 43 -59l107 -72l3 -3q46 21 46 65q0 30 -43 60z" />
    <glyph glyph-name="dieresis" unicode="&#xa8;" 
d="M191 509l29 117h110l-29 -117h-110zM352 509l29 117h110l-29 -117h-110z" />
    <glyph glyph-name="copyright" unicode="&#xa9;" horiz-adv-x="724" 
d="M59 315q0 141 95 234t232 93t232 -93t95 -234t-95 -234t-232 -93t-232 93t-95 234zM192 315q0 88 55.5 144t139.5 56q83 0 131 -46.5t54 -123.5l-82 -3q-4 42 -29.5 68.5t-71.5 26.5q-48 0 -76 -33t-28 -89t28 -88.5t76 -32.5q46 0 71.5 26t29.5 68l82 -4
q-6 -77 -54 -123.5t-131 -46.5t-139 56.5t-56 144.5zM107 315q0 -120 81 -200t198 -80q116 0 197 80t81 200t-81 200t-197 80q-117 0 -198 -80t-81 -200z" />
    <glyph glyph-name="ordfeminine" unicode="&#xaa;" horiz-adv-x="407" 
d="M302 431l2 9l-74 -10q-64 -10 -64 -51q0 -36 41 -36q33 0 59.5 24t35.5 64zM417 495l-30 -120q-7 -29 16 -29q16 0 31 7l-13 -56q-33 -21 -67 -21q-32 0 -50 17.5t-18 47.5q-35 -66 -121 -66q-48 0 -74.5 24t-26.5 65q0 99 144 116l110 13l3 11q13 60 -44 60
q-50 0 -74 -49l-94 9q20 55 67.5 86t117.5 31q71 0 105.5 -39t17.5 -107z" />
    <glyph glyph-name="guillemotleft" unicode="&#xab;" horiz-adv-x="442" 
d="M23 171l26 102l202 127l-29 -117l-112 -70l77 -71l-25 -98zM218 171l26 102l202 127l-29 -117l-112 -70l77 -71l-25 -98z" />
    <glyph glyph-name="registered" unicode="&#xae;" horiz-adv-x="407" 
d="M350 364h-50q-6 6 -9 35q-1 29 -30 29h-31v-64h-50v192h94q73 0 73 -60q0 -20 -11.5 -33.5t-30.5 -16.5q32 -6 35 -38q3 -37 10 -44zM230 466h31q35 0 35 25t-35 25h-31v-50zM439 459q0 -79 -52.5 -131t-128.5 -52q-75 0 -128 52.5t-53 130.5t53 130.5t128 52.5
q76 0 128.5 -52t52.5 -131zM406 459q0 66 -42.5 109t-105.5 43t-105.5 -43t-42.5 -109t42.5 -109t105.5 -43t105.5 43t42.5 109z" />
    <glyph glyph-name="macron" unicode="&#xaf;" 
d="M192 505l23 84h265l-23 -84h-265z" />
    <glyph glyph-name="degree" unicode="&#xb0;" horiz-adv-x="353" 
d="M225 428q32 0 54 22.5t22 55.5q0 29 -17.5 47t-46.5 18q-32 0 -54 -22.5t-22 -54.5q0 -30 17 -48t47 -18zM222 357q-61 0 -98.5 37.5t-37.5 95.5q0 65 44 108.5t110 43.5q60 0 98 -37.5t38 -95.5q0 -65 -44 -108.5t-110 -43.5z" />
    <glyph glyph-name="plusminus" unicode="&#xb1;" horiz-adv-x="623" 
d="M359 611h99l-41 -165h204l-24 -99h-204l-41 -165h-100l41 165h-204l25 99h203zM9 29l26 99h507l-25 -99h-508z" />
    <glyph glyph-name="twosuperior" unicode="&#xb2;" horiz-adv-x="349" 
d="M192 314h158l-20 -80h-302l16 67l136 93q59 40 84 64.5t25 53.5q0 44 -47 44q-30 0 -46 -25t-16 -65l-94 4q2 76 45.5 121.5t120.5 45.5q64 0 99 -32.5t35 -81.5q0 -55 -29 -88t-97 -76z" />
    <glyph glyph-name="threesuperior" unicode="&#xb3;" horiz-adv-x="349" 
d="M262 359q0 37 -48 37q-21 0 -32 -1l17 69q18 -2 32 -2q27 0 45.5 14t18.5 42q0 18 -12.5 30t-34.5 12q-57 0 -72 -70l-93 3q14 65 60 104.5t115 39.5q64 0 98 -29.5t34 -74.5q0 -44 -26 -69t-65 -33q28 -8 44 -28t16 -47q0 -62 -47 -96t-113 -34q-82 0 -120 40.5
t-27 105.5l91 -3q-7 -31 9 -48.5t46 -17.5q28 0 46 14t18 42z" />
    <glyph glyph-name="acute" unicode="&#xb4;" 
d="M317 496h-87l88 134h130z" />
    <glyph glyph-name="paragraph" unicode="&#xb6;" horiz-adv-x="539" 
d="M199 0l63 258q-85 0 -136 45.5t-51 114.5q0 100 75.5 156t198.5 56h236l-157 -630h-83l136 548h-63l-136 -548h-83z" />
    <glyph glyph-name="periodcentered" unicode="&#xb7;" horiz-adv-x="243" 
d="M45 189l33 134h133l-32 -134h-134z" />
    <glyph glyph-name="cedilla" unicode="&#xb8;" horiz-adv-x="694" 
d="M392 -93q0 -43 -37.5 -62.5t-88.5 -19.5q-70 0 -108 36l23 35q36 -27 83 -27q50 0 50 27q0 22 -25 25t-49 -9l-24 11l74 88h46l-47 -52q45 10 74 -4t29 -48z" />
    <glyph glyph-name="onesuperior" unicode="&#xb9;" horiz-adv-x="227" 
d="M82 506l16 64q41 0 66.5 14t44.5 46h73l-98 -396h-96l68 272h-74z" />
    <glyph glyph-name="ordmasculine" unicode="&#xba;" horiz-adv-x="413" 
d="M248 353q47 0 73.5 40.5t26.5 92.5q0 77 -67 77q-47 0 -73.5 -41t-26.5 -92q0 -77 67 -77zM244 274q-75 0 -121 43t-46 114q0 90 58.5 150t149.5 60q75 0 121 -42.5t46 -113.5q0 -90 -58.5 -150.5t-149.5 -60.5z" />
    <glyph glyph-name="guillemotright" unicode="&#xbb;" horiz-adv-x="442" 
d="M231 273l-26 -102l-201 -127l29 117l111 70l-77 71l25 98zM426 273l-25 -102l-202 -127l29 117l111 70l-77 71l25 98z" />
    <glyph glyph-name="onequarter" unicode="&#xbc;" horiz-adv-x="762" 
d="M676 630l-534 -630h-92l535 630h91zM86 507l16 64q41 0 66.5 14t44.5 46h73l-98 -397h-96l68 273h-74zM732 396l-59 -233h54l-18 -75h-54l-22 -88h-94l22 88h-196l20 88l225 220h122zM616 312l-153 -149h116z" />
    <glyph glyph-name="onehalf" unicode="&#xbd;" horiz-adv-x="789" 
d="M676 630l-534 -630h-92l535 630h91zM86 507l16 64q41 0 66.5 14t44.5 46h73l-98 -397h-96l68 273h-74zM573 80h159l-20 -80h-303l16 67l137 94q41 28 59 42t33.5 35t15.5 41q0 43 -46 43q-30 0 -46 -25t-17 -65l-94 4q2 76 46 122t121 46q63 0 98 -32.5t35 -82.5
q0 -55 -29 -88t-96 -76z" />
    <glyph glyph-name="threequarters" unicode="&#xbe;" horiz-adv-x="879" 
d="M794 630l-535 -630h-91l534 630h92zM849 396l-58 -233h53l-17 -75h-55l-22 -88h-94l23 88h-197l21 88l225 220h121zM734 312l-154 -149h116zM274 359q0 37 -48 37q-20 0 -32 -1l18 69q18 -2 31 -2q27 0 46 14.5t19 41.5q0 18 -12.5 30t-34.5 12q-56 0 -73 -70l-92 3
q13 65 59 104.5t115 39.5q64 0 98 -29.5t34 -74.5q0 -44 -26 -69t-65 -33q28 -8 44 -28t16 -47q0 -62 -47 -96t-112 -34q-83 0 -121 40.5t-26 105.5l91 -3q-6 -31 9.5 -48.5t44.5 -17.5q28 0 46 14t18 42z" />
    <glyph glyph-name="questiondown" unicode="&#xbf;" horiz-adv-x="501" 
d="M226 331h115q-20 -85 -113 -143q-5 -3 -18.5 -11.5t-18.5 -11.5t-16.5 -11t-16 -12.5t-13 -12.5t-12 -15l-8 -16t-6 -19.5t-1.5 -21.5q0 -34 22.5 -55t63.5 -21q60 0 94 46t35 115l123 -4q-6 -124 -79 -193t-189 -69q-99 0 -148.5 48t-50.5 119q0 37 12.5 68t37.5 55.5
t47.5 40.5t56.5 36q68 40 83 88zM395 518l-33 -134h-133l32 134h134z" />
    <glyph glyph-name="Agrave" unicode="&#xc0;" horiz-adv-x="663" 
d="M363 630h139l102 -630h-128l-24 156h-268l-99 -156h-132zM397 491l-152 -239h192l-36 239h-4zM491 672h-81l-62 134h122z" />
    <glyph glyph-name="Aacute" unicode="&#xc1;" horiz-adv-x="663" 
d="M363 630h139l102 -630h-128l-24 156h-268l-99 -156h-132zM397 491l-152 -239h192l-36 239h-4zM482 672h-87l86 134h130z" />
    <glyph glyph-name="Acircumflex" unicode="&#xc2;" horiz-adv-x="663" 
d="M363 630h139l102 -630h-128l-24 156h-268l-99 -156h-132zM397 491l-152 -239h192l-36 239h-4zM411 806h122l50 -134h-75l-48 66l-81 -66h-84z" />
    <glyph glyph-name="Atilde" unicode="&#xc3;" horiz-adv-x="663" 
d="M363 630h139l102 -630h-128l-24 156h-268l-99 -156h-132zM363 672h-69q15 60 46 95.5t73 35.5q26 0 53 -24t43 -24q31 0 46 45h70q-16 -60 -47 -95.5t-73 -35.5q-26 0 -52.5 24t-43.5 24q-30 0 -46 -45zM397 491l-152 -239h192l-36 239h-4z" />
    <glyph glyph-name="Adieresis" unicode="&#xc4;" horiz-adv-x="663" 
d="M363 630h139l102 -630h-128l-24 156h-268l-99 -156h-132zM397 491l-152 -239h192l-36 239h-4zM470 675l29 116h110l-29 -116h-110zM309 675l29 116h109l-28 -116h-110z" />
    <glyph glyph-name="Aring" unicode="&#xc5;" horiz-adv-x="663" 
d="M363 630h139l102 -630h-128l-24 156h-268l-99 -156h-132zM554 758q0 -42 -27.5 -69.5t-68.5 -27.5q-38 0 -61.5 22.5t-23.5 58.5q0 41 27.5 69t68.5 28q38 0 61.5 -22.5t23.5 -58.5zM397 491l-152 -239h192l-36 239h-4zM501 755q0 15 -9.5 24.5t-25.5 9.5
q-17 0 -29 -12.5t-12 -31.5q0 -15 9.5 -24.5t25.5 -9.5q17 0 29 12.5t12 31.5z" />
    <glyph glyph-name="AE" unicode="&#xc6;" horiz-adv-x="1002" 
d="M514 630h550l-26 -104h-339l-38 -153h266l-26 -103h-266l-42 -166h348l-25 -104h-471l43 173h-238l-155 -173h-142zM575 535l-239 -266h176l67 266h-4z" />
    <glyph glyph-name="Ccedilla" unicode="&#xc7;" horiz-adv-x="669" 
d="M385 -93q0 -43 -37.5 -62.5t-88.5 -19.5q-70 0 -108 36l23 35q36 -27 83 -27q50 0 50 27q0 22 -25 25t-49 -9l-24 11l59 70q-101 17 -160 90t-59 182q0 156 102 266.5t259 110.5q134 0 201 -76.5t60 -199.5l-117 -5q2 76 -36.5 123.5t-119.5 47.5q-100 0 -160 -77.5
t-60 -182.5q0 -81 43.5 -127.5t116.5 -46.5q83 0 135.5 48t68.5 123l119 -5q-26 -125 -112.5 -200.5t-221.5 -75.5q-13 0 -19 1l-26 -30q45 10 74 -4t29 -48z" />
    <glyph glyph-name="Egrave" unicode="&#xc8;" horiz-adv-x="559" 
d="M448 672h-81l-62 134h122zM498 104l-25 -104h-471l157 630h462l-26 -104h-339l-38 -153h266l-26 -103h-266l-42 -166h348z" />
    <glyph glyph-name="Eacute" unicode="&#xc9;" horiz-adv-x="559" 
d="M439 672h-87l86 134h130zM498 104l-25 -104h-471l157 630h462l-26 -104h-339l-38 -153h266l-26 -103h-266l-42 -166h348z" />
    <glyph glyph-name="Ecircumflex" unicode="&#xca;" horiz-adv-x="559" 
d="M498 104l-25 -104h-471l157 630h462l-26 -104h-339l-38 -153h266l-26 -103h-266l-42 -166h348zM369 806h122l50 -134h-75l-48 66l-81 -66h-84z" />
    <glyph glyph-name="Edieresis" unicode="&#xcb;" horiz-adv-x="559" 
d="M267 675l29 116h109l-28 -116h-110zM428 675l29 116h110l-29 -116h-110zM498 104l-25 -104h-471l157 630h462l-26 -104h-339l-38 -153h266l-26 -103h-266l-42 -166h348z" />
    <glyph glyph-name="Igrave" unicode="&#xcc;" horiz-adv-x="236" 
d="M159 630h125l-157 -630h-125zM280 672h-81l-62 134h122z" />
    <glyph glyph-name="Iacute" unicode="&#xcd;" horiz-adv-x="236" 
d="M159 630h125l-157 -630h-125zM271 672h-87l86 134h130z" />
    <glyph glyph-name="Icircumflex" unicode="&#xce;" horiz-adv-x="236" 
d="M159 630h125l-157 -630h-125zM200 806h122l50 -134h-75l-48 66l-81 -66h-84z" />
    <glyph glyph-name="Idieresis" unicode="&#xcf;" horiz-adv-x="236" 
d="M159 630h125l-157 -630h-125zM98 675l29 116h109l-28 -116h-110zM259 675l29 116h110l-29 -116h-110z" />
    <glyph glyph-name="Eth" unicode="&#xd0;" horiz-adv-x="669" 
d="M24 270l25 103h65l64 257h209q128 0 205.5 -67t77.5 -189q0 -168 -111 -271t-292 -103h-246l67 270h-64zM171 100h106q123 0 194 74t71 199q0 76 -46 116.5t-134 40.5h-84l-39 -157h154l-26 -103h-154z" />
    <glyph glyph-name="Ntilde" unicode="&#xd1;" horiz-adv-x="648" 
d="M361 672h-69q15 60 46 95.5t73 35.5q26 0 53 -24t43 -24q31 0 46 45h70q-16 -60 -47 -95.5t-73 -35.5q-26 0 -52.5 24t-43.5 24q-30 0 -46 -45zM283 630l190 -433l108 433h116l-157 -630h-99l-209 459l-114 -459h-116l157 630h124z" />
    <glyph glyph-name="Ograve" unicode="&#xd2;" horiz-adv-x="691" 
d="M487 672h-81l-62 134h122zM401 642q132 0 211.5 -74t79.5 -204q0 -156 -101.5 -266t-250.5 -110q-132 0 -211.5 74t-79.5 204q0 156 101.5 266t250.5 110zM343 98q96 0 158 76.5t62 189.5q0 77 -43.5 122.5t-121.5 45.5q-96 0 -158 -76.5t-62 -189.5q0 -77 43.5 -122.5
t121.5 -45.5z" />
    <glyph glyph-name="Oacute" unicode="&#xd3;" horiz-adv-x="691" 
d="M479 672h-87l86 134h130zM401 642q132 0 211.5 -74t79.5 -204q0 -156 -101.5 -266t-250.5 -110q-132 0 -211.5 74t-79.5 204q0 156 101.5 266t250.5 110zM343 98q96 0 158 76.5t62 189.5q0 77 -43.5 122.5t-121.5 45.5q-96 0 -158 -76.5t-62 -189.5q0 -77 43.5 -122.5
t121.5 -45.5z" />
    <glyph glyph-name="Ocircumflex" unicode="&#xd4;" horiz-adv-x="691" 
d="M401 642q132 0 211.5 -74t79.5 -204q0 -156 -101.5 -266t-250.5 -110q-132 0 -211.5 74t-79.5 204q0 156 101.5 266t250.5 110zM343 98q96 0 158 76.5t62 189.5q0 77 -43.5 122.5t-121.5 45.5q-96 0 -158 -76.5t-62 -189.5q0 -77 43.5 -122.5t121.5 -45.5zM408 806h122
l50 -134h-75l-48 66l-81 -66h-84z" />
    <glyph glyph-name="Otilde" unicode="&#xd5;" horiz-adv-x="691" 
d="M360 672h-69q15 60 46 95.5t73 35.5q26 0 53 -24t43 -24q31 0 46 45h70q-16 -60 -47 -95.5t-73 -35.5q-26 0 -52.5 24t-43.5 24q-30 0 -46 -45zM401 642q132 0 211.5 -74t79.5 -204q0 -156 -101.5 -266t-250.5 -110q-132 0 -211.5 74t-79.5 204q0 156 101.5 266
t250.5 110zM343 98q96 0 158 76.5t62 189.5q0 77 -43.5 122.5t-121.5 45.5q-96 0 -158 -76.5t-62 -189.5q0 -77 43.5 -122.5t121.5 -45.5z" />
    <glyph glyph-name="Odieresis" unicode="&#xd6;" horiz-adv-x="691" 
d="M306 675l29 116h109l-28 -116h-110zM467 675l29 116h110l-29 -116h-110zM401 642q132 0 211.5 -74t79.5 -204q0 -156 -101.5 -266t-250.5 -110q-132 0 -211.5 74t-79.5 204q0 156 101.5 266t250.5 110zM343 98q96 0 158 76.5t62 189.5q0 77 -43.5 122.5t-121.5 45.5
q-96 0 -158 -76.5t-62 -189.5q0 -77 43.5 -122.5t121.5 -45.5z" />
    <glyph glyph-name="multiply" unicode="&#xd7;" horiz-adv-x="530" 
d="M86 89l-54 71l190 151l-113 152l79 63l112 -152l191 153l54 -71l-192 -153l113 -151l-80 -64l-111 152z" />
    <glyph glyph-name="Oslash" unicode="&#xd8;" horiz-adv-x="691" 
d="M401 642q107 0 180 -49l59 66l51 -43l-61 -68q62 -71 62 -184q0 -156 -101.5 -266t-250.5 -110q-102 0 -173 44l-65 -72l-52 43l65 72q-66 74 -66 191q0 156 101.5 266t250.5 110zM178 266q0 -55 23 -95l299 332q-44 29 -102 29q-96 0 -158 -76.5t-62 -189.5zM343 98
q96 0 158 76.5t62 189.5q0 50 -20 88l-295 -330q38 -24 95 -24z" />
    <glyph glyph-name="Ugrave" unicode="&#xd9;" horiz-adv-x="637" 
d="M470 672h-81l-62 134h122zM288 -12q-129 0 -193 77t-32 207l90 358h124l-91 -367q-19 -80 11 -125t100 -45q75 0 116 40.5t62 124.5l93 372h125l-97 -389q-33 -133 -108 -193t-200 -60z" />
    <glyph glyph-name="Uacute" unicode="&#xda;" horiz-adv-x="637" 
d="M474 672h-87l86 134h130zM288 -12q-129 0 -193 77t-32 207l90 358h124l-91 -367q-19 -80 11 -125t100 -45q75 0 116 40.5t62 124.5l93 372h125l-97 -389q-33 -133 -108 -193t-200 -60z" />
    <glyph glyph-name="Ucircumflex" unicode="&#xdb;" horiz-adv-x="637" 
d="M288 -12q-129 0 -193 77t-32 207l90 358h124l-91 -367q-19 -80 11 -125t100 -45q75 0 116 40.5t62 124.5l93 372h125l-97 -389q-33 -133 -108 -193t-200 -60zM403 806h122l50 -134h-75l-48 66l-81 -66h-84z" />
    <glyph glyph-name="Udieresis" unicode="&#xdc;" horiz-adv-x="637" 
d="M300 675l29 116h109l-28 -116h-110zM461 675l29 116h110l-29 -116h-110zM288 -12q-129 0 -193 77t-32 207l90 358h124l-91 -367q-19 -80 11 -125t100 -45q75 0 116 40.5t62 124.5l93 372h125l-97 -389q-33 -133 -108 -193t-200 -60z" />
    <glyph glyph-name="Yacute" unicode="&#xdd;" horiz-adv-x="622" 
d="M340 357l237 273h140l-341 -387l-60 -243h-121l60 243l-147 387h128zM459 672h-87l86 134h130z" />
    <glyph glyph-name="Thorn" unicode="&#xde;" horiz-adv-x="571" 
d="M182 221h114q165 0 165 123q0 45 -27.5 66t-85.5 21h-114zM157 119l-31 -119h-124l157 630h125l-24 -98h113q102 0 157 -48t55 -131q0 -115 -81 -174.5t-221 -59.5h-126z" />
    <glyph glyph-name="germandbls" unicode="&#xdf;" horiz-adv-x="516" 
d="M527 500q0 -59 -36.5 -100.5t-91.5 -49.5q39 -12 64 -45.5t25 -84.5q0 -105 -66 -164.5t-160 -59.5q-50 0 -86 12l23 91q25 -10 58 -10q51 0 84 35.5t33 89.5q0 42 -23 64t-62 22q-23 0 -38 -1l23 93q11 -2 34 -2q44 0 73.5 26t29.5 75q0 30 -16.5 47t-48.5 17
q-90 0 -122 -127l-106 -428h-120l107 433q24 98 88.5 153.5t162.5 55.5q81 0 126 -36.5t45 -105.5z" />
    <glyph glyph-name="agrave" unicode="&#xe0;" horiz-adv-x="503" 
d="M310 189l2 9l-99 -13q-45 -6 -67 -19.5t-22 -43.5q0 -25 15.5 -37.5t40.5 -12.5q46 0 82 31.5t48 85.5zM446 268l-40 -157q-10 -38 22 -38q15 0 39 8l-16 -65q-40 -26 -81 -26q-34 0 -57 19t-22 56q-46 -76 -154 -76q-62 0 -96.5 30.5t-34.5 81.5q0 67 49.5 105t135.5 48
l141 17l2 10q18 82 -61 82q-71 0 -100 -67l-110 11q26 68 85.5 107t144.5 39q89 0 131.5 -49.5t21.5 -135.5zM364 496h-81l-62 134h123z" />
    <glyph glyph-name="aacute" unicode="&#xe1;" horiz-adv-x="503" 
d="M310 189l2 9l-99 -13q-45 -6 -67 -19.5t-22 -43.5q0 -25 15.5 -37.5t40.5 -12.5q46 0 82 31.5t48 85.5zM446 268l-40 -157q-10 -38 22 -38q15 0 39 8l-16 -65q-40 -26 -81 -26q-34 0 -57 19t-22 56q-46 -76 -154 -76q-62 0 -96.5 30.5t-34.5 81.5q0 67 49.5 105t135.5 48
l141 17l2 10q18 82 -61 82q-71 0 -100 -67l-110 11q26 68 85.5 107t144.5 39q89 0 131.5 -49.5t21.5 -135.5zM356 496h-87l88 134h130z" />
    <glyph glyph-name="acircumflex" unicode="&#xe2;" horiz-adv-x="503" 
d="M310 189l2 9l-99 -13q-45 -6 -67 -19.5t-22 -43.5q0 -25 15.5 -37.5t40.5 -12.5q46 0 82 31.5t48 85.5zM446 268l-40 -157q-10 -38 22 -38q15 0 39 8l-16 -65q-40 -26 -81 -26q-34 0 -57 19t-22 56q-46 -76 -154 -76q-62 0 -96.5 30.5t-34.5 81.5q0 67 49.5 105t135.5 48
l141 17l2 10q18 82 -61 82q-71 0 -100 -67l-110 11q26 68 85.5 107t144.5 39q89 0 131.5 -49.5t21.5 -135.5zM284 630h122l49 -134h-76l-47 66l-81 -66h-84z" />
    <glyph glyph-name="atilde" unicode="&#xe3;" horiz-adv-x="503" 
d="M310 189l2 9l-99 -13q-45 -6 -67 -19.5t-22 -43.5q0 -25 15.5 -37.5t40.5 -12.5q46 0 82 31.5t48 85.5zM446 268l-40 -157q-10 -38 22 -38q15 0 39 8l-16 -65q-40 -26 -81 -26q-34 0 -57 19t-22 56q-46 -76 -154 -76q-62 0 -96.5 30.5t-34.5 81.5q0 67 49.5 105t135.5 48
l141 17l2 10q18 82 -61 82q-71 0 -100 -67l-110 11q26 68 85.5 107t144.5 39q89 0 131.5 -49.5t21.5 -135.5zM235 499h-70q15 61 46 96.5t73 35.5q26 0 53 -24.5t43 -24.5q31 0 47 46h69q-16 -61 -47.5 -96.5t-72.5 -35.5q-26 0 -52.5 24.5t-42.5 24.5q-31 0 -46 -46z" />
    <glyph glyph-name="adieresis" unicode="&#xe4;" horiz-adv-x="503" 
d="M310 189l2 9l-99 -13q-45 -6 -67 -19.5t-22 -43.5q0 -25 15.5 -37.5t40.5 -12.5q46 0 82 31.5t48 85.5zM446 268l-40 -157q-10 -38 22 -38q15 0 39 8l-16 -65q-40 -26 -81 -26q-34 0 -57 19t-22 56q-46 -76 -154 -76q-62 0 -96.5 30.5t-34.5 81.5q0 67 49.5 105t135.5 48
l141 17l2 10q18 82 -61 82q-71 0 -100 -67l-110 11q26 68 85.5 107t144.5 39q89 0 131.5 -49.5t21.5 -135.5zM182 509l29 117h110l-29 -117h-110zM343 509l29 117h110l-29 -117h-110z" />
    <glyph glyph-name="aring" unicode="&#xe5;" horiz-adv-x="503" 
d="M310 189l2 9l-99 -13q-45 -6 -67 -19.5t-22 -43.5q0 -25 15.5 -37.5t40.5 -12.5q46 0 82 31.5t48 85.5zM446 268l-40 -157q-10 -38 22 -38q15 0 39 8l-16 -65q-40 -26 -81 -26q-34 0 -57 19t-22 56q-46 -76 -154 -76q-62 0 -96.5 30.5t-34.5 81.5q0 67 49.5 105t135.5 48
l141 17l2 10q18 82 -61 82q-71 0 -100 -67l-110 11q26 68 85.5 107t144.5 39q89 0 131.5 -49.5t21.5 -135.5zM429 582q0 -41 -27.5 -69t-68.5 -28q-38 0 -61.5 22.5t-23.5 58.5q0 42 27.5 69.5t68.5 27.5q38 0 61.5 -22.5t23.5 -58.5zM377 579q0 15 -9.5 24.5t-25.5 9.5
q-17 0 -29 -12.5t-12 -31.5q0 -15 9 -24.5t25 -9.5q18 0 30 12.5t12 31.5z" />
    <glyph glyph-name="ae" unicode="&#xe6;" horiz-adv-x="784" 
d="M310 182l2 8h-75q-113 0 -113 -71q0 -47 56 -47q47 0 82.5 28t47.5 82zM344 82q-26 -44 -77.5 -68.5t-114.5 -24.5q-67 0 -106.5 30.5t-39.5 84.5q0 70 60 115.5t165 45.5h99l4 16q18 82 -61 82q-72 0 -100 -64l-110 11q26 67 83.5 105t135.5 38q96 0 130 -64
q69 64 165 64q95 0 141 -55t46 -139q0 -34 -8 -69h-333q-3 -52 26 -81.5t77 -29.5q89 0 123 72l98 -10q-28 -74 -88.5 -113.5t-143.5 -39.5q-128 0 -171 94zM437 265h215q2 43 -20.5 71.5t-68.5 28.5q-47 0 -79.5 -27.5t-46.5 -72.5z" />
    <glyph glyph-name="ccedilla" unicode="&#xe7;" horiz-adv-x="492" 
d="M286 -93q0 -43 -37.5 -62.5t-88.5 -19.5q-70 0 -108 36l23 35q36 -27 83 -27q50 0 50 27q0 22 -25 25t-49 -9l-24 11l59 71q-69 14 -108 63t-39 122q0 115 76 194.5t191 79.5q96 0 143.5 -54t41.5 -138l-101 -7q5 107 -89 107q-62 0 -102 -53.5t-40 -128.5q0 -47 25 -73
t68 -26q98 0 129 109l99 -9q-20 -84 -83 -138t-157 -54q-3 0 -7 0.5t-7 0.5l-26 -30q45 10 74 -4t29 -48z" />
    <glyph glyph-name="egrave" unicode="&#xe8;" horiz-adv-x="499" 
d="M363 151l98 -10q-27 -73 -88 -113t-144 -40q-96 0 -151.5 51t-55.5 140q0 114 77 194t189 80q97 0 143.5 -55t46.5 -139q0 -34 -8 -69h-333q-2 -52 26 -81.5t78 -29.5q88 0 122 72zM151 265h215q2 42 -20.5 71t-68.5 29q-47 0 -79 -27.5t-47 -72.5zM364 496h-81l-62 134
h123z" />
    <glyph glyph-name="eacute" unicode="&#xe9;" horiz-adv-x="499" 
d="M356 496h-87l88 134h130zM363 151l98 -10q-27 -73 -88 -113t-144 -40q-96 0 -151.5 51t-55.5 140q0 114 77 194t189 80q97 0 143.5 -55t46.5 -139q0 -34 -8 -69h-333q-2 -52 26 -81.5t78 -29.5q88 0 122 72zM151 265h215q2 42 -20.5 71t-68.5 29q-47 0 -79 -27.5
t-47 -72.5z" />
    <glyph glyph-name="ecircumflex" unicode="&#xea;" horiz-adv-x="499" 
d="M286 630h122l49 -134h-76l-47 66l-81 -66h-84zM363 151l98 -10q-27 -73 -88 -113t-144 -40q-96 0 -151.5 51t-55.5 140q0 114 77 194t189 80q97 0 143.5 -55t46.5 -139q0 -34 -8 -69h-333q-2 -52 26 -81.5t78 -29.5q88 0 122 72zM151 265h215q2 42 -20.5 71t-68.5 29
q-47 0 -79 -27.5t-47 -72.5z" />
    <glyph glyph-name="edieresis" unicode="&#xeb;" horiz-adv-x="499" 
d="M182 509l29 117h110l-29 -117h-110zM343 509l29 117h110l-29 -117h-110zM363 151l98 -10q-27 -73 -88 -113t-144 -40q-96 0 -151.5 51t-55.5 140q0 114 77 194t189 80q97 0 143.5 -55t46.5 -139q0 -34 -8 -69h-333q-2 -52 26 -81.5t78 -29.5q88 0 122 72zM151 265h215
q2 42 -20.5 71t-68.5 29q-47 0 -79 -27.5t-47 -72.5z" />
    <glyph glyph-name="igrave" unicode="&#xec;" horiz-adv-x="221" 
d="M107 441h120l-109 -441h-120zM227 496h-81l-62 134h123z" />
    <glyph glyph-name="iacute" unicode="&#xed;" horiz-adv-x="221" 
d="M219 496h-87l88 134h130zM107 441h120l-109 -441h-120z" />
    <glyph glyph-name="icircumflex" unicode="&#xee;" horiz-adv-x="221" 
d="M151 630h122l49 -134h-76l-47 66l-81 -66h-84zM107 441h120l-109 -441h-120z" />
    <glyph glyph-name="idieresis" unicode="&#xef;" horiz-adv-x="221" 
d="M49 509l29 117h110l-29 -117h-110zM210 509l29 117h110l-29 -117h-110zM107 441h120l-109 -441h-120z" />
    <glyph glyph-name="eth" unicode="&#xf0;" horiz-adv-x="512" 
d="M157 449l-22 56l105 35q-44 34 -87 58l90 44q52 -28 100 -67l90 30l23 -55l-66 -22q99 -113 99 -257q0 -126 -72.5 -204.5t-186.5 -78.5q-93 0 -150.5 54t-57.5 143q0 103 65.5 173.5t162.5 70.5q77 0 122 -56q-24 63 -81 121zM235 81q63 0 98.5 50t35.5 116
q0 47 -24 72.5t-68 25.5q-63 0 -98 -49.5t-35 -115.5q0 -47 24 -73t67 -26z" />
    <glyph glyph-name="ntilde" unicode="&#xf1;" horiz-adv-x="522" 
d="M175 232l-57 -232h-120l109 441h120l-18 -74q61 86 155 86q80 0 112.5 -52t13.5 -131l-67 -270h-120l62 251q27 107 -62 107q-46 0 -80 -33.5t-48 -92.5zM256 499h-70q15 61 46 96.5t73 35.5q26 0 53 -24.5t43 -24.5q31 0 47 46h69q-16 -61 -47.5 -96.5t-72.5 -35.5
q-26 0 -52.5 24.5t-42.5 24.5q-31 0 -46 -46z" />
    <glyph glyph-name="ograve" unicode="&#xf2;" horiz-adv-x="514" 
d="M235 79q63 0 100 54.5t37 123.5q0 50 -24.5 77.5t-68.5 27.5q-63 0 -99.5 -54.5t-36.5 -123.5q0 -50 24 -77.5t68 -27.5zM231 -12q-94 0 -151.5 53.5t-57.5 143.5q0 114 74 191t188 77q93 0 150.5 -53.5t57.5 -143.5q0 -114 -73.5 -191t-187.5 -77zM370 496h-81l-62 134
h123z" />
    <glyph glyph-name="oacute" unicode="&#xf3;" horiz-adv-x="514" 
d="M361 496h-87l88 134h130zM235 79q63 0 100 54.5t37 123.5q0 50 -24.5 77.5t-68.5 27.5q-63 0 -99.5 -54.5t-36.5 -123.5q0 -50 24 -77.5t68 -27.5zM231 -12q-94 0 -151.5 53.5t-57.5 143.5q0 114 74 191t188 77q93 0 150.5 -53.5t57.5 -143.5q0 -114 -73.5 -191
t-187.5 -77z" />
    <glyph glyph-name="ocircumflex" unicode="&#xf4;" horiz-adv-x="514" 
d="M291 630h122l49 -134h-76l-47 66l-81 -66h-84zM235 79q63 0 100 54.5t37 123.5q0 50 -24.5 77.5t-68.5 27.5q-63 0 -99.5 -54.5t-36.5 -123.5q0 -50 24 -77.5t68 -27.5zM231 -12q-94 0 -151.5 53.5t-57.5 143.5q0 114 74 191t188 77q93 0 150.5 -53.5t57.5 -143.5
q0 -114 -73.5 -191t-187.5 -77z" />
    <glyph glyph-name="otilde" unicode="&#xf5;" horiz-adv-x="514" 
d="M235 79q63 0 100 54.5t37 123.5q0 50 -24.5 77.5t-68.5 27.5q-63 0 -99.5 -54.5t-36.5 -123.5q0 -50 24 -77.5t68 -27.5zM231 -12q-94 0 -151.5 53.5t-57.5 143.5q0 114 74 191t188 77q93 0 150.5 -53.5t57.5 -143.5q0 -114 -73.5 -191t-187.5 -77zM242 499h-70
q15 61 46 96.5t73 35.5q26 0 53 -24.5t43 -24.5q31 0 47 46h69q-16 -61 -47.5 -96.5t-72.5 -35.5q-26 0 -52.5 24.5t-42.5 24.5q-31 0 -46 -46z" />
    <glyph glyph-name="odieresis" unicode="&#xf6;" horiz-adv-x="514" 
d="M190 509l29 117h110l-29 -117h-110zM351 509l29 117h110l-29 -117h-110zM235 79q63 0 100 54.5t37 123.5q0 50 -24.5 77.5t-68.5 27.5q-63 0 -99.5 -54.5t-36.5 -123.5q0 -50 24 -77.5t68 -27.5zM231 -12q-94 0 -151.5 53.5t-57.5 143.5q0 114 74 191t188 77
q93 0 150.5 -53.5t57.5 -143.5q0 -114 -73.5 -191t-187.5 -77z" />
    <glyph glyph-name="divide" unicode="&#xf7;" horiz-adv-x="615" 
d="M59 261l25 100h518l-25 -100h-518zM299 457l33 130h136l-33 -130h-136zM194 36l32 129h136l-32 -129h-136z" />
    <glyph glyph-name="oslash" unicode="&#xf8;" horiz-adv-x="514" 
d="M26 -2l46 53q-50 52 -50 134q0 114 74 191t188 77q65 0 114 -29l49 56l44 -37l-47 -55q48 -53 48 -132q0 -114 -73.5 -191t-187.5 -77q-61 0 -112 27l-48 -55zM132 184q0 -30 11 -52l190 217q-25 14 -54 14q-64 0 -105.5 -54t-41.5 -125zM235 78q65 0 106.5 54t41.5 125
q0 25 -10 50l-189 -218q24 -11 51 -11z" />
    <glyph glyph-name="ugrave" unicode="&#xf9;" horiz-adv-x="514" 
d="M340 207l58 234h120l-110 -441h-120l19 74q-58 -86 -156 -86q-78 0 -108.5 52t-11.5 131l67 270h120l-63 -254q-26 -107 57 -107q46 0 79.5 33.5t48.5 93.5zM369 496h-81l-62 134h123z" />
    <glyph glyph-name="uacute" unicode="&#xfa;" horiz-adv-x="514" 
d="M361 496h-87l88 134h130zM340 207l58 234h120l-110 -441h-120l19 74q-58 -86 -156 -86q-78 0 -108.5 52t-11.5 131l67 270h120l-63 -254q-26 -107 57 -107q46 0 79.5 33.5t48.5 93.5z" />
    <glyph glyph-name="ucircumflex" unicode="&#xfb;" horiz-adv-x="514" 
d="M294 630h122l49 -134h-76l-47 66l-81 -66h-84zM340 207l58 234h120l-110 -441h-120l19 74q-58 -86 -156 -86q-78 0 -108.5 52t-11.5 131l67 270h120l-63 -254q-26 -107 57 -107q46 0 79.5 33.5t48.5 93.5z" />
    <glyph glyph-name="udieresis" unicode="&#xfc;" horiz-adv-x="514" 
d="M191 509l29 117h110l-29 -117h-110zM352 509l29 117h110l-29 -117h-110zM340 207l58 234h120l-110 -441h-120l19 74q-58 -86 -156 -86q-78 0 -108.5 52t-11.5 131l67 270h120l-63 -254q-26 -107 57 -107q46 0 79.5 33.5t48.5 93.5z" />
    <glyph glyph-name="yacute" unicode="&#xfd;" horiz-adv-x="492" 
d="M141 -164h-121l112 169l-73 436h116l47 -306h4l193 306h127zM352 496h-87l88 134h130z" />
    <glyph glyph-name="thorn" unicode="&#xfe;" horiz-adv-x="552" 
d="M177 245l-8 -28q-16 -60 9.5 -99t79.5 -39q65 0 105.5 54.5t40.5 130.5q0 46 -24 71t-69 25q-47 0 -84 -31.5t-50 -83.5zM137 80l-61 -244h-120l199 794h120l-68 -266q25 41 67 65t93 24q78 0 120.5 -48t42.5 -127q0 -115 -69 -202.5t-181 -87.5q-55 0 -93 25t-50 67z
" />
    <glyph glyph-name="ydieresis" unicode="&#xff;" horiz-adv-x="492" 
d="M141 -164h-121l112 169l-73 436h116l47 -306h4l193 306h127zM182 509l29 117h110l-29 -117h-110zM343 509l29 117h110l-29 -117h-110z" />
    <glyph glyph-name="Amacron" unicode="&#x100;" horiz-adv-x="663" 
d="M363 630h139l102 -630h-128l-24 156h-268l-99 -156h-132zM397 491l-152 -239h192l-36 239h-4zM308 678l22 84h270l-21 -84h-271z" />
    <glyph glyph-name="amacron" unicode="&#x101;" horiz-adv-x="503" 
d="M310 189l2 9l-99 -13q-45 -6 -67 -19.5t-22 -43.5q0 -25 15.5 -37.5t40.5 -12.5q46 0 82 31.5t48 85.5zM446 268l-40 -157q-10 -38 22 -38q15 0 39 8l-16 -65q-40 -26 -81 -26q-34 0 -57 19t-22 56q-46 -76 -154 -76q-62 0 -96.5 30.5t-34.5 81.5q0 67 49.5 105t135.5 48
l141 17l2 10q18 82 -61 82q-71 0 -100 -67l-110 11q26 68 85.5 107t144.5 39q89 0 131.5 -49.5t21.5 -135.5zM183 505l23 84h265l-23 -84h-265z" />
    <glyph glyph-name="Abreve" unicode="&#x102;" horiz-adv-x="663" 
d="M363 630h139l102 -630h-128l-24 156h-268l-99 -156h-132zM397 491l-152 -239h192l-36 239h-4zM441 671q-46 0 -73.5 23.5t-27.5 66.5q0 19 6 45h71q0 -3 -1.5 -11t-1.5 -12q0 -36 43 -36q54 0 70 59h75q-16 -65 -58.5 -100t-102.5 -35z" />
    <glyph glyph-name="abreve" unicode="&#x103;" horiz-adv-x="503" 
d="M310 189l2 9l-99 -13q-45 -6 -67 -19.5t-22 -43.5q0 -25 15.5 -37.5t40.5 -12.5q46 0 82 31.5t48 85.5zM446 268l-40 -157q-10 -38 22 -38q15 0 39 8l-16 -65q-40 -26 -81 -26q-34 0 -57 19t-22 56q-46 -76 -154 -76q-62 0 -96.5 30.5t-34.5 81.5q0 67 49.5 105t135.5 48
l141 17l2 10q18 82 -61 82q-71 0 -100 -67l-110 11q26 68 85.5 107t144.5 39q89 0 131.5 -49.5t21.5 -135.5zM316 495q-46 0 -74 24t-28 67q0 20 7 44h71q-3 -12 -3 -23q0 -36 43 -36q54 0 70 59h75q-16 -65 -58.5 -100t-102.5 -35z" />
    <glyph glyph-name="Aogonek" unicode="&#x104;" horiz-adv-x="663" 
d="M363 630h139l102 -630q-58 -28 -80.5 -46.5t-22.5 -40.5q0 -21 26 -21q18 0 52 14l-15 -58q-40 -23 -80 -23q-34 0 -53 16.5t-19 44.5q0 33 25 60t69 54h-30l-24 156h-268l-99 -156h-132zM397 491l-153 -239h194l-37 239h-4z" />
    <glyph glyph-name="aogonek" unicode="&#x105;" horiz-adv-x="503" 
d="M446 268l-40 -157q-10 -38 22 -38q15 0 39 8l-16 -65q-108 -60 -109 -100q0 -24 27 -24q17 0 51 14l-14 -58q-40 -23 -81 -23q-34 0 -52.5 16.5t-18.5 44.5q0 53 85 110q-49 15 -48 69q-46 -76 -154 -76q-62 0 -96.5 30.5t-34.5 81.5q0 67 49.5 105t135.5 48l141 17l2 10
q18 82 -61 82q-71 0 -100 -67l-110 11q26 68 85.5 107t144.5 39q89 0 131.5 -49.5t21.5 -135.5zM310 188l2 10l-99 -13q-45 -6 -67 -19.5t-22 -43.5q0 -25 15.5 -37.5t40.5 -12.5q46 0 82 31t48 85z" />
    <glyph glyph-name="Cacute" unicode="&#x106;" horiz-adv-x="669" 
d="M49 265q0 156 102 266.5t259 110.5q134 0 201 -76.5t60 -199.5l-117 -5q2 76 -36.5 123.5t-119.5 47.5q-100 0 -160 -77.5t-60 -182.5q0 -81 43.5 -127.5t116.5 -46.5q83 0 135.5 48t68.5 123l119 -5q-26 -125 -112.5 -200.5t-221.5 -75.5q-124 0 -201 76t-77 201z
M477 672h-87l86 134h130z" />
    <glyph glyph-name="cacute" unicode="&#x107;" horiz-adv-x="492" 
d="M351 496h-87l88 134h130zM22 179q0 115 76 194.5t191 79.5q96 0 143.5 -54t41.5 -138l-101 -7q5 107 -89 107q-62 0 -102 -53.5t-40 -128.5q0 -47 25 -73t68 -26q98 0 129 109l99 -9q-20 -84 -83 -138t-157 -54q-92 0 -146.5 52.5t-54.5 138.5z" />
    <glyph glyph-name="Ccircumflex" unicode="&#x108;" horiz-adv-x="669" 
d="M49 265q0 156 102 266.5t259 110.5q134 0 201 -76.5t60 -199.5l-117 -5q2 76 -36.5 123.5t-119.5 47.5q-100 0 -160 -77.5t-60 -182.5q0 -81 43.5 -127.5t116.5 -46.5q83 0 135.5 48t68.5 123l119 -5q-26 -125 -112.5 -200.5t-221.5 -75.5q-124 0 -201 76t-77 201z
M406 806h122l50 -134h-75l-48 66l-81 -66h-84z" />
    <glyph glyph-name="ccircumflex" unicode="&#x109;" horiz-adv-x="492" 
d="M282 630h122l49 -134h-76l-47 66l-81 -66h-84zM22 179q0 115 76 194.5t191 79.5q96 0 143.5 -54t41.5 -138l-101 -7q5 107 -89 107q-62 0 -102 -53.5t-40 -128.5q0 -47 25 -73t68 -26q98 0 129 109l99 -9q-20 -84 -83 -138t-157 -54q-92 0 -146.5 52.5t-54.5 138.5z" />
    <glyph glyph-name="Cdotaccent" unicode="&#x10a;" horiz-adv-x="669" 
d="M383 675l29 116h123l-29 -116h-123zM49 265q0 156 102 266.5t259 110.5q134 0 201 -76.5t60 -199.5l-117 -5q2 76 -36.5 123.5t-119.5 47.5q-100 0 -160 -77.5t-60 -182.5q0 -81 43.5 -127.5t116.5 -46.5q83 0 135.5 48t68.5 123l119 -5q-26 -125 -112.5 -200.5
t-221.5 -75.5q-124 0 -201 76t-77 201z" />
    <glyph glyph-name="cdotaccent" unicode="&#x10b;" horiz-adv-x="492" 
d="M22 179q0 115 76 194.5t191 79.5q96 0 143.5 -54t41.5 -138l-101 -7q5 107 -89 107q-62 0 -102 -53.5t-40 -128.5q0 -47 25 -73t68 -26q98 0 129 109l99 -9q-20 -84 -83 -138t-157 -54q-92 0 -146.5 52.5t-54.5 138.5zM256 513l29 117h123l-30 -117h-122z" />
    <glyph glyph-name="Ccaron" unicode="&#x10c;" horiz-adv-x="669" 
d="M49 265q0 156 102 266.5t259 110.5q134 0 201 -76.5t60 -199.5l-117 -5q2 76 -36.5 123.5t-119.5 47.5q-100 0 -160 -77.5t-60 -182.5q0 -81 43.5 -127.5t116.5 -46.5q83 0 135.5 48t68.5 123l119 -5q-26 -125 -112.5 -200.5t-221.5 -75.5q-124 0 -201 76t-77 201z
M502 672h-122l-50 134h76l48 -66l80 66h84z" />
    <glyph glyph-name="ccaron" unicode="&#x10d;" horiz-adv-x="492" 
d="M376 496h-122l-49 134h76l47 -65l81 65h84zM22 179q0 115 76 194.5t191 79.5q96 0 143.5 -54t41.5 -138l-101 -7q5 107 -89 107q-62 0 -102 -53.5t-40 -128.5q0 -47 25 -73t68 -26q98 0 129 109l99 -9q-20 -84 -83 -138t-157 -54q-92 0 -146.5 52.5t-54.5 138.5z" />
    <glyph glyph-name="Dcaron" unicode="&#x10e;" horiz-adv-x="650" 
d="M461 672h-122l-50 134h76l48 -66l80 66h84zM152 100h106q123 0 194 74t71 199q0 76 -46 116.5t-134 40.5h-84zM2 0l157 630h209q128 0 205.5 -67t77.5 -189q0 -168 -111 -271t-292 -103h-246z" />
    <glyph glyph-name="dcaron" unicode="&#x10f;" horiz-adv-x="548" 
d="M677 490h-73l50 140h122zM375 196l7 28q17 59 -8.5 98.5t-79.5 39.5q-65 0 -105.5 -54.5t-40.5 -130.5q0 -96 93 -96q47 0 84 31.5t50 83.5zM415 361l67 269h119l-157 -630h-119l19 77q-53 -89 -159 -89q-79 0 -121 47.5t-42 127.5q0 115 69 202.5t181 87.5q55 0 93 -25
t50 -67z" />
    <glyph glyph-name="Dcroat" unicode="&#x110;" horiz-adv-x="669" 
d="M24 270l25 103h65l64 257h209q128 0 205.5 -67t77.5 -189q0 -168 -111 -271t-292 -103h-246l67 270h-64zM171 100h106q123 0 194 74t71 199q0 76 -46 116.5t-134 40.5h-84l-39 -157h154l-26 -103h-154z" />
    <glyph glyph-name="dcroat" unicode="&#x111;" horiz-adv-x="548" 
d="M313 481l19 76h132l18 73h119l-18 -73h60l-19 -76h-60l-120 -481h-119l19 75q-54 -87 -159 -87q-79 0 -121 46.5t-42 124.5q0 113 69 198.5t181 85.5q54 0 91 -24.5t50 -65.5l32 128h-132zM375 192l7 27q17 57 -8.5 96t-79.5 39q-65 0 -105.5 -53t-40.5 -128
q0 -93 93 -93q47 0 84 30.5t50 81.5z" />
    <glyph glyph-name="Emacron" unicode="&#x112;" horiz-adv-x="559" 
d="M266 678l22 84h270l-21 -84h-271zM498 104l-25 -104h-471l157 630h462l-26 -104h-339l-38 -153h266l-26 -103h-266l-42 -166h348z" />
    <glyph glyph-name="emacron" unicode="&#x113;" horiz-adv-x="499" 
d="M363 151l98 -10q-27 -73 -88 -113t-144 -40q-96 0 -151.5 51t-55.5 140q0 114 77 194t189 80q97 0 143.5 -55t46.5 -139q0 -34 -8 -69h-333q-2 -52 26 -81.5t78 -29.5q88 0 122 72zM151 265h215q2 42 -20.5 71t-68.5 29q-47 0 -79 -27.5t-47 -72.5zM185 505l23 84h265
l-23 -84h-265z" />
    <glyph glyph-name="Ebreve" unicode="&#x114;" horiz-adv-x="559" 
d="M398 671q-46 0 -73.5 23.5t-27.5 66.5q0 19 6 45h71q0 -3 -1.5 -11t-1.5 -12q0 -36 43 -36q54 0 70 59h75q-16 -65 -58.5 -100t-102.5 -35zM498 104l-25 -104h-471l157 630h462l-26 -104h-339l-38 -153h266l-26 -103h-266l-42 -166h348z" />
    <glyph glyph-name="ebreve" unicode="&#x115;" horiz-adv-x="499" 
d="M363 151l98 -10q-27 -73 -88 -113t-144 -40q-96 0 -151.5 51t-55.5 140q0 114 77 194t189 80q97 0 143.5 -55t46.5 -139q0 -34 -8 -69h-333q-2 -52 26 -81.5t78 -29.5q88 0 122 72zM151 265h215q2 42 -20.5 71t-68.5 29q-47 0 -79 -27.5t-47 -72.5zM318 495q-46 0 -74 24
t-28 67q0 20 7 44h71q-3 -12 -3 -23q0 -36 43 -36q54 0 70 59h75q-16 -65 -58.5 -100t-102.5 -35z" />
    <glyph glyph-name="Edotaccent" unicode="&#x116;" horiz-adv-x="559" 
d="M341 675l29 116h123l-29 -116h-123zM498 104l-25 -104h-471l157 630h462l-26 -104h-339l-38 -153h266l-26 -103h-266l-42 -166h348z" />
    <glyph glyph-name="edotaccent" unicode="&#x117;" horiz-adv-x="499" 
d="M363 151l98 -10q-27 -73 -88 -113t-144 -40q-96 0 -151.5 51t-55.5 140q0 114 77 194t189 80q97 0 143.5 -55t46.5 -139q0 -34 -8 -69h-333q-2 -52 26 -81.5t78 -29.5q88 0 122 72zM151 265h215q2 42 -20.5 71t-68.5 29q-47 0 -79 -27.5t-47 -72.5zM261 513l29 117h123
l-30 -117h-122z" />
    <glyph glyph-name="Eogonek" unicode="&#x118;" horiz-adv-x="559" 
d="M498 104l-25 -104h-51q-33 -25 -44.5 -34t-23 -24t-11.5 -29q0 -21 27 -21q17 0 51 14l-14 -58q-40 -23 -81 -23q-34 0 -52.5 16.5t-18.5 44.5q0 33 24.5 59t68.5 55h-346l157 630h462l-26 -104h-339l-38 -153h266l-26 -103h-266l-42 -166h348z" />
    <glyph glyph-name="eogonek" unicode="&#x119;" horiz-adv-x="499" 
d="M363 151l98 -10q-26 -73 -107 -124q-93 -58 -93 -101q0 -24 27 -24q17 0 51 14l-14 -58q-40 -23 -81 -23q-34 0 -52.5 16.5t-18.5 44.5q0 54 74 103q-5 -1 -18 -1q-96 0 -151.5 51t-55.5 140q0 114 77 194t189 80q97 0 143.5 -55t46.5 -139q0 -34 -8 -69h-333
q-2 -52 26 -81.5t78 -29.5q88 0 122 72zM151 265h215q2 42 -20.5 71t-68.5 29q-47 0 -79 -27.5t-47 -72.5z" />
    <glyph glyph-name="Ecaron" unicode="&#x11a;" horiz-adv-x="559" 
d="M464 672h-122l-50 134h76l48 -66l80 66h84zM498 104l-25 -104h-471l157 630h462l-26 -104h-339l-38 -153h266l-26 -103h-266l-42 -166h348z" />
    <glyph glyph-name="ecaron" unicode="&#x11b;" horiz-adv-x="499" 
d="M380 496h-122l-49 134h76l47 -65l81 65h84zM363 151l98 -10q-27 -73 -88 -113t-144 -40q-96 0 -151.5 51t-55.5 140q0 114 77 194t189 80q97 0 143.5 -55t46.5 -139q0 -34 -8 -69h-333q-2 -52 26 -81.5t78 -29.5q88 0 122 72zM151 265h215q2 42 -20.5 71t-68.5 29
q-47 0 -79 -27.5t-47 -72.5z" />
    <glyph glyph-name="Gcircumflex" unicode="&#x11c;" horiz-adv-x="697" 
d="M674 381l-121 -6q-1 70 -40 113.5t-115 43.5q-100 0 -160 -77.5t-60 -184.5q0 -82 43.5 -128.5t117.5 -46.5q132 0 194 130h-167l23 93h284l-79 -318h-107l22 88q-62 -100 -197 -100q-118 0 -190.5 76t-72.5 199q0 158 102 268.5t259 110.5q130 0 197 -72.5t67 -188.5z
M404 806h122l50 -134h-75l-48 66l-81 -66h-84z" />
    <glyph glyph-name="gcircumflex" unicode="&#x11d;" horiz-adv-x="540" 
d="M311 630h122l49 -134h-76l-47 66l-81 -66h-84zM370 209l6 28q14 57 -11.5 92t-79.5 35q-64 0 -101.5 -48t-37.5 -118q0 -47 24.5 -71.5t67.5 -24.5q47 0 83.5 29t48.5 78zM331 48l12 51q-50 -80 -152 -80q-76 0 -122.5 46t-46.5 126q0 105 66.5 183.5t178.5 78.5
q54 0 91.5 -24.5t49.5 -64.5l21 77h119l-99 -399q-53 -216 -265 -216q-83 0 -141.5 43.5t-59.5 121.5l114 6q2 -40 28.5 -60t64.5 -20q110 0 141 131z" />
    <glyph glyph-name="Gbreve" unicode="&#x11e;" horiz-adv-x="697" 
d="M433 671q-46 0 -73.5 23.5t-27.5 66.5q0 19 6 45h71q0 -3 -1.5 -11t-1.5 -12q0 -36 43 -36q54 0 70 59h75q-16 -65 -58.5 -100t-102.5 -35zM674 381l-121 -6q-1 70 -40 113.5t-115 43.5q-100 0 -160 -77.5t-60 -184.5q0 -82 43.5 -128.5t117.5 -46.5q132 0 194 130h-167
l23 93h284l-79 -318h-107l22 88q-62 -100 -197 -100q-118 0 -190.5 76t-72.5 199q0 158 102 268.5t259 110.5q130 0 197 -72.5t67 -188.5z" />
    <glyph glyph-name="gbreve" unicode="&#x11f;" horiz-adv-x="540" 
d="M370 209l6 28q14 57 -11.5 92t-79.5 35q-64 0 -101.5 -48t-37.5 -118q0 -47 24.5 -71.5t67.5 -24.5q47 0 83.5 29t48.5 78zM331 48l12 51q-50 -80 -152 -80q-76 0 -122.5 46t-46.5 126q0 105 66.5 183.5t178.5 78.5q54 0 91.5 -24.5t49.5 -64.5l21 77h119l-99 -399
q-53 -216 -265 -216q-83 0 -141.5 43.5t-59.5 121.5l114 6q2 -40 28.5 -60t64.5 -20q110 0 141 131zM341 495q-46 0 -74 24t-28 67q0 20 7 44h71q-3 -12 -3 -23q0 -36 43 -36q54 0 70 59h75q-16 -65 -58.5 -100t-102.5 -35z" />
    <glyph glyph-name="Gdotaccent" unicode="&#x120;" horiz-adv-x="697" 
d="M381 675l29 116h123l-29 -116h-123zM674 381l-121 -6q-1 70 -40 113.5t-115 43.5q-100 0 -160 -77.5t-60 -184.5q0 -82 43.5 -128.5t117.5 -46.5q132 0 194 130h-167l23 93h284l-79 -318h-107l22 88q-62 -100 -197 -100q-118 0 -190.5 76t-72.5 199q0 158 102 268.5
t259 110.5q130 0 197 -72.5t67 -188.5z" />
    <glyph glyph-name="gdotaccent" unicode="&#x121;" horiz-adv-x="540" 
d="M370 209l6 28q14 57 -11.5 92t-79.5 35q-64 0 -101.5 -48t-37.5 -118q0 -47 24.5 -71.5t67.5 -24.5q47 0 83.5 29t48.5 78zM331 48l12 51q-50 -80 -152 -80q-76 0 -122.5 46t-46.5 126q0 105 66.5 183.5t178.5 78.5q54 0 91.5 -24.5t49.5 -64.5l21 77h119l-99 -399
q-53 -216 -265 -216q-83 0 -141.5 43.5t-59.5 121.5l114 6q2 -40 28.5 -60t64.5 -20q110 0 141 131zM284 513l29 117h123l-30 -117h-122z" />
    <glyph glyph-name="Gcommaaccent" unicode="&#x122;" horiz-adv-x="697" 
d="M227 -126l21 83h114l-16 -63q-24 -99 -139 -99l11 44q46 0 56 35h-47zM674 381l-121 -6q-1 70 -40 113.5t-115 43.5q-100 0 -160 -77.5t-60 -184.5q0 -82 43.5 -128.5t117.5 -46.5q132 0 194 130h-167l23 93h284l-79 -318h-107l22 88q-62 -100 -197 -100
q-118 0 -190.5 76t-72.5 199q0 158 102 268.5t259 110.5q130 0 197 -72.5t67 -188.5z" />
    <glyph glyph-name="gcommaaccent" unicode="&#x123;" horiz-adv-x="540" 
d="M421 588l-21 -83h-114l16 63q24 99 139 99l-11 -44q-25 0 -37.5 -7.5t-17.5 -27.5h46zM370 209l6 28q14 57 -11.5 92t-79.5 35q-64 0 -101.5 -48t-37.5 -118q0 -47 24.5 -71.5t67.5 -24.5q47 0 83.5 29t48.5 78zM331 48l12 51q-50 -80 -152 -80q-76 0 -122.5 46
t-46.5 126q0 105 66.5 183.5t178.5 78.5q54 0 91.5 -24.5t49.5 -64.5l21 77h119l-99 -399q-53 -216 -265 -216q-83 0 -141.5 43.5t-59.5 121.5l114 6q2 -40 28.5 -60t64.5 -20q110 0 141 131z" />
    <glyph glyph-name="Hcircumflex" unicode="&#x124;" horiz-adv-x="672" 
d="M127 0h-125l157 630h125l-64 -257h311l64 257h125l-157 -630h-125l67 270h-311zM418 806h122l50 -134h-75l-48 66l-81 -66h-84z" />
    <glyph glyph-name="hcircumflex" unicode="&#x125;" horiz-adv-x="522" 
d="M175 232l-57 -232h-120l157 630h120l-66 -263q61 86 155 86q80 0 112.5 -52t13.5 -131l-67 -270h-120l62 251q27 107 -62 107q-46 0 -80 -33.5t-48 -92.5zM337 806h122l50 -134h-75l-48 66l-81 -66h-84z" />
    <glyph glyph-name="Hbar" unicode="&#x126;" horiz-adv-x="710" 
d="M57 421l26 102h68l27 107h125l-27 -107h311l27 107h125l-27 -107h68l-25 -102h-68l-105 -421h-125l58 233h-311l-58 -233h-125l105 421h-69zM230 335h310l21 86h-310z" />
    <glyph glyph-name="hbar" unicode="&#x127;" horiz-adv-x="522" 
d="M58 481l18 76h61l18 73h120l-19 -73h131l-18 -76h-132l-31 -124q61 86 156 86q80 0 112.5 -52t12.5 -131l-64 -260h-120l60 241q25 107 -63 107q-45 0 -79 -33.5t-48 -92.5l-55 -222h-120l120 481h-60z" />
    <glyph glyph-name="Itilde" unicode="&#x128;" horiz-adv-x="236" 
d="M155 671h-68q15 61 44.5 96.5t70.5 35.5q24 0 50 -24.5t42 -24.5q29 0 44 46h68q-15 -60 -45 -96t-71 -36q-25 0 -50 24.5t-42 24.5q-28 0 -43 -46zM159 630h125l-157 -630h-125z" />
    <glyph glyph-name="itilde" unicode="&#x129;" horiz-adv-x="221" 
d="M108 499h-68q14 61 44 96.5t70 35.5q25 0 46.5 -24.5t36.5 -24.5q28 0 43 46h68q-15 -60 -45.5 -96t-69.5 -36q-25 0 -46.5 24.5t-35.5 24.5q-30 0 -43 -46zM106 441h120l-110 -441h-120z" />
    <glyph glyph-name="Imacron" unicode="&#x12a;" horiz-adv-x="236" 
d="M101 678l22 84h262l-21 -84h-263zM159 630h125l-157 -630h-125z" />
    <glyph glyph-name="imacron" unicode="&#x12b;" horiz-adv-x="221" 
d="M65 505l23 84h236l-23 -84h-236zM107 441h120l-109 -441h-120z" />
    <glyph glyph-name="Ibreve" unicode="&#x12c;" horiz-adv-x="236" 
d="M159 630h125l-157 -630h-125zM229 671q-46 0 -73.5 23.5t-27.5 66.5q0 19 6 45h71q0 -3 -1.5 -11t-1.5 -12q0 -36 43 -36q54 0 70 59h75q-16 -65 -58.5 -100t-102.5 -35z" />
    <glyph glyph-name="ibreve" unicode="&#x12d;" horiz-adv-x="221" 
d="M107 441h120l-109 -441h-120zM181 495q-46 0 -74 24t-28 67q0 20 7 44h71q-3 -12 -3 -23q0 -36 43 -36q54 0 70 59h75q-16 -65 -58.5 -100t-102.5 -35z" />
    <glyph glyph-name="Iogonek" unicode="&#x12e;" horiz-adv-x="236" 
d="M159 630h125l-157 -630q-56 -29 -78 -47t-22 -40q0 -21 27 -21q17 0 51 14l-14 -58q-40 -23 -81 -23q-34 0 -52.5 16.5t-18.5 44.5q0 55 93 114h-30z" />
    <glyph glyph-name="iogonek" unicode="&#x12f;" horiz-adv-x="221" 
d="M107 441h120l-109 -441q-54 -29 -75.5 -47t-21.5 -40q0 -21 27 -21q17 0 51 14l-14 -58q-42 -23 -81 -23q-34 0 -52.5 16.5t-18.5 44.5q0 55 93 114h-28zM124 513l29 117h123l-29 -117h-123z" />
    <glyph glyph-name="Idotaccent" unicode="&#x130;" horiz-adv-x="236" 
d="M159 630h125l-157 -630h-125zM172 675l29 116h123l-29 -116h-123z" />
    <glyph glyph-name="dotlessi" unicode="&#x131;" horiz-adv-x="221" 
d="M107 441h120l-109 -441h-120z" />
    <glyph glyph-name="IJ" unicode="&#x132;" horiz-adv-x="762" 
d="M159 630h125l-157 -630h-125zM698 630h125l-104 -415q-58 -227 -270 -227q-115 0 -170 69.5t-33 185.5l121 6q-26 -155 92 -155q57 0 89.5 34.5t50.5 107.5z" />
    <glyph glyph-name="ij" unicode="&#x133;" horiz-adv-x="442" 
d="M107 441h120l-109 -441h-120zM124 513l29 117h123l-29 -117h-123zM448 441l-121 -489q-17 -67 -54 -97.5t-100 -30.5q-73 0 -114 39l39 69q31 -23 59 -23q21 0 32.5 12t19.5 40l119 480h120zM345 513l29 117h123l-29 -117h-123z" />
    <glyph glyph-name="Jcircumflex" unicode="&#x134;" horiz-adv-x="533" 
d="M468 630h125l-104 -415q-58 -227 -270 -227q-115 0 -170 69.5t-33 185.5l121 6q-26 -155 92 -155q57 0 89.5 34.5t50.5 107.5zM503 806h122l50 -134h-75l-48 66l-81 -66h-84z" />
    <glyph glyph-name="jcircumflex" unicode="&#x135;" horiz-adv-x="221" 
d="M227 441l-121 -489q-17 -67 -54 -97.5t-100 -30.5q-73 0 -114 39l39 69q31 -23 59 -23q21 0 32.5 12t19.5 40l119 480h120zM145 630h122l49 -134h-76l-47 66l-81 -66h-84z" />
    <glyph glyph-name="Kcommaaccent" unicode="&#x136;" horiz-adv-x="611" 
d="M173 -126l21 83h114l-16 -63q-24 -99 -139 -99l11 44q46 0 56 35h-47zM563 0h-139l-160 279l-85 -70l-52 -209h-125l157 630h125l-70 -279l332 279h153l-334 -282z" />
    <glyph glyph-name="kcommaaccent" unicode="&#x137;" horiz-adv-x="508" 
d="M118 -126l21 83h114l-16 -63q-24 -99 -139 -99l11 44q46 0 56 35h-47zM155 150l-37 -150h-120l157 630h120l-91 -361l221 172h152l-241 -182l140 -259h-129l-107 200z" />
    <glyph glyph-name="kgreenlandic" unicode="&#x138;" horiz-adv-x="508" 
d="M155 150l-37 -150h-120l109 441h120l-43 -172l221 172h152l-241 -182l140 -259h-129l-107 200z" />
    <glyph glyph-name="Lacute" unicode="&#x139;" horiz-adv-x="538" 
d="M273 672h-87l86 134h130zM159 630h125l-131 -526h333l-26 -104h-458z" />
    <glyph glyph-name="lacute" unicode="&#x13a;" horiz-adv-x="221" 
d="M268 672h-87l86 134h130zM155 630h120l-157 -630h-120z" />
    <glyph glyph-name="Lcommaaccent" unicode="&#x13b;" horiz-adv-x="538" 
d="M150 -126l21 83h114l-16 -63q-24 -99 -139 -99l11 44q46 0 56 35h-47zM159 630h125l-131 -526h333l-26 -104h-458z" />
    <glyph glyph-name="lcommaaccent" unicode="&#x13c;" horiz-adv-x="221" 
d="M-31 -126l21 83h114l-16 -63q-24 -99 -139 -99l11 44q46 0 56 35h-47zM155 630h120l-157 -630h-120z" />
    <glyph glyph-name="Lcaron" unicode="&#x13d;" horiz-adv-x="538" 
d="M410 490h-73l50 140h122zM159 630h125l-131 -526h333l-26 -104h-458z" />
    <glyph glyph-name="lcaron" unicode="&#x13e;" horiz-adv-x="221" 
d="M351 490h-73l50 140h122zM155 630h120l-157 -630h-120z" />
    <glyph glyph-name="Ldot" unicode="&#x13f;" horiz-adv-x="538" 
d="M159 630h125l-131 -526h333l-26 -104h-458zM350 289l29 117h123l-30 -117h-122z" />
    <glyph glyph-name="ldot" unicode="&#x140;" horiz-adv-x="371" 
d="M155 630h120l-157 -630h-120zM245 256l29 117h123l-30 -117h-122z" />
    <glyph glyph-name="Lslash" unicode="&#x141;" horiz-adv-x="560" 
d="M180 630h125l-65 -261l162 60l-25 -103l-163 -60l-40 -162h333l-26 -104h-458l56 227l-69 -26l25 103l70 27z" />
    <glyph glyph-name="lslash" unicode="&#x142;" horiz-adv-x="274" 
d="M176 630h120l-57 -228l87 41l-23 -93l-87 -40l-77 -310h-120l65 262l-84 -39l23 92l84 39z" />
    <glyph glyph-name="Nacute" unicode="&#x143;" horiz-adv-x="648" 
d="M480 672h-87l86 134h130zM283 630l190 -433l108 433h116l-157 -630h-99l-209 459l-114 -459h-116l157 630h124z" />
    <glyph glyph-name="nacute" unicode="&#x144;" horiz-adv-x="522" 
d="M375 496h-87l88 134h130zM175 232l-57 -232h-120l109 441h120l-18 -74q61 86 155 86q80 0 112.5 -52t13.5 -131l-67 -270h-120l62 251q27 107 -62 107q-46 0 -80 -33.5t-48 -92.5z" />
    <glyph glyph-name="Ncommaaccent" unicode="&#x145;" horiz-adv-x="648" 
d="M186 -126l21 83h114l-16 -63q-24 -99 -139 -99l11 44q46 0 56 35h-47zM283 630l190 -433l108 433h116l-157 -630h-99l-209 459l-114 -459h-116l157 630h124z" />
    <glyph glyph-name="ncommaaccent" unicode="&#x146;" horiz-adv-x="522" 
d="M125 -126l21 83h114l-16 -63q-24 -99 -139 -99l11 44q46 0 56 35h-47zM175 232l-57 -232h-120l109 441h120l-18 -74q61 86 155 86q80 0 112.5 -52t13.5 -131l-67 -270h-120l62 251q27 107 -62 107q-46 0 -80 -33.5t-48 -92.5z" />
    <glyph glyph-name="Ncaron" unicode="&#x147;" horiz-adv-x="648" 
d="M505 672h-122l-50 134h76l48 -66l80 66h84zM283 630l190 -433l108 433h116l-157 -630h-99l-209 459l-114 -459h-116l157 630h124z" />
    <glyph glyph-name="ncaron" unicode="&#x148;" horiz-adv-x="522" 
d="M398 496h-122l-49 134h76l47 -65l81 65h84zM175 232l-57 -232h-120l109 441h120l-18 -74q61 86 155 86q80 0 112.5 -52t13.5 -131l-67 -270h-120l62 251q27 107 -62 107q-46 0 -80 -33.5t-48 -92.5z" />
    <glyph glyph-name="Eng" unicode="&#x14a;" horiz-adv-x="648" 
d="M431 21l-199 438l-114 -459h-116l157 630h124l190 -433l108 433h116l-159 -638q-42 -168 -189 -168q-51 0 -92 21.5t-57 53.5l68 69q28 -43 76 -43q37 0 56.5 22.5t30.5 73.5z" />
    <glyph glyph-name="eng" unicode="&#x14b;" horiz-adv-x="522" 
d="M293 -39l72 290q27 107 -62 107q-46 0 -80 -33.5t-48 -92.5l-57 -232h-120l109 441h120l-18 -74q61 86 155 86q80 0 112.5 -52t13.5 -131l-79 -318q-16 -67 -53.5 -97.5t-100.5 -30.5q-73 0 -114 39l39 69q31 -23 59 -23q39 0 52 52z" />
    <glyph glyph-name="Omacron" unicode="&#x14c;" horiz-adv-x="691" 
d="M305 678l22 84h270l-21 -84h-271zM401 642q132 0 211.5 -74t79.5 -204q0 -156 -101.5 -266t-250.5 -110q-132 0 -211.5 74t-79.5 204q0 156 101.5 266t250.5 110zM343 98q96 0 158 76.5t62 189.5q0 77 -43.5 122.5t-121.5 45.5q-96 0 -158 -76.5t-62 -189.5
q0 -77 43.5 -122.5t121.5 -45.5z" />
    <glyph glyph-name="omacron" unicode="&#x14d;" horiz-adv-x="514" 
d="M192 505l23 84h265l-23 -84h-265zM235 79q63 0 100 54.5t37 123.5q0 50 -24.5 77.5t-68.5 27.5q-63 0 -99.5 -54.5t-36.5 -123.5q0 -50 24 -77.5t68 -27.5zM231 -12q-94 0 -151.5 53.5t-57.5 143.5q0 114 74 191t188 77q93 0 150.5 -53.5t57.5 -143.5q0 -114 -73.5 -191
t-187.5 -77z" />
    <glyph glyph-name="Obreve" unicode="&#x14e;" horiz-adv-x="691" 
d="M442 671q-46 0 -73.5 23.5t-27.5 66.5q0 19 6 45h71q0 -3 -1.5 -11t-1.5 -12q0 -36 43 -36q54 0 70 59h75q-16 -65 -58.5 -100t-102.5 -35zM401 642q132 0 211.5 -74t79.5 -204q0 -156 -101.5 -266t-250.5 -110q-132 0 -211.5 74t-79.5 204q0 156 101.5 266t250.5 110z
M343 98q96 0 158 76.5t62 189.5q0 77 -43.5 122.5t-121.5 45.5q-96 0 -158 -76.5t-62 -189.5q0 -77 43.5 -122.5t121.5 -45.5z" />
    <glyph glyph-name="obreve" unicode="&#x14f;" horiz-adv-x="514" 
d="M235 79q63 0 100 54.5t37 123.5q0 50 -24.5 77.5t-68.5 27.5q-63 0 -99.5 -54.5t-36.5 -123.5q0 -50 24 -77.5t68 -27.5zM231 -12q-94 0 -151.5 53.5t-57.5 143.5q0 114 74 191t188 77q93 0 150.5 -53.5t57.5 -143.5q0 -114 -73.5 -191t-187.5 -77zM323 495q-46 0 -74 24
t-28 67q0 20 7 44h71q-3 -12 -3 -23q0 -36 43 -36q54 0 70 59h75q-16 -65 -58.5 -100t-102.5 -35z" />
    <glyph glyph-name="Ohungarumlaut" unicode="&#x150;" horiz-adv-x="691" 
d="M401 642q132 0 211.5 -74t79.5 -204q0 -156 -101.5 -266t-250.5 -110q-132 0 -211.5 74t-79.5 204q0 156 101.5 266t250.5 110zM343 98q96 0 158 76.5t62 189.5q0 77 -43.5 122.5t-121.5 45.5q-96 0 -158 -76.5t-62 -189.5q0 -77 43.5 -122.5t121.5 -45.5zM383 672h-77
l79 134h120zM533 672h-76l78 134h120z" />
    <glyph glyph-name="ohungarumlaut" unicode="&#x151;" horiz-adv-x="514" 
d="M262 496h-77l80 134h120zM412 496h-76l79 134h120zM235 79q63 0 100 54.5t37 123.5q0 50 -24.5 77.5t-68.5 27.5q-63 0 -99.5 -54.5t-36.5 -123.5q0 -50 24 -77.5t68 -27.5zM231 -12q-94 0 -151.5 53.5t-57.5 143.5q0 114 74 191t188 77q93 0 150.5 -53.5t57.5 -143.5
q0 -114 -73.5 -191t-187.5 -77z" />
    <glyph glyph-name="OE" unicode="&#x152;" horiz-adv-x="962" 
d="M901 104l-25 -104h-544q-128 0 -205.5 67t-77.5 189q0 168 109 271t290 103h576l-26 -104h-340l-38 -153h266l-25 -103h-266l-42 -166h348zM535 530h-93q-123 0 -194 -74t-71 -199q0 -76 46 -116.5t134 -40.5h71z" />
    <glyph glyph-name="oe" unicode="&#x153;" horiz-adv-x="833" 
d="M284 453q107 0 161 -73q76 73 177 73q97 0 143 -55t46 -139q0 -40 -8 -69h-333q-2 -52 26 -81.5t78 -29.5q88 0 122 72l98 -10q-27 -73 -88 -113t-144 -40q-105 0 -161 71q-69 -71 -170 -71q-94 0 -151.5 53.5t-57.5 143.5q0 114 74 191t188 77zM235 79q63 0 100 54.5
t37 123.5q0 50 -24.5 77.5t-68.5 27.5q-63 0 -99.5 -54.5t-36.5 -123.5q0 -50 24 -77.5t68 -27.5zM484 265h215q2 42 -20.5 71t-68.5 29t-78.5 -27.5t-47.5 -72.5z" />
    <glyph glyph-name="Racute" unicode="&#x154;" horiz-adv-x="612" 
d="M535 0h-128q-6 10 -6 36q0 14 7.5 62t7.5 67q0 68 -86 68h-147l-58 -233h-123l157 630h268q101 0 155.5 -40.5t54.5 -121.5q0 -80 -53.5 -131t-130.5 -59q89 -18 89 -100q0 -18 -8 -69t-8 -71q0 -23 9 -38zM207 331h144q72 0 115 29.5t43 89.5q0 79 -112 79h-140z
M442 672h-87l86 134h130z" />
    <glyph glyph-name="racute" unicode="&#x155;" horiz-adv-x="361" 
d="M303 496h-87l88 134h130zM411 435l-37 -112q-28 19 -68 19q-47 0 -83.5 -32.5t-51.5 -91.5l-53 -218h-120l109 441h120l-22 -86q56 98 146 98q36 0 60 -18z" />
    <glyph glyph-name="Rcommaaccent" unicode="&#x156;" horiz-adv-x="612" 
d="M169 -126l21 83h114l-16 -63q-24 -99 -139 -99l11 44q46 0 56 35h-47zM535 0h-128q-6 10 -6 36q0 14 7.5 62t7.5 67q0 68 -86 68h-147l-58 -233h-123l157 630h268q101 0 155.5 -40.5t54.5 -121.5q0 -80 -53.5 -131t-130.5 -59q89 -18 89 -100q0 -18 -8 -69t-8 -71
q0 -23 9 -38zM207 331h144q72 0 115 29.5t43 89.5q0 79 -112 79h-140z" />
    <glyph glyph-name="rcommaaccent" unicode="&#x157;" horiz-adv-x="361" 
d="M-32 -126l21 83h114l-16 -63q-24 -99 -139 -99l11 44q46 0 56 35h-47zM411 435l-37 -112q-28 19 -68 19q-47 0 -83.5 -32.5t-51.5 -91.5l-53 -218h-120l109 441h120l-22 -86q56 98 146 98q36 0 60 -18z" />
    <glyph glyph-name="Rcaron" unicode="&#x158;" horiz-adv-x="612" 
d="M467 672h-122l-50 134h76l48 -66l80 66h84zM535 0h-128q-6 10 -6 36q0 14 7.5 62t7.5 67q0 68 -86 68h-147l-58 -233h-123l157 630h268q101 0 155.5 -40.5t54.5 -121.5q0 -80 -53.5 -131t-130.5 -59q89 -18 89 -100q0 -18 -8 -69t-8 -71q0 -23 9 -38zM207 331h144
q72 0 115 29.5t43 89.5q0 79 -112 79h-140z" />
    <glyph glyph-name="rcaron" unicode="&#x159;" horiz-adv-x="361" 
d="M328 496h-122l-49 134h76l47 -65l81 65h84zM411 435l-37 -112q-28 19 -68 19q-47 0 -83.5 -32.5t-51.5 -91.5l-53 -218h-120l109 441h120l-22 -86q56 98 146 98q36 0 60 -18z" />
    <glyph glyph-name="Sacute" unicode="&#x15a;" horiz-adv-x="586" 
d="M27 248l116 -3q-12 -76 31.5 -117.5t123.5 -41.5q57 0 89.5 23t32.5 66q0 30 -20 47t-63 29l-104 28q-136 36 -136 158q0 92 67.5 148.5t179.5 56.5q120 0 190.5 -66t58.5 -182l-117 4q8 62 -29 104t-109 42q-52 0 -81.5 -22.5t-29.5 -64.5q0 -30 18.5 -46.5t57.5 -27.5
l84 -24q161 -46 161 -166q0 -98 -73 -151.5t-181 -53.5q-134 0 -207.5 70t-59.5 190zM429 672h-87l86 134h130z" />
    <glyph glyph-name="sacute" unicode="&#x15b;" horiz-adv-x="448" 
d="M324 496h-87l88 134h130zM-1 157l100 6q1 -45 32.5 -69t75.5 -24q82 0 82 50q0 19 -12.5 30t-40.5 18l-60 14q-117 28 -117 123q0 68 52 108t130 40q92 0 142 -41.5t54 -119.5l-101 -5q-5 83 -98 83q-31 0 -50 -12.5t-19 -35.5q0 -33 46 -44l75 -19q54 -13 82.5 -45
t28.5 -77q0 -72 -56 -110.5t-141 -38.5q-92 0 -148.5 43.5t-56.5 125.5z" />
    <glyph glyph-name="Scircumflex" unicode="&#x15c;" horiz-adv-x="586" 
d="M27 248l116 -3q-12 -76 31.5 -117.5t123.5 -41.5q57 0 89.5 23t32.5 66q0 30 -20 47t-63 29l-104 28q-136 36 -136 158q0 92 67.5 148.5t179.5 56.5q120 0 190.5 -66t58.5 -182l-117 4q8 62 -29 104t-109 42q-52 0 -81.5 -22.5t-29.5 -64.5q0 -30 18.5 -46.5t57.5 -27.5
l84 -24q161 -46 161 -166q0 -98 -73 -151.5t-181 -53.5q-134 0 -207.5 70t-59.5 190zM359 806h122l50 -134h-75l-48 66l-81 -66h-84z" />
    <glyph glyph-name="scircumflex" unicode="&#x15d;" horiz-adv-x="448" 
d="M256 630h122l49 -134h-76l-47 66l-81 -66h-84zM-1 157l100 6q1 -45 32.5 -69t75.5 -24q82 0 82 50q0 19 -12.5 30t-40.5 18l-60 14q-117 28 -117 123q0 68 52 108t130 40q92 0 142 -41.5t54 -119.5l-101 -5q-5 83 -98 83q-31 0 -50 -12.5t-19 -35.5q0 -33 46 -44l75 -19
q54 -13 82.5 -45t28.5 -77q0 -72 -56 -110.5t-141 -38.5q-92 0 -148.5 43.5t-56.5 125.5z" />
    <glyph glyph-name="Scedilla" unicode="&#x15e;" horiz-adv-x="586" 
d="M335 -93q0 -43 -37.5 -62.5t-88.5 -19.5q-70 0 -108 36l23 35q36 -27 83 -27q50 0 50 27q0 22 -25 25t-49 -9l-24 11l60 72q-100 18 -152 84.5t-40 168.5l116 -3q-12 -76 31.5 -117.5t123.5 -41.5q57 0 89.5 23t32.5 66q0 30 -20 47t-63 29l-104 28q-136 36 -136 158
q0 92 67.5 148.5t179.5 56.5q120 0 190.5 -66t58.5 -182l-117 4q8 62 -29 104t-109 42q-52 0 -81.5 -22.5t-29.5 -64.5q0 -30 18.5 -46.5t57.5 -27.5l84 -24q161 -46 161 -166q0 -98 -73 -151.5t-181 -53.5q-24 0 -35 1l-27 -30q45 10 74 -4t29 -48z" />
    <glyph glyph-name="scedilla" unicode="&#x15f;" horiz-adv-x="448" 
d="M259 -93q0 -43 -37.5 -62.5t-88.5 -19.5q-70 0 -108 36l23 35q36 -27 83 -27q50 0 50 27q0 22 -25 25t-49 -9l-24 11l59 71q-66 12 -104.5 53.5t-38.5 109.5l100 6q1 -45 32.5 -69t75.5 -24q82 0 82 50q0 19 -12.5 30t-40.5 18l-60 14q-117 28 -117 123q0 68 52 108
t130 40q92 0 142 -41.5t54 -119.5l-101 -5q-5 83 -98 83q-31 0 -50 -12.5t-19 -35.5q0 -33 46 -44l75 -19q54 -13 82.5 -45t28.5 -77q0 -72 -56 -110.5t-141 -38.5q-14 0 -21 1l-27 -30q45 10 74 -4t29 -48z" />
    <glyph glyph-name="Scaron" unicode="&#x160;" horiz-adv-x="586" 
d="M27 248l116 -3q-12 -76 31.5 -117.5t123.5 -41.5q57 0 89.5 23t32.5 66q0 30 -20 47t-63 29l-104 28q-136 36 -136 158q0 92 67.5 148.5t179.5 56.5q120 0 190.5 -66t58.5 -182l-117 4q8 62 -29 104t-109 42q-52 0 -81.5 -22.5t-29.5 -64.5q0 -30 18.5 -46.5t57.5 -27.5
l84 -24q161 -46 161 -166q0 -98 -73 -151.5t-181 -53.5q-134 0 -207.5 70t-59.5 190zM454 672h-122l-50 134h76l48 -66l80 66h84z" />
    <glyph glyph-name="scaron" unicode="&#x161;" horiz-adv-x="448" 
d="M349 496h-122l-49 134h76l47 -65l81 65h84zM-1 157l100 6q1 -45 32.5 -69t75.5 -24q82 0 82 50q0 19 -12.5 30t-40.5 18l-60 14q-117 28 -117 123q0 68 52 108t130 40q92 0 142 -41.5t54 -119.5l-101 -5q-5 83 -98 83q-31 0 -50 -12.5t-19 -35.5q0 -33 46 -44l75 -19
q54 -13 82.5 -45t28.5 -77q0 -72 -56 -110.5t-141 -38.5q-92 0 -148.5 43.5t-56.5 125.5z" />
    <glyph glyph-name="Tcedilla" unicode="&#x162;" horiz-adv-x="620" 
d="M168 -126l21 83h114l-16 -63q-24 -99 -139 -99l11 44q46 0 56 35h-47zM317 0h-125l131 526h-223l26 104h574l-27 -104h-226z" />
    <glyph glyph-name="tcedilla" unicode="&#x163;" horiz-adv-x="330" 
d="M51 -126l21 83h114l-16 -63q-24 -99 -139 -99l11 44q46 0 56 35h-47zM45 129l57 228h-63l18 71l31 5q32 5 48.5 20.5t33.5 49.5l29 60h72l-30 -122h120l-21 -84h-120l-54 -216q-14 -59 39 -59q36 0 80 20l-20 -77q-57 -37 -121 -37q-60 0 -88 37.5t-11 103.5z" />
    <glyph glyph-name="Tcaron" unicode="&#x164;" horiz-adv-x="620" 
d="M478 672h-122l-50 134h76l48 -66l80 66h84zM317 0h-125l131 526h-223l26 104h574l-27 -104h-226z" />
    <glyph glyph-name="tcaron" unicode="&#x165;" horiz-adv-x="330" 
d="M367 490h-73l50 140h122zM45 129l57 228h-63l18 71l31 5q32 5 48.5 20.5t33.5 49.5l29 60h72l-30 -122h120l-21 -84h-120l-54 -216q-14 -59 39 -59q36 0 80 20l-20 -77q-57 -37 -121 -37q-60 0 -88 37.5t-11 103.5z" />
    <glyph glyph-name="Tbar" unicode="&#x166;" horiz-adv-x="620" 
d="M135 259l24 102h123l41 165h-223l26 104h574l-27 -104h-226l-41 -165h125l-25 -102h-125l-64 -259h-125l64 259h-121z" />
    <glyph glyph-name="tbar" unicode="&#x167;" horiz-adv-x="344" 
d="M10 199l19 76h57l21 82h-63l18 71l31 5q32 5 48.5 20.5t33.5 49.5l29 60h72l-30 -122h120l-21 -84h-120l-21 -82h123l-18 -76h-124l-14 -58q-14 -59 39 -59q36 0 80 20l-20 -77q-57 -37 -121 -37q-60 0 -88 37.5t-11 103.5l17 70h-57z" />
    <glyph glyph-name="Utilde" unicode="&#x168;" horiz-adv-x="637" 
d="M354 672h-69q15 60 46 95.5t73 35.5q26 0 53 -24t43 -24q31 0 46 45h70q-16 -60 -47 -95.5t-73 -35.5q-26 0 -52.5 24t-43.5 24q-30 0 -46 -45zM288 -12q-129 0 -193 77t-32 207l90 358h124l-91 -367q-19 -80 11 -125t100 -45q75 0 116 40.5t62 124.5l93 372h125
l-97 -389q-33 -133 -108 -193t-200 -60z" />
    <glyph glyph-name="utilde" unicode="&#x169;" horiz-adv-x="514" 
d="M340 207l58 234h120l-110 -441h-120l19 74q-58 -86 -156 -86q-78 0 -108.5 52t-11.5 131l67 270h120l-63 -254q-26 -107 57 -107q46 0 79.5 33.5t48.5 93.5zM243 499h-70q15 61 46 96.5t73 35.5q26 0 53 -24.5t43 -24.5q31 0 47 46h69q-16 -61 -47.5 -96.5t-72.5 -35.5
q-26 0 -52.5 24.5t-42.5 24.5q-31 0 -46 -46z" />
    <glyph glyph-name="Umacron" unicode="&#x16a;" horiz-adv-x="637" 
d="M300 678l22 84h270l-21 -84h-271zM288 -12q-129 0 -193 77t-32 207l90 358h124l-91 -367q-19 -80 11 -125t100 -45q75 0 116 40.5t62 124.5l93 372h125l-97 -389q-33 -133 -108 -193t-200 -60z" />
    <glyph glyph-name="umacron" unicode="&#x16b;" horiz-adv-x="514" 
d="M340 207l58 234h120l-110 -441h-120l19 74q-58 -86 -156 -86q-78 0 -108.5 52t-11.5 131l67 270h120l-63 -254q-26 -107 57 -107q46 0 79.5 33.5t48.5 93.5zM192 505l23 84h265l-23 -84h-265z" />
    <glyph glyph-name="Ubreve" unicode="&#x16c;" horiz-adv-x="637" 
d="M429 671q-46 0 -73.5 23.5t-27.5 66.5q0 19 6 45h71q0 -3 -1.5 -11t-1.5 -12q0 -36 43 -36q54 0 70 59h75q-16 -65 -58.5 -100t-102.5 -35zM288 -12q-129 0 -193 77t-32 207l90 358h124l-91 -367q-19 -80 11 -125t100 -45q75 0 116 40.5t62 124.5l93 372h125l-97 -389
q-33 -133 -108 -193t-200 -60z" />
    <glyph glyph-name="ubreve" unicode="&#x16d;" horiz-adv-x="514" 
d="M340 207l58 234h120l-110 -441h-120l19 74q-58 -86 -156 -86q-78 0 -108.5 52t-11.5 131l67 270h120l-63 -254q-26 -107 57 -107q46 0 79.5 33.5t48.5 93.5zM321 495q-46 0 -74 24t-28 67q0 20 7 44h71q-3 -12 -3 -23q0 -36 43 -36q54 0 70 59h75q-16 -65 -58.5 -100
t-102.5 -35z" />
    <glyph glyph-name="Uring" unicode="&#x16e;" horiz-adv-x="637" 
d="M288 -12q-129 0 -193 77t-32 207l90 358h124l-91 -367q-19 -80 11 -125t100 -45q75 0 116 40.5t62 124.5l93 372h125l-97 -389q-33 -133 -108 -193t-200 -60zM539 758q0 -42 -27.5 -69.5t-68.5 -27.5q-38 0 -61.5 22.5t-23.5 58.5q0 41 27.5 69t68.5 28q38 0 61.5 -22.5
t23.5 -58.5zM486 755q0 15 -9.5 24.5t-25.5 9.5q-17 0 -29 -12.5t-12 -31.5q0 -15 9.5 -24.5t25.5 -9.5q17 0 29 12.5t12 31.5z" />
    <glyph glyph-name="uring" unicode="&#x16f;" horiz-adv-x="514" 
d="M430 582q0 -41 -27.5 -69t-68.5 -28q-38 0 -61.5 22.5t-23.5 58.5q0 42 27.5 69.5t68.5 27.5q38 0 61.5 -22.5t23.5 -58.5zM378 579q0 15 -9.5 24.5t-25.5 9.5q-17 0 -29 -12.5t-12 -31.5q0 -15 9 -24.5t25 -9.5q18 0 30 12.5t12 31.5zM340 207l58 234h120l-110 -441
h-120l19 74q-58 -86 -156 -86q-78 0 -108.5 52t-11.5 131l67 270h120l-63 -254q-26 -107 57 -107q46 0 79.5 33.5t48.5 93.5z" />
    <glyph glyph-name="Uhungarumlaut" unicode="&#x170;" horiz-adv-x="637" 
d="M288 -12q-129 0 -193 77t-32 207l90 358h124l-91 -367q-19 -80 11 -125t100 -45q75 0 116 40.5t62 124.5l93 372h125l-97 -389q-33 -133 -108 -193t-200 -60zM360 672h-77l79 134h120zM510 672h-76l78 134h120z" />
    <glyph glyph-name="uhungarumlaut" unicode="&#x171;" horiz-adv-x="514" 
d="M340 207l58 234h120l-110 -441h-120l19 74q-58 -86 -156 -86q-78 0 -108.5 52t-11.5 131l67 270h120l-63 -254q-26 -107 57 -107q46 0 79.5 33.5t48.5 93.5zM262 496h-77l80 134h120zM412 496h-76l79 134h120z" />
    <glyph glyph-name="Uogonek" unicode="&#x172;" horiz-adv-x="637" 
d="M288 -12q-129 0 -193 77t-32 207l90 358h124l-91 -367q-19 -80 11 -125t100 -45q75 0 116 40.5t62 124.5l93 372h125l-97 -389q-47 -185 -181 -233q-65 -49 -76 -63q-13 -15 -13 -32q0 -21 27 -21q17 0 51 14l-14 -58q-40 -23 -81 -23q-34 0 -52.5 16.5t-18.5 44.5
q0 51 76 103q-8 -1 -26 -1z" />
    <glyph glyph-name="uogonek" unicode="&#x173;" horiz-adv-x="514" 
d="M340 207l58 234h120l-110 -441q-55 -28 -76.5 -46.5t-21.5 -40.5q0 -21 26 -21q18 0 52 14l-15 -58q-40 -23 -81 -23q-34 0 -52.5 16.5t-18.5 44.5q0 33 25 60t69 54l-27 1l19 73q-58 -86 -156 -86q-78 0 -108.5 52t-11.5 131l67 270h120l-63 -254q-26 -107 57 -107
q46 0 79.5 33.5t48.5 93.5z" />
    <glyph glyph-name="Wcircumflex" unicode="&#x174;" horiz-adv-x="857" 
d="M586 630l3 -465h4l236 465h123l-324 -630h-139l-2 454h-4l-236 -454h-138l-1 630h122l-4 -463h4l242 463h114zM508 806h122l50 -134h-75l-48 66l-81 -66h-84z" />
    <glyph glyph-name="wcircumflex" unicode="&#x175;" horiz-adv-x="683" 
d="M381 630h122l49 -134h-76l-47 66l-81 -66h-84zM447 441l5 -293h4l166 293h115l-253 -441h-117l-6 292h-4l-154 -292h-117l-26 441h114l13 -293h4l158 293h98z" />
    <glyph glyph-name="Ycircumflex" unicode="&#x176;" horiz-adv-x="622" 
d="M340 357l237 273h140l-341 -387l-60 -243h-121l60 243l-147 387h128zM389 806h122l50 -134h-75l-48 66l-81 -66h-84z" />
    <glyph glyph-name="ycircumflex" unicode="&#x177;" horiz-adv-x="492" 
d="M141 -164h-121l112 169l-73 436h116l47 -306h4l193 306h127zM284 630h122l49 -134h-76l-47 66l-81 -66h-84z" />
    <glyph glyph-name="Ydieresis" unicode="&#x178;" horiz-adv-x="622" 
d="M340 357l237 273h140l-341 -387l-60 -243h-121l60 243l-147 387h128zM287 675l29 116h109l-28 -116h-110zM448 675l29 116h110l-29 -116h-110z" />
    <glyph glyph-name="Zacute" unicode="&#x179;" horiz-adv-x="576" 
d="M168 104h350l-25 -104h-516l23 93l448 433h-336l26 104h503l-24 -96zM428 672h-87l86 134h130z" />
    <glyph glyph-name="zacute" unicode="&#x17a;" horiz-adv-x="439" 
d="M327 496h-87l88 134h130zM288 352h-218l22 89h372l-21 -82l-296 -270h235l-22 -89h-384l20 82z" />
    <glyph glyph-name="Zdotaccent" unicode="&#x17b;" horiz-adv-x="576" 
d="M329 675l29 116h123l-29 -116h-123zM168 104h350l-25 -104h-516l23 93l448 433h-336l26 104h503l-24 -96z" />
    <glyph glyph-name="zdotaccent" unicode="&#x17c;" horiz-adv-x="439" 
d="M288 352h-218l22 89h372l-21 -82l-296 -270h235l-22 -89h-384l20 82zM232 513l29 117h123l-30 -117h-122z" />
    <glyph glyph-name="Zcaron" unicode="&#x17d;" horiz-adv-x="576" 
d="M453 672h-122l-50 134h76l48 -66l80 66h84zM168 104h350l-25 -104h-516l23 93l448 433h-336l26 104h503l-24 -96z" />
    <glyph glyph-name="zcaron" unicode="&#x17e;" horiz-adv-x="439" 
d="M351 496h-122l-49 134h76l47 -65l81 65h84zM288 352h-218l22 89h372l-21 -82l-296 -270h235l-22 -89h-384l20 82z" />
    <glyph glyph-name="florin" unicode="&#x192;" horiz-adv-x="417" 
d="M338 461l-31 -85h100l-22 -87h-110l-93 -259q-52 -147 -195 -147q-15 0 -51 4l27 88q14 -2 19 -2q34 0 54 22t36 67l82 227h-78l22 87h87l43 117q26 70 75.5 109t117.5 39q24 0 61 -7l-23 -88q-13 3 -27 3q-34 0 -55.5 -21t-38.5 -67z" />
    <glyph glyph-name="Aringacute" unicode="&#x1fa;" horiz-adv-x="663" 
d="M363 630h139l102 -630h-128l-24 156h-268l-99 -156h-132zM544 741q0 -38 -27 -63.5t-68 -25.5q-38 0 -61.5 21t-23.5 55q0 38 27.5 64t67.5 26q38 0 61.5 -21t23.5 -56zM397 491l-152 -239h192l-36 239h-4zM520 838h-87l65 106h129zM492 739q0 14 -9.5 23t-25.5 9
q-17 0 -29 -12t-12 -29q0 -14 9.5 -23t25.5 -9q17 0 29 12t12 29z" />
    <glyph glyph-name="aringacute" unicode="&#x1fb;" horiz-adv-x="503" 
d="M428 563q0 -38 -27.5 -64t-67.5 -26q-38 0 -61.5 21t-23.5 55q0 38 27.5 64t67.5 26q38 0 61.5 -21t23.5 -55zM376 560q0 14 -9.5 23t-25.5 9q-17 0 -29 -11.5t-12 -29.5q0 -14 9.5 -22.5t25.5 -8.5q17 0 29 11.5t12 28.5zM400 662h-87l65 106h129zM310 189l2 9l-99 -13
q-45 -6 -67 -19.5t-22 -43.5q0 -25 15.5 -37.5t40.5 -12.5q46 0 82 31.5t48 85.5zM446 268l-40 -157q-10 -38 22 -38q15 0 39 8l-16 -65q-40 -26 -81 -26q-34 0 -57 19t-22 56q-46 -76 -154 -76q-62 0 -96.5 30.5t-34.5 81.5q0 67 49.5 105t135.5 48l141 17l2 10
q18 82 -61 82q-71 0 -100 -67l-110 11q26 68 85.5 107t144.5 39q89 0 131.5 -49.5t21.5 -135.5z" />
    <glyph glyph-name="AEacute" unicode="&#x1fc;" horiz-adv-x="1002" 
d="M514 630h550l-26 -104h-339l-38 -153h266l-26 -103h-266l-42 -166h348l-25 -104h-471l43 173h-238l-155 -173h-142zM575 535l-239 -266h176l67 266h-4zM789 672h-87l86 134h130z" />
    <glyph glyph-name="aeacute" unicode="&#x1fd;" horiz-adv-x="784" 
d="M491 496h-87l88 134h130zM310 182l2 8h-75q-113 0 -113 -71q0 -47 56 -47q47 0 82.5 28t47.5 82zM344 82q-26 -44 -77.5 -68.5t-114.5 -24.5q-67 0 -106.5 30.5t-39.5 84.5q0 70 60 115.5t165 45.5h99l4 16q18 82 -61 82q-72 0 -100 -64l-110 11q26 67 83.5 105t135.5 38
q96 0 130 -64q69 64 165 64q95 0 141 -55t46 -139q0 -34 -8 -69h-333q-3 -52 26 -81.5t77 -29.5q89 0 123 72l98 -10q-28 -74 -88.5 -113.5t-143.5 -39.5q-128 0 -171 94zM437 265h215q2 43 -20.5 71.5t-68.5 28.5q-47 0 -79.5 -27.5t-46.5 -72.5z" />
    <glyph glyph-name="Oslashacute" unicode="&#x1fe;" horiz-adv-x="691" 
d="M401 642q107 0 180 -49l59 66l51 -43l-61 -68q62 -71 62 -184q0 -156 -101.5 -266t-250.5 -110q-102 0 -173 44l-65 -72l-52 43l65 72q-66 74 -66 191q0 156 101.5 266t250.5 110zM178 266q0 -55 23 -95l299 332q-44 29 -102 29q-96 0 -158 -76.5t-62 -189.5zM343 98
q96 0 158 76.5t62 189.5q0 50 -20 88l-295 -330q38 -24 95 -24zM481 672h-87l86 134h130z" />
    <glyph glyph-name="oslashacute" unicode="&#x1ff;" horiz-adv-x="514" 
d="M26 -2l46 53q-50 52 -50 134q0 114 74 191t188 77q65 0 114 -29l49 56l44 -37l-47 -55q48 -53 48 -132q0 -114 -73.5 -191t-187.5 -77q-61 0 -112 27l-48 -55zM132 184q0 -30 11 -52l190 217q-25 14 -54 14q-64 0 -105.5 -54t-41.5 -125zM235 78q65 0 106.5 54t41.5 125
q0 25 -10 50l-189 -218q24 -11 51 -11zM361 496h-87l88 134h130z" />
    <glyph glyph-name="Scommaaccent" unicode="&#x218;" horiz-adv-x="586" 
d="M157 -126l21 83h114l-16 -63q-24 -99 -139 -99l11 44q46 0 56 35h-47zM27 248l116 -3q-12 -76 31.5 -117.5t123.5 -41.5q57 0 89.5 23t32.5 66q0 30 -20 47t-63 29l-104 28q-136 36 -136 158q0 92 67.5 148.5t179.5 56.5q120 0 190.5 -66t58.5 -182l-117 4q8 62 -29 104
t-109 42q-52 0 -81.5 -22.5t-29.5 -64.5q0 -30 18.5 -46.5t57.5 -27.5l84 -24q161 -46 161 -166q0 -98 -73 -151.5t-181 -53.5q-134 0 -207.5 70t-59.5 190z" />
    <glyph glyph-name="scommaaccent" unicode="&#x219;" horiz-adv-x="448" 
d="M85 -126l21 83h114l-16 -63q-24 -99 -139 -99l11 44q46 0 56 35h-47zM-1 157l100 6q1 -45 32.5 -69t75.5 -24q82 0 82 50q0 19 -12.5 30t-40.5 18l-60 14q-117 28 -117 123q0 68 52 108t130 40q92 0 142 -41.5t54 -119.5l-101 -5q-5 83 -98 83q-31 0 -50 -12.5t-19 -35.5
q0 -33 46 -44l75 -19q54 -13 82.5 -45t28.5 -77q0 -72 -56 -110.5t-141 -38.5q-92 0 -148.5 43.5t-56.5 125.5z" />
    <glyph glyph-name="uni0237" unicode="&#x237;" horiz-adv-x="221" 
d="M227 441l-121 -489q-17 -67 -54 -97.5t-100 -30.5q-73 0 -114 39l39 69q31 -23 59 -23q21 0 32.5 12t19.5 40l119 480h120z" />
    <glyph glyph-name="circumflex" unicode="&#x2c6;" 
d="M296 630h122l49 -134h-76l-47 66l-81 -66h-84z" />
    <glyph glyph-name="caron" unicode="&#x2c7;" 
d="M384 496h-122l-49 134h76l47 -65l81 65h84z" />
    <glyph glyph-name="breve" unicode="&#x2d8;" 
d="M324 495q-46 0 -74 24t-28 67q0 20 7 44h71q-3 -12 -3 -23q0 -36 43 -36q54 0 70 59h75q-16 -65 -58.5 -100t-102.5 -35z" />
    <glyph glyph-name="dotaccent" unicode="&#x2d9;" 
d="M266 513l29 117h123l-30 -117h-122z" />
    <glyph glyph-name="ring" unicode="&#x2da;" 
d="M432 582q0 -41 -27.5 -69t-68.5 -28q-38 0 -61.5 22.5t-23.5 58.5q0 42 27.5 69.5t68.5 27.5q38 0 61.5 -22.5t23.5 -58.5zM380 579q0 15 -9.5 24.5t-25.5 9.5q-17 0 -29 -12.5t-12 -31.5q0 -15 9 -24.5t25 -9.5q18 0 30 12.5t12 31.5z" />
    <glyph glyph-name="ogonek" unicode="&#x2db;" 
d="M201 12h70q-8 -6 -21 -16t-19 -14t-16 -12t-14.5 -12t-10 -10.5t-8 -11.5t-4.5 -11t-2 -12q0 -21 27 -21q17 0 51 14l-14 -58q-40 -23 -81 -23q-34 0 -52.5 16.5t-18.5 44.5q0 20 9 37.5t28 34t34 27t42 27.5z" />
    <glyph glyph-name="tilde" unicode="&#x2dc;" 
d="M244 499h-70q15 61 46 96.5t73 35.5q26 0 53 -24.5t43 -24.5q31 0 47 46h69q-16 -61 -47.5 -96.5t-72.5 -35.5q-26 0 -52.5 24.5t-42.5 24.5q-31 0 -46 -46z" />
    <glyph glyph-name="hungarumlaut" unicode="&#x2dd;" 
d="M242 496h-77l80 134h120zM392 496h-76l79 134h120z" />
    <glyph glyph-name="Wgrave" unicode="&#x1e80;" horiz-adv-x="857" 
d="M587 672h-81l-62 134h122zM586 630l3 -465h4l236 465h123l-324 -630h-139l-2 454h-4l-236 -454h-138l-1 630h122l-4 -463h4l242 463h114z" />
    <glyph glyph-name="wgrave" unicode="&#x1e81;" horiz-adv-x="683" 
d="M447 441l5 -293h4l166 293h115l-253 -441h-117l-6 292h-4l-154 -292h-117l-26 441h114l13 -293h4l158 293h98zM458 496h-81l-62 134h123z" />
    <glyph glyph-name="Wacute" unicode="&#x1e82;" horiz-adv-x="857" 
d="M579 672h-87l86 134h130zM586 630l3 -465h4l236 465h123l-324 -630h-139l-2 454h-4l-236 -454h-138l-1 630h122l-4 -463h4l242 463h114z" />
    <glyph glyph-name="wacute" unicode="&#x1e83;" horiz-adv-x="683" 
d="M450 496h-87l88 134h130zM447 441l5 -293h4l166 293h115l-253 -441h-117l-6 292h-4l-154 -292h-117l-26 441h114l13 -293h4l158 293h98z" />
    <glyph glyph-name="Wdieresis" unicode="&#x1e84;" horiz-adv-x="857" 
d="M406 675l29 116h109l-28 -116h-110zM567 675l29 116h110l-29 -116h-110zM586 630l3 -465h4l236 465h123l-324 -630h-139l-2 454h-4l-236 -454h-138l-1 630h122l-4 -463h4l242 463h114z" />
    <glyph glyph-name="wdieresis" unicode="&#x1e85;" horiz-adv-x="683" 
d="M280 509l29 117h110l-29 -117h-110zM441 509l29 117h110l-29 -117h-110zM447 441l5 -293h4l166 293h115l-253 -441h-117l-6 292h-4l-154 -292h-117l-26 441h114l13 -293h4l158 293h98z" />
    <glyph glyph-name="Ygrave" unicode="&#x1ef2;" horiz-adv-x="622" 
d="M340 357l237 273h140l-341 -387l-60 -243h-121l60 243l-147 387h128zM457 672h-81l-62 134h122z" />
    <glyph glyph-name="ygrave" unicode="&#x1ef3;" horiz-adv-x="492" 
d="M141 -164h-121l112 169l-73 436h116l47 -306h4l193 306h127zM360 496h-81l-62 134h123z" />
    <glyph glyph-name="endash" unicode="&#x2013;" 
d="M48 214l21 82h395l-21 -82h-395z" />
    <glyph glyph-name="emdash" unicode="&#x2014;" horiz-adv-x="1000" 
d="M48 214l21 82h896l-20 -82h-897z" />
    <glyph glyph-name="quoteleft" unicode="&#x2018;" horiz-adv-x="200" 
d="M242 516l-30 -121h-132l29 115q16 63 54.5 93.5t109.5 31.5l-17 -62q-32 -2 -49 -14t-25 -43h60z" />
    <glyph glyph-name="quoteright" unicode="&#x2019;" horiz-adv-x="200" 
d="M107 509l30 121h132l-29 -115q-15 -63 -53.5 -93.5t-109.5 -31.5l16 62q33 2 49.5 14t24.5 43h-60z" />
    <glyph glyph-name="quotesinglbase" unicode="&#x201a;" horiz-adv-x="200" 
d="M-17 0l30 121h132l-29 -116q-16 -63 -54.5 -93t-108.5 -31l16 61q32 2 49 14.5t25 43.5h-60z" />
    <glyph glyph-name="quotedblleft" unicode="&#x201c;" horiz-adv-x="379" 
d="M242 516l-30 -121h-132l29 115q16 63 54.5 93.5t109.5 31.5l-17 -62q-32 -2 -49 -14t-25 -43h60zM421 516l-31 -121h-132l29 115q16 63 54.5 93.5t109.5 31.5l-16 -62q-33 -2 -50 -14t-25 -43h61z" />
    <glyph glyph-name="quotedblright" unicode="&#x201d;" horiz-adv-x="379" 
d="M285 509l31 121h132l-29 -115q-16 -64 -54.5 -94t-109.5 -31l16 62q33 2 50 14t25 43h-61zM107 509l30 121h132l-29 -115q-15 -63 -53.5 -93.5t-109.5 -31.5l16 62q33 2 49.5 14t24.5 43h-60z" />
    <glyph glyph-name="quotedblbase" unicode="&#x201e;" horiz-adv-x="379" 
d="M161 0l30 121h132l-28 -116q-16 -63 -54.5 -93t-109.5 -31l16 61q33 2 50 14.5t25 43.5h-61zM-17 0l30 121h132l-29 -116q-16 -63 -54.5 -93t-108.5 -31l16 61q32 2 49 14.5t25 43.5h-60z" />
    <glyph glyph-name="dagger" unicode="&#x2020;" horiz-adv-x="328" 
d="M88 467l19 76h100l23 92h78l-23 -92h98l-19 -76h-98l-52 -206h-78l52 206h-100z" />
    <glyph glyph-name="daggerdbl" unicode="&#x2021;" horiz-adv-x="338" 
d="M64 341l17 70h100l19 73h-100l17 71h101l20 80h75l-20 -80h100l-17 -71h-101l-19 -73h101l-17 -70h-101l-20 -80h-75l20 80h-100z" />
    <glyph glyph-name="bullet" unicode="&#x2022;" horiz-adv-x="365" 
d="M332 257q0 -62 -42 -102.5t-102 -40.5q-61 0 -102.5 40.5t-41.5 102.5q0 63 41.5 103.5t102.5 40.5q60 0 102 -40.5t42 -103.5z" />
    <glyph glyph-name="ellipsis" unicode="&#x2026;" horiz-adv-x="606" 
d="M-18 0l33 134h133l-32 -134h-134zM184 0l33 134h133l-32 -134h-134zM386 0l33 134h133l-32 -134h-134z" />
    <glyph glyph-name="perthousand" unicode="&#x2030;" horiz-adv-x="1134" 
d="M165 434q0 -62 56 -62q37 0 62 37.5t25 100.5q0 61 -56 61q-37 0 -62 -37t-25 -100zM77 437q0 90 55 147.5t126 57.5q62 0 100 -37t38 -98q0 -90 -55 -147.5t-126 -57.5q-62 0 -100 37t-38 98zM714 635l-492 -640h-97l492 640h97zM674 196q0 62 -56 62q-37 0 -62 -37.5
t-25 -100.5q0 -61 56 -61q37 0 62 37t25 100zM762 193q0 -90 -55 -147.5t-126 -57.5q-62 0 -100 37t-38 98q0 90 55 147.5t126 57.5q62 0 100 -37t38 -98zM1026 196q0 62 -56 62q-37 0 -62 -37.5t-25 -100.5q0 -61 56 -61q37 0 62 37t25 100zM1114 193q0 -90 -55 -147.5
t-126 -57.5q-62 0 -100 37t-38 98q0 90 55 147.5t126 57.5q62 0 100 -37t38 -98z" />
    <glyph glyph-name="guilsinglleft" unicode="&#x2039;" horiz-adv-x="247" 
d="M23 171l26 102l202 127l-29 -117l-112 -70l77 -71l-25 -98z" />
    <glyph glyph-name="guilsinglright" unicode="&#x203a;" horiz-adv-x="247" 
d="M231 273l-26 -102l-201 -127l29 117l111 70l-77 71l25 98z" />
    <glyph glyph-name="fraction" unicode="&#x2044;" horiz-adv-x="495" 
d="M529 637l-448 -644h-88l447 644h89z" />
    <glyph glyph-name="Euro" unicode="&#x20ac;" horiz-adv-x="635" 
d="M53 346l15 66h58q38 103 114 166.5t179 63.5q115 0 173.5 -74.5t46.5 -191.5l-116 -5q8 71 -21 117.5t-90 46.5q-109 0 -162 -123h173l-26 -66h-168q-6 -29 -9 -61h154l-27 -66h-128q10 -124 120 -124q131 0 167 164l114 -5q-23 -118 -101.5 -192t-190.5 -74
q-110 0 -168.5 63.5t-64.5 167.5h-74l16 66h60q3 32 9 61h-53z" />
    <glyph glyph-name="uni2117" unicode="&#x2117;" horiz-adv-x="724" 
d="M59 315q0 141 95 234t232 93t232 -93t95 -234t-95 -234t-232 -93t-232 93t-95 234zM107 315q0 -120 81 -200t198 -80q116 0 197 80t81 200t-81 200t-197 80q-117 0 -198 -80t-81 -200zM339 320h64q77 0 77 56t-77 56h-64v-112zM339 251v-126h-84v377h158
q72 0 111.5 -33.5t39.5 -91.5q0 -59 -39 -92.5t-112 -33.5h-74z" />
    <glyph glyph-name="trademark" unicode="&#x2122;" horiz-adv-x="655" 
d="M216 370h-69l49 200h-88l15 60h248l-16 -60h-89zM501 370h-51l-5 182h-2l-46 -182h-65l65 260h100l2 -173h2l90 173h97l-65 -260h-69l45 182h-2z" />
    <glyph glyph-name="uni2153" unicode="&#x2153;" horiz-adv-x="799" 
d="M676 630l-534 -630h-92l535 630h91zM86 507l16 64q41 0 66.5 14t44.5 46h73l-98 -397h-96l68 273h-74zM647 125q0 38 -48 38q-20 0 -31 -2l17 70q18 -2 31 -2q27 0 46 14t19 41q0 18 -12.5 30t-34.5 12q-57 0 -73 -70l-92 4q14 65 59.5 104.5t114.5 39.5q64 0 98 -29.5
t34 -75.5q0 -43 -26 -69t-65 -33q28 -8 44 -28t16 -47q0 -62 -47 -96t-112 -34q-82 0 -120.5 41t-26.5 106l91 -3q-6 -32 9.5 -49.5t44.5 -17.5t46.5 14t17.5 42z" />
    <glyph glyph-name="uni2154" unicode="&#x2154;" horiz-adv-x="941" 
d="M818 630l-535 -630h-91l534 630h92zM789 125q0 38 -48 38q-21 0 -32 -2l17 70q18 -2 32 -2q27 0 45.5 14t18.5 41q0 18 -12.5 30t-34.5 12q-57 0 -72 -70l-93 4q14 66 59.5 105t115.5 39q64 0 98 -30t34 -75q0 -43 -26 -68.5t-65 -33.5q59 -18 59 -75q0 -62 -46.5 -96
t-112.5 -34q-82 0 -120 41t-27 106l91 -3q-6 -32 9.5 -49.5t44.5 -17.5t47 14t18 42zM215 314h158l-20 -80h-303l16 67l137 93q58 40 83 64.5t25 53.5q0 44 -46 44q-30 0 -46 -25t-17 -65l-94 4q2 76 46 121.5t121 45.5q64 0 99 -32.5t35 -81.5q0 -29 -8 -52t-28.5 -43.5
t-37.5 -33t-52 -35.5z" />
    <glyph glyph-name="uni215B" unicode="&#x215b;" horiz-adv-x="802" 
d="M676 630l-534 -630h-92l535 630h91zM86 507l16 64q41 0 66.5 14t44.5 46h73l-98 -397h-96l68 273h-74zM588 64q31 0 50 16t19 43q0 21 -16 34t-44 13q-30 0 -49.5 -16t-19.5 -43q0 -21 16 -34t44 -13zM588 -8q-75 0 -114.5 32t-39.5 80q0 42 25.5 70t68.5 36
q-47 24 -47 71q0 57 45 90t108 33q68 0 106 -27.5t38 -75.5q0 -77 -84 -103q26 -9 42 -30.5t16 -51.5q0 -58 -47 -91t-117 -33zM624 236q27 0 44.5 15t17.5 40q0 20 -14.5 31t-36.5 11q-26 0 -44 -15t-18 -40q0 -20 14.5 -31t36.5 -11z" />
    <glyph glyph-name="uni215C" unicode="&#x215c;" horiz-adv-x="920" 
d="M274 359q0 37 -48 37q-20 0 -32 -1l18 69q18 -2 31 -2q27 0 46 14.5t19 41.5q0 18 -12.5 30t-34.5 12q-56 0 -73 -70l-92 3q13 65 59 104.5t115 39.5q64 0 98 -29.5t34 -74.5q0 -44 -26 -69t-65 -33q28 -8 44 -28t16 -47q0 -62 -47 -96t-112 -34q-83 0 -121 40.5
t-26 105.5l91 -3q-6 -31 9.5 -48.5t44.5 -17.5q28 0 46 14t18 42zM794 630l-535 -630h-91l534 630h92zM706 64q31 0 50 16t19 43q0 21 -16 34t-45 13q-30 0 -49.5 -16t-19.5 -43q0 -21 16 -34t45 -13zM706 -8q-75 0 -115 32.5t-40 79.5q0 42 25.5 70t68.5 36q-46 24 -46 71
q0 57 45 90t107 33q68 0 106.5 -27.5t38.5 -75.5q0 -77 -84 -103q25 -9 41 -30.5t16 -51.5q0 -58 -47 -91t-116 -33zM742 236q27 0 44 15t17 40q0 20 -14.5 31t-36.5 11q-26 0 -43.5 -15t-17.5 -40q0 -20 14.5 -31t36.5 -11z" />
    <glyph glyph-name="uni215D" unicode="&#x215d;" horiz-adv-x="913" 
d="M787 630l-535 -630h-91l534 630h92zM699 64q30 0 49.5 16t19.5 43q0 21 -16 34t-45 13q-30 0 -49.5 -16t-19.5 -43q0 -21 16 -34t45 -13zM698 -8q-74 0 -114 32.5t-40 79.5q0 42 25.5 70t68.5 36q-46 23 -46 71q0 57 45 90t107 33q68 0 106.5 -27.5t38.5 -75.5
q0 -77 -84 -103q25 -9 41 -30.5t16 -51.5q0 -58 -47 -91t-117 -33zM735 236q27 0 44 15t17 40q0 20 -14.5 31t-36.5 11q-26 0 -43.5 -15t-17.5 -40q0 -20 14.5 -31t36.5 -11zM402 630l-19 -78h-174q-19 -58 -25 -71q29 22 71 22q54 0 85 -33t31 -84q0 -70 -46 -114.5
t-119 -44.5q-76 0 -115 41.5t-25 104.5l88 -6q-4 -29 12 -46t45 -17q30 0 49 19.5t19 51.5q0 25 -13.5 40.5t-38.5 15.5q-38 0 -59 -31l-90 7q47 111 80 223h244z" />
    <glyph glyph-name="uni215E" unicode="&#x215e;" horiz-adv-x="818" 
d="M692 630l-535 -630h-91l534 630h92zM604 64q31 0 50 16t19 43q0 21 -16 34t-45 13q-30 0 -49.5 -16t-19.5 -43q0 -21 16 -34t45 -13zM604 -8q-75 0 -115 32.5t-40 79.5q0 42 25.5 70t68.5 36q-46 24 -46 71q0 57 45 90t107 33q69 0 107 -27.5t38 -75.5q0 -77 -84 -103
q25 -9 41 -30.5t16 -51.5q0 -58 -47 -91t-116 -33zM640 236q27 0 44 15t17 40q0 20 -14.5 31t-36.5 11q-26 0 -43.5 -15t-17.5 -40q0 -20 14.5 -31t36.5 -11zM267 544h-189l22 86h299l-19 -73q-88 -71 -126.5 -142t-65.5 -181h-105q26 102 68.5 174.5t115.5 135.5z" />
    <glyph glyph-name="minus" unicode="&#x2212;" horiz-adv-x="615" 
d="M59 261l25 100h518l-25 -100h-518z" />
    <glyph glyph-name="approxequal" unicode="&#x2248;" horiz-adv-x="633" 
d="M86 328l24 95q83 47 150 47q44 0 112.5 -23t113.5 -23q70 0 154 47l-24 -95q-83 -47 -154 -47q-44 0 -112.5 23t-112.5 23q-67 0 -151 -47zM43 155l23 95q81 46 151 46q45 0 113 -22.5t113 -22.5q71 0 154 46l-24 -95q-85 -46 -154 -46q-44 0 -112.5 22.5t-113.5 22.5
q-65 0 -150 -46z" />
    <glyph glyph-name="notequal" unicode="&#x2260;" horiz-adv-x="633" 
d="M94 359l21 91h306l112 120h96l-112 -120h117l-22 -91h-180l-88 -95h244l-22 -91h-307l-111 -119h-96l111 119h-116l23 91h178l88 95h-242z" />
    <glyph glyph-name="lessequal" unicode="&#x2264;" horiz-adv-x="476" 
d="M-7 29l26 99h395l-25 -99h-396zM67 321l32 127l434 158l-29 -117l-320 -111l266 -111l-26 -103z" />
    <glyph glyph-name="greaterequal" unicode="&#x2265;" horiz-adv-x="476" 
d="M414 128l-25 -99h-396l26 99h395zM494 448l-32 -127l-435 -157l30 117l320 110l-266 112l27 103z" />
    <glyph glyph-name="i.dot" horiz-adv-x="221" 
d="M107 441h120l-109 -441h-120zM124 513l29 117h123l-30 -117h-122z" />
    <glyph glyph-name="space_uni0326" 
d="M111 -126l21 83h114l-16 -63q-24 -99 -139 -99l11 44q46 0 56 35h-47z" />
    <glyph glyph-name="space_uni0326.alt" 
d="M403 588l-21 -83h-114l16 63q24 99 139 99l-11 -44q-25 0 -37.5 -7.5t-17.5 -27.5h46z" />
    <glyph glyph-name="space_dotbelowcomb" 
d="M94 -174l30 116h122l-29 -116h-123z" />
    <glyph glyph-name="a.alt" horiz-adv-x="559" 
d="M364 194l8 30q16 60 -8 99t-75 39q-64 0 -103.5 -55.5t-39.5 -130.5q0 -46 23 -70.5t66 -24.5q47 0 81 30.5t48 82.5zM339 76q-52 -87 -156 -87q-76 0 -118.5 47.5t-42.5 125.5q0 115 71 203t180 88q104 0 131 -92l21 80h120l-88 -331q-10 -37 22 -37q15 0 39 8l-16 -65
q-38 -26 -78 -26q-41 0 -63.5 23.5t-21.5 62.5z" />
    <glyph glyph-name="aacute.alt" horiz-adv-x="559" 
d="M384 496h-87l88 134h130zM364 194l8 30q16 60 -8 99t-75 39q-64 0 -103.5 -55.5t-39.5 -130.5q0 -46 23 -70.5t66 -24.5q47 0 81 30.5t48 82.5zM339 76q-52 -87 -156 -87q-76 0 -118.5 47.5t-42.5 125.5q0 115 71 203t180 88q104 0 131 -92l21 80h120l-88 -331
q-10 -37 22 -37q15 0 39 8l-16 -65q-38 -26 -78 -26q-41 0 -63.5 23.5t-21.5 62.5z" />
    <glyph glyph-name="abreve.alt" horiz-adv-x="559" 
d="M364 194l8 30q16 60 -8 99t-75 39q-64 0 -103.5 -55.5t-39.5 -130.5q0 -46 23 -70.5t66 -24.5q47 0 81 30.5t48 82.5zM339 76q-52 -87 -156 -87q-76 0 -118.5 47.5t-42.5 125.5q0 115 71 203t180 88q104 0 131 -92l21 80h120l-88 -331q-10 -37 22 -37q15 0 39 8l-16 -65
q-38 -26 -78 -26q-41 0 -63.5 23.5t-21.5 62.5zM347 495q-46 0 -74 24t-28 67q0 20 7 44h71q-3 -12 -3 -23q0 -36 43 -36q54 0 70 59h75q-16 -65 -58.5 -100t-102.5 -35z" />
    <glyph glyph-name="acircumflex.alt" horiz-adv-x="559" 
d="M317 630h122l49 -134h-76l-47 66l-81 -66h-84zM364 194l8 30q16 60 -8 99t-75 39q-64 0 -103.5 -55.5t-39.5 -130.5q0 -46 23 -70.5t66 -24.5q47 0 81 30.5t48 82.5zM339 76q-52 -87 -156 -87q-76 0 -118.5 47.5t-42.5 125.5q0 115 71 203t180 88q104 0 131 -92l21 80
h120l-88 -331q-10 -37 22 -37q15 0 39 8l-16 -65q-38 -26 -78 -26q-41 0 -63.5 23.5t-21.5 62.5z" />
    <glyph glyph-name="adieresis.alt" horiz-adv-x="559" 
d="M215 509l29 117h110l-29 -117h-110zM376 509l29 117h110l-29 -117h-110zM364 194l8 30q16 60 -8 99t-75 39q-64 0 -103.5 -55.5t-39.5 -130.5q0 -46 23 -70.5t66 -24.5q47 0 81 30.5t48 82.5zM339 76q-52 -87 -156 -87q-76 0 -118.5 47.5t-42.5 125.5q0 115 71 203
t180 88q104 0 131 -92l21 80h120l-88 -331q-10 -37 22 -37q15 0 39 8l-16 -65q-38 -26 -78 -26q-41 0 -63.5 23.5t-21.5 62.5z" />
    <glyph glyph-name="agrave.alt" horiz-adv-x="559" 
d="M364 194l8 30q16 60 -8 99t-75 39q-64 0 -103.5 -55.5t-39.5 -130.5q0 -46 23 -70.5t66 -24.5q47 0 81 30.5t48 82.5zM339 76q-52 -87 -156 -87q-76 0 -118.5 47.5t-42.5 125.5q0 115 71 203t180 88q104 0 131 -92l21 80h120l-88 -331q-10 -37 22 -37q15 0 39 8l-16 -65
q-38 -26 -78 -26q-41 0 -63.5 23.5t-21.5 62.5zM393 496h-81l-62 134h123z" />
    <glyph glyph-name="amacron.alt" horiz-adv-x="559" 
d="M364 194l8 30q16 60 -8 99t-75 39q-64 0 -103.5 -55.5t-39.5 -130.5q0 -46 23 -70.5t66 -24.5q47 0 81 30.5t48 82.5zM339 76q-52 -87 -156 -87q-76 0 -118.5 47.5t-42.5 125.5q0 115 71 203t180 88q104 0 131 -92l21 80h120l-88 -331q-10 -37 22 -37q15 0 39 8l-16 -65
q-38 -26 -78 -26q-41 0 -63.5 23.5t-21.5 62.5zM215 505l23 84h265l-23 -84h-265z" />
    <glyph glyph-name="aogonek.alt" horiz-adv-x="559" 
d="M339 76q-52 -87 -156 -87q-76 0 -118.5 47.5t-42.5 125.5q0 115 71 203t180 88q104 0 131 -92l21 80h120l-88 -331q-10 -37 22 -37q15 0 39 8l-16 -65q-3 -2 -28.5 -18.5t-37.5 -25.5t-25.5 -26t-13.5 -33q0 -21 27 -21q17 0 51 14l-14 -58q-40 -23 -81 -23
q-34 0 -52.5 16.5t-18.5 44.5q0 53 85 108q-57 15 -55 82zM364 194l8 30q16 60 -8 99t-75 39q-64 0 -103.5 -55.5t-39.5 -130.5q0 -46 23 -70.5t66 -24.5q47 0 81 30.5t48 82.5z" />
    <glyph glyph-name="aring.alt" horiz-adv-x="559" 
d="M457 582q0 -41 -27.5 -69t-68.5 -28q-38 0 -61.5 22.5t-23.5 58.5q0 42 27.5 69.5t68.5 27.5q38 0 61.5 -22.5t23.5 -58.5zM405 579q0 15 -9.5 24.5t-25.5 9.5q-17 0 -29 -12.5t-12 -31.5q0 -15 9 -24.5t25 -9.5q18 0 30 12.5t12 31.5zM364 194l8 30q16 60 -8 99t-75 39
q-64 0 -103.5 -55.5t-39.5 -130.5q0 -46 23 -70.5t66 -24.5q47 0 81 30.5t48 82.5zM339 76q-52 -87 -156 -87q-76 0 -118.5 47.5t-42.5 125.5q0 115 71 203t180 88q104 0 131 -92l21 80h120l-88 -331q-10 -37 22 -37q15 0 39 8l-16 -65q-38 -26 -78 -26q-41 0 -63.5 23.5
t-21.5 62.5z" />
    <glyph glyph-name="aringacute.alt" horiz-adv-x="559" 
d="M453 563q0 -38 -27.5 -64t-67.5 -26q-39 0 -62 21t-23 55q0 38 27.5 64t67.5 26q38 0 61.5 -21t23.5 -55zM401 560q0 14 -9.5 23t-25.5 9q-17 0 -29 -11.5t-12 -29.5q0 -14 9.5 -22.5t25.5 -8.5q17 0 29 11.5t12 28.5zM425 662h-87l65 106h129zM364 194l8 30q16 60 -8 99
t-75 39q-64 0 -103.5 -55.5t-39.5 -130.5q0 -46 23 -70.5t66 -24.5q47 0 81 30.5t48 82.5zM339 76q-52 -87 -156 -87q-76 0 -118.5 47.5t-42.5 125.5q0 115 71 203t180 88q104 0 131 -92l21 80h120l-88 -331q-10 -37 22 -37q15 0 39 8l-16 -65q-38 -26 -78 -26
q-41 0 -63.5 23.5t-21.5 62.5z" />
    <glyph glyph-name="atilde.alt" horiz-adv-x="559" 
d="M364 194l8 30q16 60 -8 99t-75 39q-64 0 -103.5 -55.5t-39.5 -130.5q0 -46 23 -70.5t66 -24.5q47 0 81 30.5t48 82.5zM339 76q-52 -87 -156 -87q-76 0 -118.5 47.5t-42.5 125.5q0 115 71 203t180 88q104 0 131 -92l21 80h120l-88 -331q-10 -37 22 -37q15 0 39 8l-16 -65
q-38 -26 -78 -26q-41 0 -63.5 23.5t-21.5 62.5zM268 499h-70q15 61 46 96.5t73 35.5q26 0 53 -24.5t43 -24.5q31 0 47 46h69q-16 -61 -47.5 -96.5t-72.5 -35.5q-26 0 -52.5 24.5t-42.5 24.5q-31 0 -46 -46z" />
    <glyph glyph-name="caron.Slovak" 
d="M326 490h-73l50 140h122z" />
    <glyph glyph-name="cedilla.alt" horiz-adv-x="694" 
d="M392 -93q0 -43 -37.5 -62.5t-88.5 -19.5q-70 0 -108 36l23 35q36 -27 83 -27q50 0 50 27q0 22 -25 25t-49 -9l-24 11l74 88h46l-47 -52q45 10 74 -4t29 -48z" />
    <glyph glyph-name="grave.cap" 
d="M458 672h-81l-62 134h122z" />
    <glyph glyph-name="acute.cap" 
d="M362 672h-87l86 134h130z" />
    <glyph glyph-name="circumflex.cap" 
d="M339 806h122l50 -134h-75l-48 66l-81 -66h-84z" />
    <glyph glyph-name="caron.cap" 
d="M428 672h-122l-50 134h76l48 -66l80 66h84z" />
    <glyph glyph-name="tilde.cap" 
d="M286 672h-69q15 60 46 95.5t73 35.5q26 0 53 -24t43 -24q31 0 46 45h70q-16 -60 -47 -95.5t-73 -35.5q-26 0 -52.5 24t-43.5 24q-30 0 -46 -45z" />
    <glyph glyph-name="macron.cap" 
d="M232 678l22 84h270l-21 -84h-271z" />
    <glyph glyph-name="breve.cap" 
d="M367 671q-46 0 -73.5 23.5t-27.5 66.5q0 19 6 45h71q0 -3 -1.5 -11t-1.5 -12q0 -36 43 -36q54 0 70 59h75q-16 -65 -58.5 -100t-102.5 -35z" />
    <glyph glyph-name="dotaccent.cap" 
d="M306 675l29 116h123l-29 -116h-123z" />
    <glyph glyph-name="dieresis.cap" 
d="M232 675l29 116h109l-28 -116h-110zM393 675l29 116h110l-29 -116h-110z" />
    <glyph glyph-name="ring.cap" 
d="M480 758q0 -42 -27.5 -69.5t-68.5 -27.5q-38 0 -61.5 22.5t-23.5 58.5q0 41 27.5 69t68.5 28q38 0 61.5 -22.5t23.5 -58.5zM427 755q0 15 -9.5 24.5t-25.5 9.5q-17 0 -29 -12.5t-12 -31.5q0 -15 9.5 -24.5t25.5 -9.5q17 0 29 12.5t12 31.5z" />
    <glyph glyph-name="hungarumlaut.cap" 
d="M286 672h-77l79 134h120zM436 672h-76l78 134h120z" />
    <glyph glyph-name="exclamdown.cap" horiz-adv-x="210" 
d="M277 630l-32 -134h-134l32 134h134zM117 0h-128l43 170l98 274h69l-39 -274z" />
    <glyph glyph-name="questiondown.cap" horiz-adv-x="501" 
d="M251 443h115q-20 -85 -113 -143q-5 -3 -18.5 -11.5t-18.5 -11.5t-16.5 -11t-16 -12.5t-13 -12.5t-12 -15l-8 -16t-6 -19.5t-1.5 -21.5q0 -34 22.5 -55t63.5 -21q60 0 94 46t35 115l123 -4q-6 -124 -79 -193t-189 -69q-99 0 -148.5 48t-50.5 119q0 37 12.5 68t37.5 55.5
t47.5 40.5t56.5 36q68 40 83 88zM420 630l-33 -134h-133l32 134h134z" />
    <glyph glyph-name="guilsinglleft.cap" horiz-adv-x="247" 
d="M41 255l25 102l202 127l-29 -117l-111 -70l77 -71l-25 -98z" />
    <glyph glyph-name="guilsinglright.cap" horiz-adv-x="247" 
d="M246 357l-26 -102l-202 -127l29 117l112 70l-77 71l25 98z" />
    <glyph glyph-name="guillemotleft.cap" horiz-adv-x="442" 
d="M41 255l25 102l202 127l-29 -117l-111 -70l77 -71l-25 -98zM236 255l26 102l201 127l-29 -117l-111 -70l77 -71l-25 -98z" />
    <glyph glyph-name="guillemotright.cap" horiz-adv-x="442" 
d="M246 357l-26 -102l-202 -127l29 117l112 70l-77 71l25 98zM441 357l-26 -102l-202 -127l29 117l112 70l-77 71l25 98z" />
    <glyph glyph-name="slash.cap" horiz-adv-x="381" 
d="M-52 0l428 630h121l-429 -630h-120z" />
    <glyph glyph-name="backslash.cap" horiz-adv-x="360" 
d="M196 630l121 -630h-105l-121 630h105z" />
    <glyph glyph-name="bar.cap" horiz-adv-x="218" 
d="M2 0l157 630h108l-157 -630h-108z" />
    <glyph glyph-name="periodcentered.cap" horiz-adv-x="243" 
d="M62 249l33 134h133l-32 -134h-134z" />
    <glyph glyph-name="bullet.cap" horiz-adv-x="365" 
d="M349 317q0 -62 -41.5 -102.5t-102.5 -40.5t-102.5 40.5t-41.5 102.5q0 63 41.5 103.5t102.5 40.5t102.5 -40.5t41.5 -103.5z" />
    <glyph glyph-name="hyphen.cap" horiz-adv-x="352" 
d="M63 263l26 105h248l-26 -105h-248z" />
    <glyph glyph-name="endash.cap" 
d="M65 274l21 82h395l-20 -82h-396z" />
    <glyph glyph-name="emdash.cap" horiz-adv-x="1000" 
d="M65 274l21 82h896l-20 -82h-897z" />
    <glyph glyph-name="parenleft.cap" horiz-adv-x="315" 
d="M52 180q0 280 246 498h118q-126 -113 -187 -245.5t-61 -252.5q0 -145 63 -246h-105q-74 108 -74 246z" />
    <glyph glyph-name="parenright.cap" horiz-adv-x="315" 
d="M307 431q0 -279 -246 -497h-118q126 113 187 245.5t61 252.5q0 145 -63 246h105q74 -108 74 -247z" />
    <glyph glyph-name="bracketleft.cap" horiz-adv-x="299" 
d="M271 592l-143 -573h90l-21 -85h-198l184 744h199l-21 -86h-90z" />
    <glyph glyph-name="bracketright.cap" horiz-adv-x="299" 
d="M76 19l143 573h-90l21 86h198l-184 -744h-199l21 85h90z" />
    <glyph glyph-name="braceleft.cap" horiz-adv-x="316" 
d="M46 263l21 85h25q30 0 42 15t23 58l34 139q30 118 140 118h71l-22 -86h-40q-32 0 -40 -37l-34 -139q-12 -50 -37 -76.5t-69 -33.5q57 -10 57 -64q0 -21 -22 -107t-22 -96q0 -20 24 -20h40l-20 -85h-71q-87 0 -87 75q0 23 24 116t24 111q0 27 -36 27h-25z" />
    <glyph glyph-name="braceright.cap" horiz-adv-x="316" 
d="M321 348l-22 -85h-25q-30 0 -42 -15t-23 -58l-34 -138q-30 -118 -140 -118h-70l21 85h40q19 0 27.5 9.5t12.5 27.5l35 140q12 50 36.5 76.5t68.5 33.5q-57 10 -57 64q0 21 22 107t22 96q0 19 -24 19h-40l21 86h70q88 0 88 -75q0 -23 -24.5 -116t-24.5 -111q0 -28 37 -28
h25z" />
    <glyph glyph-name="at.cap" horiz-adv-x="768" 
d="M583 200q51 0 83.5 53t32.5 143q0 93 -60.5 147.5t-167.5 54.5q-145 0 -241 -92.5t-96 -247.5q0 -106 70.5 -168.5t187.5 -62.5q111 0 209 46l19 -57q-101 -57 -232 -57q-149 0 -241 81t-92 217q0 180 118.5 295.5t297.5 115.5q142 0 223.5 -76.5t81.5 -195.5
q0 -121 -63 -191t-148 -70q-81 0 -102 69q-42 -69 -125 -69q-52 0 -85.5 38t-32.5 99q1 89 55.5 155t134.5 66q37 0 64 -17.5t36 -44.5l18 54h97l-68 -231q-15 -54 26 -54zM470 304l7 22q12 40 -1 68t-48 28q-43 0 -73 -44.5t-30 -101.5q0 -66 52 -66q32 0 56.5 23.5
t36.5 70.5z" />
    <glyph glyph-name="Euro.lt" horiz-adv-x="600" 
d="M59 346l15 66h49q37 102 110 166t172 64q110 0 166 -74.5t44 -191.5l-112 -5q7 72 -19.5 118t-85.5 46q-102 0 -153 -123h172l-25 -66h-168q-6 -29 -9 -61h153l-27 -66h-128q10 -124 112 -124q124 0 159 163l112 -5q-22 -118 -97 -191.5t-183 -73.5q-106 0 -161.5 63.5
t-60.5 167.5h-67l16 66h53q3 32 9 61h-46z" />
    <glyph glyph-name="dollar.lt" horiz-adv-x="600" 
d="M42 248l112 -3q-9 -59 16.5 -98.5t77.5 -55.5l44 178l-44 13q-136 36 -136 157q0 91 67 147t180 56q5 0 13 -0.5t13 -0.5l20 82h67l-23 -93q80 -23 123.5 -84.5t35.5 -151.5l-110 4q5 44 -14.5 81t-58.5 55l-43 -174l20 -5q80 -22 120.5 -61.5t40.5 -101.5
q0 -98 -72.5 -151t-181.5 -53q-14 0 -20 1l-22 -90h-67l24 98q-96 20 -145 85.5t-37 165.5zM439 174q0 54 -84 78l-43 -170h1q60 0 93 24t33 68zM237 459q0 -56 81 -80l1 -1l43 171h-9q-55 0 -85.5 -23.5t-30.5 -66.5z" />
    <glyph glyph-name="cent.lt" horiz-adv-x="600" 
d="M62 179q0 113 74.5 192t193.5 82l22 87h69l-24 -94q68 -16 101.5 -66.5t30.5 -118.5l-98 -7q3 80 -56 104l-70 -280q42 7 72.5 36.5t43.5 74.5l97 -9q-20 -81 -81.5 -134.5t-153.5 -57.5l-21 -84h-69l22 89q-72 14 -112.5 63.5t-40.5 122.5zM183 179q0 -74 55 -95l70 279
q-57 -10 -91 -60t-34 -124z" />
    <glyph glyph-name="sterling.lt" horiz-adv-x="600" 
d="M424 543q-58 0 -88 -40t-30 -98q0 -31 3 -55h140l-17 -73h-115v-16q0 -63 -27 -127q51 -37 98 -37q45 0 67.5 23t34.5 77l89 -5q-12 -105 -62.5 -154.5t-129.5 -49.5t-150 63q-60 -63 -131 -63q-46 0 -72.5 26t-26.5 70q0 55 37 87.5t89 32.5q41 0 77 -18q5 25 5 46
q0 22 -5 45h-105l17 73h69q-5 27 -5 54q0 100 68.5 169t175.5 69t153.5 -59t23.5 -162l-105 -5q13 61 -7 94t-71 33zM116 63q37 0 63 43q-29 26 -53 26q-19 0 -31.5 -10.5t-12.5 -29.5q0 -29 34 -29z" />
    <glyph glyph-name="yen.lt" horiz-adv-x="600" 
d="M85 259l19 77h109l-100 294h128l84 -262l206 262h142l-247 -294h109l-19 -77h-155l-15 -61h154l-19 -78h-155l-29 -120h-121l29 120h-154l19 78h155l15 61h-155z" />
    <glyph glyph-name="florin.lt" horiz-adv-x="600" 
d="M437 461l-31 -85h99l-22 -87h-109l-93 -259q-54 -147 -196 -147q-16 0 -50 4l26 88q14 -2 19 -2q34 0 54.5 22t35.5 67l82 227h-77l21 87h87l43 117q26 70 76 109t118 39q23 0 60 -7l-22 -88q-15 3 -27 3q-34 0 -56 -21t-38 -67z" />
    <glyph glyph-name="zero.lt" horiz-adv-x="600" 
d="M288 89q66 0 106 50.5t65 158.5q14 55 14 104q0 139 -111 139q-66 0 -106 -50.5t-66 -158.5q-13 -51 -13 -104q0 -139 111 -139zM285 -12q-115 0 -176 66.5t-61 180.5q0 51 12 106q31 145 111 223t193 78q115 0 176.5 -66.5t61.5 -180.5q0 -51 -12 -106
q-31 -145 -111 -223t-194 -78z" />
    <glyph glyph-name="one.lt" horiz-adv-x="600" 
d="M60 0l25 104h154l87 349h-143l22 84h27q73 0 106.5 20t64.5 75h93l-131 -528h143l-26 -104h-422z" />
    <glyph glyph-name="two.lt" horiz-adv-x="600" 
d="M240 106h281l-26 -106h-475l21 84l230 160q101 71 128 97q57 54 57 111q0 39 -23 62t-67 23q-59 0 -91 -45.5t-33 -120.5l-123 7q2 118 71 191t187 73q99 0 153 -50.5t54 -127.5q0 -38 -11.5 -71t-27 -56.5t-47 -51t-55.5 -44t-68 -45.5z" />
    <glyph glyph-name="three.lt" horiz-adv-x="600" 
d="M412 197q0 73 -90 73q-30 0 -55 -3l24 94q21 -3 54 -3q50 0 86.5 26t36.5 78q0 35 -23.5 57t-67.5 22q-109 0 -139 -129l-121 5q22 103 93.5 164t176.5 61q100 0 152 -45.5t52 -117.5q0 -70 -43.5 -111.5t-106.5 -53.5q46 -13 71.5 -45t25.5 -76q0 -97 -72 -151t-175 -54
q-127 0 -187 66t-40 168l118 -5q-12 -60 18.5 -94t88.5 -34q55 0 89 27t34 81z" />
    <glyph glyph-name="four.lt" horiz-adv-x="600" 
d="M586 630l-93 -374h95l-26 -104h-95l-38 -152h-123l38 152h-320l29 122l375 356h158zM435 517l-276 -261h210z" />
    <glyph glyph-name="five.lt" horiz-adv-x="600" 
d="M604 630l-28 -111h-285q-24 -83 -51 -141q53 46 126 46q86 0 135.5 -52t49.5 -134q0 -111 -71 -180.5t-185 -69.5q-116 0 -177.5 66.5t-38.5 167.5l115 -9q-10 -55 21 -89.5t86 -34.5q59 0 95 37.5t36 99.5q0 46 -26 73.5t-73 27.5q-76 0 -115 -60l-119 9q82 193 127 354
h378z" />
    <glyph glyph-name="six.lt" horiz-adv-x="600" 
d="M386 542q-75 0 -125.5 -58t-71.5 -163q26 44 74 69t105 25q93 0 143 -51.5t50 -130.5q0 -109 -77 -177t-182 -68q-109 0 -171.5 64t-62.5 174t36.5 203t112 153t176.5 60q106 0 158.5 -53t50.5 -141l-114 -5q1 47 -26 73t-76 26zM443 221q0 45 -29.5 72t-80.5 27
q-58 0 -97.5 -36t-39.5 -97q0 -45 29 -72t80 -27q58 0 98 36t40 97z" />
    <glyph glyph-name="seven.lt" horiz-adv-x="600" 
d="M450 517h-342l29 113h488l-23 -91q-143 -116 -219 -244.5t-117 -294.5h-136q83 318 320 517z" />
    <glyph glyph-name="eight.lt" horiz-adv-x="600" 
d="M298 82q58 0 93.5 29.5t35.5 78.5q0 41 -32 64.5t-86 23.5q-57 0 -92 -29t-35 -78q0 -40 31.5 -64.5t84.5 -24.5zM296 -12q-110 0 -174.5 49t-64.5 126q0 68 43.5 113t115.5 56q-80 39 -80 118q0 88 69.5 140t166.5 52q102 0 161 -43t59 -119q0 -127 -139 -165
q44 -15 71.5 -49.5t27.5 -83.5q0 -90 -73.5 -142t-182.5 -52zM356 366q50 0 82.5 28.5t32.5 74.5q0 38 -27.5 59.5t-70.5 21.5q-50 0 -82.5 -28.5t-32.5 -73.5q0 -39 27.5 -60.5t70.5 -21.5z" />
    <glyph glyph-name="nine.lt" horiz-adv-x="600" 
d="M264 88q75 0 125.5 58t71.5 163q-26 -44 -74 -69t-105 -25q-93 0 -143 51.5t-50 130.5q0 109 77 177t182 68q109 0 171.5 -64t62.5 -174t-36.5 -203t-112 -153t-176.5 -60q-106 0 -158.5 53t-50.5 141l114 5q-1 -47 26 -73t76 -26zM207 409q0 -45 29.5 -72t80.5 -27
q58 0 97.5 36t39.5 97q0 45 -29 72t-80 27q-58 0 -98 -36t-40 -97z" />
    <glyph glyph-name="period.tab" horiz-adv-x="300" 
d="M33 0l32 134h134l-33 -134h-133z" />
    <glyph glyph-name="comma.tab" horiz-adv-x="300" 
d="M33 0l32 134h134l-32 -128q-30 -127 -165 -130l15 63q32 2 50 16t26 45h-60z" />
    <glyph glyph-name="colon.tab" horiz-adv-x="300" 
d="M33 0l32 134h134l-33 -134h-133zM106 293l32 134h134l-33 -134h-133z" />
    <glyph glyph-name="semicolon.tab" horiz-adv-x="300" 
d="M33 0l32 134h134l-32 -128q-30 -127 -165 -130l15 63q32 2 50 16t26 45h-60zM106 293l32 134h134l-33 -134h-133z" />
    <glyph glyph-name="space.tab" horiz-adv-x="300" 
 />
    <glyph glyph-name="percent.lt" horiz-adv-x="800" 
d="M163 434q0 -62 56 -62q37 0 62 37.5t25 100.5q0 61 -56 61q-37 0 -62 -37t-25 -100zM75 437q0 90 55 147.5t126 57.5q62 0 100 -37t38 -98q0 -90 -55 -147.5t-126 -57.5q-62 0 -100 37t-38 98zM713 635l-492 -640h-98l492 640h98zM672 196q0 62 -56 62q-37 0 -61.5 -37.5
t-24.5 -100.5q0 -61 56 -61q37 0 61.5 37t24.5 100zM761 193q0 -90 -55 -147.5t-126 -57.5q-62 0 -100.5 37t-38.5 98q0 90 55 147.5t126 57.5q63 0 101 -37t38 -98z" />
    <glyph glyph-name="perthousand.lt" horiz-adv-x="1200" 
d="M183 434q0 -62 56 -62q37 0 61.5 37.5t24.5 100.5q0 61 -56 61q-37 0 -61.5 -37t-24.5 -100zM94 437q0 90 55 147.5t126 57.5q62 0 100.5 -37t38.5 -98q0 -90 -55 -147.5t-126 -57.5q-63 0 -101 37t-38 98zM732 635l-492 -640h-98l492 640h98zM692 196q0 62 -56 62
q-37 0 -62 -37.5t-25 -100.5q0 -61 56 -61q37 0 62 37t25 100zM780 193q0 -90 -55 -147.5t-126 -57.5q-62 0 -100 37t-38 98q0 90 55 147.5t126 57.5q62 0 100 -37t38 -98zM1043 196q0 62 -56 62q-37 0 -61.5 -37.5t-24.5 -100.5q0 -61 56 -61q37 0 61.5 37t24.5 100z
M1132 193q0 -90 -55 -147.5t-126 -57.5q-63 0 -101 37t-38 98q0 90 55 147.5t126 57.5q62 0 100.5 -37t38.5 -98z" />
    <glyph glyph-name="plus.lt" horiz-adv-x="600" 
d="M334 571h99l-52 -210h210l-25 -100h-210l-52 -209h-100l52 209h-209l25 100h209z" />
    <glyph glyph-name="minus.lt" horiz-adv-x="600" 
d="M48 261l26 100h518l-25 -100h-519z" />
    <glyph glyph-name="multiply.lt" horiz-adv-x="600" 
d="M117 89l-53 71l190 151l-114 152l79 63l113 -152l190 153l54 -71l-192 -153l114 -151l-80 -64l-111 152z" />
    <glyph glyph-name="divide.lt" horiz-adv-x="600" 
d="M50 261l26 100h518l-25 -100h-519zM291 457l33 130h136l-33 -130h-136zM185 36l33 129h136l-33 -129h-136z" />
    <glyph glyph-name="equal.lt" horiz-adv-x="600" 
d="M29 172l23 93h519l-23 -93h-519zM76 358l22 94h519l-23 -94h-518z" />
    <glyph glyph-name="less.lt" horiz-adv-x="600" 
d="M83 242l32 134l444 190l-31 -123l-340 -140l270 -144l-28 -108z" />
    <glyph glyph-name="greater.lt" horiz-adv-x="600" 
d="M561 376l-34 -134l-442 -191l30 123l340 142l-269 142l27 108z" />
    <glyph glyph-name="plusminus.lt" horiz-adv-x="600" 
d="M350 611h99l-41 -165h205l-25 -99h-204l-41 -165h-100l41 165h-204l25 99h203zM0 29l26 99h507l-25 -99h-508z" />
    <glyph glyph-name="lessequal.lt" horiz-adv-x="600" 
d="M55 29l25 99h396l-26 -99h-395zM128 321l32 127l435 158l-29 -117l-321 -111l267 -111l-27 -103z" />
    <glyph glyph-name="greaterequal.lt" horiz-adv-x="600" 
d="M495 128l-25 -99h-396l26 99h395zM575 448l-32 -127l-435 -157l30 117l320 110l-266 112l26 103z" />
    <glyph glyph-name="notequal.lt" horiz-adv-x="600" 
d="M78 359l21 91h306l112 120h96l-112 -120h117l-22 -91h-180l-88 -95h244l-22 -91h-307l-111 -119h-96l111 119h-116l23 91h178l88 95h-242z" />
    <glyph glyph-name="approxequal.lt" horiz-adv-x="600" 
d="M70 328l23 95q84 47 151 47q44 0 113 -23t113 -23q70 0 154 47l-24 -95q-83 -47 -154 -47q-44 0 -112.5 23t-112.5 23q-67 0 -151 -47zM27 155l23 95q81 46 151 46q45 0 113 -22.5t112 -22.5q72 0 155 46l-24 -95q-85 -46 -154 -46q-44 0 -112.5 22.5t-113.5 22.5
q-67 0 -150 -46z" />
    </font>
</defs>
</svg>
