<?xml version="1.0" standalone="no"?>
<!DOCTYPE svg PUBLIC "-//W3C//DTD SVG 1.1//EN" "http://www.w3.org/Graphics/SVG/1.1/DTD/svg11.dtd" >
<svg xmlns="http://www.w3.org/2000/svg" xmlns:xlink="http://www.w3.org/1999/xlink" version="1.1">
<metadata>
Created by FontForge 20161003 at Thu Feb 22 09:29:46 2018
 By www-data
(c) 2010 Klim Type Foundry. All rights reserved.
</metadata>
<defs>
<font id="FoundersGroteskLightItalic" horiz-adv-x="500" >
  <font-face 
    font-family="FoundersGroteskLightItalic"
    font-weight="300"
    font-style="italic"
    font-stretch="normal"
    units-per-em="1000"
    panose-1="2 11 3 3 3 2 2 13 2 3"
    ascent="630"
    descent="-370"
    x-height="434"
    cap-height="630"
    bbox="-149 -186 1078 924"
    underline-thickness="40"
    underline-position="-110"
    slope="-14"
    unicode-range="U+0020-FB04"
  />
<missing-glyph horiz-adv-x="608" 
 />
    <glyph glyph-name="ff" unicode="ff" horiz-adv-x="528" 
d="M193 434h194l17 69q34 139 154 139q103 0 119 -99l-46 -14q-11 67 -73 67q-71 0 -92 -88l-18 -74h125l-12 -45h-124l-97 -389h-61l97 389h-194l-97 -389h-61l97 389h-68l12 45h67l14 56q16 66 57 104t102 38q52 0 91 -35l-27 -39q-27 27 -64 27q-75 0 -98 -95z" />
    <glyph glyph-name="fi" unicode="fi" horiz-adv-x="453" 
d="M193 434h255l-108 -434h-61l97 389h-194l-97 -389h-61l97 389h-68l12 45h67l9 39q39 169 182 169q52 0 88 -27t45 -81l-48 -16q-5 34 -26.5 54.5t-58.5 20.5q-91 0 -118 -111z" />
    <glyph glyph-name="fl" unicode="fl" horiz-adv-x="453" 
d="M436 630h61l-157 -630h-61zM193 434h125l-12 -45h-124l-97 -389h-61l97 389h-68l12 45h67l16 66q16 67 56.5 104.5t101.5 37.5q52 0 85 -31l-26 -37q-22 21 -59 21q-73 0 -97 -95z" />
    <glyph glyph-name="ffi" unicode="ffi" horiz-adv-x="708" 
d="M387 434l9 39q39 169 182 169q52 0 88 -27t45 -81l-48 -16q-5 34 -26.5 54.5t-58.5 20.5q-91 0 -118 -111l-12 -48h255l-108 -434h-61l97 389h-194l-97 -389h-61l97 389h-194l-97 -389h-61l97 389h-68l12 45h67l14 56q16 66 57 104t102 38q52 0 91 -35l-27 -39
q-27 27 -64 27q-75 0 -98 -95l-14 -56h194z" />
    <glyph glyph-name="ffl" unicode="ffl" horiz-adv-x="708" 
d="M691 630h61l-157 -630h-61zM376 389h-194l-97 -389h-61l97 389h-68l12 45h67l14 56q16 66 57 104t102 38q52 0 91 -35l-27 -39q-27 27 -64 27q-75 0 -98 -95l-14 -56h194l16 66q16 67 56.5 104.5t101.5 37.5q52 0 85 -31l-26 -37q-23 21 -59 21q-73 0 -97 -95l-16 -66
h125l-12 -45h-124l-97 -389h-61z" />
    <glyph glyph-name="f_b" unicode="fb" horiz-adv-x="793" 
d="M193 434h125l-12 -45h-124l-97 -389h-61l97 389h-68l12 45h67l16 66q16 67 56.5 104.5t101.5 37.5q52 0 85 -31l-26 -37q-22 21 -59 21q-73 0 -97 -95zM400 249l-11 -44q-19 -74 15 -121.5t104 -47.5q87 0 140 71.5t53 166.5q0 59 -31.5 91t-90.5 32q-58 0 -110 -40.5
t-69 -107.5zM363 93l-35 -93h-49l157 630h61l-70 -279q25 42 71.5 68.5t102.5 26.5q78 0 121 -47t43 -125q0 -68 -28.5 -132.5t-88.5 -109t-137 -44.5q-57 0 -96.5 29.5t-51.5 75.5z" />
    <glyph glyph-name="f_f_b" unicode="ffb" horiz-adv-x="1048" 
d="M376 389h-194l-97 -389h-61l97 389h-68l12 45h67l14 56q16 66 57 104t102 38q52 0 91 -35l-27 -39q-27 27 -64 27q-75 0 -98 -95l-14 -56h194l16 66q16 67 56.5 104.5t101.5 37.5q52 0 85 -31l-26 -37q-23 21 -59 21q-73 0 -97 -95l-16 -66h125l-12 -45h-124l-97 -389
h-61zM655 249l-11 -44q-19 -74 15 -121.5t104 -47.5q87 0 140 71.5t53 166.5q0 59 -31.5 91t-90.5 32q-58 0 -110 -40.5t-69 -107.5zM618 93l-35 -93h-49l157 630h61l-70 -279q25 42 71.5 68.5t102.5 26.5q78 0 121 -47t43 -125q0 -68 -28.5 -132.5t-88.5 -109t-137 -44.5
q-57 0 -96.5 29.5t-51.5 75.5z" />
    <glyph glyph-name="f_h" unicode="fh" horiz-adv-x="753" 
d="M193 434h125l-12 -45h-124l-97 -389h-61l97 389h-68l12 45h67l16 66q16 67 56.5 104.5t101.5 37.5q52 0 85 -31l-26 -37q-22 21 -59 21q-73 0 -97 -95zM402 250l-62 -250h-61l157 630h61l-70 -279q62 95 163 95q79 0 110.5 -48.5t11.5 -128.5l-67 -269h-61l67 271
q15 59 -5.5 93t-76.5 34q-54 0 -102 -40t-65 -108z" />
    <glyph glyph-name="f_f_h" unicode="ffh" horiz-adv-x="1008" 
d="M376 389h-194l-97 -389h-61l97 389h-68l12 45h67l14 56q16 66 57 104t102 38q52 0 91 -35l-27 -39q-27 27 -64 27q-75 0 -98 -95l-14 -56h194l16 66q16 67 56.5 104.5t101.5 37.5q52 0 85 -31l-26 -37q-23 21 -59 21q-73 0 -97 -95l-16 -66h125l-12 -45h-124l-97 -389
h-61zM657 250l-62 -250h-61l157 630h61l-70 -279q62 95 163 95q79 0 110.5 -48.5t11.5 -128.5l-67 -269h-61l67 271q15 59 -5.5 93t-76.5 34q-54 0 -102 -40t-65 -108z" />
    <glyph glyph-name="f_idieresis" unicode="f&#xef;" horiz-adv-x="454" 
d="M377 389h-195l-97 -389h-61l97 389h-68l12 45h67l17 69q34 139 154 139q103 0 119 -99l-47 -16q-12 69 -72 69q-71 0 -92 -88l-18 -74h256l-108 -434h-61zM474 539l20 81h65l-20 -81h-65z" />
    <glyph glyph-name="f_f_idieresis" unicode="ff&#xef;" horiz-adv-x="709" 
d="M376 389h-194l-97 -389h-61l97 389h-68l12 45h67l14 56q16 66 57 104t102 38q52 0 91 -35l-27 -39q-27 27 -64 27q-75 0 -98 -95l-14 -56h194l17 69q34 139 154 139q103 0 119 -99l-47 -16q-12 69 -72 69q-71 0 -92 -88l-18 -74h256l-108 -434h-61l97 389h-195l-97 -389
h-61zM729 539l20 81h65l-20 -81h-65z" />
    <glyph glyph-name="f_j" unicode="fj" horiz-adv-x="454" 
d="M259 -83l117 472h-194l-97 -389h-61l97 389h-68l12 45h67l9 39q39 169 182 169q52 0 88 -27t45 -81l-48 -16q-5 34 -26.5 54.5t-58.5 20.5q-91 0 -118 -111l-12 -48h256l-131 -527q-22 -89 -102 -89q-57 0 -92 37l28 36q30 -24 60 -24q21 0 30.5 11.5t16.5 38.5z" />
    <glyph glyph-name="f_f_j" unicode="ffj" horiz-adv-x="708" 
d="M513 -83l118 472h-194l-97 -389h-61l97 389h-194l-97 -389h-61l97 389h-68l12 45h67l14 56q16 66 57 104t102 38q52 0 91 -35l-27 -39q-27 27 -64 27q-75 0 -98 -95l-14 -56h194l9 39q39 169 182 169q52 0 88 -27t45 -81l-48 -16q-5 34 -26.5 54.5t-58.5 20.5
q-91 0 -118 -111l-12 -48h255l-131 -527q-22 -89 -102 -89q-57 0 -92 37l28 36q30 -24 60 -24q21 0 30.5 11.5t16.5 38.5z" />
    <glyph glyph-name="f_k" unicode="fk" horiz-adv-x="732" 
d="M193 434h125l-12 -45h-124l-97 -389h-61l97 389h-68l12 45h67l16 66q16 67 56.5 104.5t101.5 37.5q52 0 85 -31l-26 -37q-22 21 -59 21q-73 0 -97 -95zM380 163l-40 -163h-61l157 630h61l-102 -404l287 208h85l-257 -184l159 -250h-69l-138 220z" />
    <glyph glyph-name="f_f_k" unicode="ffk" horiz-adv-x="987" 
d="M376 389h-194l-97 -389h-61l97 389h-68l12 45h67l14 56q16 66 57 104t102 38q52 0 91 -35l-27 -39q-27 27 -64 27q-75 0 -98 -95l-14 -56h194l16 66q16 67 56.5 104.5t101.5 37.5q52 0 85 -31l-26 -37q-23 21 -59 21q-73 0 -97 -95l-16 -66h125l-12 -45h-124l-97 -389
h-61zM635 163l-40 -163h-61l157 630h61l-102 -404l287 208h85l-257 -184l159 -250h-69l-138 220z" />
    <glyph glyph-name=".notdef" horiz-adv-x="608" 
 />
    <glyph glyph-name=".null" horiz-adv-x="0" 
 />
    <glyph glyph-name="nonmarkingreturn" horiz-adv-x="333" 
 />
    <glyph glyph-name="space" unicode=" " horiz-adv-x="180" 
 />
    <glyph glyph-name="exclam" unicode="!" horiz-adv-x="180" 
d="M4 0l19 80h80l-19 -80h-80zM168 630h66l-45 -180l-97 -298h-22l53 298z" />
    <glyph glyph-name="quotedbl" unicode="&#x22;" horiz-adv-x="267" 
d="M94 417l57 213h55l-57 -213h-55zM206 417l57 213h55l-57 -213h-55z" />
    <glyph glyph-name="numbersign" unicode="#" horiz-adv-x="606" 
d="M543 214l-16 -47h-129l-69 -167h-59l69 167h-160l-69 -167h-59l69 167h-107l15 47h111l84 203h-126l17 47h128l69 166h59l-69 -166h160l69 166h59l-69 -166h109l-17 -47h-111l-84 -203h126zM282 417l-84 -203h160l84 203h-160z" />
    <glyph glyph-name="dollar" unicode="$" horiz-adv-x="549" 
d="M34 251h58q-12 -85 21.5 -138t103.5 -69l63 251l-42 12q-127 37 -127 151q0 80 59 132t159 52q13 0 37 -2l23 92h49l-26 -101q77 -22 115.5 -83.5t28.5 -150.5h-57q8 64 -18.5 113.5t-80.5 69.5l-61 -243l22 -6q75 -21 111.5 -58t36.5 -95q0 -87 -64.5 -138.5
t-164.5 -51.5q-4 0 -13 0.5t-14 0.5l-23 -92h-49l24 99q-91 18 -138.5 83t-32.5 172zM172 463q0 -44 25 -68t79 -40l17 -5l60 240q-16 2 -24 2q-75 0 -116 -33.5t-41 -95.5zM335 279l-9 2l-61 -243h15q79 0 123 36t44 98q0 42 -26.5 66t-85.5 41z" />
    <glyph glyph-name="percent" unicode="%" horiz-adv-x="715" 
d="M141 436q0 -74 66 -74q49 0 79.5 46t30.5 115q0 74 -66 74q-49 0 -79.5 -46t-30.5 -115zM83 443q0 83 50.5 141t119.5 58q58 0 90 -34t32 -92q0 -83 -50.5 -141t-119.5 -58q-58 0 -90 34t-32 92zM660 642l-496 -654h-59l496 654h59zM624 194q0 74 -66 74q-49 0 -79.5 -46
t-30.5 -115q0 -74 66 -74q49 0 79.5 46t30.5 115zM682 187q0 -83 -50.5 -141t-119.5 -58q-58 0 -90 34t-32 92q0 83 50.5 141t119.5 58q58 0 90 -34t32 -92z" />
    <glyph glyph-name="ampersand" unicode="&#x26;" horiz-adv-x="608" 
d="M523 321l55 -8q-44 -132 -141 -222q45 -50 93 -50q21 0 52 7l-13 -42q-31 -14 -57 -14q-62 0 -117 64q-92 -68 -189 -68q-83 0 -135 46.5t-52 117.5q0 74 46.5 119.5t139.5 79.5q-29 61 -29 113q0 77 50 127.5t125 50.5q67 0 103 -33.5t36 -90.5q0 -119 -205 -188
l118 -191l6 -10q85 82 114 192zM206 39q82 0 161 56q-3 4 -14 21l-126 195q-79 -29 -113.5 -63.5t-34.5 -91.5q0 -50 36 -83.5t91 -33.5zM234 467q0 -48 28 -98q92 29 132.5 62.5t41.5 86.5q1 35 -22 56t-63 21q-49 0 -83 -33.5t-34 -94.5z" />
    <glyph glyph-name="quotesingle" unicode="'" horiz-adv-x="155" 
d="M94 417l57 213h55l-57 -213h-55z" />
    <glyph glyph-name="parenleft" unicode="(" horiz-adv-x="273" 
d="M40 163q0 131 64.5 259.5t182.5 237.5h67q-120 -111 -184 -248.5t-64 -249.5q0 -145 63 -246h-58q-71 104 -71 247z" />
    <glyph glyph-name="parenright" unicode=")" horiz-adv-x="273" 
d="M265 413q0 -131 -64.5 -259.5t-182.5 -237.5h-67q120 111 184 248.5t64 249.5q0 145 -63 246h58q71 -104 71 -247z" />
    <glyph glyph-name="asterisk" unicode="*" horiz-adv-x="353" 
d="M79 542l25 40l111 -66l28 128l46 -10l-28 -126l130 12l4 -46l-129 -13l53 -119l-44 -18l-52 117l-97 -86l-30 36l96 84z" />
    <glyph glyph-name="plus" unicode="+" horiz-adv-x="620" 
d="M365 566h52l-57 -228h227l-12 -52h-228l-57 -227h-52l57 227h-227l13 52h227z" />
    <glyph glyph-name="comma" unicode="," horiz-adv-x="160" 
d="M-10 0l19 80h80l-20 -81q-13 -53 -34 -77t-71 -24l10 41q26 2 36 14t19 47h-39z" />
    <glyph glyph-name="hyphen" unicode="-" horiz-adv-x="340" 
d="M59 227l14 55h220l-14 -55h-220z" />
    <glyph glyph-name="period" unicode="." horiz-adv-x="160" 
d="M-10 0l19 80h80l-19 -80h-80z" />
    <glyph glyph-name="slash" unicode="/" horiz-adv-x="307" 
d="M-85 -83l446 742h61l-446 -742h-61z" />
    <glyph glyph-name="zero" unicode="0" horiz-adv-x="580" 
d="M267 39q90 0 144 58.5t87 188.5q17 65 17 123q0 87 -41.5 134.5t-114.5 47.5q-90 0 -144 -58.5t-87 -188.5q-17 -65 -17 -123q0 -87 41.5 -134.5t114.5 -47.5zM268 -12q-106 0 -163 64t-57 174q0 56 15 120q34 146 109.5 221t185.5 75q106 0 163 -64t57 -174
q0 -56 -15 -120q-34 -146 -109.5 -221t-185.5 -75z" />
    <glyph glyph-name="one" unicode="1" horiz-adv-x="271" 
d="M71 499l10 40q64 0 101.5 22.5t68.5 73.5h35l-158 -635h-63l124 499h-118z" />
    <glyph glyph-name="two" unicode="2" 
d="M89 56h348l-13 -56h-456l7 30l258 187q11 8 45.5 31.5t51 35.5t44 36.5t41 44.5t24.5 48t11 58q0 55 -34.5 87.5t-96.5 32.5q-83 0 -129.5 -57t-47.5 -158l-61 4q2 115 66 188.5t172 73.5q96 0 144.5 -48.5t48.5 -121.5q0 -38 -14 -73t-30.5 -58.5t-54.5 -55.5t-59 -47
t-72 -50z" />
    <glyph glyph-name="three" unicode="3" horiz-adv-x="509" 
d="M408 191q0 102 -123 102q-35 0 -65 -4l14 57q21 -3 63 -3q66 0 119 35t53 106q0 48 -33 77.5t-96 29.5q-73 0 -123.5 -43t-68.5 -126l-61 3q23 102 90.5 159.5t162.5 57.5q94 0 141.5 -42.5t47.5 -115.5q0 -71 -48 -115t-112 -54q48 -12 74.5 -45t26.5 -79
q0 -95 -66 -149t-168 -54q-117 0 -176 67.5t-36 167.5l58 -4q-18 -81 27 -130.5t127 -49.5q79 0 125.5 38.5t46.5 113.5z" />
    <glyph glyph-name="four" unicode="4" horiz-adv-x="535" 
d="M519 630l-100 -401h115l-13 -51h-115l-44 -178h-62l44 178h-337l15 61l419 391h78zM441 567l-361 -338h277z" />
    <glyph glyph-name="five" unicode="5" horiz-adv-x="524" 
d="M549 630l-15 -59h-303q-8 -27 -39 -113.5t-43 -112.5q61 71 155 71q86 0 137 -50.5t51 -135.5q0 -107 -68.5 -174.5t-174.5 -67.5t-166.5 67t-36.5 169l59 -6q-16 -76 25.5 -128t118.5 -52q85 0 132.5 52.5t47.5 137.5q0 63 -35.5 99t-98.5 36q-107 0 -164 -88l-63 4
q83 191 128 351h353z" />
    <glyph glyph-name="six" unicode="6" horiz-adv-x="544" 
d="M364 592q-101 0 -166 -81.5t-89 -224.5q26 64 83 100.5t128 36.5q98 0 149 -55t51 -141q0 -103 -72.5 -171t-176.5 -68q-105 0 -164 62.5t-59 171.5q0 75 20 148t58 134.5t100 99.5t138 38q103 0 154.5 -52t46.5 -139l-58 -3q3 66 -35.5 105t-107.5 39zM460 227
q0 64 -40.5 103.5t-111.5 39.5q-82 0 -136 -50.5t-54 -134.5q0 -65 40.5 -104.5t111.5 -39.5q82 0 136 51t54 135z" />
    <glyph glyph-name="seven" unicode="7" horiz-adv-x="474" 
d="M456 572h-367l15 58h449l-8 -31q-142 -119 -235 -273.5t-135 -325.5h-68q44 170 136.5 321.5t212.5 250.5z" />
    <glyph glyph-name="eight" unicode="8" horiz-adv-x="518" 
d="M249 37q81 0 126.5 39t45.5 99q0 59 -46 89t-121 30q-77 0 -122 -38.5t-45 -97.5q0 -57 45.5 -89t116.5 -32zM245 -12q-92 0 -158 44.5t-66 125.5q0 70 49.5 115.5t127.5 54.5q-92 39 -92 128q0 83 65 134.5t157 51.5q87 0 141.5 -42t54.5 -119q0 -65 -39.5 -108.5
t-112.5 -58.5q50 -13 83 -49.5t33 -86.5q0 -85 -69 -137.5t-174 -52.5zM309 343q68 0 111 40t43 99q0 54 -38.5 83t-100.5 29q-68 0 -111 -39.5t-43 -95.5t38.5 -86t100.5 -30z" />
    <glyph glyph-name="nine" unicode="9" horiz-adv-x="544" 
d="M226 38q101 0 166 81.5t89 224.5q-26 -64 -83 -100.5t-128 -36.5q-98 0 -149 55t-51 141q0 103 72.5 171t176.5 68q105 0 164 -62.5t59 -171.5q0 -75 -20 -148t-58 -134.5t-100 -99.5t-138 -38q-103 0 -154.5 52t-46.5 139l58 3q-3 -66 35.5 -105t107.5 -39zM130 403
q0 -64 40.5 -103.5t111.5 -39.5q82 0 136 50.5t54 134.5q0 65 -40.5 104.5t-111.5 39.5q-82 0 -136 -51t-54 -135z" />
    <glyph glyph-name="colon" unicode=":" horiz-adv-x="160" 
d="M-10 0l19 80h80l-19 -80h-80zM72 331l19 80h80l-19 -80h-80z" />
    <glyph glyph-name="semicolon" unicode=";" horiz-adv-x="160" 
d="M-10 0l19 80h80l-20 -81q-13 -53 -34 -77t-71 -24l10 41q26 2 36 14t19 47h-39zM72 331l19 80h80l-19 -80h-80z" />
    <glyph glyph-name="less" unicode="&#x3c;" horiz-adv-x="460" 
d="M57 279l15 63l441 219l-18 -68l-387 -187l294 -192l-15 -55z" />
    <glyph glyph-name="equal" unicode="=" horiz-adv-x="631" 
d="M59 211l12 53h507l-12 -53h-507zM95 356l12 53h507l-12 -53h-507z" />
    <glyph glyph-name="greater" unicode="&#x3e;" horiz-adv-x="460" 
d="M447 342l-16 -63l-440 -220l17 68l388 189l-294 190l15 55z" />
    <glyph glyph-name="question" unicode="?" horiz-adv-x="478" 
d="M236 156h-58q12 53 42.5 89.5t91.5 73.5q70 42 89 60q41 39 41 96q0 52 -33 84t-93 32q-80 0 -126.5 -57.5t-48.5 -147.5l-63 4q5 116 70 184t168 68q92 0 140.5 -46t48.5 -121q0 -72 -43 -117t-122 -87q-86 -46 -104 -115zM134 0l19 80h80l-19 -80h-80z" />
    <glyph glyph-name="at" unicode="@" horiz-adv-x="755" 
d="M540 83q59 0 98.5 56t39.5 158q0 101 -68 162t-178 61q-144 0 -245 -101t-101 -260q0 -111 75.5 -181.5t196.5 -70.5q115 0 210 45l19 -35q-103 -57 -229 -57q-146 0 -235.5 81.5t-89.5 216.5q0 177 114.5 293t284.5 116q135 0 217.5 -75t82.5 -195q0 -121 -57.5 -191.5
t-133.5 -70.5q-38 0 -62 21.5t-30 53.5q-20 -34 -54.5 -55t-75.5 -21q-55 0 -88 35.5t-33 96.5q0 87 55 156.5t138 69.5q44 0 73 -21t39 -53l21 66h59l-72 -241q-9 -29 0 -44.5t29 -15.5zM467 201l9 26q17 50 -6 84.5t-71 34.5q-59 0 -99 -55t-40 -127q0 -81 73 -81
q45 0 81 30.5t53 87.5z" />
    <glyph glyph-name="A" unicode="A" horiz-adv-x="623" 
d="M378 630h68l109 -630h-63l-34 203h-298l-132 -203h-66zM394 562l-200 -306h255l-51 306h-4z" />
    <glyph glyph-name="B" unicode="B" horiz-adv-x="579" 
d="M271 0h-259l157 630h249q84 0 128.5 -35t44.5 -101q0 -71 -47 -115t-119 -55q50 -9 80.5 -39.5t30.5 -80.5q0 -97 -74 -150.5t-191 -53.5zM343 301h-195l-62 -248h195q92 0 143 40t51 107q0 101 -132 101zM216 577l-56 -225h194q82 0 128.5 36t46.5 99q0 90 -123 90h-190
z" />
    <glyph glyph-name="C" unicode="C" horiz-adv-x="665" 
d="M54 266q0 97 43.5 182.5t125 139.5t181.5 54q129 0 195.5 -73t58.5 -198l-60 -3q6 100 -45 160.5t-149 60.5q-128 0 -206 -95.5t-78 -228.5q0 -103 57 -163.5t148 -60.5q104 0 173 61t87 160l60 -3q-26 -127 -109 -199t-211 -72q-121 0 -196 76.5t-75 201.5z" />
    <glyph glyph-name="D" unicode="D" horiz-adv-x="640" 
d="M88 53h162q149 0 233 93t84 240q0 191 -225 191h-124zM12 0l157 630h187q131 0 204 -64.5t73 -178.5q0 -168 -106.5 -277.5t-284.5 -109.5h-230z" />
    <glyph glyph-name="E" unicode="E" horiz-adv-x="541" 
d="M461 53l-13 -53h-436l157 630h427l-14 -53h-366l-55 -224h293l-14 -53h-293l-61 -247h375z" />
    <glyph glyph-name="F" unicode="F" horiz-adv-x="507" 
d="M74 0h-62l157 630h417l-14 -53h-355l-58 -234h282l-13 -53h-282z" />
    <glyph glyph-name="G" unicode="G" horiz-adv-x="685" 
d="M657 378l-61 -4q4 95 -46 155t-146 60q-128 0 -206 -95.5t-78 -228.5q0 -104 57 -164t150 -60t158.5 58t94.5 154h-206l13 53h262l-76 -306h-59l29 119q-28 -61 -86.5 -96t-139.5 -35q-117 0 -190 76.5t-73 201.5q0 97 43.5 182.5t125 139.5t181.5 54q127 0 192 -72.5
t61 -191.5z" />
    <glyph glyph-name="H" unicode="H" horiz-adv-x="650" 
d="M75 0h-63l157 630h63l-69 -277h394l69 277h63l-157 -630h-63l74 300h-394z" />
    <glyph glyph-name="I" unicode="I" horiz-adv-x="193" 
d="M169 630h63l-157 -630h-63z" />
    <glyph glyph-name="J" unicode="J" horiz-adv-x="490" 
d="M481 630h63l-109 -434q-24 -97 -84 -152.5t-151 -55.5q-106 0 -154 61.5t-32 168.5l59 5q-14 -90 19.5 -136t107.5 -46q75 0 116 45.5t64 138.5z" />
    <glyph glyph-name="K" unicode="K" horiz-adv-x="568" 
d="M515 0h-71l-208 316l-103 -82l-58 -234h-63l157 630h63l-81 -323l405 323h81l-352 -281z" />
    <glyph glyph-name="L" unicode="L" horiz-adv-x="515" 
d="M169 630h63l-144 -577h362l-13 -53h-425z" />
    <glyph glyph-name="M" unicode="M" horiz-adv-x="731" 
d="M343 0h-57l-68 570h-4l-142 -570h-60l157 630h99l64 -549h3l327 549h108l-157 -630h-64l142 570h-4z" />
    <glyph glyph-name="N" unicode="N" horiz-adv-x="632" 
d="M239 630l240 -529l132 529h60l-157 -630h-49l-255 557l-138 -557h-60l157 630h70z" />
    <glyph glyph-name="O" unicode="O" horiz-adv-x="688" 
d="M400 642q127 0 204 -73t77 -199q0 -97 -41 -183.5t-122 -142.5t-183 -56q-127 0 -204 73t-77 199q0 97 41 183.5t122 142.5t183 56zM335 41q123 0 201.5 97t78.5 232q0 98 -57 158.5t-158 60.5q-123 0 -201.5 -97t-78.5 -232q0 -98 57 -158.5t158 -60.5z" />
    <glyph glyph-name="P" unicode="P" horiz-adv-x="541" 
d="M148 299h147q217 0 217 167q0 111 -148 111h-147zM135 246l-61 -246h-62l157 630h204q200 0 200 -162q0 -111 -78 -166.5t-215 -55.5h-145z" />
    <glyph glyph-name="Q" unicode="Q" horiz-adv-x="688" 
d="M400 642q127 0 204 -73t77 -199q0 -82 -30.5 -158t-86.5 -131l48 -71l-42 -28l-46 66q-84 -60 -189 -60q-127 0 -204 73t-77 199q0 97 41 183.5t122 142.5t183 56zM335 41q89 0 157 54l-51 75l44 29l45 -68q85 96 85 239q0 98 -57 158.5t-158 60.5q-123 0 -201.5 -97
t-78.5 -232q0 -98 57 -158.5t158 -60.5z" />
    <glyph glyph-name="R" unicode="R" horiz-adv-x="578" 
d="M492 0h-67q-5 10 -5 37q0 19 8.5 72t8.5 73q0 84 -104 84h-193l-66 -266h-62l157 630h235q96 0 145.5 -37.5t49.5 -109.5q0 -81 -52 -132t-138 -63q92 -18 92 -102q0 -18 -9 -71.5t-9 -77.5q0 -23 9 -37zM153 318h184q88 0 143 40t55 117q0 102 -141 102h-177z" />
    <glyph glyph-name="S" unicode="S" horiz-adv-x="553" 
d="M34 251h58q-15 -102 37 -157.5t151 -55.5q79 0 122.5 36t43.5 98q0 42 -26 66t-85 41l-97 28q-127 37 -127 151q0 80 59 132t159 52q114 0 177 -66.5t50 -178.5h-57q11 84 -36 139.5t-134 55.5q-75 0 -115.5 -33.5t-40.5 -95.5q0 -43 24 -66.5t79 -39.5l85 -24
q148 -42 148 -155q0 -87 -64.5 -138.5t-164.5 -51.5q-123 0 -193.5 67.5t-52.5 195.5z" />
    <glyph glyph-name="T" unicode="T" horiz-adv-x="572" 
d="M263 0h-63l143 577h-233l14 53h532l-14 -53h-236z" />
    <glyph glyph-name="U" unicode="U" horiz-adv-x="604" 
d="M273 -12q-120 0 -179.5 70t-28.5 194l94 378h63l-96 -387q-23 -94 16 -148t131 -54q93 0 144 46.5t75 143.5l100 399h61l-100 -401q-32 -127 -100 -184t-180 -57z" />
    <glyph glyph-name="V" unicode="V" horiz-adv-x="614" 
d="M285 0h-70l-96 630h62l84 -559h4l366 559h68z" />
    <glyph glyph-name="W" unicode="W" horiz-adv-x="793" 
d="M529 630l5 -562h4l282 562h62l-322 -630h-81l-2 531h-4l-275 -531h-81l2 630h60l-4 -559h4l290 559h60z" />
    <glyph glyph-name="X" unicode="X" horiz-adv-x="591" 
d="M578 630h74l-294 -304l161 -326h-65l-139 279l-277 -279h-75l328 329l-149 301h65l126 -255z" />
    <glyph glyph-name="Y" unicode="Y" horiz-adv-x="584" 
d="M313 304l288 326h72l-342 -381l-62 -249h-60l62 249l-152 381h63z" />
    <glyph glyph-name="Z" unicode="Z" horiz-adv-x="551" 
d="M74 53h407l-13 -53h-491l10 42l530 535h-392l14 53h475l-12 -45z" />
    <glyph glyph-name="bracketleft" unicode="[" horiz-adv-x="265" 
d="M224 610l-161 -644h90l-12 -50h-150l185 744h150l-12 -50h-90z" />
    <glyph glyph-name="backslash" unicode="\" horiz-adv-x="312" 
d="M145 659l137 -742h-55l-137 742h55z" />
    <glyph glyph-name="bracketright" unicode="]" horiz-adv-x="265" 
d="M77 -34l161 644h-90l12 50h150l-185 -744h-150l12 50h90z" />
    <glyph glyph-name="asciicircum" unicode="^" horiz-adv-x="368" 
d="M256 630h52l98 -200h-60l-72 149l-146 -149h-70z" />
    <glyph glyph-name="underscore" unicode="_" horiz-adv-x="381" 
d="M-53 -111l11 49h341l-12 -49h-340z" />
    <glyph glyph-name="grave" unicode="`" 
d="M395 508h-38l-64 122h79z" />
    <glyph glyph-name="a" unicode="a" horiz-adv-x="470" 
d="M329 194l6 26l-129 -17q-65 -9 -98.5 -31t-33.5 -69q0 -32 21 -50t56 -18q65 0 112 43t66 116zM406 270l-47 -188q-11 -43 25 -43q18 0 41 9l-8 -37q-25 -20 -59 -20t-48.5 25.5t-7.5 68.5q-21 -44 -66 -70.5t-98 -26.5q-57 0 -90.5 30t-33.5 79q0 126 184 149l149 20
l4 17q12 53 -9 83.5t-75 30.5q-100 0 -141 -90l-51 12q25 59 79 93t122 34q83 0 116.5 -48t13.5 -128z" />
    <glyph glyph-name="b" unicode="b" horiz-adv-x="521" 
d="M128 249l-11 -44q-19 -74 15 -121.5t104 -47.5q87 0 140 71.5t53 166.5q0 59 -31.5 91t-90.5 32q-58 0 -110 -40.5t-69 -107.5zM91 93l-35 -93h-49l157 630h61l-70 -279q25 42 71.5 68.5t102.5 26.5q78 0 121 -47t43 -125q0 -68 -28.5 -132.5t-88.5 -109t-137 -44.5
q-57 0 -96.5 29.5t-51.5 75.5z" />
    <glyph glyph-name="c" unicode="c" horiz-adv-x="481" 
d="M28 169q0 114 72.5 195.5t187.5 81.5q91 0 133.5 -53.5t33.5 -136.5l-54 -4q7 65 -23.5 104.5t-97.5 39.5q-81 0 -135.5 -64.5t-54.5 -162.5q0 -59 34 -95t94 -36q66 0 111 40.5t61 105.5l55 -6q-21 -83 -82 -136.5t-152 -53.5q-86 0 -134.5 49.5t-48.5 131.5z" />
    <glyph glyph-name="d" unicode="d" horiz-adv-x="519" 
d="M393 185l11 44q19 74 -15 121.5t-104 47.5q-87 0 -140 -71.5t-53 -166.5q0 -59 31.5 -91t90.5 -32q58 0 110 40.5t69 107.5zM430 341l72 289h61l-157 -630h-61l21 83q-25 -42 -71.5 -68.5t-102.5 -26.5q-78 0 -121 47t-43 125q0 68 28.5 132.5t88.5 109t137 44.5
q57 0 96.5 -29.5t51.5 -75.5z" />
    <glyph glyph-name="e" unicode="e" horiz-adv-x="479" 
d="M389 155l51 -8q-26 -75 -84.5 -117t-137.5 -42q-88 0 -139 49t-51 136q0 109 74 191t181 82q93 0 132.5 -54.5t39.5 -135.5q0 -24 -6 -54h-358q-10 -79 26.5 -121.5t107.5 -42.5q120 0 164 117zM101 245h292q8 67 -21.5 109.5t-95.5 42.5q-63 0 -110 -43t-65 -109z" />
    <glyph glyph-name="f" unicode="f" horiz-adv-x="273" 
d="M121 389h-68l12 45h67l17 69q34 139 154 139q103 0 119 -99l-46 -14q-11 67 -73 67q-71 0 -92 -88l-18 -74h125l-12 -45h-124l-97 -389h-61z" />
    <glyph glyph-name="g" unicode="g" horiz-adv-x="507" 
d="M387 198l11 42q18 71 -16 115.5t-102 44.5q-88 0 -138.5 -64t-50.5 -154q0 -62 33 -93t90 -31t106.5 38t66.5 102zM348 37l15 64q-23 -40 -69.5 -65t-100.5 -25q-74 0 -119.5 46.5t-45.5 124.5q0 104 67.5 184t181.5 80q57 0 95.5 -28t50.5 -71l23 87h61l-99 -401
q-52 -210 -242 -210q-70 0 -123 41.5t-54 117.5l54 5q4 -56 40 -86t87 -30q139 0 178 166z" />
    <glyph glyph-name="h" unicode="h" horiz-adv-x="481" 
d="M130 250l-62 -250h-61l157 630h61l-70 -279q62 95 163 95q79 0 110.5 -48.5t11.5 -128.5l-67 -269h-61l67 271q15 59 -5.5 93t-76.5 34q-54 0 -102 -40t-65 -108z" />
    <glyph glyph-name="i" unicode="i" horiz-adv-x="181" 
d="M115 434h61l-108 -434h-61zM142 549l20 81h65l-20 -81h-65z" />
    <glyph glyph-name="j" unicode="j" horiz-adv-x="181" 
d="M176 434l-131 -527q-22 -89 -102 -89q-57 0 -92 37l28 36q30 -24 60 -24q21 0 30.5 11.5t16.5 38.5l129 517h61zM142 549l20 81h65l-20 -81h-65z" />
    <glyph glyph-name="k" unicode="k" horiz-adv-x="460" 
d="M108 163l-40 -163h-61l157 630h61l-102 -404l287 208h85l-257 -184l159 -250h-69l-138 220z" />
    <glyph glyph-name="l" unicode="l" horiz-adv-x="181" 
d="M164 630h61l-157 -630h-61z" />
    <glyph glyph-name="m" unicode="m" horiz-adv-x="758" 
d="M431 342q27 46 71.5 75t98.5 29q71 0 103.5 -45.5t12.5 -127.5l-67 -273h-61l67 271q15 60 -3.5 93.5t-71.5 33.5q-49 0 -96.5 -41.5t-64.5 -110.5l-61 -246h-61l67 271q15 60 -3.5 93.5t-71.5 33.5q-49 0 -96.5 -41.5t-64.5 -110.5l-61 -246h-61l108 434h61l-21 -83
q27 42 69.5 68.5t90.5 26.5q50 0 81 -27.5t35 -76.5z" />
    <glyph glyph-name="n" unicode="n" horiz-adv-x="481" 
d="M130 250l-62 -250h-61l108 434h61l-21 -83q62 95 163 95q79 0 110.5 -48.5t11.5 -128.5l-67 -269h-61l67 271q15 59 -5.5 93t-76.5 34q-54 0 -102 -40t-65 -108z" />
    <glyph glyph-name="o" unicode="o" horiz-adv-x="497" 
d="M221 36q83 0 134 65t51 156q0 66 -35.5 103.5t-94.5 37.5q-83 0 -134 -65t-51 -156q0 -66 35.5 -103.5t94.5 -37.5zM221 -12q-86 0 -139.5 50.5t-53.5 138.5q0 110 70 189.5t178 79.5q86 0 139.5 -50.5t53.5 -138.5q0 -110 -70 -189.5t-178 -79.5z" />
    <glyph glyph-name="p" unicode="p" horiz-adv-x="521" 
d="M128 249l-11 -44q-19 -74 15 -121.5t104 -47.5q87 0 140 71.5t53 166.5q0 59 -31.5 91t-90.5 32q-58 0 -110 -40.5t-69 -107.5zM91 93l-66 -263h-61l151 604h61l-21 -83q25 42 71.5 68.5t102.5 26.5q78 0 121 -47t43 -125q0 -68 -28.5 -132.5t-88.5 -109t-137 -44.5
q-57 0 -96.5 29.5t-51.5 75.5z" />
    <glyph glyph-name="q" unicode="q" horiz-adv-x="514" 
d="M393 185l11 44q19 74 -15 121.5t-104 47.5q-87 0 -140 -71.5t-53 -166.5q0 -59 31.5 -91t90.5 -32q58 0 110 40.5t69 107.5zM430 341l23 93h61l-150 -604h-61l63 253q-25 -42 -71.5 -68.5t-102.5 -26.5q-78 0 -121 47t-43 125q0 68 28.5 132.5t88.5 109t137 44.5
q57 0 96.5 -29.5t51.5 -75.5z" />
    <glyph glyph-name="r" unicode="r" horiz-adv-x="313" 
d="M361 426l-21 -53q-27 17 -61 17q-48 0 -92 -43.5t-60 -108.5l-59 -238h-61l108 434h61l-23 -90q26 46 65.5 74t85.5 28q35 0 57 -20z" />
    <glyph glyph-name="s" unicode="s" horiz-adv-x="431" 
d="M15 162l49 4q-3 -64 36.5 -97.5t96.5 -33.5q53 0 82 22.5t29 57.5q0 29 -18.5 44t-56.5 27l-54 16q-101 29 -101 112q0 58 44 95t113 37q88 0 132.5 -44t39.5 -126l-48 -4q2 61 -30 94t-94 33q-45 0 -72 -21t-27 -57q0 -27 17.5 -43t54.5 -26l55 -16q104 -31 104 -113
q0 -64 -48 -99.5t-122 -35.5q-82 0 -135.5 45.5t-46.5 128.5z" />
    <glyph glyph-name="t" unicode="t" horiz-adv-x="291" 
d="M47 102l71 287h-67l8 30l27 5q31 6 44 19.5t30 49.5l29 62h31l-30 -121h126l-12 -45h-126l-71 -285q-17 -67 40 -67q40 0 92 30l-11 -43q-45 -36 -100 -36q-53 0 -73.5 31t-7.5 83z" />
    <glyph glyph-name="u" unicode="u" horiz-adv-x="477" 
d="M344 184l62 250h61l-108 -434h-61l21 83q-62 -95 -163 -95q-77 0 -107 48.5t-10 128.5l67 269h61l-67 -271q-31 -127 77 -127q54 0 102 40t65 108z" />
    <glyph glyph-name="v" unicode="v" horiz-adv-x="437" 
d="M184 0h-49l-69 434h60l51 -352h4l238 352h64z" />
    <glyph glyph-name="w" unicode="w" horiz-adv-x="618" 
d="M392 434l13 -350h4l194 350h61l-249 -434h-57l-12 348h-4l-190 -348h-58l-28 434h60l17 -350h4l192 350h53z" />
    <glyph glyph-name="x" unicode="x" horiz-adv-x="452" 
d="M481 434l-215 -208l123 -226h-66l-100 187l-192 -187h-71l238 231l-110 203h66l88 -164l168 164h71z" />
    <glyph glyph-name="y" unicode="y" horiz-adv-x="440" 
d="M85 -170h-65l120 177l-75 427h61l59 -359h4l234 359h63z" />
    <glyph glyph-name="z" unicode="z" horiz-adv-x="421" 
d="M345 385h-263l13 49h345l-11 -42l-362 -343h284l-12 -49h-361l10 42z" />
    <glyph glyph-name="braceleft" unicode="{" horiz-adv-x="279" 
d="M40 263l13 50h25q30 0 42 15t23 58l45 183q11 46 35 68.5t67 22.5h53l-12 -50h-40q-32 0 -41 -37l-46 -187q-21 -85 -91 -98q48 -10 48 -57q0 -15 -27.5 -124.5t-27.5 -119.5q0 -21 24 -21h40l-12 -50h-53q-63 0 -63 52q0 22 30 134t30 133q0 28 -37 28h-25z" />
    <glyph glyph-name="bar" unicode="|" horiz-adv-x="186" 
d="M-9 -83l184 742h56l-185 -742h-55z" />
    <glyph glyph-name="braceright" unicode="}" horiz-adv-x="279" 
d="M276 313l-13 -50h-25q-30 0 -42 -15t-23 -58l-45 -183q-11 -46 -35 -68.5t-67 -22.5h-53l12 50h40q32 0 41 37l46 187q21 85 91 98q-48 10 -48 57q0 15 27.5 124.5t27.5 119.5q0 21 -24 21h-40l12 50h53q63 0 63 -52q0 -22 -30 -134t-30 -133q0 -28 37 -28h25z" />
    <glyph glyph-name="asciitilde" unicode="~" horiz-adv-x="389" 
d="M79 208h-46q14 53 42 83t68 30q24 0 42.5 -16t34 -32t31.5 -16q21 0 32 14t21 47h46q-28 -113 -109 -113q-24 0 -42.5 16t-34 32t-31.5 16q-22 0 -33 -14.5t-21 -46.5z" />
    <glyph glyph-name="exclamdown" unicode="&#xa1;" horiz-adv-x="180" 
d="M208 518l-19 -80h-80l19 80h80zM44 -112h-66l45 180l97 298h22l-53 -298z" />
    <glyph glyph-name="cent" unicode="&#xa2;" horiz-adv-x="488" 
d="M35 169q0 112 70.5 193t183.5 84l24 97h49l-25 -101q69 -12 101 -63t24 -123l-54 -4q5 55 -15.5 92t-68.5 48l-88 -354q62 4 104 44t57 102l55 -6q-20 -82 -80 -135t-149 -55l-21 -87h-49l22 91q-67 11 -103.5 58.5t-36.5 118.5zM97 169q0 -49 24 -83t67 -44l88 354
q-77 -5 -128 -69t-51 -158z" />
    <glyph glyph-name="sterling" unicode="&#xa3;" horiz-adv-x="551" 
d="M401 591q-78 0 -120.5 -52t-42.5 -126q0 -51 1 -72h169l-12 -48h-154q2 -42 2 -59q0 -69 -25 -125q32 -25 45 -35t41 -22t54 -12q47 0 71 31t37 93l58 -2q-40 -174 -172 -174q-32 0 -63 13t-49.5 26.5t-46.5 37.5q-55 -77 -135 -77q-41 0 -63 22.5t-22 60.5
q0 45 31.5 71.5t77.5 26.5t92 -29q14 40 14 87q0 28 -5 66h-91l12 48h74q-2 40 -2 72q0 92 62 160.5t164 68.5q97 0 137 -53t20 -149l-57 -3q16 74 -10.5 114t-91.5 40zM69 34q51 0 87 62q-39 29 -71 29q-62 0 -62 -51q0 -19 12.5 -29.5t33.5 -10.5z" />
    <glyph glyph-name="yen" unicode="&#xa5;" horiz-adv-x="554" 
d="M72 272l12 48h138l-128 310h62l126 -306l272 306h74l-283 -310h139l-12 -48h-170l-20 -77h170l-12 -48h-170l-36 -147h-60l36 147h-170l12 48h170l20 77h-170z" />
    <glyph glyph-name="section" unicode="&#xa7;" horiz-adv-x="425" 
d="M411 254q0 -46 -27.5 -82.5t-71.5 -52.5q28 -31 28 -72q0 -61 -47 -102t-121 -41q-82 0 -134 47t-41 126h48q-4 -59 32 -92t101 -33q45 0 74.5 22.5t29.5 67.5q0 37 -40 62l-120 73q-41 25 -61.5 51.5t-21.5 63.5q0 46 27.5 82.5t71.5 52.5q-28 30 -28 72q0 61 47 102
t121 41q81 0 129.5 -46.5t37.5 -126.5h-48q4 60 -28.5 92.5t-96.5 32.5q-45 0 -74.5 -22.5t-29.5 -67.5q0 -37 40 -62l120 -73q41 -25 61.5 -51.5t21.5 -63.5zM289 326l-108 67q-85 -18 -85 -91q0 -25 15.5 -42.5t49.5 -39.5l107 -67q86 18 86 91q0 25 -15.5 42.5
t-49.5 39.5z" />
    <glyph glyph-name="dieresis" unicode="&#xa8;" 
d="M239 539l20 81h65l-20 -81h-65zM363 539l20 81h65l-20 -81h-65z" />
    <glyph glyph-name="copyright" unicode="&#xa9;" horiz-adv-x="724" 
d="M58 315q0 141 95 234t232 93t232 -93t95 -234t-95 -234t-232 -93t-232 93t-95 234zM198 314q0 87 53.5 142.5t133.5 55.5t126.5 -45t51.5 -120l-53 -3q-3 53 -35 85.5t-88 32.5q-58 0 -93 -40t-35 -108t35 -107.5t93 -39.5q56 0 88 32.5t35 85.5l53 -4q-5 -75 -51.5 -120
t-126.5 -45t-133.5 55.5t-53.5 142.5zM104 315q0 -122 81.5 -202t199.5 -80t199.5 80t81.5 202t-81.5 202t-199.5 80t-199.5 -80t-81.5 -202z" />
    <glyph glyph-name="ordfeminine" unicode="&#xaa;" horiz-adv-x="372" 
d="M310 447l4 17l-92 -12q-45 -7 -68.5 -22.5t-23.5 -47.5q0 -23 14.5 -35.5t39.5 -12.5q46 0 79.5 30.5t46.5 82.5zM381 506l-34 -137q-9 -32 18 -32q16 0 31 7l-8 -35q-21 -16 -49 -16q-27 0 -40 19t-8 51q-16 -33 -50 -52.5t-74 -19.5q-44 0 -69.5 23t-25.5 61
q0 94 140 113l112 15l3 12q8 38 -6.5 59.5t-52.5 21.5q-71 0 -99 -64l-51 9q19 47 61 74t98 27q65 0 92.5 -37.5t11.5 -98.5z" />
    <glyph glyph-name="guillemotleft" unicode="&#xab;" horiz-adv-x="384" 
d="M36 194l11 44l171 130l-18 -75l-112 -83l71 -85l-17 -61zM181 194l11 44l171 130l-18 -75l-112 -83l71 -85l-17 -61z" />
    <glyph glyph-name="registered" unicode="&#xae;" horiz-adv-x="400" 
d="M337 377h-38q-5 6 -8 38q0 30 -31 30h-42v-68h-36v183h83q69 0 69 -56q0 -20 -11.5 -32t-29.5 -14q32 -6 35 -38q1 -35 9 -43zM218 473h41q39 0 39 29t-39 29h-41v-58zM429 466q0 -76 -51 -126t-124 -50t-124 50t-51 126t51 126t124 50t124 -50t51 -126zM397 466
q0 63 -41 104.5t-102 41.5t-102 -41.5t-41 -104.5t41 -104.5t102 -41.5t102 41.5t41 104.5z" />
    <glyph glyph-name="macron" unicode="&#xaf;" 
d="M204 522l12 51h251l-12 -51h-251z" />
    <glyph glyph-name="degree" unicode="&#xb0;" horiz-adv-x="330" 
d="M206 423q41 0 67.5 27t26.5 68q0 33 -21 55t-56 22q-41 0 -67.5 -27t-26.5 -68q0 -33 21 -55t56 -22zM206 376q-56 0 -91.5 35t-35.5 89q0 60 41 101t103 41q56 0 91.5 -35t35.5 -89q0 -60 -41 -101t-103 -41z" />
    <glyph glyph-name="plusminus" unicode="&#xb1;" horiz-adv-x="615" 
d="M376 603h52l-50 -200h230l-12 -51h-231l-50 -200h-52l50 200h-232l13 51h232zM4 46l15 52h514l-14 -52h-515z" />
    <glyph glyph-name="twosuperior" unicode="&#xb2;" horiz-adv-x="327" 
d="M132 292h194l-12 -48h-283l8 33l149 107q6 4 24.5 16.5t25.5 18t22 17t21.5 20t15 20.5t12 24t3.5 26q0 29 -18 46t-51 17q-44 0 -68 -31t-25 -86l-54 3q2 71 42 116t108 45q60 0 91 -30t31 -76q0 -28 -9.5 -51.5t-32.5 -45.5t-40 -35t-53 -37z" />
    <glyph glyph-name="threesuperior" unicode="&#xb3;" horiz-adv-x="334" 
d="M281 362q0 54 -66 54q-17 0 -37 -2l11 45q18 -2 36 -2q36 0 64 19t28 57q0 26 -17.5 42t-50.5 16q-82 0 -103 -92l-54 2q14 63 56.5 99t103.5 36q58 0 88.5 -27t30.5 -71q0 -43 -28 -69t-67 -33q61 -16 61 -75q0 -58 -42 -91t-105 -33q-74 0 -110 40.5t-23 102.5l52 -3
q-9 -44 14.5 -69.5t66.5 -25.5q42 0 66.5 20t24.5 60z" />
    <glyph glyph-name="acute" unicode="&#xb4;" 
d="M300 508h-44l85 122h85z" />
    <glyph glyph-name="paragraph" unicode="&#xb6;" horiz-adv-x="480" 
d="M184 0l70 284q-76 0 -125 42.5t-49 105.5q0 94 67 146t179 52h193l-157 -630h-55l143 577h-69l-143 -577h-54z" />
    <glyph glyph-name="periodcentered" unicode="&#xb7;" horiz-adv-x="205" 
d="M59 215l19 80h80l-19 -80h-80z" />
    <glyph glyph-name="cedilla" unicode="&#xb8;" 
d="M298 -97q0 -41 -34 -59.5t-80 -18.5q-66 0 -109 39l21 30q38 -34 88 -34q57 0 57 35q0 28 -28.5 31t-56.5 -11l-16 11l66 85h36l-50 -59q43 13 74.5 0t31.5 -49z" />
    <glyph glyph-name="onesuperior" unicode="&#xb9;" horiz-adv-x="197" 
d="M91 536l9 36q40 0 63 13.5t42 45.5h37l-96 -387h-56l73 292h-72z" />
    <glyph glyph-name="ordmasculine" unicode="&#xba;" horiz-adv-x="389" 
d="M235 337q59 0 94.5 46.5t35.5 111.5q0 47 -24.5 74t-66.5 27q-59 0 -95 -46.5t-36 -111.5q0 -47 25 -74t67 -27zM234 291q-67 0 -109 39.5t-42 107.5q0 85 53.5 144.5t138.5 59.5q67 0 109 -40t42 -107q0 -85 -53.5 -144.5t-138.5 -59.5z" />
    <glyph glyph-name="guillemotright" unicode="&#xbb;" horiz-adv-x="384" 
d="M203 238l-11 -44l-171 -130l18 75l112 83l-71 85l17 61zM348 238l-11 -44l-171 -130l18 75l112 83l-71 85l17 61z" />
    <glyph glyph-name="onequarter" unicode="&#xbc;" horiz-adv-x="695" 
d="M617 630l-524 -630h-60l524 630h60zM101 538l9 36q40 0 63 13.5t42 45.5h37l-96 -387h-56l73 292h-72zM650 384l-59 -237h64l-11 -46h-65l-25 -101h-55l26 101h-201l13 55l243 228h70zM582 332l-197 -185h151z" />
    <glyph glyph-name="onehalf" unicode="&#xbd;" horiz-adv-x="721" 
d="M617 630l-524 -630h-60l524 630h60zM101 538l9 36q40 0 63 13.5t42 45.5h37l-96 -387h-56l73 292h-72zM461 48h194l-12 -48h-283l8 33l149 107q6 4 24.5 16.5t25.5 18t22 17t21.5 20t15 20.5t12 24t3.5 26q0 29 -18 46t-51 17q-44 0 -68 -31t-25 -86l-54 3q2 71 42 116
t108 45q60 0 91 -30t31 -76q0 -28 -9.5 -51.5t-32.5 -45.5t-40 -35t-53 -37z" />
    <glyph glyph-name="threequarters" unicode="&#xbe;" horiz-adv-x="820" 
d="M742 630l-524 -630h-60l524 630h60zM775 384l-59 -237h64l-11 -46h-65l-25 -101h-55l26 101h-201l13 55l243 228h70zM707 332l-197 -185h151zM291 362q0 54 -66 54q-17 0 -37 -2l11 45q18 -2 36 -2q36 0 64 19t28 57q0 26 -17.5 42t-50.5 16q-82 0 -103 -92l-54 2
q14 63 56.5 99t103.5 36q58 0 88.5 -27t30.5 -71q0 -43 -28 -69t-67 -33q61 -16 61 -75q0 -58 -42 -91t-105 -33q-74 0 -110 40.5t-23 102.5l52 -3q-9 -44 14.5 -69.5t66.5 -25.5q42 0 66.5 20t24.5 60z" />
    <glyph glyph-name="questiondown" unicode="&#xbf;" horiz-adv-x="478" 
d="M268 362h58q-12 -53 -42.5 -89.5t-91.5 -73.5q-70 -42 -89 -60q-41 -39 -41 -96q0 -52 33 -84t93 -32q80 0 126.5 57.5t48.5 147.5l63 -4q-5 -116 -70 -184t-168 -68q-92 0 -140.5 46t-48.5 121q0 72 43 117t122 87q86 46 104 115zM370 518l-19 -80h-80l19 80h80z" />
    <glyph glyph-name="Agrave" unicode="&#xc0;" horiz-adv-x="623" 
d="M378 630h68l109 -630h-63l-34 203h-298l-132 -203h-66zM394 562l-200 -306h255l-51 306h-4zM442 678h-39l-62 122h77z" />
    <glyph glyph-name="Aacute" unicode="&#xc1;" horiz-adv-x="623" 
d="M378 630h68l109 -630h-63l-34 203h-298l-132 -203h-66zM394 562l-200 -306h255l-51 306h-4zM438 678h-45l84 122h85z" />
    <glyph glyph-name="Acircumflex" unicode="&#xc2;" horiz-adv-x="623" 
d="M378 630h68l109 -630h-63l-34 203h-298l-132 -203h-66zM394 562l-200 -306h255l-51 306h-4zM411 800h80l49 -122h-44l-51 80l-89 -80h-54z" />
    <glyph glyph-name="Atilde" unicode="&#xc3;" horiz-adv-x="623" 
d="M378 630h68l109 -630h-63l-34 203h-298l-132 -203h-66zM394 562l-200 -306h255l-51 306h-4zM326 677h-47q28 113 109 113q28 0 58 -32.5t49 -32.5q21 0 32.5 14.5t21.5 47.5h47q-14 -53 -42 -83t-68 -30q-28 0 -58 32.5t-49 32.5q-21 0 -32 -14.5t-21 -47.5z" />
    <glyph glyph-name="Adieresis" unicode="&#xc4;" horiz-adv-x="623" 
d="M378 630h68l109 -630h-63l-34 203h-298l-132 -203h-66zM394 562l-200 -306h255l-51 306h-4zM331 684l20 81h65l-20 -81h-65zM455 684l20 81h65l-20 -81h-65z" />
    <glyph glyph-name="Aring" unicode="&#xc5;" horiz-adv-x="623" 
d="M378 630h68l109 -630h-63l-34 203h-298l-132 -203h-66zM394 562l-200 -306h255l-51 306h-4zM523 746q0 -37 -26 -62.5t-63 -25.5q-35 0 -56.5 21.5t-21.5 54.5q0 37 26 62.5t63 25.5q35 0 56.5 -21.5t21.5 -54.5zM485 746q0 18 -11 29t-30 11q-22 0 -36 -15t-14 -37
q0 -18 11 -29t30 -11q22 0 36 15t14 37z" />
    <glyph glyph-name="AE" unicode="&#xc6;" horiz-adv-x="976" 
d="M563 630h468l-14 -53h-366l-55 -224h293l-14 -53h-293l-61 -247h375l-13 -53h-436l50 203h-270l-194 -203h-71zM587 578l-309 -322h232l81 322h-4z" />
    <glyph glyph-name="Ccedilla" unicode="&#xc7;" horiz-adv-x="665" 
d="M369 -97q0 -41 -34 -59.5t-80 -18.5q-66 0 -109 39l21 30q38 -34 88 -34q57 0 57 35q0 28 -28 31t-57 -11l-16 11l52 68q-96 19 -152.5 91.5t-56.5 180.5q0 97 43.5 182.5t125 139.5t181.5 54q129 0 195.5 -73t58.5 -198l-60 -3q6 100 -45 160.5t-149 60.5
q-128 0 -206 -95.5t-78 -228.5q0 -103 57 -163.5t148 -60.5q104 0 173 61t87 160l60 -3q-26 -127 -109 -199t-211 -72q-12 0 -30 2l-32 -38q43 13 74.5 0t31.5 -49z" />
    <glyph glyph-name="Egrave" unicode="&#xc8;" horiz-adv-x="541" 
d="M461 53l-13 -53h-436l157 630h427l-14 -53h-366l-55 -224h293l-14 -53h-293l-61 -247h375zM413 678h-39l-62 122h77z" />
    <glyph glyph-name="Eacute" unicode="&#xc9;" horiz-adv-x="541" 
d="M461 53l-13 -53h-436l157 630h427l-14 -53h-366l-55 -224h293l-14 -53h-293l-61 -247h375zM408 678h-45l84 122h85z" />
    <glyph glyph-name="Ecircumflex" unicode="&#xca;" horiz-adv-x="541" 
d="M461 53l-13 -53h-436l157 630h427l-14 -53h-366l-55 -224h293l-14 -53h-293l-61 -247h375zM381 800h80l49 -122h-44l-51 80l-89 -80h-54z" />
    <glyph glyph-name="Edieresis" unicode="&#xcb;" horiz-adv-x="541" 
d="M461 53l-13 -53h-436l157 630h427l-14 -53h-366l-55 -224h293l-14 -53h-293l-61 -247h375zM302 684l20 81h65l-20 -81h-65zM426 684l20 81h65l-20 -81h-65z" />
    <glyph glyph-name="Igrave" unicode="&#xcc;" horiz-adv-x="193" 
d="M169 630h63l-157 -630h-63zM231 678h-39l-62 122h77z" />
    <glyph glyph-name="Iacute" unicode="&#xcd;" horiz-adv-x="193" 
d="M169 630h63l-157 -630h-63zM226 678h-45l84 122h85z" />
    <glyph glyph-name="Icircumflex" unicode="&#xce;" horiz-adv-x="193" 
d="M169 630h63l-157 -630h-63zM199 800h80l49 -122h-44l-51 80l-89 -80h-54z" />
    <glyph glyph-name="Idieresis" unicode="&#xcf;" horiz-adv-x="193" 
d="M169 630h63l-157 -630h-63zM120 684l20 81h65l-20 -81h-65zM244 684l20 81h65l-20 -81h-65z" />
    <glyph glyph-name="Eth" unicode="&#xd0;" horiz-adv-x="650" 
d="M26 300l13 53h71l69 277h187q131 0 204 -64.5t73 -178.5q0 -168 -106.5 -277.5t-284.5 -109.5h-230l75 300h-71zM98 53h162q149 0 233 93t84 240q0 191 -225 191h-124l-56 -224h188l-13 -53h-188z" />
    <glyph glyph-name="Ntilde" unicode="&#xd1;" horiz-adv-x="632" 
d="M239 630l240 -529l132 529h60l-157 -630h-49l-255 557l-138 -557h-60l157 630h70zM334 677h-47q28 113 109 113q28 0 58 -32.5t49 -32.5q21 0 32.5 14.5t21.5 47.5h47q-14 -53 -42 -83t-68 -30q-28 0 -58 32.5t-49 32.5q-21 0 -32 -14.5t-21 -47.5z" />
    <glyph glyph-name="Ograve" unicode="&#xd2;" horiz-adv-x="688" 
d="M400 642q127 0 204 -73t77 -199q0 -97 -41 -183.5t-122 -142.5t-183 -56q-127 0 -204 73t-77 199q0 97 41 183.5t122 142.5t183 56zM335 41q123 0 201.5 97t78.5 232q0 98 -57 158.5t-158 60.5q-123 0 -201.5 -97t-78.5 -232q0 -98 57 -158.5t158 -60.5zM463 678h-39
l-62 122h77z" />
    <glyph glyph-name="Oacute" unicode="&#xd3;" horiz-adv-x="688" 
d="M400 642q127 0 204 -73t77 -199q0 -97 -41 -183.5t-122 -142.5t-183 -56q-127 0 -204 73t-77 199q0 97 41 183.5t122 142.5t183 56zM335 41q123 0 201.5 97t78.5 232q0 98 -57 158.5t-158 60.5q-123 0 -201.5 -97t-78.5 -232q0 -98 57 -158.5t158 -60.5zM459 678h-45
l84 122h85z" />
    <glyph glyph-name="Ocircumflex" unicode="&#xd4;" horiz-adv-x="688" 
d="M400 642q127 0 204 -73t77 -199q0 -97 -41 -183.5t-122 -142.5t-183 -56q-127 0 -204 73t-77 199q0 97 41 183.5t122 142.5t183 56zM335 41q123 0 201.5 97t78.5 232q0 98 -57 158.5t-158 60.5q-123 0 -201.5 -97t-78.5 -232q0 -98 57 -158.5t158 -60.5zM432 800h80
l49 -122h-44l-51 80l-89 -80h-54z" />
    <glyph glyph-name="Otilde" unicode="&#xd5;" horiz-adv-x="688" 
d="M400 642q127 0 204 -73t77 -199q0 -97 -41 -183.5t-122 -142.5t-183 -56q-127 0 -204 73t-77 199q0 97 41 183.5t122 142.5t183 56zM335 41q123 0 201.5 97t78.5 232q0 98 -57 158.5t-158 60.5q-123 0 -201.5 -97t-78.5 -232q0 -98 57 -158.5t158 -60.5zM347 677h-47
q28 113 109 113q17 0 33 -10t25.5 -22.5t22.5 -22.5t26 -10q21 0 32.5 14.5t21.5 47.5h47q-14 -53 -42 -83t-68 -30q-17 0 -33 10t-25.5 22.5t-22.5 22.5t-26 10q-21 0 -32 -14.5t-21 -47.5z" />
    <glyph glyph-name="Odieresis" unicode="&#xd6;" horiz-adv-x="688" 
d="M400 642q127 0 204 -73t77 -199q0 -97 -41 -183.5t-122 -142.5t-183 -56q-127 0 -204 73t-77 199q0 97 41 183.5t122 142.5t183 56zM335 41q123 0 201.5 97t78.5 232q0 98 -57 158.5t-158 60.5q-123 0 -201.5 -97t-78.5 -232q0 -98 57 -158.5t158 -60.5zM352 684l20 81
h65l-20 -81h-65zM476 684l20 81h65l-20 -81h-65z" />
    <glyph glyph-name="multiply" unicode="&#xd7;" horiz-adv-x="528" 
d="M65 101l-28 36l215 172l-127 167l39 31l124 -169l217 175l29 -35l-221 -177l127 -168l-39 -31l-123 169z" />
    <glyph glyph-name="Oslash" unicode="&#xd8;" horiz-adv-x="688" 
d="M400 642q111 0 186 -58l57 63l38 -32l-59 -66q59 -72 59 -179q0 -97 -41 -183.5t-122 -142.5t-183 -56q-105 0 -175 49l-67 -74l-38 32l67 74q-68 74 -68 191q0 97 41 183.5t122 142.5t183 56zM120 260q0 -88 44 -144l382 423q-58 50 -146 50q-123 0 -201.5 -97
t-78.5 -232zM335 41q123 0 201.5 97t78.5 232q0 76 -36 132l-380 -421q54 -40 136 -40z" />
    <glyph glyph-name="Ugrave" unicode="&#xd9;" horiz-adv-x="604" 
d="M273 -12q-120 0 -179.5 70t-28.5 194l94 378h63l-96 -387q-23 -94 16 -148t131 -54q93 0 144 46.5t75 143.5l100 399h61l-100 -401q-32 -127 -100 -184t-180 -57zM438 678h-39l-62 122h77z" />
    <glyph glyph-name="Uacute" unicode="&#xda;" horiz-adv-x="604" 
d="M273 -12q-120 0 -179.5 70t-28.5 194l94 378h63l-96 -387q-23 -94 16 -148t131 -54q93 0 144 46.5t75 143.5l100 399h61l-100 -401q-32 -127 -100 -184t-180 -57zM434 678h-45l84 122h85z" />
    <glyph glyph-name="Ucircumflex" unicode="&#xdb;" horiz-adv-x="604" 
d="M273 -12q-120 0 -179.5 70t-28.5 194l94 378h63l-96 -387q-23 -94 16 -148t131 -54q93 0 144 46.5t75 143.5l100 399h61l-100 -401q-32 -127 -100 -184t-180 -57zM407 800h80l49 -122h-44l-51 80l-89 -80h-54z" />
    <glyph glyph-name="Udieresis" unicode="&#xdc;" horiz-adv-x="604" 
d="M273 -12q-120 0 -179.5 70t-28.5 194l94 378h63l-96 -387q-23 -94 16 -148t131 -54q93 0 144 46.5t75 143.5l100 399h61l-100 -401q-32 -127 -100 -184t-180 -57zM327 684l20 81h65l-20 -81h-65zM451 684l20 81h65l-20 -81h-65z" />
    <glyph glyph-name="Yacute" unicode="&#xdd;" horiz-adv-x="584" 
d="M313 304l288 326h72l-342 -381l-62 -249h-60l62 249l-152 381h63zM421 678h-45l84 122h85z" />
    <glyph glyph-name="Thorn" unicode="&#xde;" horiz-adv-x="541" 
d="M120 187h147q217 0 217 167q0 111 -148 111h-147zM107 134l-33 -134h-62l157 630h62l-28 -112h142q200 0 200 -162q0 -111 -78 -166.5t-215 -55.5h-145z" />
    <glyph glyph-name="germandbls" unicode="&#xdf;" horiz-adv-x="476" 
d="M476 510q0 -63 -42.5 -108.5t-103.5 -53.5q48 -10 79 -44t31 -95q0 -92 -61.5 -152.5t-149.5 -60.5q-55 0 -89 12l12 48q33 -12 72 -12q72 0 113.5 48t41.5 117q0 56 -32.5 86.5t-86.5 30.5q-23 0 -40 -1l12 51q13 -2 40 -2q62 0 102.5 34.5t40.5 100.5q0 40 -21.5 63
t-64.5 23q-113 0 -147 -137l-114 -458h-61l115 463q20 83 74 131t134 48q69 0 107.5 -35t38.5 -97z" />
    <glyph glyph-name="agrave" unicode="&#xe0;" horiz-adv-x="470" 
d="M329 194l6 26l-129 -17q-65 -9 -98.5 -31t-33.5 -69q0 -32 21 -50t56 -18q65 0 112 43t66 116zM406 270l-47 -188q-11 -43 25 -43q18 0 41 9l-8 -37q-25 -20 -59 -20t-48.5 25.5t-7.5 68.5q-21 -44 -66 -70.5t-98 -26.5q-57 0 -90.5 30t-33.5 79q0 126 184 149l149 20
l4 17q12 53 -9 83.5t-75 30.5q-100 0 -141 -90l-51 12q25 59 79 93t122 34q83 0 116.5 -48t13.5 -128zM331 508h-38l-64 122h79z" />
    <glyph glyph-name="aacute" unicode="&#xe1;" horiz-adv-x="470" 
d="M329 194l6 26l-129 -17q-65 -9 -98.5 -31t-33.5 -69q0 -32 21 -50t56 -18q65 0 112 43t66 116zM406 270l-47 -188q-11 -43 25 -43q18 0 41 9l-8 -37q-25 -20 -59 -20t-48.5 25.5t-7.5 68.5q-21 -44 -66 -70.5t-98 -26.5q-57 0 -90.5 30t-33.5 79q0 126 184 149l149 20
l4 17q12 53 -9 83.5t-75 30.5q-100 0 -141 -90l-51 12q25 59 79 93t122 34q83 0 116.5 -48t13.5 -128zM322 508h-44l85 122h85z" />
    <glyph glyph-name="acircumflex" unicode="&#xe2;" horiz-adv-x="470" 
d="M329 194l6 26l-129 -17q-65 -9 -98.5 -31t-33.5 -69q0 -32 21 -50t56 -18q65 0 112 43t66 116zM406 270l-47 -188q-11 -43 25 -43q18 0 41 9l-8 -37q-25 -20 -59 -20t-48.5 25.5t-7.5 68.5q-21 -44 -66 -70.5t-98 -26.5q-57 0 -90.5 30t-33.5 79q0 126 184 149l149 20
l4 17q12 53 -9 83.5t-75 30.5q-100 0 -141 -90l-51 12q25 59 79 93t122 34q83 0 116.5 -48t13.5 -128zM293 630h80l48 -122h-45l-50 80l-90 -80h-53z" />
    <glyph glyph-name="atilde" unicode="&#xe3;" horiz-adv-x="470" 
d="M329 194l6 26l-129 -17q-65 -9 -98.5 -31t-33.5 -69q0 -32 21 -50t56 -18q65 0 112 43t66 116zM406 270l-47 -188q-11 -43 25 -43q18 0 41 9l-8 -37q-25 -20 -59 -20t-48.5 25.5t-7.5 68.5q-21 -44 -66 -70.5t-98 -26.5q-57 0 -90.5 30t-33.5 79q0 126 184 149l149 20
l4 17q12 53 -9 83.5t-75 30.5q-100 0 -141 -90l-51 12q25 59 79 93t122 34q83 0 116.5 -48t13.5 -128zM206 515h-47q28 113 109 113q28 0 58 -32.5t49 -32.5q21 0 32.5 14.5t21.5 47.5h47q-14 -53 -42 -83t-68 -30q-28 0 -58 32.5t-49 32.5q-21 0 -32 -14.5t-21 -47.5z" />
    <glyph glyph-name="adieresis" unicode="&#xe4;" horiz-adv-x="470" 
d="M329 194l6 26l-129 -17q-65 -9 -98.5 -31t-33.5 -69q0 -32 21 -50t56 -18q65 0 112 43t66 116zM406 270l-47 -188q-11 -43 25 -43q18 0 41 9l-8 -37q-25 -20 -59 -20t-48.5 25.5t-7.5 68.5q-21 -44 -66 -70.5t-98 -26.5q-57 0 -90.5 30t-33.5 79q0 126 184 149l149 20
l4 17q12 53 -9 83.5t-75 30.5q-100 0 -141 -90l-51 12q25 59 79 93t122 34q83 0 116.5 -48t13.5 -128zM215 539l20 81h65l-20 -81h-65zM339 539l20 81h65l-20 -81h-65z" />
    <glyph glyph-name="aring" unicode="&#xe5;" horiz-adv-x="470" 
d="M329 194l6 26l-129 -17q-65 -9 -98.5 -31t-33.5 -69q0 -32 21 -50t56 -18q65 0 112 43t66 116zM406 270l-47 -188q-11 -43 25 -43q18 0 41 9l-8 -37q-25 -20 -59 -20t-48.5 25.5t-7.5 68.5q-21 -44 -66 -70.5t-98 -26.5q-57 0 -90.5 30t-33.5 79q0 126 184 149l149 20
l4 17q12 53 -9 83.5t-75 30.5q-100 0 -141 -90l-51 12q25 59 79 93t122 34q83 0 116.5 -48t13.5 -128zM406 576q0 -37 -26 -62.5t-63 -25.5q-35 0 -56.5 21.5t-21.5 54.5q0 37 26 62.5t63 25.5q35 0 56.5 -21.5t21.5 -54.5zM368 576q0 18 -11 29t-30 11q-22 0 -36 -15
t-14 -37q0 -18 11 -29t30 -11q22 0 36 15t14 37z" />
    <glyph glyph-name="ae" unicode="&#xe6;" horiz-adv-x="775" 
d="M329 194l2 8h-104q-73 0 -113 -25t-40 -74q0 -32 21 -50t56 -18q65 0 112.5 43t65.5 116zM339 108q-23 -50 -74.5 -85t-122.5 -35q-58 0 -93 30t-35 79q0 71 54.5 109.5t148.5 38.5h126l8 38q12 53 -9 83.5t-75 30.5q-100 0 -141 -90l-51 12q25 59 79 93t122 34
q98 0 127 -83q72 83 176 83q93 0 132.5 -54.5t39.5 -135.5q0 -24 -6 -54h-358q-10 -79 26.5 -121.5t107.5 -42.5q120 0 164 117l51 -8q-26 -75 -84.5 -117t-137.5 -42q-67 0 -112 32t-63 88zM397 245h292q8 67 -21.5 109.5t-95.5 42.5q-63 0 -110 -43t-65 -109z" />
    <glyph glyph-name="ccedilla" unicode="&#xe7;" horiz-adv-x="481" 
d="M284 -97q0 -41 -34 -59.5t-80 -18.5q-66 0 -109 39l21 30q38 -34 88 -34q57 0 57 35q0 28 -28.5 31t-56.5 -11l-16 11l50 65q-71 10 -109.5 57t-38.5 121q0 114 72.5 195.5t187.5 81.5q91 0 133.5 -53.5t33.5 -136.5l-54 -4q7 65 -23.5 104.5t-97.5 39.5
q-81 0 -135.5 -64.5t-54.5 -162.5q0 -59 34 -95t94 -36q66 0 111 40.5t61 105.5l55 -6q-21 -83 -82 -136.5t-152 -53.5h-3l-30 -36q43 13 74.5 0t31.5 -49z" />
    <glyph glyph-name="egrave" unicode="&#xe8;" horiz-adv-x="479" 
d="M389 155l51 -8q-26 -75 -84.5 -117t-137.5 -42q-88 0 -139 49t-51 136q0 109 74 191t181 82q93 0 132.5 -54.5t39.5 -135.5q0 -24 -6 -54h-358q-10 -79 26.5 -121.5t107.5 -42.5q120 0 164 117zM101 245h292q8 67 -21.5 109.5t-95.5 42.5q-63 0 -110 -43t-65 -109z
M342 508h-38l-64 122h79z" />
    <glyph glyph-name="eacute" unicode="&#xe9;" horiz-adv-x="479" 
d="M389 155l51 -8q-26 -75 -84.5 -117t-137.5 -42q-88 0 -139 49t-51 136q0 109 74 191t181 82q93 0 132.5 -54.5t39.5 -135.5q0 -24 -6 -54h-358q-10 -79 26.5 -121.5t107.5 -42.5q120 0 164 117zM101 245h292q8 67 -21.5 109.5t-95.5 42.5q-63 0 -110 -43t-65 -109z
M333 508h-44l85 122h85z" />
    <glyph glyph-name="ecircumflex" unicode="&#xea;" horiz-adv-x="479" 
d="M389 155l51 -8q-26 -75 -84.5 -117t-137.5 -42q-88 0 -139 49t-51 136q0 109 74 191t181 82q93 0 132.5 -54.5t39.5 -135.5q0 -24 -6 -54h-358q-10 -79 26.5 -121.5t107.5 -42.5q120 0 164 117zM101 245h292q8 67 -21.5 109.5t-95.5 42.5q-63 0 -110 -43t-65 -109z
M304 630h80l48 -122h-45l-50 80l-90 -80h-53z" />
    <glyph glyph-name="edieresis" unicode="&#xeb;" horiz-adv-x="479" 
d="M389 155l51 -8q-26 -75 -84.5 -117t-137.5 -42q-88 0 -139 49t-51 136q0 109 74 191t181 82q93 0 132.5 -54.5t39.5 -135.5q0 -24 -6 -54h-358q-10 -79 26.5 -121.5t107.5 -42.5q120 0 164 117zM101 245h292q8 67 -21.5 109.5t-95.5 42.5q-63 0 -110 -43t-65 -109z
M226 539l20 81h65l-20 -81h-65zM350 539l20 81h65l-20 -81h-65z" />
    <glyph glyph-name="igrave" unicode="&#xec;" horiz-adv-x="181" 
d="M115 434h61l-108 -434h-61zM188 508h-38l-64 122h79z" />
    <glyph glyph-name="iacute" unicode="&#xed;" horiz-adv-x="181" 
d="M115 434h61l-108 -434h-61zM179 508h-44l85 122h85z" />
    <glyph glyph-name="icircumflex" unicode="&#xee;" horiz-adv-x="181" 
d="M115 434h61l-108 -434h-61zM154 630h80l48 -122h-45l-50 80l-90 -80h-53z" />
    <glyph glyph-name="idieresis" unicode="&#xef;" horiz-adv-x="181" 
d="M115 434h61l-108 -434h-61zM77 539l20 81h65l-20 -81h-65zM201 539l20 81h65l-20 -81h-65z" />
    <glyph glyph-name="eth" unicode="&#xf0;" horiz-adv-x="497" 
d="M187 469l-20 38l107 42q-40 31 -88 57l30 37q63 -34 110 -74l76 30l21 -37l-63 -25q109 -112 109 -269q0 -119 -69.5 -199.5t-178.5 -80.5q-86 0 -139.5 50.5t-53.5 137.5q0 107 68 184.5t169 77.5q99 0 146 -81q-28 88 -101 160zM221 36q84 0 135 63t51 153
q0 65 -36 101.5t-95 36.5q-84 0 -134.5 -62t-50.5 -152q0 -66 35.5 -103t94.5 -37z" />
    <glyph glyph-name="ntilde" unicode="&#xf1;" horiz-adv-x="481" 
d="M130 250l-62 -250h-61l108 434h61l-21 -83q62 95 163 95q79 0 110.5 -48.5t11.5 -128.5l-67 -269h-61l67 271q15 59 -5.5 93t-76.5 34q-54 0 -102 -40t-65 -108zM215 515h-47q28 113 109 113q17 0 33 -10t25.5 -22.5t22.5 -22.5t26 -10q21 0 32.5 14.5t21.5 47.5h47
q-14 -53 -42 -83t-68 -30q-17 0 -33 10t-25.5 22.5t-22.5 22.5t-26 10q-21 0 -32 -14.5t-21 -47.5z" />
    <glyph glyph-name="ograve" unicode="&#xf2;" horiz-adv-x="497" 
d="M221 36q83 0 134 65t51 156q0 66 -35.5 103.5t-94.5 37.5q-83 0 -134 -65t-51 -156q0 -66 35.5 -103.5t94.5 -37.5zM221 -12q-86 0 -139.5 50.5t-53.5 138.5q0 110 70 189.5t178 79.5q86 0 139.5 -50.5t53.5 -138.5q0 -110 -70 -189.5t-178 -79.5zM348 508h-38l-64 122
h79z" />
    <glyph glyph-name="oacute" unicode="&#xf3;" horiz-adv-x="497" 
d="M221 36q83 0 134 65t51 156q0 66 -35.5 103.5t-94.5 37.5q-83 0 -134 -65t-51 -156q0 -66 35.5 -103.5t94.5 -37.5zM221 -12q-86 0 -139.5 50.5t-53.5 138.5q0 110 70 189.5t178 79.5q86 0 139.5 -50.5t53.5 -138.5q0 -110 -70 -189.5t-178 -79.5zM338 508h-44l85 122h85
z" />
    <glyph glyph-name="ocircumflex" unicode="&#xf4;" horiz-adv-x="497" 
d="M221 36q83 0 134 65t51 156q0 66 -35.5 103.5t-94.5 37.5q-83 0 -134 -65t-51 -156q0 -66 35.5 -103.5t94.5 -37.5zM221 -12q-86 0 -139.5 50.5t-53.5 138.5q0 110 70 189.5t178 79.5q86 0 139.5 -50.5t53.5 -138.5q0 -110 -70 -189.5t-178 -79.5zM307 630h80l48 -122
h-45l-50 80l-90 -80h-53z" />
    <glyph glyph-name="otilde" unicode="&#xf5;" horiz-adv-x="497" 
d="M221 36q83 0 134 65t51 156q0 66 -35.5 103.5t-94.5 37.5q-83 0 -134 -65t-51 -156q0 -66 35.5 -103.5t94.5 -37.5zM221 -12q-86 0 -139.5 50.5t-53.5 138.5q0 110 70 189.5t178 79.5q86 0 139.5 -50.5t53.5 -138.5q0 -110 -70 -189.5t-178 -79.5zM221 515h-47
q28 113 109 113q17 0 33 -10t25.5 -22.5t22.5 -22.5t26 -10q21 0 32.5 14.5t21.5 47.5h47q-14 -53 -42 -83t-68 -30q-17 0 -33 10t-25.5 22.5t-22.5 22.5t-26 10q-21 0 -32 -14.5t-21 -47.5z" />
    <glyph glyph-name="odieresis" unicode="&#xf6;" horiz-adv-x="497" 
d="M221 36q83 0 134 65t51 156q0 66 -35.5 103.5t-94.5 37.5q-83 0 -134 -65t-51 -156q0 -66 35.5 -103.5t94.5 -37.5zM221 -12q-86 0 -139.5 50.5t-53.5 138.5q0 110 70 189.5t178 79.5q86 0 139.5 -50.5t53.5 -138.5q0 -110 -70 -189.5t-178 -79.5zM233 539l20 81h65
l-20 -81h-65zM357 539l20 81h65l-20 -81h-65z" />
    <glyph glyph-name="divide" unicode="&#xf7;" horiz-adv-x="620" 
d="M68 286l13 52h506l-12 -52h-507zM327 477l22 84h84l-22 -84h-84zM224 63l21 84h84l-21 -84h-84z" />
    <glyph glyph-name="oslash" unicode="&#xf8;" horiz-adv-x="497" 
d="M32 -14l46 56q-50 50 -50 135q0 110 70 189.5t178 79.5q62 0 109 -28l47 58l34 -28l-46 -57q49 -51 49 -134q0 -110 -70 -189.5t-178 -79.5q-60 0 -109 27l-46 -57zM91 177q0 -55 24 -90l236 290q-30 21 -75 21q-83 0 -134 -65t-51 -156zM221 36q83 0 134 65t51 156
q0 51 -24 88l-236 -289q32 -20 75 -20z" />
    <glyph glyph-name="ugrave" unicode="&#xf9;" horiz-adv-x="477" 
d="M344 184l62 250h61l-108 -434h-61l21 83q-62 -95 -163 -95q-77 0 -107 48.5t-10 128.5l67 269h61l-67 -271q-31 -127 77 -127q54 0 102 40t65 108zM334 508h-38l-64 122h79z" />
    <glyph glyph-name="uacute" unicode="&#xfa;" horiz-adv-x="477" 
d="M344 184l62 250h61l-108 -434h-61l21 83q-62 -95 -163 -95q-77 0 -107 48.5t-10 128.5l67 269h61l-67 -271q-31 -127 77 -127q54 0 102 40t65 108zM325 508h-44l85 122h85z" />
    <glyph glyph-name="ucircumflex" unicode="&#xfb;" horiz-adv-x="477" 
d="M344 184l62 250h61l-108 -434h-61l21 83q-62 -95 -163 -95q-77 0 -107 48.5t-10 128.5l67 269h61l-67 -271q-31 -127 77 -127q54 0 102 40t65 108zM300 630h80l48 -122h-45l-50 80l-90 -80h-53z" />
    <glyph glyph-name="udieresis" unicode="&#xfc;" horiz-adv-x="477" 
d="M344 184l62 250h61l-108 -434h-61l21 83q-62 -95 -163 -95q-77 0 -107 48.5t-10 128.5l67 269h61l-67 -271q-31 -127 77 -127q54 0 102 40t65 108zM223 539l20 81h65l-20 -81h-65zM347 539l20 81h65l-20 -81h-65z" />
    <glyph glyph-name="yacute" unicode="&#xfd;" horiz-adv-x="440" 
d="M85 -170h-65l120 177l-75 427h61l59 -359h4l234 359h63zM310 508h-44l85 122h85z" />
    <glyph glyph-name="thorn" unicode="&#xfe;" horiz-adv-x="521" 
d="M128 249l-11 -44q-19 -74 15 -121.5t104 -47.5q87 0 140 71.5t53 166.5q0 59 -31.5 91t-90.5 32q-58 0 -110 -40.5t-69 -107.5zM91 93l-66 -263h-61l200 800h61l-70 -279q25 42 71.5 68.5t102.5 26.5q78 0 121 -47t43 -125q0 -68 -28.5 -132.5t-88.5 -109t-137 -44.5
q-57 0 -96.5 29.5t-51.5 75.5z" />
    <glyph glyph-name="ydieresis" unicode="&#xff;" horiz-adv-x="440" 
d="M85 -170h-65l120 177l-75 427h61l59 -359h4l234 359h63zM208 539l20 81h65l-20 -81h-65zM332 539l20 81h65l-20 -81h-65z" />
    <glyph glyph-name="Amacron" unicode="&#x100;" horiz-adv-x="623" 
d="M378 630h68l109 -630h-63l-34 203h-298l-132 -203h-66zM394 562l-200 -306h255l-51 306h-4zM300 686l13 51h251l-13 -51h-251z" />
    <glyph glyph-name="amacron" unicode="&#x101;" horiz-adv-x="470" 
d="M329 194l6 26l-129 -17q-65 -9 -98.5 -31t-33.5 -69q0 -32 21 -50t56 -18q65 0 112 43t66 116zM406 270l-47 -188q-11 -43 25 -43q18 0 41 9l-8 -37q-25 -20 -59 -20t-48.5 25.5t-7.5 68.5q-21 -44 -66 -70.5t-98 -26.5q-57 0 -90.5 30t-33.5 79q0 126 184 149l149 20
l4 17q12 53 -9 83.5t-75 30.5q-100 0 -141 -90l-51 12q25 59 79 93t122 34q83 0 116.5 -48t13.5 -128zM181 522l12 51h251l-12 -51h-251z" />
    <glyph glyph-name="Abreve" unicode="&#x102;" horiz-adv-x="623" 
d="M378 630h68l109 -630h-63l-34 203h-298l-132 -203h-66zM394 562l-200 -306h255l-51 306h-4zM421 675q-39 0 -62.5 19.5t-23.5 56.5q0 22 7 49h47q-5 -22 -5 -35q0 -42 45 -42q60 0 80 77h51q-32 -125 -139 -125z" />
    <glyph glyph-name="abreve" unicode="&#x103;" horiz-adv-x="470" 
d="M329 194l6 26l-129 -17q-65 -9 -98.5 -31t-33.5 -69q0 -32 21 -50t56 -18q65 0 112 43t66 116zM406 270l-47 -188q-11 -43 25 -43q18 0 41 9l-8 -37q-25 -20 -59 -20t-48.5 25.5t-7.5 68.5q-21 -44 -66 -70.5t-98 -26.5q-57 0 -90.5 30t-33.5 79q0 126 184 149l149 20
l4 17q12 53 -9 83.5t-75 30.5q-100 0 -141 -90l-51 12q25 59 79 93t122 34q83 0 116.5 -48t13.5 -128zM303 505q-39 0 -62.5 19.5t-23.5 56.5q0 22 7 49h47q-5 -22 -5 -35q0 -42 45 -42q60 0 80 77h51q-32 -125 -139 -125z" />
    <glyph glyph-name="Aogonek" unicode="&#x104;" horiz-adv-x="623" 
d="M378 630h68l109 -630q-63 -34 -90 -58.5t-27 -48.5q0 -25 34 -25q22 0 58 17l-10 -38q-36 -22 -72 -22q-30 0 -46.5 14t-16.5 40q0 19 8.5 36t28 34t31.5 25.5t39 25.5v1l-34 202h-298l-132 -203h-66zM394 562l-200 -306h255l-51 306h-4z" />
    <glyph glyph-name="aogonek" unicode="&#x105;" horiz-adv-x="470" 
d="M406 270l-47 -188q-11 -43 25 -43q18 0 41 9l-8 -37q-49 -24 -88 -57t-39 -61q0 -25 34 -25q22 0 58 17l-10 -38q-36 -22 -72 -22q-30 0 -46.5 14t-16.5 40q0 24 16.5 47t34 37t47.5 34q-46 16 -33 88q-21 -44 -66 -70.5t-98 -26.5q-57 0 -90.5 30t-33.5 79
q0 126 184 149l149 20l4 17q12 53 -9 83.5t-75 30.5q-100 0 -141 -90l-51 12q25 59 79 93t122 34q83 0 116.5 -48t13.5 -128zM329 194l6 26l-129 -17q-65 -9 -98.5 -31t-33.5 -69q0 -32 21 -50t56 -18q65 0 112 43t66 116z" />
    <glyph glyph-name="Cacute" unicode="&#x106;" horiz-adv-x="665" 
d="M54 266q0 97 43.5 182.5t125 139.5t181.5 54q129 0 195.5 -73t58.5 -198l-60 -3q6 100 -45 160.5t-149 60.5q-128 0 -206 -95.5t-78 -228.5q0 -103 57 -163.5t148 -60.5q104 0 173 61t87 160l60 -3q-26 -127 -109 -199t-211 -72q-121 0 -196 76.5t-75 201.5zM460 678h-45
l84 122h85z" />
    <glyph glyph-name="cacute" unicode="&#x107;" horiz-adv-x="481" 
d="M28 169q0 114 72.5 195.5t187.5 81.5q91 0 133.5 -53.5t33.5 -136.5l-54 -4q7 65 -23.5 104.5t-97.5 39.5q-81 0 -135.5 -64.5t-54.5 -162.5q0 -59 34 -95t94 -36q66 0 111 40.5t61 105.5l55 -6q-21 -83 -82 -136.5t-152 -53.5q-86 0 -134.5 49.5t-48.5 131.5zM335 508
h-44l85 122h85z" />
    <glyph glyph-name="Ccircumflex" unicode="&#x108;" horiz-adv-x="665" 
d="M54 266q0 97 43.5 182.5t125 139.5t181.5 54q129 0 195.5 -73t58.5 -198l-60 -3q6 100 -45 160.5t-149 60.5q-128 0 -206 -95.5t-78 -228.5q0 -103 57 -163.5t148 -60.5q104 0 173 61t87 160l60 -3q-26 -127 -109 -199t-211 -72q-121 0 -196 76.5t-75 201.5zM433 800h80
l49 -122h-44l-51 80l-89 -80h-54z" />
    <glyph glyph-name="ccircumflex" unicode="&#x109;" horiz-adv-x="481" 
d="M28 169q0 114 72.5 195.5t187.5 81.5q91 0 133.5 -53.5t33.5 -136.5l-54 -4q7 65 -23.5 104.5t-97.5 39.5q-81 0 -135.5 -64.5t-54.5 -162.5q0 -59 34 -95t94 -36q66 0 111 40.5t61 105.5l55 -6q-21 -83 -82 -136.5t-152 -53.5q-86 0 -134.5 49.5t-48.5 131.5zM307 630
h80l48 -122h-45l-50 80l-90 -80h-53z" />
    <glyph glyph-name="Cdotaccent" unicode="&#x10a;" horiz-adv-x="665" 
d="M54 266q0 97 43.5 182.5t125 139.5t181.5 54q129 0 195.5 -73t58.5 -198l-60 -3q6 100 -45 160.5t-149 60.5q-128 0 -206 -95.5t-78 -228.5q0 -103 57 -163.5t148 -60.5q104 0 173 61t87 160l60 -3q-26 -127 -109 -199t-211 -72q-121 0 -196 76.5t-75 201.5zM416 684
l20 81h65l-20 -81h-65z" />
    <glyph glyph-name="cdotaccent" unicode="&#x10b;" horiz-adv-x="481" 
d="M28 169q0 114 72.5 195.5t187.5 81.5q91 0 133.5 -53.5t33.5 -136.5l-54 -4q7 65 -23.5 104.5t-97.5 39.5q-81 0 -135.5 -64.5t-54.5 -162.5q0 -59 34 -95t94 -36q66 0 111 40.5t61 105.5l55 -6q-21 -83 -82 -136.5t-152 -53.5q-86 0 -134.5 49.5t-48.5 131.5zM296 549
l21 81h65l-21 -81h-65z" />
    <glyph glyph-name="Ccaron" unicode="&#x10c;" horiz-adv-x="665" 
d="M54 266q0 97 43.5 182.5t125 139.5t181.5 54q129 0 195.5 -73t58.5 -198l-60 -3q6 100 -45 160.5t-149 60.5q-128 0 -206 -95.5t-78 -228.5q0 -103 57 -163.5t148 -60.5q104 0 173 61t87 160l60 -3q-26 -127 -109 -199t-211 -72q-121 0 -196 76.5t-75 201.5zM491 678h-80
l-49 122h44l51 -80l89 80h54z" />
    <glyph glyph-name="ccaron" unicode="&#x10d;" horiz-adv-x="481" 
d="M28 169q0 114 72.5 195.5t187.5 81.5q91 0 133.5 -53.5t33.5 -136.5l-54 -4q7 65 -23.5 104.5t-97.5 39.5q-81 0 -135.5 -64.5t-54.5 -162.5q0 -59 34 -95t94 -36q66 0 111 40.5t61 105.5l55 -6q-21 -83 -82 -136.5t-152 -53.5q-86 0 -134.5 49.5t-48.5 131.5zM361 508
h-80l-48 122h45l50 -80l90 80h53z" />
    <glyph glyph-name="Dcaron" unicode="&#x10e;" horiz-adv-x="640" 
d="M88 53h162q149 0 233 93t84 240q0 191 -225 191h-124zM12 0l157 630h187q131 0 204 -64.5t73 -178.5q0 -168 -106.5 -277.5t-284.5 -109.5h-230zM438 678h-80l-49 122h44l51 -80l89 80h54z" />
    <glyph glyph-name="dcaron" unicode="&#x10f;" horiz-adv-x="519" 
d="M393 185l11 44q19 74 -15 121.5t-104 47.5q-87 0 -140 -71.5t-53 -166.5q0 -59 31.5 -91t90.5 -32q58 0 110 40.5t69 107.5zM430 341l72 289h61l-157 -630h-61l21 83q-25 -42 -71.5 -68.5t-102.5 -26.5q-78 0 -121 47t-43 125q0 68 28.5 132.5t88.5 109t137 44.5
q57 0 96.5 -29.5t51.5 -75.5zM612 503h-32l48 127h75z" />
    <glyph glyph-name="Dcroat" unicode="&#x110;" horiz-adv-x="650" 
d="M26 300l13 53h71l69 277h187q131 0 204 -64.5t73 -178.5q0 -168 -106.5 -277.5t-284.5 -109.5h-230l75 300h-71zM98 53h162q149 0 233 93t84 240q0 191 -225 191h-124l-56 -224h188l-13 -53h-188z" />
    <glyph glyph-name="dcroat" unicode="&#x111;" horiz-adv-x="519" 
d="M326 500l11 44h143l22 86h61l-22 -86h66l-11 -44h-66l-124 -500h-61l21 83q-25 -42 -71.5 -68.5t-102.5 -26.5q-78 0 -121 47t-43 125q0 68 28.5 132.5t88.5 109t137 44.5q57 0 96.5 -29.5t51.5 -75.5l39 159h-143zM393 185l11 44q19 74 -15 121.5t-104 47.5
q-87 0 -140 -71.5t-53 -166.5q0 -59 31.5 -91t90.5 -32q58 0 110 40.5t69 107.5z" />
    <glyph glyph-name="Emacron" unicode="&#x112;" horiz-adv-x="541" 
d="M461 53l-13 -53h-436l157 630h427l-14 -53h-366l-55 -224h293l-14 -53h-293l-61 -247h375zM270 686l13 51h251l-13 -51h-251z" />
    <glyph glyph-name="emacron" unicode="&#x113;" horiz-adv-x="479" 
d="M389 155l51 -8q-26 -75 -84.5 -117t-137.5 -42q-88 0 -139 49t-51 136q0 109 74 191t181 82q93 0 132.5 -54.5t39.5 -135.5q0 -24 -6 -54h-358q-10 -79 26.5 -121.5t107.5 -42.5q120 0 164 117zM101 245h292q8 67 -21.5 109.5t-95.5 42.5q-63 0 -110 -43t-65 -109z
M192 522l12 51h251l-12 -51h-251z" />
    <glyph glyph-name="Ebreve" unicode="&#x114;" horiz-adv-x="541" 
d="M461 53l-13 -53h-436l157 630h427l-14 -53h-366l-55 -224h293l-14 -53h-293l-61 -247h375zM391 675q-39 0 -62.5 19.5t-23.5 56.5q0 22 7 49h47q-5 -22 -5 -35q0 -42 45 -42q60 0 80 77h51q-32 -125 -139 -125z" />
    <glyph glyph-name="ebreve" unicode="&#x115;" horiz-adv-x="479" 
d="M389 155l51 -8q-26 -75 -84.5 -117t-137.5 -42q-88 0 -139 49t-51 136q0 109 74 191t181 82q93 0 132.5 -54.5t39.5 -135.5q0 -24 -6 -54h-358q-10 -79 26.5 -121.5t107.5 -42.5q120 0 164 117zM101 245h292q8 67 -21.5 109.5t-95.5 42.5q-63 0 -110 -43t-65 -109z
M318 505q-39 0 -62.5 19.5t-23.5 56.5q0 22 7 49h47q-5 -22 -5 -35q0 -42 45 -42q60 0 80 77h51q-32 -125 -139 -125z" />
    <glyph glyph-name="Edotaccent" unicode="&#x116;" horiz-adv-x="541" 
d="M461 53l-13 -53h-436l157 630h427l-14 -53h-366l-55 -224h293l-14 -53h-293l-61 -247h375zM364 684l20 81h65l-20 -81h-65z" />
    <glyph glyph-name="edotaccent" unicode="&#x117;" horiz-adv-x="479" 
d="M389 155l51 -8q-26 -75 -84.5 -117t-137.5 -42q-88 0 -139 49t-51 136q0 109 74 191t181 82q93 0 132.5 -54.5t39.5 -135.5q0 -24 -6 -54h-358q-10 -79 26.5 -121.5t107.5 -42.5q120 0 164 117zM101 245h292q8 67 -21.5 109.5t-95.5 42.5q-63 0 -110 -43t-65 -109z
M295 549l21 81h65l-21 -81h-65z" />
    <glyph glyph-name="Eogonek" unicode="&#x118;" horiz-adv-x="541" 
d="M461 53l-13 -53h-57q-51 -38 -73 -61t-22 -46q0 -25 34 -25q22 0 58 17l-10 -38q-36 -22 -72 -22q-30 0 -46.5 14t-16.5 40q0 19 8.5 36t28 34t31.5 25.5t39 25.5h-338l157 630h427l-14 -53h-366l-55 -224h293l-14 -53h-293l-61 -247h375z" />
    <glyph glyph-name="eogonek" unicode="&#x119;" horiz-adv-x="479" 
d="M389 155l51 -8q-30 -87 -116 -138q-111 -66 -111 -116q0 -25 34 -25q22 0 58 17l-10 -38q-36 -22 -72 -22q-30 0 -46.5 14t-16.5 40q0 33 23.5 58t65.5 53q-11 -2 -31 -2q-88 0 -139 49t-51 136q0 109 74 191t181 82q93 0 132.5 -54.5t39.5 -135.5q0 -24 -6 -54h-358
q-10 -79 26.5 -121.5t107.5 -42.5q120 0 164 117zM101 245h292q8 67 -21.5 109.5t-95.5 42.5q-63 0 -110 -43t-65 -109z" />
    <glyph glyph-name="Ecaron" unicode="&#x11a;" horiz-adv-x="541" 
d="M461 53l-13 -53h-436l157 630h427l-14 -53h-366l-55 -224h293l-14 -53h-293l-61 -247h375zM439 678h-80l-49 122h44l51 -80l89 80h54z" />
    <glyph glyph-name="ecaron" unicode="&#x11b;" horiz-adv-x="479" 
d="M389 155l51 -8q-26 -75 -84.5 -117t-137.5 -42q-88 0 -139 49t-51 136q0 109 74 191t181 82q93 0 132.5 -54.5t39.5 -135.5q0 -24 -6 -54h-358q-10 -79 26.5 -121.5t107.5 -42.5q120 0 164 117zM101 245h292q8 67 -21.5 109.5t-95.5 42.5q-63 0 -110 -43t-65 -109z
M359 508h-80l-48 122h45l50 -80l90 80h53z" />
    <glyph glyph-name="Gcircumflex" unicode="&#x11c;" horiz-adv-x="685" 
d="M657 378l-61 -4q4 95 -46 155t-146 60q-128 0 -206 -95.5t-78 -228.5q0 -104 57 -164t150 -60t158.5 58t94.5 154h-206l13 53h262l-76 -306h-59l29 119q-28 -61 -86.5 -96t-139.5 -35q-117 0 -190 76.5t-73 201.5q0 97 43.5 182.5t125 139.5t181.5 54q127 0 192 -72.5
t61 -191.5zM426 800h80l49 -122h-44l-51 80l-89 -80h-54z" />
    <glyph glyph-name="gcircumflex" unicode="&#x11d;" horiz-adv-x="507" 
d="M387 198l11 42q18 71 -16 115.5t-102 44.5q-88 0 -138.5 -64t-50.5 -154q0 -62 33 -93t90 -31t106.5 38t66.5 102zM348 37l15 64q-23 -40 -69.5 -65t-100.5 -25q-74 0 -119.5 46.5t-45.5 124.5q0 104 67.5 184t181.5 80q57 0 95.5 -28t50.5 -71l23 87h61l-99 -401
q-52 -210 -242 -210q-70 0 -123 41.5t-54 117.5l54 5q4 -56 40 -86t87 -30q139 0 178 166zM316 630h80l48 -122h-45l-50 80l-90 -80h-53z" />
    <glyph glyph-name="Gbreve" unicode="&#x11e;" horiz-adv-x="685" 
d="M657 378l-61 -4q4 95 -46 155t-146 60q-128 0 -206 -95.5t-78 -228.5q0 -104 57 -164t150 -60t158.5 58t94.5 154h-206l13 53h262l-76 -306h-59l29 119q-28 -61 -86.5 -96t-139.5 -35q-117 0 -190 76.5t-73 201.5q0 97 43.5 182.5t125 139.5t181.5 54q127 0 192 -72.5
t61 -191.5zM436 675q-39 0 -62.5 19.5t-23.5 56.5q0 22 7 49h47q-5 -22 -5 -35q0 -42 45 -42q60 0 80 77h51q-32 -125 -139 -125z" />
    <glyph glyph-name="gbreve" unicode="&#x11f;" horiz-adv-x="507" 
d="M387 198l11 42q18 71 -16 115.5t-102 44.5q-88 0 -138.5 -64t-50.5 -154q0 -62 33 -93t90 -31t106.5 38t66.5 102zM348 37l15 64q-23 -40 -69.5 -65t-100.5 -25q-74 0 -119.5 46.5t-45.5 124.5q0 104 67.5 184t181.5 80q57 0 95.5 -28t50.5 -71l23 87h61l-99 -401
q-52 -210 -242 -210q-70 0 -123 41.5t-54 117.5l54 5q4 -56 40 -86t87 -30q139 0 178 166zM327 505q-39 0 -62.5 19.5t-23.5 56.5q0 22 7 49h47q-5 -22 -5 -35q0 -42 45 -42q60 0 80 77h51q-32 -125 -139 -125z" />
    <glyph glyph-name="Gdotaccent" unicode="&#x120;" horiz-adv-x="685" 
d="M657 378l-61 -4q4 95 -46 155t-146 60q-128 0 -206 -95.5t-78 -228.5q0 -104 57 -164t150 -60t158.5 58t94.5 154h-206l13 53h262l-76 -306h-59l29 119q-28 -61 -86.5 -96t-139.5 -35q-117 0 -190 76.5t-73 201.5q0 97 43.5 182.5t125 139.5t181.5 54q127 0 192 -72.5
t61 -191.5zM408 684l20 81h65l-20 -81h-65z" />
    <glyph glyph-name="gdotaccent" unicode="&#x121;" horiz-adv-x="507" 
d="M387 198l11 42q18 71 -16 115.5t-102 44.5q-88 0 -138.5 -64t-50.5 -154q0 -62 33 -93t90 -31t106.5 38t66.5 102zM348 37l15 64q-23 -40 -69.5 -65t-100.5 -25q-74 0 -119.5 46.5t-45.5 124.5q0 104 67.5 184t181.5 80q57 0 95.5 -28t50.5 -71l23 87h61l-99 -401
q-52 -210 -242 -210q-70 0 -123 41.5t-54 117.5l54 5q4 -56 40 -86t87 -30q139 0 178 166zM303 549l21 81h65l-21 -81h-65z" />
    <glyph glyph-name="Gcommaaccent" unicode="&#x122;" horiz-adv-x="685" 
d="M657 378l-61 -4q4 95 -46 155t-146 60q-128 0 -206 -95.5t-78 -228.5q0 -104 57 -164t150 -60t158.5 58t94.5 154h-206l13 53h262l-76 -306h-59l29 119q-28 -61 -86.5 -96t-139.5 -35q-117 0 -190 76.5t-73 201.5q0 97 43.5 182.5t125 139.5t181.5 54q127 0 192 -72.5
t61 -191.5zM234 -116l15 60h76l-13 -49q-19 -81 -96 -81l8 30q34 0 45 40h-35z" />
    <glyph glyph-name="gcommaaccent" unicode="&#x123;" horiz-adv-x="507" 
d="M387 198l11 42q18 71 -16 115.5t-102 44.5q-88 0 -138.5 -64t-50.5 -154q0 -62 33 -93t90 -31t106.5 38t66.5 102zM348 37l15 64q-23 -40 -69.5 -65t-100.5 -25q-74 0 -119.5 46.5t-45.5 124.5q0 104 67.5 184t181.5 80q57 0 95.5 -28t50.5 -71l23 87h61l-99 -401
q-52 -210 -242 -210q-70 0 -123 41.5t-54 117.5l54 5q4 -56 40 -86t87 -30q139 0 178 166zM385 589l-15 -60h-76l13 49q19 81 96 81l-8 -30q-34 0 -45 -40h35z" />
    <glyph glyph-name="Hcircumflex" unicode="&#x124;" horiz-adv-x="650" 
d="M75 0h-63l157 630h63l-69 -277h394l69 277h63l-157 -630h-63l74 300h-394zM427 800h80l49 -122h-44l-51 80l-89 -80h-54z" />
    <glyph glyph-name="hcircumflex" unicode="&#x125;" horiz-adv-x="481" 
d="M130 250l-62 -250h-61l157 630h61l-70 -279q62 95 163 95q79 0 110.5 -48.5t11.5 -128.5l-67 -269h-61l67 271q15 59 -5.5 93t-76.5 34q-54 0 -102 -40t-65 -108zM337 800h80l49 -122h-44l-51 80l-89 -80h-54z" />
    <glyph glyph-name="Hbar" unicode="&#x126;" horiz-adv-x="670" 
d="M55 446l13 53h78l33 131h63l-33 -131h394l33 131h63l-33 -131h76l-13 -53h-76l-111 -446h-63l69 280h-394l-69 -280h-63l111 446h-78zM168 333h394l28 113h-394z" />
    <glyph glyph-name="hbar" unicode="&#x127;" horiz-adv-x="481" 
d="M66 500l11 44h65l22 86h61l-22 -86h144l-11 -44h-144l-37 -149q62 95 163 95q79 0 110.5 -48.5t11.5 -128.5l-67 -269h-61l67 271q15 59 -5.5 93t-76.5 34q-54 0 -102 -40t-65 -108l-62 -250h-61l124 500h-65z" />
    <glyph glyph-name="Itilde" unicode="&#x128;" horiz-adv-x="193" 
d="M122 676h-45q26 114 100 114q20 0 36.5 -16.5t31.5 -33t30 -16.5q19 0 28 14.5t19 48.5h45q-26 -114 -101 -114q-20 0 -36.5 16.5t-31.5 32.5t-30 16q-13 0 -22 -9t-13 -19t-11 -34zM169 630h63l-157 -630h-63z" />
    <glyph glyph-name="itilde" unicode="&#x129;" horiz-adv-x="181" 
d="M82 515h-44q25 113 98 113q16 0 29 -10t20 -22.5t17 -22.5t20 -10q13 0 22 8.5t13 19.5t11 34h44q-26 -113 -98 -113q-20 0 -35.5 16t-27 32.5t-23.5 16.5q-13 0 -22 -9t-13 -19t-11 -34zM111 434h61l-108 -434h-61z" />
    <glyph glyph-name="Imacron" unicode="&#x12a;" horiz-adv-x="193" 
d="M98 686l13 51h231l-13 -51h-231zM169 630h63l-157 -630h-63z" />
    <glyph glyph-name="imacron" unicode="&#x12b;" horiz-adv-x="181" 
d="M64 522l12 51h211l-12 -51h-211zM115 434h61l-108 -434h-61z" />
    <glyph glyph-name="Ibreve" unicode="&#x12c;" horiz-adv-x="193" 
d="M169 630h63l-157 -630h-63zM209 675q-39 0 -62.5 19.5t-23.5 56.5q0 22 7 49h47q-5 -22 -5 -35q0 -42 45 -42q60 0 80 77h51q-32 -125 -139 -125z" />
    <glyph glyph-name="ibreve" unicode="&#x12d;" horiz-adv-x="181" 
d="M115 434h61l-108 -434h-61zM164 505q-39 0 -62.5 19.5t-23.5 56.5q0 22 7 49h47q-5 -22 -5 -35q0 -42 45 -42q60 0 80 77h51q-32 -125 -139 -125z" />
    <glyph glyph-name="Iogonek" unicode="&#x12e;" horiz-adv-x="193" 
d="M169 630h63l-157 -630q-63 -35 -90 -59t-27 -48q0 -25 34 -25q22 0 58 17l-10 -38q-36 -22 -72 -22q-30 0 -46.5 14t-16.5 40q0 19 8.5 36t28 34t31.5 25.5t39 25.5v1z" />
    <glyph glyph-name="iogonek" unicode="&#x12f;" horiz-adv-x="181" 
d="M115 434h61l-108 -434q-62 -35 -88.5 -59t-26.5 -48q0 -25 34 -25q22 0 58 17l-10 -38q-36 -22 -72 -22q-30 0 -46.5 14t-16.5 40q0 19 8.5 36t28 34t31.5 25.5t39 25.5v1zM142 549l20 81h65l-20 -81h-65z" />
    <glyph glyph-name="Idotaccent" unicode="&#x130;" horiz-adv-x="193" 
d="M169 630h63l-157 -630h-63zM182 684l20 81h65l-20 -81h-65z" />
    <glyph glyph-name="dotlessi" unicode="&#x131;" horiz-adv-x="181" 
d="M115 434h61l-108 -434h-61z" />
    <glyph glyph-name="IJ" unicode="&#x132;" horiz-adv-x="683" 
d="M169 630h63l-157 -630h-63zM674 630h63l-109 -434q-24 -97 -84 -152.5t-151 -55.5q-106 0 -154 61.5t-32 168.5l59 5q-14 -90 19.5 -136t107.5 -46q75 0 116 45.5t64 138.5z" />
    <glyph glyph-name="ij" unicode="&#x133;" horiz-adv-x="362" 
d="M115 434h61l-108 -434h-61zM142 549l20 81h65l-20 -81h-65zM357 434l-131 -527q-22 -89 -102 -89q-57 0 -92 37l28 36q30 -24 60 -24q21 0 30.5 11.5t16.5 38.5l129 517h61zM323 549l20 81h65l-20 -81h-65z" />
    <glyph glyph-name="Jcircumflex" unicode="&#x134;" horiz-adv-x="490" 
d="M481 630h63l-109 -434q-24 -97 -84 -152.5t-151 -55.5q-106 0 -154 61.5t-32 168.5l59 5q-14 -90 19.5 -136t107.5 -46q75 0 116 45.5t64 138.5zM504 800h80l49 -122h-44l-51 80l-89 -80h-54z" />
    <glyph glyph-name="jcircumflex" unicode="&#x135;" horiz-adv-x="181" 
d="M176 434l-131 -527q-22 -89 -102 -89q-57 0 -92 37l28 36q30 -24 60 -24q21 0 30.5 11.5t16.5 38.5l129 517h61zM149 630h80l48 -122h-45l-50 80l-90 -80h-53z" />
    <glyph glyph-name="Kcommaaccent" unicode="&#x136;" horiz-adv-x="568" 
d="M515 0h-71l-208 316l-103 -82l-58 -234h-63l157 630h63l-81 -323l405 323h81l-352 -281zM175 -116l15 60h76l-13 -49q-19 -81 -96 -81l8 30q34 0 45 40h-35z" />
    <glyph glyph-name="kcommaaccent" unicode="&#x137;" horiz-adv-x="460" 
d="M108 163l-40 -163h-61l157 630h61l-102 -404l287 208h85l-257 -184l159 -250h-69l-138 220zM106 -116l15 60h76l-13 -49q-19 -81 -96 -81l8 30q34 0 45 40h-35z" />
    <glyph glyph-name="kgreenlandic" unicode="&#x138;" horiz-adv-x="460" 
d="M108 163l-40 -163h-61l108 434h61l-53 -208l287 208h85l-257 -184l159 -250h-69l-138 220z" />
    <glyph glyph-name="Lacute" unicode="&#x139;" horiz-adv-x="515" 
d="M169 630h63l-144 -577h362l-13 -53h-425zM235 678h-45l84 122h85z" />
    <glyph glyph-name="lacute" unicode="&#x13a;" horiz-adv-x="181" 
d="M164 630h61l-157 -630h-61zM230 678h-45l84 122h85z" />
    <glyph glyph-name="Lcommaaccent" unicode="&#x13b;" horiz-adv-x="515" 
d="M169 630h63l-144 -577h362l-13 -53h-425zM166 -116l15 60h76l-13 -49q-19 -81 -96 -81l8 30q34 0 45 40h-35z" />
    <glyph glyph-name="lcommaaccent" unicode="&#x13c;" horiz-adv-x="181" 
d="M164 630h61l-157 -630h-61zM-29 -116l15 60h76l-13 -49q-19 -81 -96 -81l8 30q34 0 45 40h-35z" />
    <glyph glyph-name="Lcaron" unicode="&#x13d;" horiz-adv-x="515" 
d="M169 630h63l-144 -577h362l-13 -53h-425zM351 503h-32l48 127h75z" />
    <glyph glyph-name="lcaron" unicode="&#x13e;" horiz-adv-x="181" 
d="M164 630h61l-157 -630h-61zM275 503h-32l48 127h75z" />
    <glyph glyph-name="Ldot" unicode="&#x13f;" horiz-adv-x="515" 
d="M169 630h63l-144 -577h362l-13 -53h-425zM354 291l21 81h65l-21 -81h-65z" />
    <glyph glyph-name="ldot" unicode="&#x140;" horiz-adv-x="291" 
d="M164 630h61l-157 -630h-61zM217 275l21 81h65l-21 -81h-65z" />
    <glyph glyph-name="Lslash" unicode="&#x141;" horiz-adv-x="531" 
d="M185 630h63l-76 -302l170 81l-14 -60l-171 -81l-53 -215h362l-13 -53h-425l59 238l-77 -37l14 60l78 38z" />
    <glyph glyph-name="lslash" unicode="&#x142;" horiz-adv-x="226" 
d="M177 630h61l-62 -246l92 50l-15 -59l-91 -50l-81 -325h-61l73 295l-83 -45l15 59l83 45z" />
    <glyph glyph-name="Nacute" unicode="&#x143;" horiz-adv-x="632" 
d="M239 630l240 -529l132 529h60l-157 -630h-49l-255 557l-138 -557h-60l157 630h70zM445 678h-45l84 122h85z" />
    <glyph glyph-name="nacute" unicode="&#x144;" horiz-adv-x="481" 
d="M130 250l-62 -250h-61l108 434h61l-21 -83q62 95 163 95q79 0 110.5 -48.5t11.5 -128.5l-67 -269h-61l67 271q15 59 -5.5 93t-76.5 34q-54 0 -102 -40t-65 -108zM332 508h-44l85 122h85z" />
    <glyph glyph-name="Ncommaaccent" unicode="&#x145;" horiz-adv-x="632" 
d="M239 630l240 -529l132 529h60l-157 -630h-49l-255 557l-138 -557h-60l157 630h70zM196 -116l15 60h76l-13 -49q-19 -81 -96 -81l8 30q34 0 45 40h-35z" />
    <glyph glyph-name="ncommaaccent" unicode="&#x146;" horiz-adv-x="481" 
d="M130 250l-62 -250h-61l108 434h61l-21 -83q62 95 163 95q79 0 110.5 -48.5t11.5 -128.5l-67 -269h-61l67 271q15 59 -5.5 93t-76.5 34q-54 0 -102 -40t-65 -108zM124 -116l15 60h76l-13 -49q-19 -81 -96 -81l8 30q34 0 45 40h-35z" />
    <glyph glyph-name="Ncaron" unicode="&#x147;" horiz-adv-x="632" 
d="M239 630l240 -529l132 529h60l-157 -630h-49l-255 557l-138 -557h-60l157 630h70zM476 678h-80l-49 122h44l51 -80l89 80h54z" />
    <glyph glyph-name="ncaron" unicode="&#x148;" horiz-adv-x="481" 
d="M130 250l-62 -250h-61l108 434h61l-21 -83q62 95 163 95q79 0 110.5 -48.5t11.5 -128.5l-67 -269h-61l67 271q15 59 -5.5 93t-76.5 34q-54 0 -102 -40t-65 -108zM355 508h-80l-48 122h45l50 -80l90 80h53z" />
    <glyph glyph-name="Eng" unicode="&#x14a;" horiz-adv-x="632" 
d="M460 12l-250 545l-138 -557h-60l157 630h70l240 -529l132 529h60l-163 -655q-40 -157 -163 -157q-109 0 -140 85l44 29q31 -62 96 -62q47 0 73 33.5t42 108.5z" />
    <glyph glyph-name="eng" unicode="&#x14b;" horiz-adv-x="481" 
d="M291 -83l88 354q15 59 -5.5 93t-76.5 34q-54 0 -102 -40t-65 -108l-62 -250h-61l108 434h61l-21 -83q62 95 163 95q79 0 110.5 -48.5t11.5 -128.5l-90 -362q-22 -89 -102 -89q-57 0 -92 37l28 36q30 -24 60 -24q21 0 31 11.5t16 38.5z" />
    <glyph glyph-name="Omacron" unicode="&#x14c;" horiz-adv-x="688" 
d="M400 642q127 0 204 -73t77 -199q0 -97 -41 -183.5t-122 -142.5t-183 -56q-127 0 -204 73t-77 199q0 97 41 183.5t122 142.5t183 56zM335 41q123 0 201.5 97t78.5 232q0 98 -57 158.5t-158 60.5q-123 0 -201.5 -97t-78.5 -232q0 -98 57 -158.5t158 -60.5zM321 686l13 51
h251l-13 -51h-251z" />
    <glyph glyph-name="omacron" unicode="&#x14d;" horiz-adv-x="497" 
d="M221 36q83 0 134 65t51 156q0 66 -35.5 103.5t-94.5 37.5q-83 0 -134 -65t-51 -156q0 -66 35.5 -103.5t94.5 -37.5zM221 -12q-86 0 -139.5 50.5t-53.5 138.5q0 110 70 189.5t178 79.5q86 0 139.5 -50.5t53.5 -138.5q0 -110 -70 -189.5t-178 -79.5zM202 522l12 51h251
l-12 -51h-251z" />
    <glyph glyph-name="Obreve" unicode="&#x14e;" horiz-adv-x="688" 
d="M400 642q127 0 204 -73t77 -199q0 -97 -41 -183.5t-122 -142.5t-183 -56q-127 0 -204 73t-77 199q0 97 41 183.5t122 142.5t183 56zM335 41q123 0 201.5 97t78.5 232q0 98 -57 158.5t-158 60.5q-123 0 -201.5 -97t-78.5 -232q0 -98 57 -158.5t158 -60.5zM442 675
q-39 0 -62.5 19.5t-23.5 56.5q0 22 7 49h47q-5 -22 -5 -35q0 -42 45 -42q60 0 80 77h51q-32 -125 -139 -125z" />
    <glyph glyph-name="obreve" unicode="&#x14f;" horiz-adv-x="497" 
d="M221 36q83 0 134 65t51 156q0 66 -35.5 103.5t-94.5 37.5q-83 0 -134 -65t-51 -156q0 -66 35.5 -103.5t94.5 -37.5zM221 -12q-86 0 -139.5 50.5t-53.5 138.5q0 110 70 189.5t178 79.5q86 0 139.5 -50.5t53.5 -138.5q0 -110 -70 -189.5t-178 -79.5zM324 505
q-39 0 -62.5 19.5t-23.5 56.5q0 22 7 49h47q-5 -22 -5 -35q0 -42 45 -42q60 0 80 77h51q-32 -125 -139 -125z" />
    <glyph glyph-name="Ohungarumlaut" unicode="&#x150;" horiz-adv-x="688" 
d="M400 642q127 0 204 -73t77 -199q0 -97 -41 -183.5t-122 -142.5t-183 -56q-127 0 -204 73t-77 199q0 97 41 183.5t122 142.5t183 56zM335 41q123 0 201.5 97t78.5 232q0 98 -57 158.5t-158 60.5q-123 0 -201.5 -97t-78.5 -232q0 -98 57 -158.5t158 -60.5zM371 678h-37
l84 122h80zM491 678h-37l84 122h80z" />
    <glyph glyph-name="ohungarumlaut" unicode="&#x151;" horiz-adv-x="497" 
d="M221 36q83 0 134 65t51 156q0 66 -35.5 103.5t-94.5 37.5q-83 0 -134 -65t-51 -156q0 -66 35.5 -103.5t94.5 -37.5zM221 -12q-86 0 -139.5 50.5t-53.5 138.5q0 110 70 189.5t178 79.5q86 0 139.5 -50.5t53.5 -138.5q0 -110 -70 -189.5t-178 -79.5zM259 508h-37l85 122h80
zM379 508h-37l85 122h80z" />
    <glyph glyph-name="OE" unicode="&#x152;" horiz-adv-x="956" 
d="M876 53l-13 -53h-532q-131 0 -204 64.5t-73 178.5q0 169 102 278t280 109h575l-14 -53h-366l-55 -224h293l-14 -53h-293l-61 -247h375zM568 577h-131q-149 0 -233 -93t-84 -240q0 -191 225 -191h93z" />
    <glyph glyph-name="oe" unicode="&#x153;" horiz-adv-x="846" 
d="M276 446q61 0 107 -29t67 -81q76 110 200 110q93 0 132.5 -54.5t39.5 -135.5q0 -24 -6 -54h-358q-10 -79 26.5 -121.5t107.5 -42.5q120 0 164 117l51 -8q-26 -75 -84.5 -117t-137.5 -42q-132 0 -173 106q-68 -106 -191 -106q-86 0 -139.5 50.5t-53.5 138.5
q0 110 70 189.5t178 79.5zM221 36q83 0 134 65t51 156q0 66 -35.5 103.5t-94.5 37.5q-83 0 -134 -65t-51 -156q0 -66 35.5 -103.5t94.5 -37.5zM468 245h292q8 67 -21.5 109.5t-95.5 42.5q-63 0 -110 -43t-65 -109z" />
    <glyph glyph-name="Racute" unicode="&#x154;" horiz-adv-x="578" 
d="M492 0h-67q-5 10 -5 37q0 19 8.5 72t8.5 73q0 84 -104 84h-193l-66 -266h-62l157 630h235q96 0 145.5 -37.5t49.5 -109.5q0 -81 -52 -132t-138 -63q92 -18 92 -102q0 -18 -9 -71.5t-9 -77.5q0 -23 9 -37zM153 318h184q88 0 143 40t55 117q0 102 -141 102h-177zM409 678
h-45l84 122h85z" />
    <glyph glyph-name="racute" unicode="&#x155;" horiz-adv-x="313" 
d="M361 426l-21 -53q-27 17 -61 17q-48 0 -92 -43.5t-60 -108.5l-59 -238h-61l108 434h61l-23 -90q26 46 65.5 74t85.5 28q35 0 57 -20zM261 508h-44l85 122h85z" />
    <glyph glyph-name="Rcommaaccent" unicode="&#x156;" horiz-adv-x="578" 
d="M492 0h-67q-5 10 -5 37q0 19 8.5 72t8.5 73q0 84 -104 84h-193l-66 -266h-62l157 630h235q96 0 145.5 -37.5t49.5 -109.5q0 -81 -52 -132t-138 -63q92 -18 92 -102q0 -18 -9 -71.5t-9 -77.5q0 -23 9 -37zM153 318h184q88 0 143 40t55 117q0 102 -141 102h-177zM160 -116
l15 60h76l-13 -49q-19 -81 -96 -81l8 30q34 0 45 40h-35z" />
    <glyph glyph-name="rcommaaccent" unicode="&#x157;" horiz-adv-x="313" 
d="M361 426l-21 -53q-27 17 -61 17q-48 0 -92 -43.5t-60 -108.5l-59 -238h-61l108 434h61l-23 -90q26 46 65.5 74t85.5 28q35 0 57 -20zM-27 -116l15 60h76l-13 -49q-19 -81 -96 -81l8 30q34 0 45 40h-35z" />
    <glyph glyph-name="Rcaron" unicode="&#x158;" horiz-adv-x="578" 
d="M492 0h-67q-5 10 -5 37q0 19 8.5 72t8.5 73q0 84 -104 84h-193l-66 -266h-62l157 630h235q96 0 145.5 -37.5t49.5 -109.5q0 -81 -52 -132t-138 -63q92 -18 92 -102q0 -18 -9 -71.5t-9 -77.5q0 -23 9 -37zM153 318h184q88 0 143 40t55 117q0 102 -141 102h-177zM440 678
h-80l-49 122h44l51 -80l89 80h54z" />
    <glyph glyph-name="rcaron" unicode="&#x159;" horiz-adv-x="313" 
d="M361 426l-21 -53q-27 17 -61 17q-48 0 -92 -43.5t-60 -108.5l-59 -238h-61l108 434h61l-23 -90q26 46 65.5 74t85.5 28q35 0 57 -20zM287 508h-80l-48 122h45l50 -80l90 80h53z" />
    <glyph glyph-name="Sacute" unicode="&#x15a;" horiz-adv-x="553" 
d="M34 251h58q-15 -102 37 -157.5t151 -55.5q79 0 122.5 36t43.5 98q0 42 -26 66t-85 41l-97 28q-127 37 -127 151q0 80 59 132t159 52q114 0 177 -66.5t50 -178.5h-57q11 84 -36 139.5t-134 55.5q-75 0 -115.5 -33.5t-40.5 -95.5q0 -43 24 -66.5t79 -39.5l85 -24
q148 -42 148 -155q0 -87 -64.5 -138.5t-164.5 -51.5q-123 0 -193.5 67.5t-52.5 195.5zM392 678h-45l84 122h85z" />
    <glyph glyph-name="sacute" unicode="&#x15b;" horiz-adv-x="431" 
d="M15 162l49 4q-3 -64 36.5 -97.5t96.5 -33.5q53 0 82 22.5t29 57.5q0 29 -18.5 44t-56.5 27l-54 16q-101 29 -101 112q0 58 44 95t113 37q88 0 132.5 -44t39.5 -126l-48 -4q2 61 -30 94t-94 33q-45 0 -72 -21t-27 -57q0 -27 17.5 -43t54.5 -26l55 -16q104 -31 104 -113
q0 -64 -48 -99.5t-122 -35.5q-82 0 -135.5 45.5t-46.5 128.5zM299 508h-44l85 122h85z" />
    <glyph glyph-name="Scircumflex" unicode="&#x15c;" horiz-adv-x="553" 
d="M34 251h58q-15 -102 37 -157.5t151 -55.5q79 0 122.5 36t43.5 98q0 42 -26 66t-85 41l-97 28q-127 37 -127 151q0 80 59 132t159 52q114 0 177 -66.5t50 -178.5h-57q11 84 -36 139.5t-134 55.5q-75 0 -115.5 -33.5t-40.5 -95.5q0 -43 24 -66.5t79 -39.5l85 -24
q148 -42 148 -155q0 -87 -64.5 -138.5t-164.5 -51.5q-123 0 -193.5 67.5t-52.5 195.5zM367 800h80l49 -122h-44l-51 80l-89 -80h-54z" />
    <glyph glyph-name="scircumflex" unicode="&#x15d;" horiz-adv-x="431" 
d="M15 162l49 4q-3 -64 36.5 -97.5t96.5 -33.5q53 0 82 22.5t29 57.5q0 29 -18.5 44t-56.5 27l-54 16q-101 29 -101 112q0 58 44 95t113 37q88 0 132.5 -44t39.5 -126l-48 -4q2 61 -30 94t-94 33q-45 0 -72 -21t-27 -57q0 -27 17.5 -43t54.5 -26l55 -16q104 -31 104 -113
q0 -64 -48 -99.5t-122 -35.5q-82 0 -135.5 45.5t-46.5 128.5zM274 630h80l48 -122h-45l-50 80l-90 -80h-53z" />
    <glyph glyph-name="Scedilla" unicode="&#x15e;" horiz-adv-x="553" 
d="M311 -97q0 -41 -34 -59.5t-80 -18.5q-66 0 -109 39l21 30q38 -34 88 -34q57 0 57 35q0 28 -28 31t-57 -11l-16 11l54 70q-92 18 -140 83t-33 172h58q-15 -102 37 -157.5t151 -55.5q79 0 122.5 36t43.5 98q0 42 -26 66t-85 41l-97 28q-127 37 -127 151q0 80 59 132t159 52
q114 0 177 -66.5t50 -178.5h-57q11 84 -36 139.5t-134 55.5q-75 0 -115.5 -33.5t-40.5 -95.5q0 -43 24 -66.5t79 -39.5l85 -24q148 -42 148 -155q0 -87 -64.5 -138.5t-164.5 -51.5q-22 0 -43 3l-32 -39q43 13 74.5 0t31.5 -49z" />
    <glyph glyph-name="scedilla" unicode="&#x15f;" horiz-adv-x="431" 
d="M248 -97q0 -41 -34 -59.5t-80 -18.5q-66 0 -109 39l21 30q38 -34 88 -34q57 0 57 35q0 28 -28.5 31t-56.5 -11l-16 11l53 68q-62 14 -98 56.5t-30 111.5l49 4q-3 -64 36.5 -97.5t96.5 -33.5q53 0 82 22.5t29 57.5q0 29 -18.5 44t-56.5 27l-54 16q-101 29 -101 112
q0 58 44 95t113 37q88 0 132.5 -44t39.5 -126l-48 -4q2 61 -30 94t-94 33q-45 0 -72 -21t-27 -57q0 -27 17.5 -43t54.5 -26l55 -16q104 -31 104 -113q0 -64 -48 -99.5t-122 -35.5q-4 0 -12 0.5t-12 0.5l-31 -37q43 13 74.5 0t31.5 -49z" />
    <glyph glyph-name="Scaron" unicode="&#x160;" horiz-adv-x="553" 
d="M34 251h58q-15 -102 37 -157.5t151 -55.5q79 0 122.5 36t43.5 98q0 42 -26 66t-85 41l-97 28q-127 37 -127 151q0 80 59 132t159 52q114 0 177 -66.5t50 -178.5h-57q11 84 -36 139.5t-134 55.5q-75 0 -115.5 -33.5t-40.5 -95.5q0 -43 24 -66.5t79 -39.5l85 -24
q148 -42 148 -155q0 -87 -64.5 -138.5t-164.5 -51.5q-123 0 -193.5 67.5t-52.5 195.5zM423 678h-80l-49 122h44l51 -80l89 80h54z" />
    <glyph glyph-name="scaron" unicode="&#x161;" horiz-adv-x="431" 
d="M15 162l49 4q-3 -64 36.5 -97.5t96.5 -33.5q53 0 82 22.5t29 57.5q0 29 -18.5 44t-56.5 27l-54 16q-101 29 -101 112q0 58 44 95t113 37q88 0 132.5 -44t39.5 -126l-48 -4q2 61 -30 94t-94 33q-45 0 -72 -21t-27 -57q0 -27 17.5 -43t54.5 -26l55 -16q104 -31 104 -113
q0 -64 -48 -99.5t-122 -35.5q-82 0 -135.5 45.5t-46.5 128.5zM325 508h-80l-48 122h45l50 -80l90 80h53z" />
    <glyph glyph-name="Tcedilla" unicode="&#x162;" horiz-adv-x="572" 
d="M263 0h-63l143 577h-233l14 53h532l-14 -53h-236zM170 -116l15 60h76l-13 -49q-19 -81 -96 -81l8 30q34 0 45 40h-35z" />
    <glyph glyph-name="tcedilla" unicode="&#x163;" horiz-adv-x="291" 
d="M47 102l71 287h-67l8 30l27 5q31 6 44 19.5t30 49.5l29 62h31l-30 -121h126l-12 -45h-126l-71 -285q-17 -67 40 -67q40 0 92 30l-11 -43q-45 -36 -100 -36q-53 0 -73.5 31t-7.5 83zM55 -116l15 60h76l-13 -49q-19 -81 -96 -81l8 30q34 0 45 40h-35z" />
    <glyph glyph-name="Tcaron" unicode="&#x164;" horiz-adv-x="572" 
d="M263 0h-63l143 577h-233l14 53h532l-14 -53h-236zM439 678h-80l-49 122h44l51 -80l89 80h54z" />
    <glyph glyph-name="tcaron" unicode="&#x165;" horiz-adv-x="291" 
d="M47 102l71 287h-67l8 30l27 5q31 6 44 19.5t30 49.5l29 62h31l-30 -121h126l-12 -45h-126l-71 -285q-17 -67 40 -67q40 0 92 30l-11 -43q-45 -36 -100 -36q-53 0 -73.5 31t-7.5 83zM290 503h-32l48 127h75z" />
    <glyph glyph-name="Tbar" unicode="&#x166;" horiz-adv-x="572" 
d="M134 302l12 51h141l56 224h-233l14 53h532l-14 -53h-236l-56 -224h147l-12 -51h-147l-75 -302h-63l75 302h-141z" />
    <glyph glyph-name="tbar" unicode="&#x167;" horiz-adv-x="301" 
d="M21 220l11 44h58l31 125h-67l8 30l27 5q31 6 44 19.5t30 49.5l29 62h31l-30 -121h126l-12 -45h-126l-31 -125h132l-11 -44h-132l-29 -116q-17 -67 40 -67q40 0 92 30l-11 -43q-45 -36 -100 -36q-53 0 -73.5 31t-7.5 83l29 118h-58z" />
    <glyph glyph-name="Utilde" unicode="&#x168;" horiz-adv-x="604" 
d="M273 -12q-120 0 -179.5 70t-28.5 194l94 378h63l-96 -387q-23 -94 16 -148t131 -54q93 0 144 46.5t75 143.5l100 399h61l-100 -401q-32 -127 -100 -184t-180 -57zM322 677h-47q28 113 109 113q28 0 58 -32.5t49 -32.5q21 0 32.5 14.5t21.5 47.5h47q-14 -53 -42 -83
t-68 -30q-28 0 -58 32.5t-49 32.5q-21 0 -32 -14.5t-21 -47.5z" />
    <glyph glyph-name="utilde" unicode="&#x169;" horiz-adv-x="477" 
d="M344 184l62 250h61l-108 -434h-61l21 83q-62 -95 -163 -95q-77 0 -107 48.5t-10 128.5l67 269h61l-67 -271q-31 -127 77 -127q54 0 102 40t65 108zM210 515h-47q28 113 109 113q28 0 58 -32.5t49 -32.5q21 0 32.5 14.5t21.5 47.5h47q-14 -53 -42 -83t-68 -30
q-28 0 -58 32.5t-49 32.5q-21 0 -32 -14.5t-21 -47.5z" />
    <glyph glyph-name="Umacron" unicode="&#x16a;" horiz-adv-x="604" 
d="M273 -12q-120 0 -179.5 70t-28.5 194l94 378h63l-96 -387q-23 -94 16 -148t131 -54q93 0 144 46.5t75 143.5l100 399h61l-100 -401q-32 -127 -100 -184t-180 -57zM296 686l13 51h251l-13 -51h-251z" />
    <glyph glyph-name="umacron" unicode="&#x16b;" horiz-adv-x="477" 
d="M344 184l62 250h61l-108 -434h-61l21 83q-62 -95 -163 -95q-77 0 -107 48.5t-10 128.5l67 269h61l-67 -271q-31 -127 77 -127q54 0 102 40t65 108zM188 522l12 51h251l-12 -51h-251z" />
    <glyph glyph-name="Ubreve" unicode="&#x16c;" horiz-adv-x="604" 
d="M273 -12q-120 0 -179.5 70t-28.5 194l94 378h63l-96 -387q-23 -94 16 -148t131 -54q93 0 144 46.5t75 143.5l100 399h61l-100 -401q-32 -127 -100 -184t-180 -57zM417 675q-39 0 -62.5 19.5t-23.5 56.5q0 22 7 49h47q-5 -22 -5 -35q0 -42 45 -42q60 0 80 77h51
q-32 -125 -139 -125z" />
    <glyph glyph-name="ubreve" unicode="&#x16d;" horiz-adv-x="477" 
d="M344 184l62 250h61l-108 -434h-61l21 83q-62 -95 -163 -95q-77 0 -107 48.5t-10 128.5l67 269h61l-67 -271q-31 -127 77 -127q54 0 102 40t65 108zM304 505q-39 0 -62.5 19.5t-23.5 56.5q0 22 7 49h47q-5 -22 -5 -35q0 -42 45 -42q60 0 80 77h51q-32 -125 -139 -125z" />
    <glyph glyph-name="Uring" unicode="&#x16e;" horiz-adv-x="604" 
d="M273 -12q-120 0 -179.5 70t-28.5 194l94 378h63l-96 -387q-23 -94 16 -148t131 -54q93 0 144 46.5t75 143.5l100 399h61l-100 -401q-32 -127 -100 -184t-180 -57zM519 746q0 -37 -26 -62.5t-63 -25.5q-35 0 -56.5 21.5t-21.5 54.5q0 37 26 62.5t63 25.5q35 0 56.5 -21.5
t21.5 -54.5zM481 746q0 18 -11 29t-30 11q-22 0 -36 -15t-14 -37q0 -18 11 -29t30 -11q22 0 36 15t14 37z" />
    <glyph glyph-name="uring" unicode="&#x16f;" horiz-adv-x="477" 
d="M344 184l62 250h61l-108 -434h-61l21 83q-62 -95 -163 -95q-77 0 -107 48.5t-10 128.5l67 269h61l-67 -271q-31 -127 77 -127q54 0 102 40t65 108zM402 576q0 -37 -26 -62.5t-63 -25.5q-35 0 -56.5 21.5t-21.5 54.5q0 37 26 62.5t63 25.5q35 0 56.5 -21.5t21.5 -54.5z
M364 576q0 18 -11 29t-30 11q-22 0 -36 -15t-14 -37q0 -18 11 -29t30 -11q22 0 36 15t14 37z" />
    <glyph glyph-name="Uhungarumlaut" unicode="&#x170;" horiz-adv-x="604" 
d="M273 -12q-120 0 -179.5 70t-28.5 194l94 378h63l-96 -387q-23 -94 16 -148t131 -54q93 0 144 46.5t75 143.5l100 399h61l-100 -401q-32 -127 -100 -184t-180 -57zM346 678h-37l84 122h80zM466 678h-37l84 122h80z" />
    <glyph glyph-name="uhungarumlaut" unicode="&#x171;" horiz-adv-x="477" 
d="M344 184l62 250h61l-108 -434h-61l21 83q-62 -95 -163 -95q-77 0 -107 48.5t-10 128.5l67 269h61l-67 -271q-31 -127 77 -127q54 0 102 40t65 108zM246 508h-37l85 122h80zM366 508h-37l85 122h80z" />
    <glyph glyph-name="Uogonek" unicode="&#x172;" horiz-adv-x="604" 
d="M273 -12q-120 0 -179.5 70t-28.5 194l94 378h63l-96 -387q-23 -94 16 -148t131 -54q93 0 144 46.5t75 143.5l100 399h61l-100 -401q-43 -175 -164 -222q-58 -42 -81.5 -66t-23.5 -48q0 -25 34 -25q22 0 58 17l-10 -38q-36 -22 -72 -22q-30 0 -46.5 14t-16.5 40
q0 33 24.5 58.5t68.5 54.5q-32 -4 -51 -4z" />
    <glyph glyph-name="uogonek" unicode="&#x173;" horiz-adv-x="477" 
d="M344 184l62 250h61l-108 -434q-62 -35 -88.5 -59t-26.5 -48q0 -25 34 -25q22 0 58 17l-10 -38q-36 -22 -72 -22q-30 0 -46.5 14t-16.5 40q0 19 8.5 36t28 34t31.5 25.5t39 25.5v2l21 81q-62 -95 -163 -95q-77 0 -107 48.5t-10 128.5l67 269h61l-67 -271q-31 -127 77 -127
q54 0 102 40t65 108z" />
    <glyph glyph-name="Wcircumflex" unicode="&#x174;" horiz-adv-x="793" 
d="M529 630l5 -562h4l282 562h62l-322 -630h-81l-2 531h-4l-275 -531h-81l2 630h60l-4 -559h4l290 559h60zM499 800h80l49 -122h-44l-51 80l-89 -80h-54z" />
    <glyph glyph-name="wcircumflex" unicode="&#x175;" horiz-adv-x="618" 
d="M392 434l13 -350h4l194 350h61l-249 -434h-57l-12 348h-4l-190 -348h-58l-28 434h60l17 -350h4l192 350h53zM375 630h80l48 -122h-45l-50 80l-90 -80h-53z" />
    <glyph glyph-name="Ycircumflex" unicode="&#x176;" horiz-adv-x="584" 
d="M313 304l288 326h72l-342 -381l-62 -249h-60l62 249l-152 381h63zM394 800h80l49 -122h-44l-51 80l-89 -80h-54z" />
    <glyph glyph-name="ycircumflex" unicode="&#x177;" horiz-adv-x="440" 
d="M85 -170h-65l120 177l-75 427h61l59 -359h4l234 359h63zM285 630h80l48 -122h-45l-50 80l-90 -80h-53z" />
    <glyph glyph-name="Ydieresis" unicode="&#x178;" horiz-adv-x="584" 
d="M313 304l288 326h72l-342 -381l-62 -249h-60l62 249l-152 381h63zM315 684l20 81h65l-20 -81h-65zM439 684l20 81h65l-20 -81h-65z" />
    <glyph glyph-name="Zacute" unicode="&#x179;" horiz-adv-x="551" 
d="M74 53h407l-13 -53h-491l10 42l530 535h-392l14 53h475l-12 -45zM391 678h-45l84 122h85z" />
    <glyph glyph-name="zacute" unicode="&#x17a;" horiz-adv-x="421" 
d="M345 385h-263l13 49h345l-11 -42l-362 -343h284l-12 -49h-361l10 42zM297 508h-44l85 122h85z" />
    <glyph glyph-name="Zdotaccent" unicode="&#x17b;" horiz-adv-x="551" 
d="M74 53h407l-13 -53h-491l10 42l530 535h-392l14 53h475l-12 -45zM347 684l20 81h65l-20 -81h-65z" />
    <glyph glyph-name="zdotaccent" unicode="&#x17c;" horiz-adv-x="421" 
d="M345 385h-263l13 49h345l-11 -42l-362 -343h284l-12 -49h-361l10 42zM259 549l21 81h65l-21 -81h-65z" />
    <glyph glyph-name="Zcaron" unicode="&#x17d;" horiz-adv-x="551" 
d="M74 53h407l-13 -53h-491l10 42l530 535h-392l14 53h475l-12 -45zM422 678h-80l-49 122h44l51 -80l89 80h54z" />
    <glyph glyph-name="zcaron" unicode="&#x17e;" horiz-adv-x="421" 
d="M345 385h-263l13 49h345l-11 -42l-362 -343h284l-12 -49h-361l10 42zM323 508h-80l-48 122h45l50 -80l90 80h53z" />
    <glyph glyph-name="florin" unicode="&#x192;" horiz-adv-x="401" 
d="M304 501l-44 -125h100l-11 -46h-105l-100 -290q-47 -134 -155 -134q-12 0 -38 4l13 47q14 -3 26 -3q65 0 97 92l98 284h-89l11 46h94l46 131q47 133 155 133q19 0 49 -7l-12 -46q-20 5 -34 5q-69 0 -101 -91z" />
    <glyph glyph-name="Aringacute" unicode="&#x1fa;" horiz-adv-x="623" 
d="M378 630h68l109 -630h-63l-34 203h-298l-132 -203h-66zM394 562l-200 -306h255l-51 306h-4zM517 738q0 -35 -26 -59t-62 -24q-35 0 -56.5 20.5t-21.5 51.5q0 35 26 59t62 24q35 0 56.5 -20.5t21.5 -51.5zM479 738q0 17 -11 27.5t-30 10.5q-21 0 -35 -14.5t-14 -34.5
q0 -17 11 -27.5t30 -10.5q21 0 35 14.5t14 34.5zM479 831h-45l61 93h85z" />
    <glyph glyph-name="aringacute" unicode="&#x1fb;" horiz-adv-x="470" 
d="M405 554q0 -35 -26 -59t-62 -24q-35 0 -56.5 20.5t-21.5 51.5q0 35 26 59t62 24q35 0 56.5 -20.5t21.5 -51.5zM367 554q0 17 -11 27.5t-30 10.5q-21 0 -35 -14.5t-14 -34.5q0 -17 11 -27.5t30 -10.5q21 0 35 14.5t14 34.5zM362 654h-45l61 93h85zM329 194l6 26l-129 -17
q-65 -9 -98.5 -31t-33.5 -69q0 -32 21 -50t56 -18q65 0 112 43t66 116zM406 270l-47 -188q-11 -43 25 -43q18 0 41 9l-8 -37q-25 -20 -59 -20t-48.5 25.5t-7.5 68.5q-21 -44 -66 -70.5t-98 -26.5q-57 0 -90.5 30t-33.5 79q0 126 184 149l149 20l4 17q12 53 -9 83.5t-75 30.5
q-100 0 -141 -90l-51 12q25 59 79 93t122 34q83 0 116.5 -48t13.5 -128z" />
    <glyph glyph-name="AEacute" unicode="&#x1fc;" horiz-adv-x="976" 
d="M563 630h468l-14 -53h-366l-55 -224h293l-14 -53h-293l-61 -247h375l-13 -53h-436l50 203h-270l-194 -203h-71zM587 578l-309 -322h232l81 322h-4zM773 678h-45l84 122h85z" />
    <glyph glyph-name="aeacute" unicode="&#x1fd;" horiz-adv-x="775" 
d="M329 194l2 8h-104q-73 0 -113 -25t-40 -74q0 -32 21 -50t56 -18q65 0 112.5 43t65.5 116zM339 108q-23 -50 -74.5 -85t-122.5 -35q-58 0 -93 30t-35 79q0 71 54.5 109.5t148.5 38.5h126l8 38q12 53 -9 83.5t-75 30.5q-100 0 -141 -90l-51 12q25 59 79 93t122 34
q98 0 127 -83q72 83 176 83q93 0 132.5 -54.5t39.5 -135.5q0 -24 -6 -54h-358q-10 -79 26.5 -121.5t107.5 -42.5q120 0 164 117l51 -8q-26 -75 -84.5 -117t-137.5 -42q-67 0 -112 32t-63 88zM397 245h292q8 67 -21.5 109.5t-95.5 42.5q-63 0 -110 -43t-65 -109zM470 508h-44
l85 122h85z" />
    <glyph glyph-name="Oslashacute" unicode="&#x1fe;" horiz-adv-x="688" 
d="M400 642q111 0 186 -58l57 63l38 -32l-59 -66q59 -72 59 -179q0 -97 -41 -183.5t-122 -142.5t-183 -56q-105 0 -175 49l-67 -74l-38 32l67 74q-68 74 -68 191q0 97 41 183.5t122 142.5t183 56zM120 260q0 -88 44 -144l382 423q-58 50 -146 50q-123 0 -201.5 -97
t-78.5 -232zM335 41q123 0 201.5 97t78.5 232q0 76 -36 132l-380 -421q54 -40 136 -40zM464 678h-45l84 122h85z" />
    <glyph glyph-name="oslashacute" unicode="&#x1ff;" horiz-adv-x="497" 
d="M32 -14l46 56q-50 50 -50 135q0 110 70 189.5t178 79.5q62 0 109 -28l47 58l34 -28l-46 -57q49 -51 49 -134q0 -110 -70 -189.5t-178 -79.5q-60 0 -109 27l-46 -57zM91 177q0 -55 24 -90l236 290q-30 21 -75 21q-83 0 -134 -65t-51 -156zM221 36q83 0 134 65t51 156
q0 51 -24 88l-236 -289q32 -20 75 -20zM336 508h-44l85 122h85z" />
    <glyph glyph-name="Scommaaccent" unicode="&#x218;" horiz-adv-x="553" 
d="M34 251h58q-15 -102 37 -157.5t151 -55.5q79 0 122.5 36t43.5 98q0 42 -26 66t-85 41l-97 28q-127 37 -127 151q0 80 59 132t159 52q114 0 177 -66.5t50 -178.5h-57q11 84 -36 139.5t-134 55.5q-75 0 -115.5 -33.5t-40.5 -95.5q0 -43 24 -66.5t79 -39.5l85 -24
q148 -42 148 -155q0 -87 -64.5 -138.5t-164.5 -51.5q-123 0 -193.5 67.5t-52.5 195.5zM143 -116l15 60h76l-13 -49q-19 -81 -96 -81l8 30q34 0 45 40h-35z" />
    <glyph glyph-name="scommaaccent" unicode="&#x219;" horiz-adv-x="431" 
d="M15 162l49 4q-3 -64 36.5 -97.5t96.5 -33.5q53 0 82 22.5t29 57.5q0 29 -18.5 44t-56.5 27l-54 16q-101 29 -101 112q0 58 44 95t113 37q88 0 132.5 -44t39.5 -126l-48 -4q2 61 -30 94t-94 33q-45 0 -72 -21t-27 -57q0 -27 17.5 -43t54.5 -26l55 -16q104 -31 104 -113
q0 -64 -48 -99.5t-122 -35.5q-82 0 -135.5 45.5t-46.5 128.5zM91 -116l15 60h76l-13 -49q-19 -81 -96 -81l8 30q34 0 45 40h-35z" />
    <glyph glyph-name="uni0237" unicode="&#x237;" horiz-adv-x="181" 
d="M176 434l-131 -527q-22 -89 -102 -89q-57 0 -92 37l28 36q30 -24 60 -24q21 0 30.5 11.5t16.5 38.5l129 517h61z" />
    <glyph glyph-name="circumflex" unicode="&#x2c6;" 
d="M317 630h80l48 -122h-45l-50 80l-90 -80h-53z" />
    <glyph glyph-name="caron" unicode="&#x2c7;" 
d="M366 508h-80l-48 122h45l50 -80l90 80h53z" />
    <glyph glyph-name="breve" unicode="&#x2d8;" 
d="M327 505q-39 0 -62.5 19.5t-23.5 56.5q0 22 7 49h47q-5 -22 -5 -35q0 -42 45 -42q60 0 80 77h51q-32 -125 -139 -125z" />
    <glyph glyph-name="dotaccent" unicode="&#x2d9;" 
d="M303 549l21 81h65l-21 -81h-65z" />
    <glyph glyph-name="ring" unicode="&#x2da;" 
d="M424 576q0 -37 -26 -62.5t-63 -25.5q-35 0 -56.5 21.5t-21.5 54.5q0 37 26 62.5t63 25.5q35 0 56.5 -21.5t21.5 -54.5zM386 576q0 18 -11 29t-30 11q-22 0 -36 -15t-14 -37q0 -18 11 -29t30 -11q22 0 36 15t14 37z" />
    <glyph glyph-name="ogonek" unicode="&#x2db;" 
d="M221 12h40q-45 -34 -63 -48.5t-33.5 -34t-15.5 -36.5q0 -25 34 -25q22 0 58 17l-10 -38q-36 -22 -72 -22q-30 0 -46.5 14t-16.5 40q0 14 6 28.5t13.5 24.5t23.5 23t25.5 19.5t29.5 19.5t27 18z" />
    <glyph glyph-name="tilde" unicode="&#x2dc;" 
d="M229 515h-47q28 113 109 113q17 0 33 -10t25.5 -22.5t22.5 -22.5t26 -10q21 0 32.5 14.5t21.5 47.5h47q-14 -53 -42 -83t-68 -30q-17 0 -33 10t-25.5 22.5t-22.5 22.5t-26 10q-21 0 -32 -14.5t-21 -47.5z" />
    <glyph glyph-name="hungarumlaut" unicode="&#x2dd;" 
d="M236 508h-37l85 122h80zM356 508h-37l85 122h80z" />
    <glyph glyph-name="Wgrave" unicode="&#x1e80;" horiz-adv-x="793" 
d="M529 630l5 -562h4l282 562h62l-322 -630h-81l-2 531h-4l-275 -531h-81l2 630h60l-4 -559h4l290 559h60zM531 678h-39l-62 122h77z" />
    <glyph glyph-name="wgrave" unicode="&#x1e81;" horiz-adv-x="618" 
d="M392 434l13 -350h4l194 350h61l-249 -434h-57l-12 348h-4l-190 -348h-58l-28 434h60l17 -350h4l192 350h53zM410 508h-38l-64 122h79z" />
    <glyph glyph-name="Wacute" unicode="&#x1e82;" horiz-adv-x="793" 
d="M529 630l5 -562h4l282 562h62l-322 -630h-81l-2 531h-4l-275 -531h-81l2 630h60l-4 -559h4l290 559h60zM526 678h-45l84 122h85z" />
    <glyph glyph-name="wacute" unicode="&#x1e83;" horiz-adv-x="618" 
d="M392 434l13 -350h4l194 350h61l-249 -434h-57l-12 348h-4l-190 -348h-58l-28 434h60l17 -350h4l192 350h53zM400 508h-44l85 122h85z" />
    <glyph glyph-name="Wdieresis" unicode="&#x1e84;" horiz-adv-x="793" 
d="M529 630l5 -562h4l282 562h62l-322 -630h-81l-2 531h-4l-275 -531h-81l2 630h60l-4 -559h4l290 559h60zM420 684l20 81h65l-20 -81h-65zM544 684l20 81h65l-20 -81h-65z" />
    <glyph glyph-name="wdieresis" unicode="&#x1e85;" horiz-adv-x="618" 
d="M392 434l13 -350h4l194 350h61l-249 -434h-57l-12 348h-4l-190 -348h-58l-28 434h60l17 -350h4l192 350h53zM299 539l20 81h65l-20 -81h-65zM423 539l20 81h65l-20 -81h-65z" />
    <glyph glyph-name="Ygrave" unicode="&#x1ef2;" horiz-adv-x="584" 
d="M313 304l288 326h72l-342 -381l-62 -249h-60l62 249l-152 381h63zM426 678h-39l-62 122h77z" />
    <glyph glyph-name="ygrave" unicode="&#x1ef3;" horiz-adv-x="440" 
d="M85 -170h-65l120 177l-75 427h61l59 -359h4l234 359h63zM319 508h-38l-64 122h79z" />
    <glyph glyph-name="endash" unicode="&#x2013;" 
d="M60 231l12 48h380l-12 -48h-380z" />
    <glyph glyph-name="emdash" unicode="&#x2014;" horiz-adv-x="1000" 
d="M60 231l12 48h880l-12 -48h-880z" />
    <glyph glyph-name="quoteleft" unicode="&#x2018;" horiz-adv-x="160" 
d="M204 540l-20 -80h-80l20 81q13 53 34.5 77t71.5 24l-11 -41q-25 -2 -35 -14t-19 -47h39z" />
    <glyph glyph-name="quoteright" unicode="&#x2019;" horiz-adv-x="160" 
d="M122 550l20 80h80l-20 -81q-13 -53 -34.5 -77t-71.5 -24l11 41q25 2 35 14t19 47h-39z" />
    <glyph glyph-name="quotesinglbase" unicode="&#x201a;" horiz-adv-x="160" 
d="M-11 0l20 80h80l-20 -81q-13 -53 -34.5 -77t-71.5 -24l11 41q25 2 35 14t19 47h-39z" />
    <glyph glyph-name="quotedblleft" unicode="&#x201c;" horiz-adv-x="290" 
d="M204 540l-20 -80h-80l20 81q13 53 34.5 77t71.5 24l-11 -41q-25 -2 -35 -14t-19 -47h39zM334 540l-20 -80h-80l20 81q13 53 34.5 77t71.5 24l-11 -41q-25 -2 -35 -14t-19 -47h39z" />
    <glyph glyph-name="quotedblright" unicode="&#x201d;" horiz-adv-x="290" 
d="M252 550l20 80h80l-20 -81q-13 -53 -34.5 -77t-71.5 -24l11 41q25 2 35 14t19 47h-39zM122 550l20 80h80l-20 -81q-13 -53 -34.5 -77t-71.5 -24l11 41q25 2 35 14t19 47h-39z" />
    <glyph glyph-name="quotedblbase" unicode="&#x201e;" horiz-adv-x="290" 
d="M119 0l20 80h80l-20 -81q-13 -53 -34.5 -77t-71.5 -24l11 41q25 2 35 14t19 47h-39zM-11 0l20 80h80l-20 -81q-13 -53 -34.5 -77t-71.5 -24l11 41q25 2 35 14t19 47h-39z" />
    <glyph glyph-name="dagger" unicode="&#x2020;" horiz-adv-x="305" 
d="M86 493l12 47h108l26 102h49l-26 -102h108l-12 -47h-108l-60 -241h-49l60 241h-108z" />
    <glyph glyph-name="daggerdbl" unicode="&#x2021;" horiz-adv-x="315" 
d="M57 354l11 47h108l23 92h-108l12 47h108l26 102h49l-26 -102h108l-12 -47h-108l-23 -92h108l-11 -47h-109l-25 -102h-49l25 102h-107z" />
    <glyph glyph-name="bullet" unicode="&#x2022;" horiz-adv-x="315" 
d="M270 255q0 -46 -31.5 -76.5t-76.5 -30.5t-76 30.5t-31 76.5t31 77t76 31t76.5 -31t31.5 -77z" />
    <glyph glyph-name="ellipsis" unicode="&#x2026;" horiz-adv-x="480" 
d="M-10 0l19 80h80l-19 -80h-80zM150 0l19 80h80l-19 -80h-80zM310 0l19 80h80l-19 -80h-80z" />
    <glyph glyph-name="perthousand" unicode="&#x2030;" horiz-adv-x="1045" 
d="M141 436q0 -74 66 -74q49 0 79.5 46t30.5 115q0 74 -66 74q-49 0 -79.5 -46t-30.5 -115zM83 443q0 83 50.5 141t119.5 58q58 0 90 -34t32 -92q0 -83 -50.5 -141t-119.5 -58q-58 0 -90 34t-32 92zM660 642l-496 -654h-59l496 654h59zM624 194q0 74 -66 74q-49 0 -79.5 -46
t-30.5 -115q0 -74 66 -74q49 0 79.5 46t30.5 115zM682 187q0 -83 -50.5 -141t-119.5 -58q-58 0 -90 34t-32 92q0 83 50.5 141t119.5 58q58 0 90 -34t32 -92zM954 194q0 74 -66 74q-49 0 -79.5 -46t-30.5 -115q0 -74 66 -74q49 0 79.5 46t30.5 115zM1012 187
q0 -83 -50.5 -141t-119.5 -58q-58 0 -90 34t-32 92q0 83 50.5 141t119.5 58q58 0 90 -34t32 -92z" />
    <glyph glyph-name="guilsinglleft" unicode="&#x2039;" horiz-adv-x="239" 
d="M36 194l11 44l171 130l-18 -75l-112 -83l71 -85l-17 -61z" />
    <glyph glyph-name="guilsinglright" unicode="&#x203a;" horiz-adv-x="239" 
d="M203 238l-11 -44l-171 -130l18 75l112 83l-71 85l17 61z" />
    <glyph glyph-name="fraction" unicode="&#x2044;" horiz-adv-x="487" 
d="M567 630l-524 -630h-60l524 630h60z" />
    <glyph glyph-name="Euro" unicode="&#x20ac;" horiz-adv-x="605" 
d="M54 352l11 47h57q36 106 108 174.5t173 68.5q107 0 159 -72t41 -189l-58 -3q8 94 -28.5 152.5t-113.5 58.5q-79 0 -134 -53t-85 -137h221l-21 -47h-215q-10 -45 -13 -77h197l-22 -47h-177q0 -88 40 -137.5t110 -49.5q169 0 219 211l60 -3q-28 -120 -100 -190.5
t-179 -70.5q-97 0 -154 66t-57 174h-71l12 47h61q3 32 13 77h-54z" />
    <glyph glyph-name="uni2117" unicode="&#x2117;" horiz-adv-x="724" 
d="M58 315q0 141 95 234t232 93t232 -93t95 -234t-95 -234t-232 -93t-232 93t-95 234zM104 315q0 -122 81.5 -202t199.5 -80t199.5 80t81.5 202t-81.5 202t-199.5 80t-199.5 -80t-81.5 -202zM319 310h82q95 0 95 72t-95 72h-82v-144zM319 264v-135h-55v371h146
q68 0 104.5 -33t36.5 -85t-36.5 -85t-104.5 -33h-91z" />
    <glyph glyph-name="trademark" unicode="&#x2122;" horiz-adv-x="619" 
d="M193 370h-47l54 220h-94l11 40h235l-11 -40h-94zM475 370h-40l-15 218h-2l-55 -218h-44l65 260h72l13 -200h2l115 200h73l-65 -260h-48l55 218h-2z" />
    <glyph glyph-name="uni2153" unicode="&#x2153;" horiz-adv-x="737" 
d="M617 630l-524 -630h-60l524 630h60zM101 538l9 36q40 0 63 13.5t42 45.5h37l-96 -387h-56l73 292h-72zM617 118q0 54 -66 54q-17 0 -37 -2l11 45q18 -2 36 -2q36 0 64 19t28 57q0 26 -17.5 42t-50.5 16q-82 0 -103 -92l-54 2q14 63 56.5 99t103.5 36q58 0 88.5 -27
t30.5 -71q0 -43 -28 -69t-67 -33q61 -16 61 -75q0 -58 -42 -91t-105 -33q-74 0 -110 40.5t-23 102.5l52 -3q-9 -44 14.5 -69.5t66.5 -25.5q42 0 66.5 20t24.5 60z" />
    <glyph glyph-name="uni2154" unicode="&#x2154;" horiz-adv-x="883" 
d="M763 630l-524 -630h-60l524 630h60zM763 118q0 54 -66 54q-17 0 -37 -2l11 45q18 -2 36 -2q36 0 64 19t28 57q0 26 -17.5 42t-50.5 16q-82 0 -103 -92l-54 2q14 63 56.5 99t103.5 36q58 0 88.5 -27t30.5 -71q0 -43 -28 -69t-67 -33q61 -16 61 -75q0 -58 -42 -91t-105 -33
q-74 0 -110 40.5t-23 102.5l52 -3q-9 -44 14.5 -69.5t66.5 -25.5q42 0 66.5 20t24.5 60zM151 292h194l-12 -48h-283l8 33l149 107q6 4 24.5 16.5t25.5 18t22 17t21.5 20t15 20.5t12 24t3.5 26q0 29 -18 46t-51 17q-44 0 -68 -31t-25 -86l-54 3q2 71 42 116t108 45
q60 0 91 -30t31 -76q0 -28 -9.5 -51.5t-32.5 -45.5t-40 -35t-53 -37z" />
    <glyph glyph-name="uni215B" unicode="&#x215b;" horiz-adv-x="729" 
d="M617 630l-524 -630h-60l524 630h60zM101 538l9 36q40 0 63 13.5t42 45.5h37l-96 -387h-56l73 292h-72zM526 35q43 0 68 21t25 55q0 31 -24 47.5t-64 16.5q-41 0 -66 -21t-25 -54q0 -30 24 -47.5t62 -17.5zM524 -7q-61 0 -101 28.5t-40 76.5q0 42 28.5 69.5t74.5 33.5
q-52 25 -52 76t41 83t98 32t91.5 -26t34.5 -73q0 -80 -89 -101q29 -9 47.5 -30.5t18.5 -51.5q0 -53 -43 -85t-109 -32zM562 216q37 0 60 21t23 53q0 29 -20.5 44.5t-52.5 15.5q-37 0 -60 -21t-23 -52q0 -30 20.5 -45.5t52.5 -15.5z" />
    <glyph glyph-name="uni215C" unicode="&#x215c;" horiz-adv-x="854" 
d="M291 362q0 54 -66 54q-17 0 -37 -2l11 45q18 -2 36 -2q36 0 64 19t28 57q0 26 -17.5 42t-50.5 16q-82 0 -103 -92l-54 2q14 63 56.5 99t103.5 36q58 0 88.5 -27t30.5 -71q0 -43 -28 -69t-67 -33q61 -16 61 -75q0 -58 -42 -91t-105 -33q-74 0 -110 40.5t-23 102.5l52 -3
q-9 -44 14.5 -69.5t66.5 -25.5q42 0 66.5 20t24.5 60zM742 630l-524 -630h-60l524 630h60zM651 35q43 0 68 21t25 55q0 31 -24 47.5t-64 16.5q-41 0 -66 -21t-25 -54q0 -30 24 -47.5t62 -17.5zM649 -7q-61 0 -101 28.5t-40 76.5q0 42 28.5 69.5t74.5 33.5q-52 25 -52 76
t41 83t98 32t91.5 -26t34.5 -73q0 -80 -89 -101q29 -9 47.5 -30.5t18.5 -51.5q0 -53 -43 -85t-109 -32zM687 216q37 0 60 21t23 53q0 29 -20.5 44.5t-52.5 15.5q-37 0 -60 -21t-23 -52q0 -30 20.5 -45.5t52.5 -15.5z" />
    <glyph glyph-name="uni215D" unicode="&#x215d;" horiz-adv-x="851" 
d="M739 630l-524 -630h-60l524 630h60zM648 35q43 0 68 21t25 55q0 31 -24 47.5t-64 16.5q-41 0 -66 -21t-25 -54q0 -30 24 -47.5t62 -17.5zM646 -7q-61 0 -101 28.5t-40 76.5q0 42 28.5 69.5t74.5 33.5q-52 25 -52 76t41 83t98 32t91.5 -26t34.5 -73q0 -80 -89 -101
q29 -9 47.5 -30.5t18.5 -51.5q0 -53 -43 -85t-109 -32zM684 216q37 0 60 21t23 53q0 29 -20.5 44.5t-52.5 15.5q-37 0 -60 -21t-23 -52q0 -30 20.5 -45.5t52.5 -15.5zM382 630l-13 -50h-179q-18 -64 -42 -114q34 36 87 36q52 0 83 -31t31 -82q0 -67 -42.5 -108.5
t-109.5 -41.5q-68 0 -105 40.5t-23 102.5l52 -4q-8 -41 14 -68t63 -27q45 0 70.5 28t25.5 73q0 34 -19 54t-53 20q-56 0 -86 -46l-54 3q49 112 78 215h222z" />
    <glyph glyph-name="uni215E" unicode="&#x215e;" horiz-adv-x="741" 
d="M629 630l-524 -630h-60l524 630h60zM538 35q43 0 68 21t25 55q0 31 -24 47.5t-64 16.5q-41 0 -66 -21t-25 -54q0 -30 24 -47.5t62 -17.5zM536 -7q-61 0 -101 28.5t-40 76.5q0 42 28.5 69.5t74.5 33.5q-52 25 -52 76t41 83t98 32t91.5 -26t34.5 -73q0 -80 -89 -101
q29 -9 47.5 -30.5t18.5 -51.5q0 -53 -43 -85t-109 -32zM574 216q37 0 60 21t23 53q0 29 -20.5 44.5t-52.5 15.5q-37 0 -60 -21t-23 -52q0 -30 20.5 -45.5t52.5 -15.5zM294 580h-211l13 50h279l-9 -35q-160 -132 -213 -349h-61q55 211 202 334z" />
    <glyph glyph-name="minus" unicode="&#x2212;" horiz-adv-x="620" 
d="M68 286l13 52h506l-12 -52h-507z" />
    <glyph glyph-name="approxequal" unicode="&#x2248;" horiz-adv-x="631" 
d="M89 329l13 55q83 46 147 46q43 0 110 -22t111 -22q69 0 149 45l-13 -55q-80 -46 -150 -46q-44 0 -111 22t-110 22q-66 0 -146 -45zM55 193l13 56q80 45 147 45q44 0 110.5 -22t109.5 -22q69 0 152 45l-15 -55q-80 -45 -150 -45q-44 0 -110 22t-110 22q-65 0 -147 -46z
" />
    <glyph glyph-name="notequal" unicode="&#x2260;" horiz-adv-x="631" 
d="M95 356l12 53h297l131 127h66l-131 -127h144l-12 -53h-187l-95 -92h258l-12 -53h-300l-128 -124h-67l128 124h-140l12 53h183l95 92h-254z" />
    <glyph glyph-name="lessequal" unicode="&#x2264;" horiz-adv-x="465" 
d="M-6 46l14 52h386l-14 -52h-386zM69 347l14 54l434 192l-17 -62l-368 -162l289 -162l-13 -53z" />
    <glyph glyph-name="greaterequal" unicode="&#x2265;" horiz-adv-x="465" 
d="M394 98l-14 -52h-386l14 52h386zM469 400l-14 -53l-434 -193l17 62l368 162l-289 162l13 53z" />
    <glyph glyph-name="i.dot" horiz-adv-x="181" 
d="M115 434h61l-108 -434h-61zM141 549l21 81h65l-21 -81h-65z" />
    <glyph glyph-name="space_uni0326" 
d="M133 -116l15 60h76l-13 -49q-19 -81 -96 -81l8 30q34 0 45 40h-35z" />
    <glyph glyph-name="space_uni0326.alt" 
d="M384 589l-15 -60h-76l13 49q19 81 96 81l-8 -30q-34 0 -45 -40h35z" />
    <glyph glyph-name="space_dotbelowcomb" 
d="M124 -170l20 81h65l-20 -81h-65z" />
    <glyph glyph-name="a.alt" horiz-adv-x="523" 
d="M377 181l13 48q21 73 -11.5 121t-97.5 48q-85 0 -137 -74t-52 -167q0 -57 29.5 -88.5t84.5 -31.5q61 0 106.5 38t64.5 106zM350 81q-52 -93 -162 -93q-76 0 -118 46.5t-42 122.5q0 69 29.5 134.5t88.5 110t133 44.5q54 0 90 -29.5t48 -75.5l23 93h61l-94 -353
q-11 -42 25 -42q18 0 41 9l-8 -37q-25 -20 -59 -20q-33 0 -47.5 23.5t-8.5 66.5z" />
    <glyph glyph-name="aacute.alt" horiz-adv-x="523" 
d="M377 181l13 48q21 73 -11.5 121t-97.5 48q-85 0 -137 -74t-52 -167q0 -57 29.5 -88.5t84.5 -31.5q61 0 106.5 38t64.5 106zM350 81q-52 -93 -162 -93q-76 0 -118 46.5t-42 122.5q0 69 29.5 134.5t88.5 110t133 44.5q54 0 90 -29.5t48 -75.5l23 93h61l-94 -353
q-11 -42 25 -42q18 0 41 9l-8 -37q-25 -20 -59 -20q-33 0 -47.5 23.5t-8.5 66.5zM340 508h-44l85 122h85z" />
    <glyph glyph-name="abreve.alt" horiz-adv-x="523" 
d="M377 181l13 48q21 73 -11.5 121t-97.5 48q-85 0 -137 -74t-52 -167q0 -57 29.5 -88.5t84.5 -31.5q61 0 106.5 38t64.5 106zM350 81q-52 -93 -162 -93q-76 0 -118 46.5t-42 122.5q0 69 29.5 134.5t88.5 110t133 44.5q54 0 90 -29.5t48 -75.5l23 93h61l-94 -353
q-11 -42 25 -42q18 0 41 9l-8 -37q-25 -20 -59 -20q-33 0 -47.5 23.5t-8.5 66.5zM326 505q-39 0 -62.5 19.5t-23.5 56.5q0 22 7 49h47q-5 -22 -5 -35q0 -42 45 -42q60 0 80 77h51q-32 -125 -139 -125z" />
    <glyph glyph-name="acircumflex.alt" horiz-adv-x="523" 
d="M377 181l13 48q21 73 -11.5 121t-97.5 48q-85 0 -137 -74t-52 -167q0 -57 29.5 -88.5t84.5 -31.5q61 0 106.5 38t64.5 106zM350 81q-52 -93 -162 -93q-76 0 -118 46.5t-42 122.5q0 69 29.5 134.5t88.5 110t133 44.5q54 0 90 -29.5t48 -75.5l23 93h61l-94 -353
q-11 -42 25 -42q18 0 41 9l-8 -37q-25 -20 -59 -20q-33 0 -47.5 23.5t-8.5 66.5zM315 630h80l48 -122h-45l-50 80l-90 -80h-53z" />
    <glyph glyph-name="adieresis.alt" horiz-adv-x="523" 
d="M377 181l13 48q21 73 -11.5 121t-97.5 48q-85 0 -137 -74t-52 -167q0 -57 29.5 -88.5t84.5 -31.5q61 0 106.5 38t64.5 106zM350 81q-52 -93 -162 -93q-76 0 -118 46.5t-42 122.5q0 69 29.5 134.5t88.5 110t133 44.5q54 0 90 -29.5t48 -75.5l23 93h61l-94 -353
q-11 -42 25 -42q18 0 41 9l-8 -37q-25 -20 -59 -20q-33 0 -47.5 23.5t-8.5 66.5zM239 539l20 81h65l-20 -81h-65zM363 539l20 81h65l-20 -81h-65z" />
    <glyph glyph-name="agrave.alt" horiz-adv-x="523" 
d="M377 181l13 48q21 73 -11.5 121t-97.5 48q-85 0 -137 -74t-52 -167q0 -57 29.5 -88.5t84.5 -31.5q61 0 106.5 38t64.5 106zM350 81q-52 -93 -162 -93q-76 0 -118 46.5t-42 122.5q0 69 29.5 134.5t88.5 110t133 44.5q54 0 90 -29.5t48 -75.5l23 93h61l-94 -353
q-11 -42 25 -42q18 0 41 9l-8 -37q-25 -20 -59 -20q-33 0 -47.5 23.5t-8.5 66.5zM350 508h-38l-64 122h79z" />
    <glyph glyph-name="amacron.alt" horiz-adv-x="523" 
d="M377 181l13 48q21 73 -11.5 121t-97.5 48q-85 0 -137 -74t-52 -167q0 -57 29.5 -88.5t84.5 -31.5q61 0 106.5 38t64.5 106zM350 81q-52 -93 -162 -93q-76 0 -118 46.5t-42 122.5q0 69 29.5 134.5t88.5 110t133 44.5q54 0 90 -29.5t48 -75.5l23 93h61l-94 -353
q-11 -42 25 -42q18 0 41 9l-8 -37q-25 -20 -59 -20q-33 0 -47.5 23.5t-8.5 66.5zM204 522l12 51h251l-12 -51h-251z" />
    <glyph glyph-name="aogonek.alt" horiz-adv-x="523" 
d="M350 81q-52 -93 -162 -93q-76 0 -118 46.5t-42 122.5q0 69 29.5 134.5t88.5 110t133 44.5q54 0 90 -29.5t48 -75.5l23 93h61l-94 -353q-11 -42 25 -42q18 0 41 9l-8 -37q-3 -2 -40 -27.5t-55 -46.5t-18 -44q0 -25 34 -25q22 0 58 17l-10 -38q-36 -22 -72 -22
q-30 0 -46.5 14t-16.5 40q0 33 24.5 58.5t69.5 54.5q-54 9 -43 89zM377 181l13 48q21 73 -11.5 121t-97.5 48q-85 0 -137 -74t-52 -167q0 -57 29.5 -88.5t84.5 -31.5q61 0 106.5 38t64.5 106z" />
    <glyph glyph-name="aring.alt" horiz-adv-x="523" 
d="M377 181l13 48q21 73 -11.5 121t-97.5 48q-85 0 -137 -74t-52 -167q0 -57 29.5 -88.5t84.5 -31.5q61 0 106.5 38t64.5 106zM350 81q-52 -93 -162 -93q-76 0 -118 46.5t-42 122.5q0 69 29.5 134.5t88.5 110t133 44.5q54 0 90 -29.5t48 -75.5l23 93h61l-94 -353
q-11 -42 25 -42q18 0 41 9l-8 -37q-25 -20 -59 -20q-33 0 -47.5 23.5t-8.5 66.5zM425 576q0 -37 -26 -62.5t-63 -25.5q-35 0 -56.5 21.5t-21.5 54.5q0 37 26 62.5t63 25.5q35 0 56.5 -21.5t21.5 -54.5zM387 576q0 18 -11 29t-30 11q-22 0 -36 -15t-14 -37q0 -18 11 -29
t30 -11q22 0 36 15t14 37z" />
    <glyph glyph-name="aringacute.alt" horiz-adv-x="523" 
d="M431 554q0 -35 -26 -59t-62 -24q-35 0 -56.5 20.5t-21.5 51.5q0 35 26 59t62 24q35 0 56.5 -20.5t21.5 -51.5zM393 554q0 17 -11 27.5t-30 10.5q-21 0 -35 -14.5t-14 -34.5q0 -17 11 -27.5t30 -10.5q21 0 35 14.5t14 34.5zM388 654h-45l61 93h85zM377 181l13 48
q21 73 -11.5 121t-97.5 48q-85 0 -137 -74t-52 -167q0 -57 29.5 -88.5t84.5 -31.5q61 0 106.5 38t64.5 106zM350 81q-52 -93 -162 -93q-76 0 -118 46.5t-42 122.5q0 69 29.5 134.5t88.5 110t133 44.5q54 0 90 -29.5t48 -75.5l23 93h61l-94 -353q-11 -42 25 -42q18 0 41 9
l-8 -37q-25 -20 -59 -20q-33 0 -47.5 23.5t-8.5 66.5z" />
    <glyph glyph-name="atilde.alt" horiz-adv-x="523" 
d="M377 181l13 48q21 73 -11.5 121t-97.5 48q-85 0 -137 -74t-52 -167q0 -57 29.5 -88.5t84.5 -31.5q61 0 106.5 38t64.5 106zM350 81q-52 -93 -162 -93q-76 0 -118 46.5t-42 122.5q0 69 29.5 134.5t88.5 110t133 44.5q54 0 90 -29.5t48 -75.5l23 93h61l-94 -353
q-11 -42 25 -42q18 0 41 9l-8 -37q-25 -20 -59 -20q-33 0 -47.5 23.5t-8.5 66.5zM229 515h-47q28 113 109 113q17 0 33 -10t25.5 -22.5t22.5 -22.5t26 -10q21 0 32.5 14.5t21.5 47.5h47q-14 -53 -42 -83t-68 -30q-17 0 -33 10t-25.5 22.5t-22.5 22.5t-26 10q-21 0 -32 -14.5
t-21 -47.5z" />
    <glyph glyph-name="caron.Slovak" 
d="M311 503h-32l48 127h75z" />
    <glyph glyph-name="cedilla.alt" 
d="M298 -97q0 -41 -34 -59.5t-80 -18.5q-66 0 -109 39l21 30q38 -34 88 -34q57 0 57 35q0 28 -28.5 31t-56.5 -11l-16 11l66 85h36l-50 -59q43 13 74.5 0t31.5 -49z" />
    <glyph glyph-name="grave.cap" 
d="M438 678h-39l-62 122h77z" />
    <glyph glyph-name="acute.cap" 
d="M344 678h-45l84 122h85z" />
    <glyph glyph-name="circumflex.cap" 
d="M359 800h80l49 -122h-44l-51 80l-89 -80h-54z" />
    <glyph glyph-name="caron.cap" 
d="M409 678h-80l-49 122h44l51 -80l89 80h54z" />
    <glyph glyph-name="tilde.cap" 
d="M270 677h-47q28 113 109 113q28 0 58 -32.5t49 -32.5q21 0 32.5 14.5t21.5 47.5h47q-14 -53 -42 -83t-68 -30q-28 0 -58 32.5t-49 32.5q-21 0 -32 -14.5t-21 -47.5z" />
    <glyph glyph-name="macron.cap" 
d="M244 686l13 51h251l-13 -51h-251z" />
    <glyph glyph-name="breve.cap" 
d="M369 675q-39 0 -62.5 19.5t-23.5 56.5q0 22 7 49h47q-5 -22 -5 -35q0 -42 45 -42q60 0 80 77h51q-32 -125 -139 -125z" />
    <glyph glyph-name="dotaccent.cap" 
d="M337 684l20 81h65l-20 -81h-65z" />
    <glyph glyph-name="dieresis.cap" 
d="M275 684l20 81h65l-20 -81h-65zM399 684l20 81h65l-20 -81h-65z" />
    <glyph glyph-name="ring.cap" 
d="M468 746q0 -37 -26 -62.5t-63 -25.5q-35 0 -56.5 21.5t-21.5 54.5q0 37 26 62.5t63 25.5q35 0 56.5 -21.5t21.5 -54.5zM430 746q0 18 -11 29t-30 11q-22 0 -36 -15t-14 -37q0 -18 11 -29t30 -11q22 0 36 15t14 37z" />
    <glyph glyph-name="hungarumlaut.cap" 
d="M279 678h-37l84 122h80zM399 678h-37l84 122h80z" />
    <glyph glyph-name="exclamdown.cap" horiz-adv-x="180" 
d="M236 630l-19 -80h-80l19 80h80zM72 0h-66l45 180l97 298h22l-53 -298z" />
    <glyph glyph-name="questiondown.cap" horiz-adv-x="478" 
d="M292 474h58q-12 -53 -42.5 -89.5t-91.5 -73.5q-70 -42 -89 -60q-41 -39 -41 -96q0 -52 33 -84t93 -32q80 0 126.5 57.5t48.5 147.5l63 -4q-5 -116 -70 -184t-168 -68q-92 0 -140.5 46t-48.5 121q0 72 43 117t122 87q86 46 104 115zM394 630l-19 -80h-80l19 80h80z" />
    <glyph glyph-name="guilsinglleft.cap" horiz-adv-x="239" 
d="M52 284l11 44l171 130l-18 -75l-112 -83l71 -85l-17 -61z" />
    <glyph glyph-name="guilsinglright.cap" horiz-adv-x="239" 
d="M216 328l-11 -44l-171 -130l18 75l112 83l-71 85l17 61z" />
    <glyph glyph-name="guillemotleft.cap" horiz-adv-x="384" 
d="M52 284l11 44l171 130l-18 -75l-112 -83l71 -85l-17 -61zM197 284l11 44l171 130l-18 -75l-112 -83l71 -85l-17 -61z" />
    <glyph glyph-name="guillemotright.cap" horiz-adv-x="384" 
d="M216 328l-11 -44l-171 -130l18 75l112 83l-71 85l17 61zM361 328l-11 -44l-171 -130l18 75l112 83l-71 85l17 61z" />
    <glyph glyph-name="slash.cap" horiz-adv-x="330" 
d="M-60 0l446 630h64l-446 -630h-64z" />
    <glyph glyph-name="backslash.cap" horiz-adv-x="322" 
d="M145 630l137 -630h-55l-137 630h55z" />
    <glyph glyph-name="bar.cap" horiz-adv-x="186" 
d="M12 0l156 630h56l-157 -630h-55z" />
    <glyph glyph-name="periodcentered.cap" horiz-adv-x="205" 
d="M79 275l19 80h80l-19 -80h-80z" />
    <glyph glyph-name="bullet.cap" horiz-adv-x="315" 
d="M290 315q0 -46 -31.5 -76.5t-76.5 -30.5t-76 30.5t-31 76.5t31 77t76 31t76.5 -31t31.5 -77z" />
    <glyph glyph-name="hyphen.cap" horiz-adv-x="340" 
d="M79 287l14 55h220l-14 -55h-220z" />
    <glyph glyph-name="endash.cap" 
d="M80 291l12 48h380l-12 -48h-380z" />
    <glyph glyph-name="emdash.cap" horiz-adv-x="1000" 
d="M80 291l12 48h880l-12 -48h-880z" />
    <glyph glyph-name="parenleft.cap" horiz-adv-x="273" 
d="M45 178q0 131 64.5 259.5t182.5 237.5h67q-120 -111 -184 -248.5t-64 -249.5q0 -145 63 -246h-58q-71 104 -71 247z" />
    <glyph glyph-name="parenright.cap" horiz-adv-x="273" 
d="M270 428q0 -131 -64.5 -259.5t-182.5 -237.5h-67q120 111 184 248.5t64 249.5q0 145 -63 246h58q71 -104 71 -247z" />
    <glyph glyph-name="bracketleft.cap" horiz-adv-x="265" 
d="M229 625l-161 -644h90l-12 -50h-150l185 744h150l-12 -50h-90z" />
    <glyph glyph-name="bracketright.cap" horiz-adv-x="265" 
d="M82 -19l161 644h-90l12 50h150l-185 -744h-150l12 50h90z" />
    <glyph glyph-name="braceleft.cap" horiz-adv-x="279" 
d="M45 278l13 50h25q30 0 42 15t23 58l45 183q11 46 35 68.5t67 22.5h53l-12 -50h-40q-32 0 -41 -37l-46 -187q-21 -85 -91 -98q48 -10 48 -57q0 -15 -27.5 -124.5t-27.5 -119.5q0 -21 24 -21h40l-12 -50h-53q-63 0 -63 52q0 22 30 134t30 133q0 28 -37 28h-25z" />
    <glyph glyph-name="braceright.cap" horiz-adv-x="279" 
d="M281 328l-13 -50h-25q-30 0 -42 -15t-23 -58l-45 -183q-11 -46 -35 -68.5t-67 -22.5h-53l12 50h40q32 0 41 37l46 187q21 85 91 98q-48 10 -48 57q0 15 27.5 124.5t27.5 119.5q0 21 -24 21h-40l12 50h53q63 0 63 -52q0 -22 -30 -134t-30 -133q0 -28 37 -28h25z" />
    <glyph glyph-name="at.cap" horiz-adv-x="755" 
d="M563 185q59 0 98.5 56t39.5 158q0 101 -68 162t-178 61q-144 0 -245 -101t-101 -260q0 -111 75.5 -181.5t196.5 -70.5q115 0 210 45l19 -35q-103 -57 -229 -57q-146 0 -235.5 81.5t-89.5 216.5q0 177 114.5 293t284.5 116q135 0 217.5 -75t82.5 -195q0 -121 -57.5 -191.5
t-133.5 -70.5q-38 0 -62 21.5t-30 53.5q-20 -34 -54.5 -55t-75.5 -21q-55 0 -88 35.5t-33 96.5q0 87 55 156.5t138 69.5q44 0 73 -21t39 -53l21 66h59l-72 -241q-9 -29 0 -44.5t29 -15.5zM490 303l9 26q17 50 -6 84.5t-71 34.5q-59 0 -99 -55t-40 -127q0 -81 73 -81
q45 0 81 30.5t53 87.5z" />
    <glyph glyph-name="Euro.lt" horiz-adv-x="600" 
d="M65 352l11 47h57q36 106 108 174.5t173 68.5q107 0 159 -72t41 -189l-58 -3q8 94 -28.5 152.5t-113.5 58.5q-79 0 -134 -53t-85 -137h221l-21 -47h-215q-10 -45 -13 -77h197l-22 -47h-177q0 -88 40 -137.5t110 -49.5q169 0 219 211l60 -3q-28 -120 -100 -190.5
t-179 -70.5q-97 0 -154 66t-57 174h-71l12 47h61q3 32 13 77h-54z" />
    <glyph glyph-name="dollar.lt" horiz-adv-x="600" 
d="M63 251h58q-12 -85 21.5 -138t103.5 -69l63 251l-42 12q-127 37 -127 151q0 80 59 132t159 52q13 0 37 -2l23 92h49l-26 -101q77 -22 115.5 -83.5t28.5 -150.5h-57q8 64 -18.5 113.5t-80.5 69.5l-61 -243l22 -6q75 -21 111.5 -58t36.5 -95q0 -87 -64.5 -138.5
t-164.5 -51.5q-5 0 -14 0.5t-13 0.5l-23 -92h-49l24 99q-91 18 -138.5 83t-32.5 172zM201 463q0 -44 25 -68t79 -40l17 -5l60 240q-16 2 -24 2q-75 0 -116 -33.5t-41 -95.5zM364 279l-9 2l-61 -243h15q79 0 123 36t44 98q0 42 -26.5 66t-85.5 41z" />
    <glyph glyph-name="cent.lt" horiz-adv-x="600" 
d="M78 169q0 112 70.5 193t183.5 84l24 97h49l-25 -101q69 -12 101 -63t24 -123l-54 -4q5 55 -15.5 92t-68.5 48l-88 -354q62 4 104 44t57 102l55 -6q-20 -82 -80 -135t-149 -55l-21 -87h-49l22 91q-67 11 -103.5 58.5t-36.5 118.5zM140 169q0 -49 24 -83t67 -44l88 354
q-77 -5 -128 -69t-51 -158z" />
    <glyph glyph-name="sterling.lt" horiz-adv-x="600" 
d="M440 591q-78 0 -120.5 -52t-42.5 -126q0 -51 1 -72h169l-12 -48h-154q2 -42 2 -59q0 -69 -25 -125q32 -25 45 -35t41 -22t54 -12q47 0 71 31t37 93l58 -2q-40 -174 -172 -174q-32 0 -63 13t-49.5 26.5t-46.5 37.5q-55 -77 -135 -77q-41 0 -63 22.5t-22 60.5
q0 45 31.5 71.5t77.5 26.5t92 -29q14 40 14 87q0 28 -5 66h-91l12 48h74q-2 40 -2 72q0 92 62 160.5t164 68.5q97 0 137 -53t20 -149l-57 -3q16 74 -10.5 114t-91.5 40zM108 34q51 0 87 62q-39 29 -71 29q-62 0 -62 -51q0 -19 12.5 -29.5t33.5 -10.5z" />
    <glyph glyph-name="yen.lt" horiz-adv-x="600" 
d="M107 272l12 48h138l-128 310h62l126 -306l272 306h74l-283 -310h139l-12 -48h-170l-20 -77h170l-12 -48h-170l-36 -147h-60l36 147h-170l12 48h170l20 77h-170z" />
    <glyph glyph-name="florin.lt" horiz-adv-x="600" 
d="M428 501l-44 -125h100l-11 -46h-105l-100 -290q-47 -134 -155 -134q-12 0 -38 4l13 47q14 -3 26 -3q65 0 97 92l98 284h-89l11 46h94l46 131q47 133 155 133q19 0 49 -7l-12 -46q-20 5 -34 5q-69 0 -101 -91z" />
    <glyph glyph-name="zero.lt" horiz-adv-x="600" 
d="M279 39q90 0 144 58.5t87 188.5q17 65 17 123q0 87 -41.5 134.5t-114.5 47.5q-90 0 -144 -58.5t-87 -188.5q-17 -65 -17 -123q0 -87 41.5 -134.5t114.5 -47.5zM280 -12q-106 0 -163 64t-57 174q0 56 15 120q34 146 109.5 221t185.5 75q106 0 163 -64t57 -174
q0 -56 -15 -120q-34 -146 -109.5 -221t-185.5 -75z" />
    <glyph glyph-name="one.lt" horiz-adv-x="600" 
d="M78 0l13 53h163l110 444h-151l12 45h24q81 0 114 18t60 75h39l-145 -582h158l-13 -53h-384z" />
    <glyph glyph-name="two.lt" horiz-adv-x="600" 
d="M153 56h348l-13 -56h-456l7 30l258 187q11 8 45.5 31.5t51 35.5t44 36.5t41 44.5t24.5 48t11 58q0 55 -34.5 87.5t-96.5 32.5q-83 0 -129.5 -57t-47.5 -158l-61 4q2 115 66 188.5t172 73.5q96 0 144.5 -48.5t48.5 -121.5q0 -38 -14 -73t-30.5 -58.5t-54.5 -55.5t-59 -47
t-72 -50z" />
    <glyph glyph-name="three.lt" horiz-adv-x="600" 
d="M460 191q0 102 -123 102q-35 0 -65 -4l14 57q21 -3 63 -3q66 0 119 35t53 106q0 48 -33 77.5t-96 29.5q-73 0 -123.5 -43t-68.5 -126l-61 3q23 102 90.5 159.5t162.5 57.5q94 0 141.5 -42.5t47.5 -115.5q0 -71 -48 -115t-112 -54q48 -12 74.5 -45t26.5 -79
q0 -95 -66 -149t-168 -54q-117 0 -176 67.5t-36 167.5l58 -4q-18 -81 27 -130.5t127 -49.5q79 0 125.5 38.5t46.5 113.5z" />
    <glyph glyph-name="four.lt" horiz-adv-x="600" 
d="M553 630l-100 -401h115l-13 -51h-115l-44 -178h-62l44 178h-347l15 61l429 391h78zM475 567l-370 -338h286z" />
    <glyph glyph-name="five.lt" horiz-adv-x="600" 
d="M599 630l-15 -59h-303q-8 -27 -39 -113.5t-43 -112.5q61 71 155 71q86 0 137 -50.5t51 -135.5q0 -107 -68.5 -174.5t-174.5 -67.5t-166.5 67t-36.5 169l59 -6q-16 -76 25.5 -128t118.5 -52q85 0 132.5 52.5t47.5 137.5q0 63 -35.5 99t-98.5 36q-107 0 -164 -88l-63 4
q83 191 128 351h353z" />
    <glyph glyph-name="six.lt" horiz-adv-x="600" 
d="M392 592q-101 0 -166 -81.5t-89 -224.5q26 64 83 100.5t128 36.5q98 0 149 -55t51 -141q0 -103 -72.5 -171t-176.5 -68q-105 0 -164 62.5t-59 171.5q0 75 20 148t58 134.5t100 99.5t138 38q103 0 154.5 -52t46.5 -139l-58 -3q3 66 -35.5 105t-107.5 39zM488 227
q0 64 -40.5 103.5t-111.5 39.5q-82 0 -136 -50.5t-54 -134.5q0 -65 40.5 -104.5t111.5 -39.5q82 0 136 51t54 135z" />
    <glyph glyph-name="seven.lt" horiz-adv-x="600" 
d="M520 572h-389l15 58h471l-8 -31q-144 -121 -241.5 -276t-138.5 -323h-68q43 167 140 319t219 253z" />
    <glyph glyph-name="eight.lt" horiz-adv-x="600" 
d="M301 37q81 0 126.5 39t45.5 99q0 59 -46 89t-121 30q-77 0 -122 -38.5t-45 -97.5q0 -57 45.5 -89t116.5 -32zM297 -12q-92 0 -158 44.5t-66 125.5q0 70 49.5 115.5t127.5 54.5q-92 39 -92 128q0 83 65 134.5t157 51.5q87 0 141.5 -42t54.5 -119q0 -65 -39.5 -108.5
t-112.5 -58.5q50 -13 83 -49.5t33 -86.5q0 -85 -69 -137.5t-174 -52.5zM361 343q68 0 111 40t43 99q0 54 -38.5 83t-100.5 29q-68 0 -111 -39.5t-43 -95.5t38.5 -86t100.5 -30z" />
    <glyph glyph-name="nine.lt" horiz-adv-x="600" 
d="M256 38q101 0 166 81.5t89 224.5q-26 -64 -83 -100.5t-128 -36.5q-98 0 -149 55t-51 141q0 103 72.5 171t176.5 68q105 0 164 -62.5t59 -171.5q0 -75 -20 -148t-58 -134.5t-100 -99.5t-138 -38q-103 0 -154.5 52t-46.5 139l58 3q-3 -66 35.5 -105t107.5 -39zM160 403
q0 -64 40.5 -103.5t111.5 -39.5q82 0 136 50.5t54 134.5q0 65 -40.5 104.5t-111.5 39.5q-82 0 -136 -51t-54 -135z" />
    <glyph glyph-name="period.tab" horiz-adv-x="300" 
d="M59 0l19 80h80l-19 -80h-80z" />
    <glyph glyph-name="comma.tab" horiz-adv-x="300" 
d="M59 0l19 80h80l-20 -81q-13 -53 -34 -77t-71 -24l10 41q26 2 36 14t19 47h-39z" />
    <glyph glyph-name="colon.tab" horiz-adv-x="300" 
d="M59 0l19 80h80l-19 -80h-80zM141 331l19 80h80l-19 -80h-80z" />
    <glyph glyph-name="semicolon.tab" horiz-adv-x="300" 
d="M59 0l19 80h80l-20 -81q-13 -53 -34 -77t-71 -24l10 41q26 2 36 14t19 47h-39zM141 331l19 80h80l-19 -80h-80z" />
    <glyph glyph-name="space.tab" horiz-adv-x="300" 
 />
    <glyph glyph-name="percent.lt" horiz-adv-x="800" 
d="M172 436q0 -74 66 -74q49 0 79.5 46t30.5 115q0 74 -66 74q-49 0 -79.5 -46t-30.5 -115zM114 443q0 83 50.5 141t119.5 58q58 0 90 -34t32 -92q0 -83 -50.5 -141t-119.5 -58q-58 0 -90 34t-32 92zM691 642l-496 -654h-59l496 654h59zM655 194q0 74 -66 74
q-49 0 -79.5 -46t-30.5 -115q0 -74 66 -74q49 0 79.5 46t30.5 115zM713 187q0 -83 -50.5 -141t-119.5 -58q-58 0 -90 34t-32 92q0 83 50.5 141t119.5 58q58 0 90 -34t32 -92z" />
    <glyph glyph-name="perthousand.lt" horiz-adv-x="1200" 
d="M207 436q0 -74 66 -74q49 0 79.5 46t30.5 115q0 74 -66 74q-49 0 -79.5 -46t-30.5 -115zM149 443q0 83 50.5 141t119.5 58q58 0 90 -34t32 -92q0 -83 -50.5 -141t-119.5 -58q-58 0 -90 34t-32 92zM726 642l-496 -654h-59l496 654h59zM690 194q0 74 -66 74
q-49 0 -79.5 -46t-30.5 -115q0 -74 66 -74q49 0 79.5 46t30.5 115zM748 187q0 -83 -50.5 -141t-119.5 -58q-58 0 -90 34t-32 92q0 83 50.5 141t119.5 58q58 0 90 -34t32 -92zM1020 194q0 74 -66 74q-49 0 -79.5 -46t-30.5 -115q0 -74 66 -74q49 0 79.5 46t30.5 115z
M1078 187q0 -83 -50.5 -141t-119.5 -58q-58 0 -90 34t-32 92q0 83 50.5 141t119.5 58q58 0 90 -34t32 -92z" />
    <glyph glyph-name="plus.lt" horiz-adv-x="600" 
d="M357 566h52l-57 -228h227l-12 -52h-228l-57 -227h-52l57 227h-227l13 52h227z" />
    <glyph glyph-name="minus.lt" horiz-adv-x="600" 
d="M60 286l13 52h506l-12 -52h-507z" />
    <glyph glyph-name="multiply.lt" horiz-adv-x="600" 
d="M104 101l-28 36l215 172l-127 167l39 31l124 -169l217 175l29 -35l-221 -177l127 -168l-39 -31l-123 169z" />
    <glyph glyph-name="divide.lt" horiz-adv-x="600" 
d="M65 286l13 52h506l-12 -52h-507zM324 477l22 84h84l-22 -84h-84zM221 63l21 84h84l-21 -84h-84z" />
    <glyph glyph-name="equal.lt" horiz-adv-x="600" 
d="M43 211l12 53h507l-12 -53h-507zM79 356l12 53h507l-12 -53h-507z" />
    <glyph glyph-name="less.lt" horiz-adv-x="600" 
d="M87 279l15 63l441 219l-18 -68l-387 -187l294 -192l-15 -55z" />
    <glyph glyph-name="greater.lt" horiz-adv-x="600" 
d="M548 342l-16 -63l-440 -220l17 68l388 189l-294 190l15 55z" />
    <glyph glyph-name="plusminus.lt" horiz-adv-x="600" 
d="M373 603h52l-50 -200h230l-12 -51h-231l-50 -200h-52l50 200h-232l13 51h232zM1 46l15 52h514l-14 -52h-515z" />
    <glyph glyph-name="lessequal.lt" horiz-adv-x="600" 
d="M63 46l14 52h386l-14 -52h-386zM138 347l14 54l434 192l-17 -62l-368 -162l289 -162l-13 -53z" />
    <glyph glyph-name="greaterequal.lt" horiz-adv-x="600" 
d="M487 98l-14 -52h-386l14 52h386zM562 400l-14 -53l-434 -193l17 62l368 162l-289 162l13 53z" />
    <glyph glyph-name="notequal.lt" horiz-adv-x="600" 
d="M83 356l12 53h297l131 127h66l-131 -127h144l-12 -53h-187l-95 -92h258l-12 -53h-300l-128 -124h-67l128 124h-140l12 53h183l95 92h-254z" />
    <glyph glyph-name="approxequal.lt" horiz-adv-x="600" 
d="M77 329l13 55q83 46 147 46q43 0 110 -22t111 -22q69 0 149 45l-13 -55q-80 -46 -150 -46q-43 0 -110.5 22t-110.5 22q-66 0 -146 -45zM43 193l13 56q80 45 147 45q44 0 110.5 -22t109.5 -22q69 0 152 45l-15 -55q-80 -45 -150 -45q-44 0 -110 22t-110 22q-65 0 -147 -46
z" />
    </font>
</defs>
</svg>
