<svg width="22" height="18" viewBox="0 0 22 18" xmlns="http://www.w3.org/2000/svg"><title>twitter copy 2</title><path d="M18.97 4.29v.57c0 .968-.122 1.94-.366 2.918a14.081 14.081 0 0 1-1.052 2.85 11.643 11.643 0 0 1-1.759 2.586 12.78 12.78 0 0 1-2.404 2.1c-.887.597-1.91 1.068-3.068 1.414a12.77 12.77 0 0 1-3.668.518c-2.606 0-4.824-.59-6.653-1.772a7.468 7.468 0 0 0 3.858-.487 9.99 9.99 0 0 0 2.548-1.503 4.087 4.087 0 0 1-2.512-.866 4.235 4.235 0 0 1-1.521-2.16c.288.055.557.082.804.082.399 0 .784-.051 1.155-.155-.997-.2-1.825-.7-2.486-1.498a4.221 4.221 0 0 1-.99-2.772v-.052a4.302 4.302 0 0 0 1.96.539 4.359 4.359 0 0 1-1.418-1.555 4.213 4.213 0 0 1-.521-2.052c0-.711.196-1.416.588-2.114a12.058 12.058 0 0 0 3.94 3.156 12.432 12.432 0 0 0 4.983 1.31 4.584 4.584 0 0 1-.093-1.004c0-1.203.421-2.227 1.263-3.073C12.401.423 13.42 0 14.617 0c1.231 0 2.293.456 3.188 1.368A8.594 8.594 0 0 0 20.538.311a4.173 4.173 0 0 1-1.908 2.415 8.208 8.208 0 0 0 2.496-.695 8.723 8.723 0 0 1-2.156 2.26z" fill="#FFF" fill-rule="evenodd"/></svg>