<svg width="49" height="22" viewBox="0 0 49 22" xmlns="http://www.w3.org/2000/svg"><title>charity navigator</title><g fill="none" fill-rule="evenodd"><rect fill="#FFF" width="49" height="22" rx="2"/><path d="M10.238 7.11c0-1.164.834-1.962 1.938-1.962 1.158 0 1.776.738 1.848 1.68l-.978.036c-.06-.42-.288-.81-.876-.81-.558 0-.882.414-.882 1.056 0 .642.324 1.056.882 1.056.588 0 .816-.39.876-.81l.978.042c-.072.942-.69 1.674-1.848 1.674-1.104 0-1.938-.798-1.938-1.962zM16.22 9H15.2V5.22h1.02v1.458h1.506V5.22h1.02V9h-1.02V7.506H16.22V9zm5.1-3.78h1.14L23.966 9H22.88l-.282-.732h-1.476L20.84 9h-1.026l1.506-3.78zm.528 1.17l-.432 1.116h.888l-.432-1.116h-.024zM28.46 9h-1.032c-.078-.102-.126-.336-.156-.726-.03-.432-.216-.528-.558-.528h-.678V9h-1.002V5.22h1.908c.978 0 1.464.462 1.464 1.2 0 .552-.342.912-.804.972.39.078.618.3.66.738.054.564.072.732.198.87zm-2.424-2.04h.726c.432 0 .648-.108.648-.456 0-.306-.216-.468-.648-.468h-.726v.924zm3.6-1.74h1.02V9h-1.02V5.22zM34.184 9H33.17V6.06h-1.296v-.84h3.624v.84h-1.314V9zm4.23-2.418l.81-1.362h1.098L38.87 7.566V9h-.99V7.566L36.428 5.22h1.134l.852 1.362zM7.301 12.22l1.476 2.094V12.22h.936V16h-.816l-1.632-2.238V16h-.936v-3.78h.972zm4.986 0h1.14L14.933 16h-1.086l-.282-.732h-1.476l-.282.732h-1.026l1.506-3.78zm.528 1.17l-.432 1.116h.888l-.432-1.116h-.024zM17.879 16h-1.074l-1.452-3.78h1.068l.936 2.514h.024l.936-2.514h1.014L17.879 16zm2.52-3.78h1.02V16h-1.02v-3.78zm4.044 3.852c-1.044 0-1.836-.792-1.836-1.962 0-1.164.858-1.962 1.95-1.962 1.11 0 1.758.606 1.842 1.548l-.99.036c-.054-.414-.342-.678-.828-.678-.594 0-.924.414-.924 1.056 0 .66.348 1.098 1.002 1.098.33 0 .654-.138.804-.438h-.834v-.732h1.8V16h-.888v-.42c-.21.348-.612.492-1.098.492zm4.53-3.852h1.14L31.619 16h-1.086l-.282-.732h-1.476l-.282.732h-1.026l1.506-3.78zm.528 1.17l-.432 1.116h.888l-.432-1.116h-.024zM34.349 16h-1.014v-2.94h-1.296v-.84h3.624v.84h-1.314V16zm6.108-1.89c0 1.164-.864 1.962-1.962 1.962-1.098 0-1.962-.798-1.962-1.962s.864-1.962 1.962-1.962c1.098 0 1.962.798 1.962 1.962zm-1.05 0c0-.642-.354-1.062-.912-1.062s-.912.42-.912 1.062c0 .642.354 1.062.912 1.062s.912-.42.912-1.062zM45.071 16h-1.032c-.078-.102-.126-.336-.156-.726-.03-.432-.216-.528-.558-.528h-.678V16h-1.002v-3.78h1.908c.978 0 1.464.462 1.464 1.2 0 .552-.342.912-.804.972.39.078.618.3.66.738.054.564.072.732.198.87zm-2.424-2.04h.726c.432 0 .648-.108.648-.456 0-.306-.216-.468-.648-.468h-.726v.924z" fill="#050505"/></g></svg>