<svg width="153" height="31" viewBox="0 0 153 31" xmlns="http://www.w3.org/2000/svg"><title>Group</title><g fill="none" fill-rule="evenodd"><path d="M.923 19.704l7.203-.23c.277 3.647 3.093 4.893 6.325 4.893 2.724 0 4.479-.97 4.479-2.585 0-1.709-1.709-1.986-3.925-2.401l-5.31-.923c-4.755-.878-8.08-3.556-8.08-8.634 0-5.91 4.618-9.465 11.867-9.465 8.033 0 12.373 3.924 12.512 10.388l-7.203.139c-.23-3.001-2.4-4.387-5.402-4.387-2.585 0-4.063 1.016-4.063 2.632 0 1.34 1.108 1.847 2.909 2.17l5.494.97c6.095 1.062 8.865 4.247 8.865 9.003 0 6.187-5.356 9.28-12.143 9.28-7.895 0-13.528-3.832-13.528-10.85zm49.915 3.832V30h-22.9V.913h22.485v6.464H35.648v4.755h11.404v6.372H35.648v5.032h15.19zm30.154-8.08c0 8.957-6.648 15.098-15.097 15.098-8.45 0-15.098-6.14-15.098-15.098C50.797 6.5 57.446.36 65.895.36c8.449 0 15.097 6.14 15.097 15.097zm-8.08 0c0-4.94-2.723-8.172-7.017-8.172-4.294 0-7.018 3.232-7.018 8.172s2.724 8.173 7.018 8.173 7.018-3.232 7.018-8.173z" fill="#EB0029"/><path d="M86.72.597h2.908v26.64h16.713v2.447H86.72V.597zm34.032 19.992v-1.247l-4.894 1.062c-3.648.785-5.91 1.523-5.91 4.201 0 1.893 1.246 3.463 3.878 3.463 3.925 0 6.926-3.001 6.926-7.48zm2.678-3.925v9.65c0 1.062.646 1.57 1.662 1.57.461 0 1.246-.185 1.8-.508v1.523c-.6.693-1.246 1.2-2.631 1.2-1.986 0-3.417-1.708-3.51-4.247-1.061 2.355-4.016 4.386-7.433 4.386-3.74 0-6.233-2.078-6.233-5.54 0-3.786 3.325-5.31 8.31-6.326l5.357-1.108V16.25c0-3.048-1.801-4.94-4.94-4.94-3.232 0-5.033 1.892-5.726 4.478l-2.4-.462c.784-3.601 3.74-6.233 8.08-6.233 4.986 0 7.664 2.632 7.664 7.572zm16.949-7.018l4.71 16.252h.184l4.94-16.252h2.678l-6.371 20.038h-2.678l-4.663-15.975h-.185l-4.617 15.975h-2.678l-6.418-20.038h2.817l5.032 16.252h.185l4.617-16.252h2.447z" fill="#050505"/></g></svg>