<svg width="455" height="31" viewBox="0 0 455 31" xmlns="http://www.w3.org/2000/svg"><title>Group</title><g fill="none" fill-rule="evenodd"><path d="M.923 19.704l7.203-.23c.277 3.647 3.093 4.893 6.325 4.893 2.724 0 4.479-.97 4.479-2.585 0-1.709-1.709-1.986-3.925-2.401l-5.31-.923c-4.755-.878-8.08-3.556-8.08-8.634 0-5.91 4.618-9.465 11.867-9.465 8.033 0 12.373 3.924 12.512 10.388l-7.203.139c-.23-3.001-2.4-4.387-5.402-4.387-2.585 0-4.063 1.016-4.063 2.632 0 1.34 1.108 1.847 2.909 2.17l5.494.97c6.095 1.062 8.865 4.247 8.865 9.003 0 6.187-5.356 9.28-12.143 9.28-7.895 0-13.528-3.832-13.528-10.85zm49.915 3.832V30h-22.9V.913h22.485v6.464H35.648v4.755h11.404v6.372H35.648v5.032h15.19zm30.154-8.08c0 8.957-6.648 15.098-15.097 15.098-8.45 0-15.098-6.14-15.098-15.098C50.797 6.5 57.446.36 65.895.36c8.449 0 15.097 6.14 15.097 15.097zm-8.08 0c0-4.94-2.723-8.172-7.017-8.172-4.294 0-7.018 3.232-7.018 8.172s2.724 8.173 7.018 8.173 7.018-3.232 7.018-8.173z" fill="#EB0029"/><path d="M96.369.597h3.14l12.28 29.087h-3.093l-3.924-9.372H91.013l-3.74 9.372h-2.862L96.369.597zm1.339 3.14l-5.68 14.128h11.728L97.892 3.737h-.184zm15.287-3.14h2.816v29.087h-2.816V.597zm6.792 24.655V11.724h-3.093v-1.385l1.2-.231c1.847-.37 2.216-1.247 2.632-3.186l.6-2.862h1.431v5.586h5.818v2.078h-5.818v13.574c0 1.8.74 2.678 2.586 2.678 1.385 0 2.77-.693 3.924-1.385v1.985c-1.43 1.108-2.862 1.662-4.894 1.662-2.677 0-4.386-1.339-4.386-4.986zm25.86-2.724l2.401.323c-.97 4.57-4.293 7.387-9.187 7.387-5.818 0-10.158-4.109-10.158-10.296 0-6.325 4.294-10.85 9.973-10.85 6.279 0 9.419 4.525 9.419 9.973v1.293h-16.483c.185 4.432 3.278 7.572 7.249 7.572 3.693 0 5.955-1.847 6.787-5.402zm-13.989-4.156h13.436c-.093-3.693-2.17-7.064-6.418-7.064-3.97 0-6.556 3.325-7.018 7.064zm29.831-8.356l-.323 2.447c-1.154-.6-1.847-.785-3.047-.785-2.91 0-5.264 3-5.264 7.018v10.988h-2.816V9.646h2.816v4.202c.785-2.309 2.817-4.756 5.771-4.756 1.247 0 2.124.277 2.863.924zm3.56 7.664v12.004h-2.816V9.646h2.816v3.694c.97-2.447 3.74-4.248 6.741-4.248 5.171 0 7.341 3.37 7.341 8.172v12.42h-2.816V17.172c0-3.555-1.847-5.864-5.264-5.864-3.185 0-6.002 2.494-6.002 6.372zm29.877 2.909v-1.247l-4.894 1.062c-3.647.785-5.91 1.523-5.91 4.201 0 1.893 1.247 3.463 3.879 3.463 3.924 0 6.925-3.001 6.925-7.48zm2.678-3.925v9.65c0 1.062.647 1.57 1.662 1.57.462 0 1.247-.185 1.8-.508v1.523c-.6.693-1.246 1.2-2.63 1.2-1.986 0-3.417-1.708-3.51-4.247-1.062 2.355-4.016 4.386-7.433 4.386-3.74 0-6.233-2.078-6.233-5.54 0-3.786 3.324-5.31 8.31-6.326l5.356-1.108V16.25c0-3.048-1.8-4.94-4.94-4.94-3.232 0-5.032 1.892-5.725 4.478l-2.4-.462c.784-3.601 3.739-6.233 8.079-6.233 4.986 0 7.664 2.632 7.664 7.572zm4.853 8.588V11.724h-3.093v-1.385l1.2-.231c1.847-.37 2.216-1.247 2.632-3.186l.6-2.862h1.431v5.586h5.818v2.078h-5.818v13.574c0 1.8.74 2.678 2.586 2.678 1.385 0 2.77-.693 3.924-1.385v1.985c-1.43 1.108-2.862 1.662-4.894 1.662-2.678 0-4.386-1.339-4.386-4.986zm10.486-15.606h2.816v20.038h-2.816V9.646zm-.092-5.31V.597h3v3.74h-3zm14.64 25.348h-2.262l-8.495-20.038h2.955l6.74 16.252h.185l6.603-16.252h2.77l-8.495 20.038zm24.753-7.156l2.4.323c-.969 4.57-4.293 7.387-9.187 7.387-5.818 0-10.158-4.109-10.158-10.296 0-6.325 4.294-10.85 9.973-10.85 6.28 0 9.419 4.525 9.419 9.973v1.293h-16.483c.185 4.432 3.278 7.572 7.249 7.572 3.693 0 5.956-1.847 6.787-5.402zm-13.99-4.156h13.436c-.093-3.693-2.17-7.064-6.418-7.064-3.97 0-6.556 3.325-7.018 7.064zM262.92.597h2.91v29.087h-2.91V.597zm9.24 17.083v12.004h-2.817V9.646h2.816v3.694c.97-2.447 3.74-4.248 6.741-4.248 5.171 0 7.341 3.37 7.341 8.172v12.42h-2.816V17.172c0-3.555-1.847-5.864-5.263-5.864-3.186 0-6.003 2.494-6.003 6.372zm25.352 12.004h-2.262l-8.496-20.038h2.955l6.741 16.252h.185l6.602-16.252h2.77l-8.495 20.038zm24.752-7.156l2.401.323c-.97 4.57-4.294 7.387-9.188 7.387-5.817 0-10.157-4.109-10.157-10.296 0-6.325 4.294-10.85 9.973-10.85 6.279 0 9.418 4.525 9.418 9.973v1.293h-16.482c.184 4.432 3.278 7.572 7.248 7.572 3.694 0 5.956-1.847 6.787-5.402zm-13.99-4.156h13.436c-.092-3.693-2.17-7.064-6.417-7.064-3.971 0-6.557 3.325-7.018 7.064zm17.181 4.525l2.262-.277c.416 3.463 2.77 5.402 6.603 5.402 3.093 0 5.263-1.154 5.263-3.509 0-2.216-1.57-2.909-4.386-3.417l-3.463-.6c-3.509-.6-5.679-2.216-5.679-5.448 0-3.601 3.001-5.956 7.387-5.956 5.172 0 8.173 2.447 8.496 7.203l-2.17.184c-.508-3.6-2.632-5.17-6.326-5.17-2.862 0-4.755 1.292-4.755 3.416 0 1.94 1.154 2.909 3.647 3.324l3.694.6c3.924.647 6.233 2.032 6.233 5.587 0 3.924-3.509 6.002-7.895 6.002-4.848 0-8.588-2.4-8.91-7.34zm19.489 2.355V11.724h-3.093v-1.385l1.2-.231c1.847-.37 2.216-1.247 2.632-3.186l.6-2.862h1.431v5.586h5.818v2.078h-5.818v13.574c0 1.8.739 2.678 2.586 2.678 1.385 0 2.77-.693 3.924-1.385v1.985c-1.431 1.108-2.862 1.662-4.894 1.662-2.678 0-4.386-1.339-4.386-4.986zm26.414-11.727a7.19 7.19 0 0 1 6.695-4.433c5.171 0 7.064 3.555 7.064 8.172v12.42H382.3V17.172c0-3.555-1.616-5.864-4.94-5.864-3.002 0-5.68 2.494-5.68 6.372v12.004h-2.816V17.172c0-3.555-1.616-5.864-4.94-5.864-3.001 0-5.679 2.494-5.679 6.372v12.004h-2.816V9.646h2.816v3.694c.97-2.447 3.37-4.248 6.464-4.248 3.555 0 5.771 1.755 6.648 4.433zm32.417 9.003l2.4.323c-.969 4.57-4.293 7.387-9.187 7.387-5.818 0-10.158-4.109-10.158-10.296 0-6.325 4.294-10.85 9.973-10.85 6.28 0 9.419 4.525 9.419 9.973v1.293h-16.483c.185 4.432 3.278 7.572 7.249 7.572 3.693 0 5.956-1.847 6.787-5.402zm-13.99-4.156h13.436c-.093-3.693-2.17-7.064-6.418-7.064-3.97 0-6.556 3.325-7.018 7.064zm21.197-.692v12.004h-2.816V9.646h2.816v3.694c.97-2.447 3.74-4.248 6.741-4.248 5.171 0 7.341 3.37 7.341 8.172v12.42h-2.816V17.172c0-3.555-1.847-5.864-5.263-5.864-3.186 0-6.003 2.494-6.003 6.372zm17.827 7.572V11.724h-3.093v-1.385l1.2-.231c1.847-.37 2.216-1.247 2.632-3.186l.6-2.862h1.431v5.586h5.818v2.078h-5.818v13.574c0 1.8.74 2.678 2.586 2.678 1.385 0 2.77-.693 3.924-1.385v1.985c-1.43 1.108-2.862 1.662-4.894 1.662-2.678 0-4.386-1.339-4.386-4.986zm9.055-2.355l2.262-.277c.415 3.463 2.77 5.402 6.602 5.402 3.094 0 5.264-1.154 5.264-3.509 0-2.216-1.57-2.909-4.387-3.417l-3.462-.6c-3.51-.6-5.68-2.216-5.68-5.448 0-3.601 3.002-5.956 7.388-5.956 5.171 0 8.172 2.447 8.495 7.203l-2.17.184c-.508-3.6-2.631-5.17-6.325-5.17-2.863 0-4.755 1.292-4.755 3.416 0 1.94 1.154 2.909 3.647 3.324l3.694.6c3.924.647 6.232 2.032 6.232 5.587 0 3.924-3.508 6.002-7.895 6.002-4.847 0-8.587-2.4-8.91-7.34z" fill="#050505"/></g></svg>