<svg width="205" height="31" viewBox="0 0 205 31" xmlns="http://www.w3.org/2000/svg"><title>Group</title><g fill="none" fill-rule="evenodd"><path d="M.923 19.704l7.203-.23c.277 3.647 3.093 4.893 6.325 4.893 2.724 0 4.479-.97 4.479-2.585 0-1.709-1.709-1.986-3.925-2.401l-5.31-.923c-4.755-.878-8.08-3.556-8.08-8.634 0-5.91 4.618-9.465 11.867-9.465 8.033 0 12.373 3.924 12.512 10.388l-7.203.139c-.23-3.001-2.4-4.387-5.402-4.387-2.585 0-4.063 1.016-4.063 2.632 0 1.34 1.108 1.847 2.909 2.17l5.494.97c6.095 1.062 8.865 4.247 8.865 9.003 0 6.187-5.356 9.28-12.143 9.28-7.895 0-13.528-3.832-13.528-10.85zm49.915 3.832V30h-22.9V.913h22.485v6.464H35.648v4.755h11.404v6.372H35.648v5.032h15.19zm30.154-8.08c0 8.957-6.648 15.098-15.097 15.098-8.45 0-15.098-6.14-15.098-15.098C50.797 6.5 57.446.36 65.895.36c8.449 0 15.097 6.14 15.097 15.097zm-8.08 0c0-4.94-2.723-8.172-7.017-8.172-4.294 0-7.018 3.232-7.018 8.172s2.724 8.173 7.018 8.173 7.018-3.232 7.018-8.173z" fill="#EB0029"/><path d="M85.334 15.14c0-8.956 6.187-15.097 14.128-15.097 8.126 0 12.835 4.986 13.343 12.512l-2.816.138c-.277-5.91-4.11-10.203-10.527-10.203-6.371 0-11.08 4.848-11.08 12.65 0 7.803 4.709 12.651 11.08 12.651 6.418 0 10.25-4.294 10.527-10.203l2.816.138c-.508 7.526-5.217 12.512-13.343 12.512-7.941 0-14.128-6.14-14.128-15.098zm43.6 5.449v-1.247l-4.894 1.062c-3.647.785-5.91 1.523-5.91 4.201 0 1.893 1.247 3.463 3.879 3.463 3.924 0 6.925-3.001 6.925-7.48zm2.678-3.925v9.65c0 1.062.647 1.57 1.662 1.57.462 0 1.247-.185 1.801-.508v1.523c-.6.693-1.247 1.2-2.632 1.2-1.985 0-3.416-1.708-3.509-4.247-1.062 2.355-4.016 4.386-7.433 4.386-3.74 0-6.233-2.078-6.233-5.54 0-3.786 3.324-5.31 8.31-6.326l5.356-1.108V16.25c0-3.048-1.8-4.94-4.94-4.94-3.232 0-5.032 1.892-5.725 4.478l-2.4-.462c.784-3.601 3.739-6.233 8.079-6.233 4.986 0 7.664 2.632 7.664 7.572zm17.099-6.648l-.323 2.447c-1.155-.6-1.847-.785-3.048-.785-2.908 0-5.263 3-5.263 7.018v10.988h-2.816V9.646h2.816v4.202c.785-2.309 2.816-4.756 5.771-4.756 1.247 0 2.124.277 2.863.924zm16.914 12.512l2.4.323c-.969 4.57-4.293 7.387-9.187 7.387-5.818 0-10.158-4.109-10.158-10.296 0-6.325 4.294-10.85 9.973-10.85 6.28 0 9.419 4.525 9.419 9.973v1.293h-16.483c.185 4.432 3.278 7.572 7.249 7.572 3.693 0 5.956-1.847 6.787-5.402zm-13.99-4.156h13.436c-.093-3.693-2.17-7.064-6.418-7.064-3.97 0-6.556 3.325-7.018 7.064zm35.382 4.156l2.401.323c-.97 4.57-4.294 7.387-9.188 7.387-5.817 0-10.157-4.109-10.157-10.296 0-6.325 4.294-10.85 9.973-10.85 6.279 0 9.418 4.525 9.418 9.973v1.293h-16.482c.184 4.432 3.278 7.572 7.248 7.572 3.694 0 5.956-1.847 6.787-5.402zm-13.99-4.156h13.436c-.092-3.693-2.17-7.064-6.417-7.064-3.971 0-6.557 3.325-7.018 7.064zm31.089-8.356l-.323 2.447c-1.155-.6-1.847-.785-3.047-.785-2.91 0-5.264 3-5.264 7.018v10.988h-2.816V9.646h2.816v4.202c.785-2.309 2.816-4.756 5.771-4.756 1.247 0 2.124.277 2.863.924z" fill="#050505"/></g></svg>