<svg width="81" height="31" viewBox="0 0 81 31" xmlns="http://www.w3.org/2000/svg"><title>SEO</title><path d="M.923 19.704l7.203-.23c.277 3.647 3.093 4.893 6.325 4.893 2.724 0 4.479-.97 4.479-2.585 0-1.709-1.709-1.986-3.925-2.401l-5.31-.923c-4.755-.878-8.08-3.556-8.08-8.634 0-5.91 4.618-9.465 11.867-9.465 8.033 0 12.373 3.924 12.512 10.388l-7.203.139c-.23-3.001-2.4-4.387-5.402-4.387-2.585 0-4.063 1.016-4.063 2.632 0 1.34 1.108 1.847 2.909 2.17l5.494.97c6.095 1.062 8.865 4.247 8.865 9.003 0 6.187-5.356 9.28-12.143 9.28-7.895 0-13.528-3.832-13.528-10.85zm49.915 3.832V30h-22.9V.913h22.485v6.464H35.648v4.755h11.404v6.372H35.648v5.032h15.19zm30.154-8.08c0 8.957-6.648 15.098-15.097 15.098-8.45 0-15.098-6.14-15.098-15.098C50.797 6.5 57.446.36 65.895.36c8.449 0 15.097 6.14 15.097 15.097zm-8.08 0c0-4.94-2.723-8.172-7.017-8.172-4.294 0-7.018 3.232-7.018 8.172s2.724 8.173 7.018 8.173 7.018-3.232 7.018-8.173z" fill="#EB0029" fill-rule="evenodd"/></svg>