<svg width="349" height="75" viewBox="0 0 349 75" xmlns="http://www.w3.org/2000/svg"><title>SEO Logo Lockup</title><g fill="#FFF" fill-rule="evenodd"><path d="M.25 47.913l17.55-.563c.675 8.887 7.537 11.925 15.412 11.925 6.638 0 10.913-2.362 10.913-6.3 0-4.163-4.163-4.837-9.563-5.85l-12.937-2.25C10.037 42.737 1.937 36.212 1.937 23.837 1.938 9.437 13.188.775 30.85.775c19.575 0 30.15 9.563 30.487 25.313l-17.55.337c-.562-7.313-5.85-10.688-13.162-10.688-6.3 0-9.9 2.475-9.9 6.413 0 3.263 2.7 4.5 7.087 5.288L41.2 29.8c14.85 2.588 21.6 10.35 21.6 21.937 0 15.075-13.05 22.613-29.587 22.613C13.974 74.35.25 65.013.25 47.913zm121.625 9.337V73h-55.8V2.125h54.787v15.75h-36v11.587h27.788v15.525H84.862V57.25h37.013zm73.475-19.688c0 21.826-16.2 36.788-36.787 36.788-20.588 0-36.788-14.962-36.788-36.787 0-21.826 16.2-36.788 36.787-36.788 20.588 0 36.788 14.963 36.788 36.788zm-19.688 0c0-12.037-6.637-19.912-17.1-19.912-10.462 0-17.1 7.875-17.1 19.913 0 12.037 6.638 19.912 17.1 19.912 10.463 0 17.1-7.875 17.1-19.913zM211.66 13.97l1.71-.15c.15 3.75 2.67 5.82 6.12 5.82 3.12 0 5.07-1.38 5.07-3.72 0-1.92-1.14-2.94-3.87-3.48l-3.84-.75c-2.7-.54-4.56-1.98-4.56-4.83 0-3.12 2.49-5.37 6.48-5.37 4.59 0 7.32 2.52 7.32 6.78l-1.74.15c-.06-3.45-2.1-5.46-5.55-5.46-3 0-4.68 1.47-4.68 3.84 0 2.13 1.35 2.82 3.84 3.3l3.36.66c3.33.66 5.04 2.01 5.04 5.01 0 3.33-2.88 5.34-6.87 5.34-4.5 0-7.83-2.55-7.83-7.14zm27.775 2.13l1.56.21c-.63 2.97-2.79 4.8-5.97 4.8-3.78 0-6.6-2.67-6.6-6.69 0-4.11 2.79-7.05 6.48-7.05 4.08 0 6.12 2.94 6.12 6.48v.84h-10.71c.12 2.88 2.13 4.92 4.71 4.92 2.4 0 3.87-1.2 4.41-3.51zm-9.09-2.7h8.73c-.06-2.4-1.41-4.59-4.17-4.59-2.58 0-4.26 2.16-4.56 4.59zm13.285-5.67h1.83v13.02h-1.83V7.73zm-.06-3.45V1.85h1.95v2.43h-1.95zm12.715 4.92h-7.95V7.73h10.35v1.26l-8.37 10.29h8.58v1.47h-10.83v-1.26l8.22-10.29zm5.155-1.47h1.83v13.02h-1.83V7.73zm-.06-3.45V1.85h1.95v2.43h-1.95zm7.195 8.67v7.8h-1.83V7.73h1.83v2.4c.63-1.59 2.43-2.76 4.38-2.76 3.36 0 4.77 2.19 4.77 5.31v8.07h-1.83v-8.13c0-2.31-1.2-3.81-3.42-3.81-2.07 0-3.9 1.62-3.9 4.14zm22.795-1.17c0 2.73-2.22 4.41-5.28 4.41-1.08 0-2.04-.18-2.85-.57-.54.27-1.08.81-1.08 1.5 0 .81.45 1.23 1.71 1.23h5.04c2.79 0 4.26 1.44 4.26 3.45 0 3.21-3.51 4.41-7.32 4.41-3.45 0-6.3-1.2-6.3-3.6 0-1.59 1.11-2.58 2.76-2.94-1.2-.36-1.68-1.17-1.68-2.13 0-1.11.78-1.86 1.83-2.4-1.02-.75-1.62-1.92-1.62-3.36 0-2.73 2.19-4.41 5.25-4.41 1.68 0 3.12.51 4.05 1.44.69-1.05 1.83-1.77 3.21-1.77v1.77c-.99 0-2.04.27-2.67.63.45.66.69 1.44.69 2.34zm-9.96 10.38c0 1.92 1.83 2.73 4.44 2.73 3.24 0 5.55-.78 5.55-3.03 0-1.38-1.17-1.89-2.91-1.89h-4.11c-1.59 0-2.97.51-2.97 2.19zm8.1-10.35c0-2.01-1.26-3.18-3.42-3.18-2.1 0-3.36 1.17-3.36 3.18 0 1.98 1.26 3.15 3.36 3.15 2.16 0 3.42-1.17 3.42-3.15zm-63.48 31.1v1.59h-13.08V25.6h12.81v1.59h-10.98v6.72h8.79v1.59h-8.79v7.41h11.25zm7.315 1.59h-1.47l-5.52-13.02h1.92l4.38 10.56h.12l4.29-10.56h1.8l-5.52 13.02zm17.425-4.65l1.56.21c-.63 2.97-2.79 4.8-5.97 4.8-3.78 0-6.6-2.67-6.6-6.69 0-4.11 2.79-7.05 6.48-7.05 4.08 0 6.12 2.94 6.12 6.48v.84h-10.71c.12 2.88 2.13 4.92 4.71 4.92 2.4 0 3.87-1.2 4.41-3.51zm-9.09-2.7h8.73c-.06-2.4-1.41-4.59-4.17-4.59-2.58 0-4.26 2.16-4.56 4.59zm20.725-5.43l-.21 1.59c-.75-.39-1.2-.51-1.98-.51-1.89 0-3.42 1.95-3.42 4.56v7.14h-1.83V31.48h1.83v2.73c.51-1.5 1.83-3.09 3.75-3.09.81 0 1.38.18 1.86.6zm5.755 17.88h-1.8l2.19-5.19-5.52-12.93h1.92l4.47 10.71h.12l4.32-10.71h1.8l-7.5 18.12zM228.59 59.3c0 5.82-3.75 9.81-9.27 9.81s-9.27-3.99-9.27-9.81 3.75-9.81 9.27-9.81 9.27 3.99 9.27 9.81zm-1.98 0c0-5.01-2.85-8.22-7.29-8.22-4.44 0-7.29 3.21-7.29 8.22 0 5.01 2.85 8.22 7.29 8.22 4.44 0 7.29-3.21 7.29-8.22zm6.475 2.49v.9c0 3.12 2.04 4.92 4.62 4.92 2.76 0 4.35-2.07 4.35-5.37 0-3.3-1.59-5.37-4.35-5.37-2.58 0-4.62 1.8-4.62 4.92zm.06 4.11v7.95h-1.83V55.73h1.83v2.88c.57-1.65 2.28-3.24 4.8-3.24 3.87 0 6.03 3.03 6.03 6.87 0 3.84-2.16 6.87-6.03 6.87-2.52 0-4.23-1.56-4.8-3.21zm15.205-4.11v.9c0 3.12 2.04 4.92 4.62 4.92 2.76 0 4.35-2.07 4.35-5.37 0-3.3-1.59-5.37-4.35-5.37-2.58 0-4.62 1.8-4.62 4.92zm.06 4.11v7.95h-1.83V55.73h1.83v2.88c.57-1.65 2.28-3.24 4.8-3.24 3.87 0 6.03 3.03 6.03 6.87 0 3.84-2.16 6.87-6.03 6.87-2.52 0-4.23-1.56-4.8-3.21zm14.575-3.66c0 3.18 1.68 5.43 4.59 5.43 2.94 0 4.62-2.25 4.62-5.43 0-3.18-1.68-5.43-4.62-5.43-2.91 0-4.59 2.25-4.59 5.43zm11.13 0c0 4.05-2.82 6.87-6.54 6.87-3.69 0-6.51-2.82-6.51-6.87 0-4.05 2.82-6.87 6.51-6.87 3.72 0 6.54 2.82 6.54 6.87zm10.045-6.27l-.21 1.59c-.75-.39-1.2-.51-1.98-.51-1.89 0-3.42 1.95-3.42 4.56v7.14h-1.83V55.73h1.83v2.73c.51-1.5 1.83-3.09 3.75-3.09.81 0 1.38.18 1.86.6zm2.575 9.9v-8.79h-2.01v-.9l.78-.15c1.2-.24 1.44-.81 1.71-2.07l.39-1.86h.93v3.63h3.78v1.35h-3.78v8.82c0 1.17.48 1.74 1.68 1.74.9 0 1.8-.45 2.55-.9v1.29c-.93.72-1.86 1.08-3.18 1.08-1.74 0-2.85-.87-2.85-3.24zm17.005-2.34v-7.8h1.83v13.02h-1.83v-2.4c-.63 1.59-2.37 2.76-4.32 2.76-3.36 0-4.68-2.19-4.68-5.31v-8.07h1.83v8.13c0 2.31 1.11 3.81 3.33 3.81 2.07 0 3.84-1.62 3.84-4.14zm7.135-2.58v7.8h-1.83V55.73h1.83v2.4c.63-1.59 2.43-2.76 4.38-2.76 3.36 0 4.77 2.19 4.77 5.31v8.07h-1.83v-8.13c0-2.31-1.2-3.81-3.42-3.81-2.07 0-3.9 1.62-3.9 4.14zm12.475-5.22h1.83v13.02h-1.83V55.73zm-.06-3.45v-2.43h1.95v2.43h-1.95zm5.815 13.59v-8.79h-2.01v-.9l.78-.15c1.2-.24 1.44-.81 1.71-2.07l.39-1.86h.93v3.63h3.78v1.35h-3.78v8.82c0 1.17.48 1.74 1.68 1.74.9 0 1.8-.45 2.55-.9v1.29c-.93.72-1.86 1.08-3.18 1.08-1.74 0-2.85-.87-2.85-3.24zm11.785 7.98h-1.8l2.19-5.19-5.52-12.93h1.92l4.47 10.71h.12l4.32-10.71h1.8l-7.5 18.12z"/></g></svg>