<?xml version="1.0" encoding="UTF-8" standalone="no"?>
<svg width="49px" height="22px" viewBox="0 0 49 22" version="1.1" xmlns="http://www.w3.org/2000/svg" xmlns:xlink="http://www.w3.org/1999/xlink">
    <!-- Generator: Sketch 48.2 (47327) - http://www.bohemiancoding.com/sketch -->
    <title>charity navigator</title>
    <desc>Created with Sketch.</desc>
    <defs></defs>
    <g id="Page-1" stroke="none" stroke-width="1" fill="none" fill-rule="evenodd">
        <g id="charity-navigator">
            <rect id="Rectangle-11" fill="#FFFFFF" x="0" y="0" width="49" height="22" rx="2"></rect>
            <path d="M10.2380001,7.11 C10.2380001,5.946 11.0720001,5.148 12.1760001,5.148 C13.3340001,5.148 13.9520001,5.886 14.0240001,6.828 L13.0460001,6.864 C12.9860001,6.444 12.7580001,6.054 12.1700001,6.054 C11.6120001,6.054 11.2880001,6.468 11.2880001,7.11 C11.2880001,7.752 11.6120001,8.166 12.1700001,8.166 C12.7580001,8.166 12.9860001,7.776 13.0460001,7.356 L14.0240001,7.398 C13.9520001,8.34 13.3340001,9.072 12.1760001,9.072 C11.0720001,9.072 10.2380001,8.274 10.2380001,7.11 Z M16.2200001,9 L15.2000001,9 L15.2000001,5.22 L16.2200001,5.22 L16.2200001,6.678 L17.7260001,6.678 L17.7260001,5.22 L18.7460001,5.22 L18.7460001,9 L17.7260001,9 L17.7260001,7.506 L16.2200001,7.506 L16.2200001,9 Z M21.3200001,5.22 L22.4600001,5.22 L23.9660001,9 L22.8800001,9 L22.5980001,8.268 L21.1220001,8.268 L20.8400001,9 L19.8140001,9 L21.3200001,5.22 Z M21.8480001,6.39 L21.4160001,7.506 L22.3040001,7.506 L21.8720001,6.39 L21.8480001,6.39 Z M28.46,9 L27.428,9 C27.35,8.898 27.302,8.664 27.272,8.274 C27.242,7.842 27.056,7.746 26.714,7.746 L26.036,7.746 L26.036,9 L25.034,9 L25.034,5.22 L26.942,5.22 C27.92,5.22 28.406,5.682 28.406,6.42 C28.406,6.972 28.064,7.332 27.602,7.392 C27.992,7.47 28.22,7.692 28.262,8.13 C28.316,8.694 28.334,8.862 28.46,9 Z M26.036,6.96 L26.762,6.96 C27.194,6.96 27.41,6.852 27.41,6.504 C27.41,6.198 27.194,6.036 26.762,6.036 L26.036,6.036 L26.036,6.96 Z M29.636,5.22 L30.656,5.22 L30.656,9 L29.636,9 L29.636,5.22 Z M34.184,9 L33.17,9 L33.17,6.06 L31.874,6.06 L31.874,5.22 L35.498,5.22 L35.498,6.06 L34.184,6.06 L34.184,9 Z M38.4139999,6.582 L39.2239999,5.22 L40.3219999,5.22 L38.8699999,7.566 L38.8699999,9 L37.8799999,9 L37.8799999,7.566 L36.4279999,5.22 L37.5619999,5.22 L38.4139999,6.582 Z M7.30100013,12.22 L8.77700013,14.314 L8.77700013,12.22 L9.71300013,12.22 L9.71300013,16 L8.89700013,16 L7.26500013,13.762 L7.26500013,16 L6.32900013,16 L6.32900013,12.22 L7.30100013,12.22 Z M12.2870001,12.22 L13.4270001,12.22 L14.9330001,16 L13.8470001,16 L13.5650001,15.268 L12.0890001,15.268 L11.8070001,16 L10.7810001,16 L12.2870001,12.22 Z M12.8150001,13.39 L12.3830001,14.506 L13.2710001,14.506 L12.8390001,13.39 L12.8150001,13.39 Z M17.8790001,16 L16.8050001,16 L15.3530001,12.22 L16.4210001,12.22 L17.3570001,14.734 L17.3810001,14.734 L18.3170001,12.22 L19.3310001,12.22 L17.8790001,16 Z M20.399,12.22 L21.419,12.22 L21.419,16 L20.399,16 L20.399,12.22 Z M24.443,16.072 C23.399,16.072 22.607,15.28 22.607,14.11 C22.607,12.946 23.465,12.148 24.557,12.148 C25.667,12.148 26.315,12.754 26.399,13.696 L25.409,13.732 C25.355,13.318 25.067,13.054 24.581,13.054 C23.987,13.054 23.657,13.468 23.657,14.11 C23.657,14.77 24.005,15.208 24.659,15.208 C24.989,15.208 25.313,15.07 25.463,14.77 L24.629,14.77 L24.629,14.038 L26.429,14.038 L26.429,16 L25.541,16 L25.541,15.58 C25.331,15.928 24.929,16.072 24.443,16.072 Z M28.973,12.22 L30.113,12.22 L31.619,16 L30.533,16 L30.251,15.268 L28.775,15.268 L28.493,16 L27.467,16 L28.973,12.22 Z M29.501,13.39 L29.069,14.506 L29.957,14.506 L29.525,13.39 L29.501,13.39 Z M34.349,16 L33.335,16 L33.335,13.06 L32.039,13.06 L32.039,12.22 L35.663,12.22 L35.663,13.06 L34.349,13.06 L34.349,16 Z M40.4569999,14.11 C40.4569999,15.274 39.5929999,16.072 38.4949999,16.072 C37.3969999,16.072 36.5329999,15.274 36.5329999,14.11 C36.5329999,12.946 37.3969999,12.148 38.4949999,12.148 C39.5929999,12.148 40.4569999,12.946 40.4569999,14.11 Z M39.4069999,14.11 C39.4069999,13.468 39.0529999,13.048 38.4949999,13.048 C37.9369999,13.048 37.5829999,13.468 37.5829999,14.11 C37.5829999,14.752 37.9369999,15.172 38.4949999,15.172 C39.0529999,15.172 39.4069999,14.752 39.4069999,14.11 Z M45.0709999,16 L44.0389999,16 C43.9609999,15.898 43.9129999,15.664 43.8829999,15.274 C43.8529999,14.842 43.6669999,14.746 43.3249999,14.746 L42.6469999,14.746 L42.6469999,16 L41.6449999,16 L41.6449999,12.22 L43.5529999,12.22 C44.5309999,12.22 45.0169999,12.682 45.0169999,13.42 C45.0169999,13.972 44.6749999,14.332 44.2129999,14.392 C44.6029999,14.47 44.8309999,14.692 44.8729999,15.13 C44.9269999,15.694 44.9449999,15.862 45.0709999,16 Z M42.6469999,13.96 L43.3729999,13.96 C43.8049999,13.96 44.0209999,13.852 44.0209999,13.504 C44.0209999,13.198 43.8049999,13.036 43.3729999,13.036 L42.6469999,13.036 L42.6469999,13.96 Z" fill="#050505"></path>
        </g>
    </g>
</svg>