<?xml version="1.0" encoding="UTF-8" standalone="no"?>
<svg width="455px" height="31px" viewBox="0 0 455 31" version="1.1" xmlns="http://www.w3.org/2000/svg" xmlns:xlink="http://www.w3.org/1999/xlink">
    <!-- Generator: Sketch 48.2 (47327) - http://www.bohemiancoding.com/sketch -->
    <title>Group</title>
    <desc>Created with Sketch.</desc>
    <defs></defs>
    <g id="NAV-/-with-Apply-Only" stroke="none" stroke-width="1" fill="none" fill-rule="evenodd" transform="translate(-19.000000, -19.000000)">
        <g id="Logo" transform="translate(19.000000, 19.000000)">
            <g id="Group">
                <path d="M0.923399988,19.7040901 L8.1259199,19.4732401 C8.40293989,23.1206701 11.2193099,24.3672601 14.4512098,24.3672601 C17.1752398,24.3672601 18.9296998,23.3976901 18.9296998,21.7817401 C18.9296998,20.0734501 17.2214098,19.7964301 15.0052498,19.3809001 L9.69569988,18.4575001 C4.94018994,17.5802702 1.61594998,14.9024102 1.61594998,9.82371025 C1.61594998,3.91395033 6.23294992,0.358860372 13.4816398,0.358860372 C21.5152197,0.358860372 25.8551997,4.28331032 25.9937097,10.7471102 L18.7911898,10.8856202 C18.5603398,7.88457028 16.3903498,6.49947029 13.3892998,6.49947029 C10.8037799,6.49947029 9.32633988,7.51521028 9.32633988,9.13116026 C9.32633988,10.4700902 10.4344199,10.9779602 12.2350498,11.3011502 L17.7292798,12.2707202 C23.8237197,13.3326302 26.5939197,16.5183602 26.5939197,21.2738701 C26.5939197,27.46065 21.2381997,30.55404 14.4512098,30.55404 C6.55613992,30.55404 0.923399988,26.72193 0.923399988,19.7040901 Z M50.8382993,23.5362001 L50.8382993,30 L27.9379796,30 L27.9379796,0.912900365 L50.4227693,0.912900365 L50.4227693,7.37670028 L35.6483695,7.37670028 L35.6483695,12.1322102 L47.0523593,12.1322102 L47.0523593,18.5036701 L35.6483695,18.5036701 L35.6483695,23.5362001 L50.8382993,23.5362001 Z M80.9924389,15.4564502 C80.9924389,24.4134301 74.3439589,30.55404 65.8948491,30.55404 C57.4457392,30.55404 50.7972592,24.4134301 50.7972592,15.4564502 C50.7972592,6.49947029 57.4457392,0.358860372 65.8948491,0.358860372 C74.3439589,0.358860372 80.9924389,6.49947029 80.9924389,15.4564502 Z M72.912689,15.4564502 C72.912689,10.5162602 70.188659,7.28436029 65.8948491,7.28436029 C61.6010391,7.28436029 58.8770091,10.5162602 58.8770091,15.4564502 C58.8770091,20.3966401 61.6010391,23.6285401 65.8948491,23.6285401 C70.188659,23.6285401 72.912689,20.3966401 72.912689,15.4564502 Z" id="SEO" fill="#EB0029"></path>
                <path d="M96.3687794,0.596945872 L99.5083394,0.596945872 L111.789559,29.6840455 L108.696169,29.6840455 L104.771719,20.3115356 L91.0130595,20.3115356 L87.2732896,29.6840455 L84.4107496,29.6840455 L96.3687794,0.596945872 Z M97.7077094,3.73650583 L92.0287995,17.8645257 L103.755979,17.8645257 L97.8923894,3.73650583 L97.7077094,3.73650583 Z M112.995109,0.596945872 L115.811479,0.596945872 L115.811479,29.6840455 L112.995109,29.6840455 L112.995109,0.596945872 Z M119.787229,25.2517256 L119.787229,11.7239157 L116.693839,11.7239157 L116.693839,10.3388158 L117.894259,10.1079658 C119.741059,9.73860576 120.110419,8.86137577 120.525949,6.92223579 L121.126159,4.05969583 L122.557429,4.05969583 L122.557429,9.64626576 L128.374849,9.64626576 L128.374849,11.7239157 L122.557429,11.7239157 L122.557429,25.2978956 C122.557429,27.0985255 123.296149,27.9757555 125.142949,27.9757555 C126.528049,27.9757555 127.913149,27.2832055 129.067399,26.5906555 L129.067399,28.5759655 C127.636129,29.6840455 126.204859,30.2380855 124.173379,30.2380855 C121.495519,30.2380855 119.787229,28.8991555 119.787229,25.2517256 Z M145.647559,22.5276956 L148.048399,22.8508856 C147.078829,27.4217155 143.754589,30.2380855 138.860569,30.2380855 C133.043149,30.2380855 128.703169,26.1289556 128.703169,19.9421756 C128.703169,13.6168857 132.996979,9.09222577 138.675889,9.09222577 C144.955009,9.09222577 148.094569,13.6168857 148.094569,19.0649456 L148.094569,20.3577056 L131.611879,20.3577056 C131.796559,24.7900256 134.889949,27.9295855 138.860569,27.9295855 C142.554169,27.9295855 144.816499,26.0827856 145.647559,22.5276956 Z M131.658049,18.3723956 L145.093519,18.3723956 C145.001179,14.6787957 142.923529,11.3083857 138.675889,11.3083857 C134.705269,11.3083857 132.119749,14.6326257 131.658049,18.3723956 Z M161.488998,10.0156258 L161.165808,12.4626357 C160.011558,11.8624257 159.319008,11.6777457 158.118588,11.6777457 C155.209878,11.6777457 152.855208,14.6787957 152.855208,18.6955856 L152.855208,29.6840455 L150.038839,29.6840455 L150.038839,9.64626576 L152.855208,9.64626576 L152.855208,13.8477357 C153.640098,11.5392357 155.671578,9.09222577 158.626458,9.09222577 C159.873048,9.09222577 160.750278,9.36924576 161.488998,10.0156258 Z M165.049218,17.6798457 L165.049218,29.6840455 L162.232848,29.6840455 L162.232848,9.64626576 L165.049218,9.64626576 L165.049218,13.3398657 C166.018788,10.8928557 168.788988,9.09222577 171.790038,9.09222577 C176.961078,9.09222577 179.131068,12.4626357 179.131068,17.2643157 L179.131068,29.6840455 L176.314698,29.6840455 L176.314698,17.1719757 C176.314698,13.6168857 174.467898,11.3083857 171.051318,11.3083857 C167.865588,11.3083857 165.049218,13.8015657 165.049218,17.6798457 Z M194.926338,20.5885556 L194.926338,19.3419656 L190.032318,20.4038756 C186.384888,21.1887656 184.122558,21.9274856 184.122558,24.6053456 C184.122558,26.4983155 185.369148,28.0680955 188.000838,28.0680955 C191.925288,28.0680955 194.926338,25.0670456 194.926338,20.5885556 Z M197.604198,16.6641057 L197.604198,26.3136355 C197.604198,27.3755455 198.250578,27.8834155 199.266318,27.8834155 C199.728018,27.8834155 200.512908,27.6987355 201.066948,27.3755455 L201.066948,28.8991555 C200.466738,29.5917055 199.820358,30.0995755 198.435258,30.0995755 C196.449948,30.0995755 195.018678,28.3912855 194.926338,25.8519356 C193.864428,28.2066055 190.909548,30.2380855 187.492968,30.2380855 C183.753198,30.2380855 181.260018,28.1604355 181.260018,24.6976856 C181.260018,20.9117456 184.584258,19.3881356 189.570618,18.3723956 L194.926338,17.2643157 L194.926338,16.2485757 C194.926338,13.2013557 193.125708,11.3083857 189.986148,11.3083857 C186.754248,11.3083857 184.953618,13.2013557 184.261068,15.7868757 L181.860228,15.3251757 C182.645118,11.7239157 185.599998,9.09222577 189.939978,9.09222577 C194.926338,9.09222577 197.604198,11.7239157 197.604198,16.6641057 Z M202.457178,25.2517256 L202.457178,11.7239157 L199.363788,11.7239157 L199.363788,10.3388158 L200.564208,10.1079658 C202.411008,9.73860576 202.780368,8.86137577 203.195898,6.92223579 L203.796108,4.05969583 L205.227378,4.05969583 L205.227378,9.64626576 L211.044798,9.64626576 L211.044798,11.7239157 L205.227378,11.7239157 L205.227378,25.2978956 C205.227378,27.0985255 205.966098,27.9757555 207.812898,27.9757555 C209.197998,27.9757555 210.583098,27.2832055 211.737348,26.5906555 L211.737348,28.5759655 C210.306078,29.6840455 208.874808,30.2380855 206.843328,30.2380855 C204.165468,30.2380855 202.457178,28.8991555 202.457178,25.2517256 Z M212.942898,9.64626576 L215.759267,9.64626576 L215.759267,29.6840455 L212.942898,29.6840455 L212.942898,9.64626576 Z M212.850558,4.33671583 L212.850558,0.596945872 L215.851607,0.596945872 L215.851607,4.33671583 L212.850558,4.33671583 Z M227.491577,29.6840455 L225.229247,29.6840455 L216.733967,9.64626576 L219.688847,9.64626576 L226.429667,25.8981056 L226.614347,25.8981056 L233.216657,9.64626576 L235.986857,9.64626576 L227.491577,29.6840455 Z M252.243827,22.5276956 L254.644667,22.8508856 C253.675097,27.4217155 250.350857,30.2380855 245.456837,30.2380855 C239.639417,30.2380855 235.299437,26.1289556 235.299437,19.9421756 C235.299437,13.6168857 239.593247,9.09222577 245.272157,9.09222577 C251.551277,9.09222577 254.690837,13.6168857 254.690837,19.0649456 L254.690837,20.3577056 L238.208147,20.3577056 C238.392827,24.7900256 241.486217,27.9295855 245.456837,27.9295855 C249.150437,27.9295855 251.412767,26.0827856 252.243827,22.5276956 Z M238.254317,18.3723956 L251.689787,18.3723956 C251.597447,14.6787957 249.519797,11.3083857 245.272157,11.3083857 C241.301537,11.3083857 238.716017,14.6326257 238.254317,18.3723956 Z M262.919357,0.596945872 L265.828067,0.596945872 L265.828067,29.6840455 L262.919357,29.6840455 L262.919357,0.596945872 Z M272.158486,17.6798457 L272.158486,29.6840455 L269.342116,29.6840455 L269.342116,9.64626576 L272.158486,9.64626576 L272.158486,13.3398657 C273.128056,10.8928557 275.898256,9.09222577 278.899306,9.09222577 C284.070346,9.09222577 286.240336,12.4626357 286.240336,17.2643157 L286.240336,29.6840455 L283.423966,29.6840455 L283.423966,17.1719757 C283.423966,13.6168857 281.577166,11.3083857 278.160586,11.3083857 C274.974856,11.3083857 272.158486,13.8015657 272.158486,17.6798457 Z M297.510946,29.6840455 L295.248616,29.6840455 L286.753336,9.64626576 L289.708216,9.64626576 L296.449036,25.8981056 L296.633716,25.8981056 L303.236026,9.64626576 L306.006226,9.64626576 L297.510946,29.6840455 Z M322.263196,22.5276956 L324.664036,22.8508856 C323.694466,27.4217155 320.370226,30.2380855 315.476206,30.2380855 C309.658786,30.2380855 305.318806,26.1289556 305.318806,19.9421756 C305.318806,13.6168857 309.612616,9.09222577 315.291526,9.09222577 C321.570646,9.09222577 324.710206,13.6168857 324.710206,19.0649456 L324.710206,20.3577056 L308.227516,20.3577056 C308.412196,24.7900256 311.505586,27.9295855 315.476206,27.9295855 C319.169806,27.9295855 321.432136,26.0827856 322.263196,22.5276956 Z M308.273686,18.3723956 L321.709156,18.3723956 C321.616816,14.6787957 319.539166,11.3083857 315.291526,11.3083857 C311.320906,11.3083857 308.735386,14.6326257 308.273686,18.3723956 Z M325.454056,22.8970556 L327.716386,22.6200356 C328.131916,26.0827856 330.486586,28.0219255 334.318695,28.0219255 C337.412085,28.0219255 339.582075,26.8676755 339.582075,24.5130056 C339.582075,22.2968456 338.012295,21.6042956 335.195925,21.0964256 L331.733176,20.4962156 C328.224256,19.8960056 326.054266,18.2800557 326.054266,15.0481557 C326.054266,11.4468957 329.055316,9.09222577 333.441466,9.09222577 C338.612505,9.09222577 341.613555,11.5392357 341.936745,16.2947457 L339.766755,16.4794257 C339.258885,12.8781657 337.135065,11.3083857 333.441466,11.3083857 C330.578926,11.3083857 328.685956,12.6011457 328.685956,14.7249657 C328.685956,16.6641057 329.840206,17.6336757 332.333386,18.0492057 L336.026985,18.6494156 C339.951435,19.2957956 342.259935,20.6808956 342.259935,24.2359856 C342.259935,28.1604355 338.751015,30.2380855 334.364865,30.2380855 C329.517016,30.2380855 325.777246,27.8372455 325.454056,22.8970556 Z M344.942925,25.2517256 L344.942925,11.7239157 L341.849535,11.7239157 L341.849535,10.3388158 L343.049955,10.1079658 C344.896755,9.73860576 345.266115,8.86137577 345.681645,6.92223579 L346.281855,4.05969583 L347.713125,4.05969583 L347.713125,9.64626576 L353.530545,9.64626576 L353.530545,11.7239157 L347.713125,11.7239157 L347.713125,25.2978956 C347.713125,27.0985255 348.451845,27.9757555 350.298645,27.9757555 C351.683745,27.9757555 353.068845,27.2832055 354.223095,26.5906555 L354.223095,28.5759655 C352.791825,29.6840455 351.360555,30.2380855 349.329075,30.2380855 C346.651215,30.2380855 344.942925,28.8991555 344.942925,25.2517256 Z M371.357295,13.5245457 C372.419205,10.9851957 374.912385,9.09222577 378.051945,9.09222577 C383.222985,9.09222577 385.115955,12.6473157 385.115955,17.2643157 L385.115955,29.6840455 L382.299585,29.6840455 L382.299585,17.1719757 C382.299585,13.6168857 380.683635,11.3083857 377.359395,11.3083857 C374.358345,11.3083857 371.680485,13.8015657 371.680485,17.6798457 L371.680485,29.6840455 L368.864115,29.6840455 L368.864115,17.1719757 C368.864115,13.6168857 367.248165,11.3083857 363.923925,11.3083857 C360.922875,11.3083857 358.245015,13.8015657 358.245015,17.6798457 L358.245015,29.6840455 L355.428645,29.6840455 L355.428645,9.64626576 L358.245015,9.64626576 L358.245015,13.3398657 C359.214585,10.8928557 361.615425,9.09222577 364.708815,9.09222577 C368.263905,9.09222577 370.480065,10.8466857 371.357295,13.5245457 Z M403.773764,22.5276956 L406.174604,22.8508856 C405.205034,27.4217155 401.880794,30.2380855 396.986775,30.2380855 C391.169355,30.2380855 386.829375,26.1289556 386.829375,19.9421756 C386.829375,13.6168857 391.123185,9.09222577 396.802095,9.09222577 C403.081214,9.09222577 406.220774,13.6168857 406.220774,19.0649456 L406.220774,20.3577056 L389.738085,20.3577056 C389.922765,24.7900256 393.016155,27.9295855 396.986775,27.9295855 C400.680374,27.9295855 402.942704,26.0827856 403.773764,22.5276956 Z M389.784255,18.3723956 L403.219724,18.3723956 C403.127384,14.6787957 401.049734,11.3083857 396.802095,11.3083857 C392.831475,11.3083857 390.245955,14.6326257 389.784255,18.3723956 Z M410.981414,17.6798457 L410.981414,29.6840455 L408.165044,29.6840455 L408.165044,9.64626576 L410.981414,9.64626576 L410.981414,13.3398657 C411.950984,10.8928557 414.721184,9.09222577 417.722234,9.09222577 C422.893274,9.09222577 425.063264,12.4626357 425.063264,17.2643157 L425.063264,29.6840455 L422.246894,29.6840455 L422.246894,17.1719757 C422.246894,13.6168857 420.400094,11.3083857 416.983514,11.3083857 C413.797784,11.3083857 410.981414,13.8015657 410.981414,17.6798457 Z M428.808164,25.2517256 L428.808164,11.7239157 L425.714774,11.7239157 L425.714774,10.3388158 L426.915194,10.1079658 C428.761994,9.73860576 429.131354,8.86137577 429.546884,6.92223579 L430.147094,4.05969583 L431.578364,4.05969583 L431.578364,9.64626576 L437.395784,9.64626576 L437.395784,11.7239157 L431.578364,11.7239157 L431.578364,25.2978956 C431.578364,27.0985255 432.317084,27.9757555 434.163884,27.9757555 C435.548984,27.9757555 436.934084,27.2832055 438.088334,26.5906555 L438.088334,28.5759655 C436.657064,29.6840455 435.225794,30.2380855 433.194314,30.2380855 C430.516454,30.2380855 428.808164,28.8991555 428.808164,25.2517256 Z M437.862614,22.8970556 L440.124944,22.6200356 C440.540474,26.0827856 442.895144,28.0219255 446.727254,28.0219255 C449.820644,28.0219255 451.990634,26.8676755 451.990634,24.5130056 C451.990634,22.2968456 450.420854,21.6042956 447.604484,21.0964256 L444.141734,20.4962156 C440.632814,19.8960056 438.462824,18.2800557 438.462824,15.0481557 C438.462824,11.4468957 441.463874,9.09222577 445.850024,9.09222577 C451.021064,9.09222577 454.022114,11.5392357 454.345304,16.2947457 L452.175314,16.4794257 C451.667444,12.8781657 449.543624,11.3083857 445.850024,11.3083857 C442.987484,11.3083857 441.094514,12.6011457 441.094514,14.7249657 C441.094514,16.6641057 442.248764,17.6336757 444.741944,18.0492057 L448.435544,18.6494156 C452.359994,19.2957956 454.668494,20.6808956 454.668494,24.2359856 C454.668494,28.1604355 451.159574,30.2380855 446.773424,30.2380855 C441.925574,30.2380855 438.185804,27.8372455 437.862614,22.8970556 Z" id="Alternative-Investme" fill="#050505"></path>
            </g>
        </g>
    </g>
</svg>