<?xml version="1.0" encoding="UTF-8" standalone="no"?>
<svg width="224px" height="31px" viewBox="0 0 224 31" version="1.1" xmlns="http://www.w3.org/2000/svg" xmlns:xlink="http://www.w3.org/1999/xlink">
    <!-- Generator: Sketch 48.2 (47327) - http://www.bohemiancoding.com/sketch -->
    <title>Group</title>
    <desc>Created with Sketch.</desc>
    <defs></defs>
    <g id="Content-Detail---Rich-(Everything)" stroke="none" stroke-width="1" fill="none" fill-rule="evenodd" transform="translate(-22.000000, -22.000000)">
        <g id="Nav" transform="translate(-97.000000, 0.000000)">
            <g id="Group" transform="translate(119.000000, 22.000000)">
                <path d="M0.923399988,19.7040901 L8.1259199,19.4732401 C8.40293989,23.1206701 11.2193099,24.3672601 14.4512098,24.3672601 C17.1752398,24.3672601 18.9296998,23.3976901 18.9296998,21.7817401 C18.9296998,20.0734501 17.2214098,19.7964301 15.0052498,19.3809001 L9.69569988,18.4575001 C4.94018994,17.5802702 1.61594998,14.9024102 1.61594998,9.82371025 C1.61594998,3.91395033 6.23294992,0.358860372 13.4816398,0.358860372 C21.5152197,0.358860372 25.8551997,4.28331032 25.9937097,10.7471102 L18.7911898,10.8856202 C18.5603398,7.88457028 16.3903498,6.49947029 13.3892998,6.49947029 C10.8037799,6.49947029 9.32633988,7.51521028 9.32633988,9.13116026 C9.32633988,10.4700902 10.4344199,10.9779602 12.2350498,11.3011502 L17.7292798,12.2707202 C23.8237197,13.3326302 26.5939197,16.5183602 26.5939197,21.2738701 C26.5939197,27.46065 21.2381997,30.55404 14.4512098,30.55404 C6.55613992,30.55404 0.923399988,26.72193 0.923399988,19.7040901 Z M50.8382993,23.5362001 L50.8382993,30 L27.9379796,30 L27.9379796,0.912900365 L50.4227693,0.912900365 L50.4227693,7.37670028 L35.6483695,7.37670028 L35.6483695,12.1322102 L47.0523593,12.1322102 L47.0523593,18.5036701 L35.6483695,18.5036701 L35.6483695,23.5362001 L50.8382993,23.5362001 Z M80.9924389,15.4564502 C80.9924389,24.4134301 74.3439589,30.55404 65.8948491,30.55404 C57.4457392,30.55404 50.7972592,24.4134301 50.7972592,15.4564502 C50.7972592,6.49947029 57.4457392,0.358860372 65.8948491,0.358860372 C74.3439589,0.358860372 80.9924389,6.49947029 80.9924389,15.4564502 Z M72.912689,15.4564502 C72.912689,10.5162602 70.188659,7.28436029 65.8948491,7.28436029 C61.6010391,7.28436029 58.8770091,10.5162602 58.8770091,15.4564502 C58.8770091,20.3966401 61.6010391,23.6285401 65.8948491,23.6285401 C70.188659,23.6285401 72.912689,20.3966401 72.912689,15.4564502 Z" id="SEO" fill="#EB0029"></path>
                <path d="M84.7339396,19.2496256 L87.3656296,19.0187756 C87.5964796,24.7900256 91.4747595,27.9757555 96.7843094,27.9757555 C101.585989,27.9757555 104.587039,25.8519356 104.587039,22.2506756 C104.587039,19.2957956 102.832579,17.7260157 98.6311094,16.8949557 L92.7213495,15.7407057 C88.5660495,14.9096457 85.7035096,12.6934857 85.7035096,8.30733578 C85.7035096,3.50565584 89.5356195,0.0429058793 95.6762295,0.0429058793 C102.740239,0.0429058793 106.941709,3.92118583 106.941709,10.4773257 L104.263849,10.7081757 C104.171509,5.39862581 101.031949,2.30523585 95.7223995,2.30523585 C91.1053995,2.30523585 88.5198795,4.56756582 88.5198795,8.21499578 C88.5198795,11.4930657 90.5975295,12.5549757 94.4296395,13.2936957 L99.6006794,14.3094357 C104.725549,15.3251757 107.357239,17.4028257 107.357239,22.0198256 C107.357239,27.1446955 102.924919,30.2380855 96.7843094,30.2380855 C89.8588095,30.2380855 84.7339396,26.3136355 84.7339396,19.2496256 Z M108.470449,19.6651556 C108.470449,13.2936957 112.625749,9.09222577 118.581679,9.09222577 C124.399099,9.09222577 127.538659,13.0166757 127.908019,17.8645257 L125.322499,18.0492057 C125.045479,14.2170957 122.690809,11.4468957 118.489339,11.4468957 C114.287869,11.4468957 111.425329,14.7249657 111.425329,19.6651556 C111.425329,24.6053456 114.287869,27.8834155 118.489339,27.8834155 C122.690809,27.8834155 125.045479,25.0208756 125.322499,21.1887656 L127.908019,21.4657856 C127.538659,26.3136355 124.399099,30.2380855 118.581679,30.2380855 C112.625749,30.2380855 108.470449,26.0366156 108.470449,19.6651556 Z M132.668659,17.6798457 L132.668659,29.6840455 L129.852289,29.6840455 L129.852289,0.596945872 L132.668659,0.596945872 L132.668659,13.3398657 C133.638229,10.8928557 136.408429,9.09222577 139.409479,9.09222577 C144.580519,9.09222577 146.750509,12.4626357 146.750509,17.2643157 L146.750509,29.6840455 L143.934139,29.6840455 L143.934139,17.1719757 C143.934139,13.6168857 142.087339,11.3083857 138.670759,11.3083857 C135.485029,11.3083857 132.668659,13.8015657 132.668659,17.6798457 Z M151.418809,19.6651556 C151.418809,24.5591756 154.004329,28.0219255 158.482818,28.0219255 C163.007478,28.0219255 165.592998,24.5591756 165.592998,19.6651556 C165.592998,14.7711357 163.007478,11.3083857 158.482818,11.3083857 C154.004329,11.3083857 151.418809,14.7711357 151.418809,19.6651556 Z M168.547878,19.6651556 C168.547878,25.8981056 164.207898,30.2380855 158.482818,30.2380855 C152.803909,30.2380855 148.463929,25.8981056 148.463929,19.6651556 C148.463929,13.4322057 152.803909,9.09222577 158.482818,9.09222577 C164.207898,9.09222577 168.547878,13.4322057 168.547878,19.6651556 Z M170.492148,0.596945872 L173.308518,0.596945872 L173.308518,29.6840455 L170.492148,29.6840455 L170.492148,0.596945872 Z M189.334638,20.5885556 L189.334638,19.3419656 L184.440618,20.4038756 C180.793188,21.1887656 178.530858,21.9274856 178.530858,24.6053456 C178.530858,26.4983155 179.777448,28.0680955 182.409138,28.0680955 C186.333588,28.0680955 189.334638,25.0670456 189.334638,20.5885556 Z M192.012498,16.6641057 L192.012498,26.3136355 C192.012498,27.3755455 192.658878,27.8834155 193.674618,27.8834155 C194.136318,27.8834155 194.921208,27.6987355 195.475248,27.3755455 L195.475248,28.8991555 C194.875038,29.5917055 194.228658,30.0995755 192.843558,30.0995755 C190.858248,30.0995755 189.426978,28.3912855 189.334638,25.8519356 C188.272728,28.2066055 185.317848,30.2380855 181.901268,30.2380855 C178.161498,30.2380855 175.668318,28.1604355 175.668318,24.6976856 C175.668318,20.9117456 178.992558,19.3881356 183.978918,18.3723956 L189.334638,17.2643157 L189.334638,16.2485757 C189.334638,13.2013557 187.534008,11.3083857 184.394448,11.3083857 C181.162548,11.3083857 179.361918,13.2013557 178.669368,15.7868757 L176.268528,15.3251757 C177.053418,11.7239157 180.008298,9.09222577 184.348278,9.09222577 C189.334638,9.09222577 192.012498,11.7239157 192.012498,16.6641057 Z M207.853938,10.0156258 L207.530748,12.4626357 C206.376498,11.8624257 205.683948,11.6777457 204.483528,11.6777457 C201.574818,11.6777457 199.220148,14.6787957 199.220148,18.6955856 L199.220148,29.6840455 L196.403778,29.6840455 L196.403778,9.64626576 L199.220148,9.64626576 L199.220148,13.8477357 C200.005038,11.5392357 202.036518,9.09222577 204.991398,9.09222577 C206.237988,9.09222577 207.115218,9.36924576 207.853938,10.0156258 Z M206.935668,22.8970556 L209.197998,22.6200356 C209.613528,26.0827856 211.968198,28.0219255 215.800308,28.0219255 C218.893697,28.0219255 221.063687,26.8676755 221.063687,24.5130056 C221.063687,22.2968456 219.493907,21.6042956 216.677538,21.0964256 L213.214788,20.4962156 C209.705868,19.8960056 207.535878,18.2800557 207.535878,15.0481557 C207.535878,11.4468957 210.536928,9.09222577 214.923078,9.09222577 C220.094117,9.09222577 223.095167,11.5392357 223.418357,16.2947457 L221.248367,16.4794257 C220.740497,12.8781657 218.616677,11.3083857 214.923078,11.3083857 C212.060538,11.3083857 210.167568,12.6011457 210.167568,14.7249657 C210.167568,16.6641057 211.321818,17.6336757 213.814998,18.0492057 L217.508598,18.6494156 C221.433047,19.2957956 223.741547,20.6808956 223.741547,24.2359856 C223.741547,28.1604355 220.232627,30.2380855 215.846478,30.2380855 C210.998628,30.2380855 207.258858,27.8372455 206.935668,22.8970556 Z" id="Scholars" fill="#050505"></path>
            </g>
        </g>
    </g>
</svg>