<?xml version="1.0" encoding="UTF-8" standalone="no"?>
<svg width="205px" height="31px" viewBox="0 0 205 31" version="1.1" xmlns="http://www.w3.org/2000/svg" xmlns:xlink="http://www.w3.org/1999/xlink">
    <!-- Generator: Sketch 48.2 (47327) - http://www.bohemiancoding.com/sketch -->
    <title>Group</title>
    <desc>Created with Sketch.</desc>
    <defs></defs>
    <g id="NAV-/-with-Apply-&amp;-Sign-in-Buttons" stroke="none" stroke-width="1" fill="none" fill-rule="evenodd" transform="translate(-19.000000, -19.000000)">
        <g id="Group" transform="translate(19.000000, 19.000000)">
            <path d="M0.923399988,19.7040901 L8.1259199,19.4732401 C8.40293989,23.1206701 11.2193099,24.3672601 14.4512098,24.3672601 C17.1752398,24.3672601 18.9296998,23.3976901 18.9296998,21.7817401 C18.9296998,20.0734501 17.2214098,19.7964301 15.0052498,19.3809001 L9.69569988,18.4575001 C4.94018994,17.5802702 1.61594998,14.9024102 1.61594998,9.82371025 C1.61594998,3.91395033 6.23294992,0.358860372 13.4816398,0.358860372 C21.5152197,0.358860372 25.8551997,4.28331032 25.9937097,10.7471102 L18.7911898,10.8856202 C18.5603398,7.88457028 16.3903498,6.49947029 13.3892998,6.49947029 C10.8037799,6.49947029 9.32633988,7.51521028 9.32633988,9.13116026 C9.32633988,10.4700902 10.4344199,10.9779602 12.2350498,11.3011502 L17.7292798,12.2707202 C23.8237197,13.3326302 26.5939197,16.5183602 26.5939197,21.2738701 C26.5939197,27.46065 21.2381997,30.55404 14.4512098,30.55404 C6.55613992,30.55404 0.923399988,26.72193 0.923399988,19.7040901 Z M50.8382993,23.5362001 L50.8382993,30 L27.9379796,30 L27.9379796,0.912900365 L50.4227693,0.912900365 L50.4227693,7.37670028 L35.6483695,7.37670028 L35.6483695,12.1322102 L47.0523593,12.1322102 L47.0523593,18.5036701 L35.6483695,18.5036701 L35.6483695,23.5362001 L50.8382993,23.5362001 Z M80.9924389,15.4564502 C80.9924389,24.4134301 74.3439589,30.55404 65.8948491,30.55404 C57.4457392,30.55404 50.7972592,24.4134301 50.7972592,15.4564502 C50.7972592,6.49947029 57.4457392,0.358860372 65.8948491,0.358860372 C74.3439589,0.358860372 80.9924389,6.49947029 80.9924389,15.4564502 Z M72.912689,15.4564502 C72.912689,10.5162602 70.188659,7.28436029 65.8948491,7.28436029 C61.6010391,7.28436029 58.8770091,10.5162602 58.8770091,15.4564502 C58.8770091,20.3966401 61.6010391,23.6285401 65.8948491,23.6285401 C70.188659,23.6285401 72.912689,20.3966401 72.912689,15.4564502 Z" id="SEO" fill="#EB0029"></path>
            <path d="M85.3341496,15.1404957 C85.3341496,6.1835158 91.5209295,0.0429058793 99.4621694,0.0429058793 C107.588089,0.0429058793 112.297429,5.02926582 112.805299,12.5549757 L109.988929,12.6934857 C109.711909,6.78372579 105.879799,2.48991585 99.4621694,2.48991585 C93.0907095,2.48991585 88.3813696,7.33776579 88.3813696,15.1404957 C88.3813696,22.9432256 93.0907095,27.7910755 99.4621694,27.7910755 C105.879799,27.7910755 109.711909,23.4972656 109.988929,17.5875057 L112.805299,17.7260157 C112.297429,25.2517256 107.588089,30.2380855 99.4621694,30.2380855 C91.5209295,30.2380855 85.3341496,24.0974756 85.3341496,15.1404957 Z M128.934369,20.5885556 L128.934369,19.3419656 L124.040349,20.4038756 C120.392919,21.1887656 118.130589,21.9274856 118.130589,24.6053456 C118.130589,26.4983155 119.377179,28.0680955 122.008869,28.0680955 C125.933319,28.0680955 128.934369,25.0670456 128.934369,20.5885556 Z M131.612229,16.6641057 L131.612229,26.3136355 C131.612229,27.3755455 132.258609,27.8834155 133.274349,27.8834155 C133.736049,27.8834155 134.520939,27.6987355 135.074979,27.3755455 L135.074979,28.8991555 C134.474769,29.5917055 133.828389,30.0995755 132.443289,30.0995755 C130.457979,30.0995755 129.026709,28.3912855 128.934369,25.8519356 C127.872459,28.2066055 124.917579,30.2380855 121.500999,30.2380855 C117.761229,30.2380855 115.268049,28.1604355 115.268049,24.6976856 C115.268049,20.9117456 118.592289,19.3881356 123.578649,18.3723956 L128.934369,17.2643157 L128.934369,16.2485757 C128.934369,13.2013557 127.133739,11.3083857 123.994179,11.3083857 C120.762279,11.3083857 118.961649,13.2013557 118.269099,15.7868757 L115.868259,15.3251757 C116.653149,11.7239157 119.608029,9.09222577 123.948009,9.09222577 C128.934369,9.09222577 131.612229,11.7239157 131.612229,16.6641057 Z M148.710869,10.0156258 L148.387679,12.4626357 C147.233429,11.8624257 146.540879,11.6777457 145.340459,11.6777457 C142.431749,11.6777457 140.077079,14.6787957 140.077079,18.6955856 L140.077079,29.6840455 L137.260709,29.6840455 L137.260709,9.64626576 L140.077079,9.64626576 L140.077079,13.8477357 C140.861969,11.5392357 142.893449,9.09222577 145.848329,9.09222577 C147.094919,9.09222577 147.972149,9.36924576 148.710869,10.0156258 Z M165.624829,22.5276956 L168.025669,22.8508856 C167.056099,27.4217155 163.731859,30.2380855 158.837839,30.2380855 C153.020419,30.2380855 148.680439,26.1289556 148.680439,19.9421756 C148.680439,13.6168857 152.974249,9.09222577 158.653159,9.09222577 C164.932279,9.09222577 168.071839,13.6168857 168.071839,19.0649456 L168.071839,20.3577056 L151.589149,20.3577056 C151.773829,24.7900256 154.867219,27.9295855 158.837839,27.9295855 C162.531439,27.9295855 164.793769,26.0827856 165.624829,22.5276956 Z M151.635319,18.3723956 L165.070789,18.3723956 C164.978449,14.6787957 162.900799,11.3083857 158.653159,11.3083857 C154.682539,11.3083857 152.097019,14.6326257 151.635319,18.3723956 Z M187.017278,22.5276956 L189.418118,22.8508856 C188.448548,27.4217155 185.124308,30.2380855 180.230288,30.2380855 C174.412868,30.2380855 170.072888,26.1289556 170.072888,19.9421756 C170.072888,13.6168857 174.366698,9.09222577 180.045608,9.09222577 C186.324728,9.09222577 189.464288,13.6168857 189.464288,19.0649456 L189.464288,20.3577056 L172.981598,20.3577056 C173.166278,24.7900256 176.259668,27.9295855 180.230288,27.9295855 C183.923888,27.9295855 186.186218,26.0827856 187.017278,22.5276956 Z M173.027768,18.3723956 L186.463238,18.3723956 C186.370898,14.6787957 184.293248,11.3083857 180.045608,11.3083857 C176.074988,11.3083857 173.489468,14.6326257 173.027768,18.3723956 Z M204.115918,10.0156258 L203.792728,12.4626357 C202.638478,11.8624257 201.945928,11.6777457 200.745508,11.6777457 C197.836798,11.6777457 195.482128,14.6787957 195.482128,18.6955856 L195.482128,29.6840455 L192.665758,29.6840455 L192.665758,9.64626576 L195.482128,9.64626576 L195.482128,13.8477357 C196.267018,11.5392357 198.298498,9.09222577 201.253378,9.09222577 C202.499968,9.09222577 203.377198,9.36924576 204.115918,10.0156258 Z" id="Career" fill="#050505"></path>
        </g>
    </g>
</svg>