<?xml version="1.0" encoding="UTF-8" standalone="no"?>
<svg width="81px" height="31px" viewBox="0 0 81 31" version="1.1" xmlns="http://www.w3.org/2000/svg" xmlns:xlink="http://www.w3.org/1999/xlink">
    <!-- Generator: Sketch 48.2 (47327) - http://www.bohemiancoding.com/sketch -->
    <title>SEO</title>
    <desc>Created with Sketch.</desc>
    <defs></defs>
    <g id="Nav-/-SEO" stroke="none" stroke-width="1" fill="none" fill-rule="evenodd" transform="translate(-19.000000, -16.000000)">
        <path d="M19.9234,35.7040901 L27.1259199,35.4732401 C27.4029399,39.1206701 30.2193099,40.3672601 33.4512098,40.3672601 C36.1752398,40.3672601 37.9296998,39.3976901 37.9296998,37.7817401 C37.9296998,36.0734501 36.2214098,35.7964301 34.0052498,35.3809001 L28.6956999,34.4575001 C23.9401899,33.5802702 20.61595,30.9024102 20.61595,25.8237103 C20.61595,19.9139503 25.2329499,16.3588604 32.4816398,16.3588604 C40.5152197,16.3588604 44.8551997,20.2833103 44.9937097,26.7471102 L37.7911898,26.8856202 C37.5603398,23.8845703 35.3903498,22.4994703 32.3892998,22.4994703 C29.8037799,22.4994703 28.3263399,23.5152103 28.3263399,25.1311603 C28.3263399,26.4700902 29.4344199,26.9779602 31.2350498,27.3011502 L36.7292798,28.2707202 C42.8237197,29.3326302 45.5939197,32.5183602 45.5939197,37.2738701 C45.5939197,43.46065 40.2381997,46.55404 33.4512098,46.55404 C25.5561399,46.55404 19.9234,42.72193 19.9234,35.7040901 Z M69.8382993,39.5362001 L69.8382993,46 L46.9379796,46 L46.9379796,16.9129004 L69.4227693,16.9129004 L69.4227693,23.3767003 L54.6483695,23.3767003 L54.6483695,28.1322102 L66.0523593,28.1322102 L66.0523593,34.5036701 L54.6483695,34.5036701 L54.6483695,39.5362001 L69.8382993,39.5362001 Z M99.9924389,31.4564502 C99.9924389,40.4134301 93.3439589,46.55404 84.8948491,46.55404 C76.4457392,46.55404 69.7972592,40.4134301 69.7972592,31.4564502 C69.7972592,22.4994703 76.4457392,16.3588604 84.8948491,16.3588604 C93.3439589,16.3588604 99.9924389,22.4994703 99.9924389,31.4564502 Z M91.912689,31.4564502 C91.912689,26.5162602 89.188659,23.2843603 84.8948491,23.2843603 C80.6010391,23.2843603 77.8770091,26.5162602 77.8770091,31.4564502 C77.8770091,36.3966401 80.6010391,39.6285401 84.8948491,39.6285401 C89.188659,39.6285401 91.912689,36.3966401 91.912689,31.4564502 Z" id="SEO" fill="#EB0029"></path>
    </g>
</svg>