<?xml version="1.0" encoding="UTF-8" standalone="no"?>
<svg width="153px" height="31px" viewBox="0 0 153 31" version="1.1" xmlns="http://www.w3.org/2000/svg" xmlns:xlink="http://www.w3.org/1999/xlink">
    <!-- Generator: Sketch 48.2 (47327) - http://www.bohemiancoding.com/sketch -->
    <title>Group</title>
    <desc>Created with Sketch.</desc>
    <defs></defs>
    <g id="Content-Detail---Rich-(Everything)" stroke="none" stroke-width="1" fill="none" fill-rule="evenodd" transform="translate(-22.000000, -22.000000)">
        <g id="Nav" transform="translate(-97.000000, 0.000000)">
            <g id="Group" transform="translate(119.000000, 22.000000)">
                <path d="M0.923399988,19.7040901 L8.1259199,19.4732401 C8.40293989,23.1206701 11.2193099,24.3672601 14.4512098,24.3672601 C17.1752398,24.3672601 18.9296998,23.3976901 18.9296998,21.7817401 C18.9296998,20.0734501 17.2214098,19.7964301 15.0052498,19.3809001 L9.69569988,18.4575001 C4.94018994,17.5802702 1.61594998,14.9024102 1.61594998,9.82371025 C1.61594998,3.91395033 6.23294992,0.358860372 13.4816398,0.358860372 C21.5152197,0.358860372 25.8551997,4.28331032 25.9937097,10.7471102 L18.7911898,10.8856202 C18.5603398,7.88457028 16.3903498,6.49947029 13.3892998,6.49947029 C10.8037799,6.49947029 9.32633988,7.51521028 9.32633988,9.13116026 C9.32633988,10.4700902 10.4344199,10.9779602 12.2350498,11.3011502 L17.7292798,12.2707202 C23.8237197,13.3326302 26.5939197,16.5183602 26.5939197,21.2738701 C26.5939197,27.46065 21.2381997,30.55404 14.4512098,30.55404 C6.55613992,30.55404 0.923399988,26.72193 0.923399988,19.7040901 Z M50.8382993,23.5362001 L50.8382993,30 L27.9379796,30 L27.9379796,0.912900365 L50.4227693,0.912900365 L50.4227693,7.37670028 L35.6483695,7.37670028 L35.6483695,12.1322102 L47.0523593,12.1322102 L47.0523593,18.5036701 L35.6483695,18.5036701 L35.6483695,23.5362001 L50.8382993,23.5362001 Z M80.9924389,15.4564502 C80.9924389,24.4134301 74.3439589,30.55404 65.8948491,30.55404 C57.4457392,30.55404 50.7972592,24.4134301 50.7972592,15.4564502 C50.7972592,6.49947029 57.4457392,0.358860372 65.8948491,0.358860372 C74.3439589,0.358860372 80.9924389,6.49947029 80.9924389,15.4564502 Z M72.912689,15.4564502 C72.912689,10.5162602 70.188659,7.28436029 65.8948491,7.28436029 C61.6010391,7.28436029 58.8770091,10.5162602 58.8770091,15.4564502 C58.8770091,20.3966401 61.6010391,23.6285401 65.8948491,23.6285401 C70.188659,23.6285401 72.912689,20.3966401 72.912689,15.4564502 Z" id="SEO" fill="#EB0029"></path>
                <path d="M86.7192496,0.596945872 L89.6279595,0.596945872 L89.6279595,27.2370355 L106.341499,27.2370355 L106.341499,29.6840455 L86.7192496,29.6840455 L86.7192496,0.596945872 Z M120.751669,20.5885556 L120.751669,19.3419656 L115.857649,20.4038756 C112.210219,21.1887656 109.947889,21.9274856 109.947889,24.6053456 C109.947889,26.4983155 111.194479,28.0680955 113.826169,28.0680955 C117.750619,28.0680955 120.751669,25.0670456 120.751669,20.5885556 Z M123.429529,16.6641057 L123.429529,26.3136355 C123.429529,27.3755455 124.075909,27.8834155 125.091649,27.8834155 C125.553349,27.8834155 126.338239,27.6987355 126.892279,27.3755455 L126.892279,28.8991555 C126.292069,29.5917055 125.645689,30.0995755 124.260589,30.0995755 C122.275279,30.0995755 120.844009,28.3912855 120.751669,25.8519356 C119.689759,28.2066055 116.734879,30.2380855 113.318299,30.2380855 C109.578529,30.2380855 107.085349,28.1604355 107.085349,24.6976856 C107.085349,20.9117456 110.409589,19.3881356 115.395949,18.3723956 L120.751669,17.2643157 L120.751669,16.2485757 C120.751669,13.2013557 118.951039,11.3083857 115.811479,11.3083857 C112.579579,11.3083857 110.778949,13.2013557 110.086399,15.7868757 L107.685559,15.3251757 C108.470449,11.7239157 111.425329,9.09222577 115.765309,9.09222577 C120.751669,9.09222577 123.429529,11.7239157 123.429529,16.6641057 Z M140.379049,9.64626576 L145.088389,25.8981056 L145.273069,25.8981056 L150.213259,9.64626576 L152.891119,9.64626576 L146.519659,29.6840455 L143.841799,29.6840455 L139.178629,13.7092257 L138.993949,13.7092257 L134.376949,29.6840455 L131.699089,29.6840455 L125.281459,9.64626576 L128.097829,9.64626576 L133.130359,25.8981056 L133.315039,25.8981056 L137.932039,9.64626576 L140.379049,9.64626576 Z" id="Law" fill="#050505"></path>
            </g>
        </g>
    </g>
</svg>