<?xml version="1.0" encoding="UTF-8" standalone="no"?>
<svg width="81px" height="31px" viewBox="0 0 81 31" version="1.1" xmlns="http://www.w3.org/2000/svg" xmlns:xlink="http://www.w3.org/1999/xlink">
    <!-- Generator: Sketch 48.2 (47327) - http://www.bohemiancoding.com/sketch -->
    <title>SEO</title>
    <desc>Created with Sketch.</desc>
    <defs></defs>
    <g id="Content-Detail---Rich-(Everything)" stroke="none" stroke-width="1" fill="none" fill-rule="evenodd" transform="translate(-22.000000, -22.000000)">
        <g id="Nav" transform="translate(-97.000000, 0.000000)" fill="#EB0029">
            <g id="Logo" transform="translate(119.000000, 21.000000)">
                <path d="M0.923399988,20.7040901 L8.1259199,20.4732401 C8.40293989,24.1206701 11.2193099,25.3672601 14.4512098,25.3672601 C17.1752398,25.3672601 18.9296998,24.3976901 18.9296998,22.7817401 C18.9296998,21.0734501 17.2214098,20.7964301 15.0052498,20.3809001 L9.69569988,19.4575001 C4.94018994,18.5802702 1.61594998,15.9024102 1.61594998,10.8237103 C1.61594998,4.91395033 6.23294992,1.35886037 13.4816398,1.35886037 C21.5152197,1.35886037 25.8551997,5.28331032 25.9937097,11.7471102 L18.7911898,11.8856202 C18.5603398,8.88457028 16.3903498,7.49947029 13.3892998,7.49947029 C10.8037799,7.49947029 9.32633988,8.51521028 9.32633988,10.1311603 C9.32633988,11.4700902 10.4344199,11.9779602 12.2350498,12.3011502 L17.7292798,13.2707202 C23.8237197,14.3326302 26.5939197,17.5183602 26.5939197,22.2738701 C26.5939197,28.46065 21.2381997,31.55404 14.4512098,31.55404 C6.55613992,31.55404 0.923399988,27.72193 0.923399988,20.7040901 Z M50.8382993,24.5362001 L50.8382993,31 L27.9379796,31 L27.9379796,1.91290036 L50.4227693,1.91290036 L50.4227693,8.37670028 L35.6483695,8.37670028 L35.6483695,13.1322102 L47.0523593,13.1322102 L47.0523593,19.5036701 L35.6483695,19.5036701 L35.6483695,24.5362001 L50.8382993,24.5362001 Z M80.9924389,16.4564502 C80.9924389,25.4134301 74.3439589,31.55404 65.8948491,31.55404 C57.4457392,31.55404 50.7972592,25.4134301 50.7972592,16.4564502 C50.7972592,7.49947029 57.4457392,1.35886037 65.8948491,1.35886037 C74.3439589,1.35886037 80.9924389,7.49947029 80.9924389,16.4564502 Z M72.912689,16.4564502 C72.912689,11.5162602 70.188659,8.28436029 65.8948491,8.28436029 C61.6010391,8.28436029 58.8770091,11.5162602 58.8770091,16.4564502 C58.8770091,21.3966401 61.6010391,24.6285401 65.8948491,24.6285401 C70.188659,24.6285401 72.912689,21.3966401 72.912689,16.4564502 Z" id="SEO"></path>
            </g>
        </g>
    </g>
</svg>