<?xml version="1.0" encoding="UTF-8" standalone="no"?>
<svg width="349px" height="75px" viewBox="0 0 349 75" version="1.1" xmlns="http://www.w3.org/2000/svg" xmlns:xlink="http://www.w3.org/1999/xlink">
    <!-- Generator: Sketch 48.2 (47327) - http://www.bohemiancoding.com/sketch -->
    <title>SEO Logo Lockup</title>
    <desc>Created with Sketch.</desc>
    <defs></defs>
    <g id="Page-1" stroke="none" stroke-width="1" fill="none" fill-rule="evenodd">
        <g id="SEO-Logo-Lockup" fill="#FFFFFF">
            <path d="M0.25,47.9125 L17.8,47.35 C18.475,56.2375 25.3375,59.275 33.2125,59.275 C39.85,59.275 44.125,56.9125 44.125,52.975 C44.125,48.8125 39.9625,48.1375 34.5625,47.125 L21.625,44.875 C10.0375,42.7375 1.9375,36.2125 1.9375,23.8375 C1.9375,9.4375 13.1875,0.775 30.85,0.775 C50.425,0.775 61,10.3375 61.3375,26.0875 L43.7875,26.425 C43.225,19.1125 37.9375,15.7375 30.625,15.7375 C24.325,15.7375 20.725,18.2125 20.725,22.15 C20.725,25.4125 23.425,26.65 27.8125,27.4375 L41.2,29.8 C56.05,32.3875 62.8,40.15 62.8,51.7375 C62.8,66.8125 49.75,74.35 33.2125,74.35 C13.975,74.35 0.25,65.0125 0.25,47.9125 Z M121.875,57.25 L121.875,73 L66.0749999,73 L66.0749999,2.125 L120.8625,2.125 L120.8625,17.875 L84.8624999,17.875 L84.8624999,29.4625 L112.65,29.4625 L112.65,44.9875 L84.8624999,44.9875 L84.8624999,57.25 L121.875,57.25 Z M195.35,37.5625 C195.35,59.3875 179.15,74.35 158.5625,74.35 C137.975,74.35 121.775,59.3875 121.775,37.5625 C121.775,15.7375 137.975,0.775 158.5625,0.775 C179.15,0.775 195.35,15.7375 195.35,37.5625 Z M175.6625,37.5625 C175.6625,25.525 169.025,17.65 158.5625,17.65 C148.1,17.65 141.4625,25.525 141.4625,37.5625 C141.4625,49.6 148.1,57.475 158.5625,57.475 C169.025,57.475 175.6625,49.6 175.6625,37.5625 Z" id="SEO"></path>
            <path d="M211.66,13.97 L213.37,13.82 C213.52,17.57 216.04,19.64 219.49,19.64 C222.61,19.64 224.56,18.26 224.56,15.92 C224.56,14 223.42,12.98 220.69,12.44 L216.85,11.69 C214.15,11.15 212.29,9.71 212.29,6.86 C212.29,3.74 214.78,1.49 218.77,1.49 C223.36,1.49 226.09,4.01 226.09,8.27 L224.35,8.42 C224.29,4.97 222.25,2.96 218.8,2.96 C215.8,2.96 214.12,4.43 214.12,6.8 C214.12,8.93 215.47,9.62 217.96,10.1 L221.32,10.76 C224.65,11.42 226.36,12.77 226.36,15.77 C226.36,19.1 223.48,21.11 219.49,21.11 C214.99,21.11 211.66,18.56 211.66,13.97 Z M239.435,16.1 L240.995,16.31 C240.365,19.28 238.205,21.11 235.025,21.11 C231.245,21.11 228.425,18.44 228.425,14.42 C228.425,10.31 231.215,7.37 234.905,7.37 C238.985,7.37 241.025,10.31 241.025,13.85 L241.025,14.69 L230.315,14.69 C230.435,17.57 232.445,19.61 235.025,19.61 C237.425,19.61 238.895,18.41 239.435,16.1 Z M230.345,13.4 L239.075,13.4 C239.015,11 237.665,8.81 234.905,8.81 C232.325,8.81 230.645,10.97 230.345,13.4 Z M243.63,7.73 L245.46,7.73 L245.46,20.75 L243.63,20.75 L243.63,7.73 Z M243.57,4.28 L243.57,1.85 L245.52,1.85 L245.52,4.28 L243.57,4.28 Z M256.285,9.2 L248.335,9.2 L248.335,7.73 L258.685,7.73 L258.685,8.99 L250.315,19.28 L258.895,19.28 L258.895,20.75 L248.065,20.75 L248.065,19.49 L256.285,9.2 Z M261.44,7.73 L263.27,7.73 L263.27,20.75 L261.44,20.75 L261.44,7.73 Z M261.38,4.28 L261.38,1.85 L263.33,1.85 L263.33,4.28 L261.38,4.28 Z M268.575,12.95 L268.575,20.75 L266.745,20.75 L266.745,7.73 L268.575,7.73 L268.575,10.13 C269.205,8.54 271.005,7.37 272.955,7.37 C276.315,7.37 277.725,9.56 277.725,12.68 L277.725,20.75 L275.895,20.75 L275.895,12.62 C275.895,10.31 274.695,8.81 272.475,8.81 C270.405,8.81 268.575,10.43 268.575,12.95 Z M291.37,11.78 C291.37,14.51 289.15,16.19 286.09,16.19 C285.01,16.19 284.05,16.01 283.24,15.62 C282.7,15.89 282.16,16.43 282.16,17.12 C282.16,17.93 282.61,18.35 283.87,18.35 L288.91,18.35 C291.7,18.35 293.17,19.79 293.17,21.8 C293.17,25.01 289.66,26.21 285.85,26.21 C282.4,26.21 279.55,25.01 279.55,22.61 C279.55,21.02 280.66,20.03 282.31,19.67 C281.11,19.31 280.63,18.5 280.63,17.54 C280.63,16.43 281.41,15.68 282.46,15.14 C281.44,14.39 280.84,13.22 280.84,11.78 C280.84,9.05 283.03,7.37 286.09,7.37 C287.77,7.37 289.21,7.88 290.14,8.81 C290.83,7.76 291.97,7.04 293.35,7.04 L293.35,8.81 C292.36,8.81 291.31,9.08 290.68,9.44 C291.13,10.1 291.37,10.88 291.37,11.78 Z M281.41,22.16 C281.41,24.08 283.24,24.89 285.85,24.89 C289.09,24.89 291.4,24.11 291.4,21.86 C291.4,20.48 290.23,19.97 288.49,19.97 L284.38,19.97 C282.79,19.97 281.41,20.48 281.41,22.16 Z M289.51,11.81 C289.51,9.8 288.25,8.63 286.09,8.63 C283.99,8.63 282.73,9.8 282.73,11.81 C282.73,13.79 283.99,14.96 286.09,14.96 C288.25,14.96 289.51,13.79 289.51,11.81 Z M226.03,42.91 L226.03,44.5 L212.95,44.5 L212.95,25.6 L225.76,25.6 L225.76,27.19 L214.78,27.19 L214.78,33.91 L223.57,33.91 L223.57,35.5 L214.78,35.5 L214.78,42.91 L226.03,42.91 Z M233.345,44.5 L231.875,44.5 L226.355,31.48 L228.275,31.48 L232.655,42.04 L232.775,42.04 L237.065,31.48 L238.865,31.48 L233.345,44.5 Z M250.77,39.85 L252.33,40.06 C251.7,43.03 249.54,44.86 246.36,44.86 C242.58,44.86 239.76,42.19 239.76,38.17 C239.76,34.06 242.55,31.12 246.24,31.12 C250.32,31.12 252.36,34.06 252.36,37.6 L252.36,38.44 L241.65,38.44 C241.77,41.32 243.78,43.36 246.36,43.36 C248.76,43.36 250.23,42.16 250.77,39.85 Z M241.68,37.15 L250.41,37.15 C250.35,34.75 249,32.56 246.24,32.56 C243.66,32.56 241.98,34.72 241.68,37.15 Z M262.405,31.72 L262.195,33.31 C261.445,32.92 260.995,32.8 260.215,32.8 C258.325,32.8 256.795,34.75 256.795,37.36 L256.795,44.5 L254.965,44.5 L254.965,31.48 L256.795,31.48 L256.795,34.21 C257.305,32.71 258.625,31.12 260.545,31.12 C261.355,31.12 261.925,31.3 262.405,31.72 Z M268.16,49.6 L266.36,49.6 L268.55,44.41 L263.03,31.48 L264.95,31.48 L269.42,42.19 L269.54,42.19 L273.86,31.48 L275.66,31.48 L268.16,49.6 Z" id="Seizing-Every"></path>
            <path d="M228.59,59.3 C228.59,65.12 224.84,69.11 219.32,69.11 C213.8,69.11 210.05,65.12 210.05,59.3 C210.05,53.48 213.8,49.49 219.32,49.49 C224.84,49.49 228.59,53.48 228.59,59.3 Z M226.61,59.3 C226.61,54.29 223.76,51.08 219.32,51.08 C214.88,51.08 212.03,54.29 212.03,59.3 C212.03,64.31 214.88,67.52 219.32,67.52 C223.76,67.52 226.61,64.31 226.61,59.3 Z M233.085,61.79 L233.085,62.69 C233.085,65.81 235.125,67.61 237.705,67.61 C240.465,67.61 242.055,65.54 242.055,62.24 C242.055,58.94 240.465,56.87 237.705,56.87 C235.125,56.87 233.085,58.67 233.085,61.79 Z M233.145,65.9 L233.145,73.85 L231.315,73.85 L231.315,55.73 L233.145,55.73 L233.145,58.61 C233.715,56.96 235.425,55.37 237.945,55.37 C241.815,55.37 243.975,58.4 243.975,62.24 C243.975,66.08 241.815,69.11 237.945,69.11 C235.425,69.11 233.715,67.55 233.145,65.9 Z M248.35,61.79 L248.35,62.69 C248.35,65.81 250.39,67.61 252.97,67.61 C255.73,67.61 257.32,65.54 257.32,62.24 C257.32,58.94 255.73,56.87 252.97,56.87 C250.39,56.87 248.35,58.67 248.35,61.79 Z M248.41,65.9 L248.41,73.85 L246.58,73.85 L246.58,55.73 L248.41,55.73 L248.41,58.61 C248.98,56.96 250.69,55.37 253.21,55.37 C257.08,55.37 259.24,58.4 259.24,62.24 C259.24,66.08 257.08,69.11 253.21,69.11 C250.69,69.11 248.98,67.55 248.41,65.9 Z M262.985,62.24 C262.985,65.42 264.665,67.67 267.575,67.67 C270.515,67.67 272.195,65.42 272.195,62.24 C272.195,59.06 270.515,56.81 267.575,56.81 C264.665,56.81 262.985,59.06 262.985,62.24 Z M274.115,62.24 C274.115,66.29 271.295,69.11 267.575,69.11 C263.885,69.11 261.065,66.29 261.065,62.24 C261.065,58.19 263.885,55.37 267.575,55.37 C271.295,55.37 274.115,58.19 274.115,62.24 Z M284.16,55.97 L283.95,57.56 C283.2,57.17 282.75,57.05 281.97,57.05 C280.08,57.05 278.55,59 278.55,61.61 L278.55,68.75 L276.72,68.75 L276.72,55.73 L278.55,55.73 L278.55,58.46 C279.06,56.96 280.38,55.37 282.3,55.37 C283.11,55.37 283.68,55.55 284.16,55.97 Z M286.735,65.87 L286.735,57.08 L284.725,57.08 L284.725,56.18 L285.505,56.03 C286.705,55.79 286.945,55.22 287.215,53.96 L287.605,52.1 L288.535,52.1 L288.535,55.73 L292.315,55.73 L292.315,57.08 L288.535,57.08 L288.535,65.9 C288.535,67.07 289.015,67.64 290.215,67.64 C291.115,67.64 292.015,67.19 292.765,66.74 L292.765,68.03 C291.835,68.75 290.905,69.11 289.585,69.11 C287.845,69.11 286.735,68.24 286.735,65.87 Z M303.74,63.53 L303.74,55.73 L305.57,55.73 L305.57,68.75 L303.74,68.75 L303.74,66.35 C303.11,67.94 301.37,69.11 299.42,69.11 C296.06,69.11 294.74,66.92 294.74,63.8 L294.74,55.73 L296.57,55.73 L296.57,63.86 C296.57,66.17 297.68,67.67 299.9,67.67 C301.97,67.67 303.74,66.05 303.74,63.53 Z M310.875,60.95 L310.875,68.75 L309.045,68.75 L309.045,55.73 L310.875,55.73 L310.875,58.13 C311.505,56.54 313.305,55.37 315.255,55.37 C318.615,55.37 320.025,57.56 320.025,60.68 L320.025,68.75 L318.195,68.75 L318.195,60.62 C318.195,58.31 316.995,56.81 314.775,56.81 C312.705,56.81 310.875,58.43 310.875,60.95 Z M323.35,55.73 L325.18,55.73 L325.18,68.75 L323.35,68.75 L323.35,55.73 Z M323.29,52.28 L323.29,49.85 L325.24,49.85 L325.24,52.28 L323.29,52.28 Z M329.105,65.87 L329.105,57.08 L327.095,57.08 L327.095,56.18 L327.875,56.03 C329.075,55.79 329.315,55.22 329.585,53.96 L329.975,52.1 L330.905,52.1 L330.905,55.73 L334.685,55.73 L334.685,57.08 L330.905,57.08 L330.905,65.9 C330.905,67.07 331.385,67.64 332.585,67.64 C333.485,67.64 334.385,67.19 335.135,66.74 L335.135,68.03 C334.205,68.75 333.275,69.11 331.955,69.11 C330.215,69.11 329.105,68.24 329.105,65.87 Z M340.89,73.85 L339.09,73.85 L341.28,68.66 L335.76,55.73 L337.68,55.73 L342.15,66.44 L342.27,66.44 L346.59,55.73 L348.39,55.73 L340.89,73.85 Z" id="Opportunity"></path>
        </g>
    </g>
</svg>